<svg xmlns="http://www.w3.org/2000/svg" viewBox="0 0 20 19"><path d="M19.043 6.654H12.86L10.91.656a.93.93 0 0 0-.9-.656L10 .002V0c-.051 0-.102.016-.156.024-.039.007-.081.007-.122.019-.044.014-.084.041-.129.062s-.09.037-.131.064c-.029.02-.051.051-.079.076a.94.94 0 0 0-.286.423l-1.95 5.986H.956a.94.94 0 0 0-.589.194c-.463.361-.533 1.132.044 1.536L5.38 11.83l-1.918 5.752a1 1 0 0 0-.048.297q0 .04.004.078a.9.9 0 0 0 .056.276 1 1 0 0 0 .11.206l.016.026q.081.107.187.187.024.019.052.034a1 1 0 0 0 .25.123q.096.03.197.039c.022.002.042.008.064.008l.02.003c.052 0 .104-.016.158-.026.038-.007.076-.006.111-.018a1 1 0 0 0 .211-.104c.024-.014.049-.019.072-.036l4.492-3.234.587-.422 5.078 3.707a.94.94 0 0 0 .558.186c.599 0 1.131-.592.908-1.269l-1.92-5.811 4.96-3.446c.771-.537.394-1.73-.542-1.73" fill="#e5e5e5"/></svg>