<svg xmlns="http://www.w3.org/2000/svg" viewBox="0 0 20 19">
  <defs>
    <clipPath id="left-half">
      <path x="0" y="0" width="9" height="21.25" d="M0 0H10V23.611H0V0z"/>
    </clipPath>
    <clipPath id="right-half">
      <path x="9" y="0" width="9" height="21.25" d="M10 0H20V23.611H10V0z"/>
    </clipPath>
  </defs>
  <path clip-path="url(#left-half)" d="M19.043 6.654h-6.183L10.91 0.656a0.933 0.933 0 0 0 -0.9 -0.656L10 0.002V0c-0.051 0 -0.102 0.016 -0.156 0.024 -0.039 0.007 -0.081 0.007 -0.122 0.019 -0.044 0.014 -0.084 0.041 -0.129 0.062s-0.09 0.037 -0.131 0.064c-0.029 0.02 -0.051 0.051 -0.079 0.076a0.944 0.944 0 0 0 -0.286 0.423L7.147 6.654H0.956a0.944 0.944 0 0 0 -0.589 0.194c-0.463 0.361 -0.533 1.132 0.044 1.536l4.969 3.446 -1.918 5.752a1 1 0 0 0 -0.048 0.297q0 0.04 0.004 0.078a0.889 0.889 0 0 0 0.056 0.276 1.111 1.111 0 0 0 0.11 0.206l0.016 0.026q0.081 0.107 0.187 0.187 0.024 0.019 0.052 0.034a1.111 1.111 0 0 0 0.25 0.123q0.096 0.03 0.197 0.039c0.022 0.002 0.042 0.008 0.064 0.008l0.02 0.003c0.052 0 0.104 -0.016 0.158 -0.026 0.038 -0.007 0.076 -0.006 0.111 -0.018a1.111 1.111 0 0 0 0.211 -0.104c0.024 -0.014 0.049 -0.019 0.072 -0.036l4.492 -3.234 0.587 -0.422 5.078 3.707c0.178 0.129 0.371 0.186 0.558 0.186 0.599 0 1.131 -0.592 0.908 -1.269l-1.92 -5.811 4.96 -3.446c0.771 -0.537 0.394 -1.73 -0.542 -1.73" fill="#3d9268"/>
  <path clip-path="url(#right-half)" d="M19.043 6.654h-6.183L10.91 0.656a0.933 0.933 0 0 0 -0.9 -0.656L10 0.002V0c-0.051 0 -0.102 0.016 -0.156 0.024 -0.039 0.007 -0.081 0.007 -0.122 0.019 -0.044 0.014 -0.084 0.041 -0.129 0.062s-0.09 0.037 -0.131 0.064c-0.029 0.02 -0.051 0.051 -0.079 0.076a0.944 0.944 0 0 0 -0.286 0.423L7.147 6.654H0.956a0.944 0.944 0 0 0 -0.589 0.194c-0.463 0.361 -0.533 1.132 0.044 1.536l4.969 3.446 -1.918 5.752a1 1 0 0 0 -0.048 0.297q0 0.04 0.004 0.078a0.889 0.889 0 0 0 0.056 0.276 1.111 1.111 0 0 0 0.11 0.206l0.016 0.026q0.081 0.107 0.187 0.187 0.024 0.019 0.052 0.034a1.111 1.111 0 0 0 0.25 0.123q0.096 0.03 0.197 0.039c0.022 0.002 0.042 0.008 0.064 0.008l0.02 0.003c0.052 0 0.104 -0.016 0.158 -0.026 0.038 -0.007 0.076 -0.006 0.111 -0.018a1.111 1.111 0 0 0 0.211 -0.104c0.024 -0.014 0.049 -0.019 0.072 -0.036l4.492 -3.234 0.587 -0.422 5.078 3.707c0.178 0.129 0.371 0.186 0.558 0.186 0.599 0 1.131 -0.592 0.908 -1.269l-1.92 -5.811 4.96 -3.446c0.771 -0.537 0.394 -1.73 -0.542 -1.73" fill="#e5e5e5"/>
</svg>
