<svg id="vector" xmlns="http://www.w3.org/2000/svg" width="24" height="24" viewBox="0 0 24 24">
  <defs>
    <filter id="fe-shadow" color-interpolation-filters="sRGB">
      <feGaussianBlur stdDeviation="1" />
    </filter>
  </defs>
  <g filter="url(#fe-shadow)" opacity="0.4" transform="translate(0, 1)">
    <path fill="#000" d="M12.442,3.575m-1.781,0a1.781,1.781 0,1 1,3.562 0a1.781,1.781 0,1 1,-3.562 0"/>
    <path fill="#000" d="M18.069,6.139m-1.781,0a1.781,1.781 0,1 1,3.562 0a1.781,1.781 0,1 1,-3.562 0"/>
    <path fill="#000" d="M17.309,18.556m-1.781,0a1.781,1.781 0,1 1,3.562 0a1.781,1.781 0,1 1,-3.562 0"/>
    <path fill="#000" d="M13.465,20.308m-1.781,0a1.781,1.781 0,1 1,3.562 0a1.781,1.781 0,1 1,-3.562 0"/>
    <path fill="#000" d="M8.568,19.707m-1.781,0a1.781,1.781 0,1 1,3.562 0a1.781,1.781 0,1 1,-3.562 0"/>
    <path fill="#000" d="M4.657,16.154m-1.781,0a1.781,1.781 0,1 1,3.562 0a1.781,1.781 0,1 1,-3.562 0"/>
    <path fill="#000" d="M3.679,10.608m-1.781,0a1.781,1.781 0,1 1,3.562 0a1.781,1.781 0,1 1,-3.562 0"/>
    <path fill="#000" d="M6.634,5.49m-1.781,0a1.781,1.781 0,1 1,3.562 0a1.781,1.781 0,1 1,-3.562 0"/>
  </g>
  <path fill="#FFF" d="M12.442,3.575m-1.781,0a1.781,1.781 0,1 1,3.562 0a1.781,1.781 0,1 1,-3.562 0" id="path_0"/>
    <path fill="#FFF" d="M18.069,6.139m-1.781,0a1.781,1.781 0,1 1,3.562 0a1.781,1.781 0,1 1,-3.562 0" id="path_1"/>
    <path fill="#FFF" d="M17.309,18.556m-1.781,0a1.781,1.781 0,1 1,3.562 0a1.781,1.781 0,1 1,-3.562 0" id="path_2"/>
    <path fill="#FFF" d="M13.465,20.308m-1.781,0a1.781,1.781 0,1 1,3.562 0a1.781,1.781 0,1 1,-3.562 0" id="path_3"/>
    <path fill="#FFF" d="M8.568,19.707m-1.781,0a1.781,1.781 0,1 1,3.562 0a1.781,1.781 0,1 1,-3.562 0" id="path_4"/>
    <path fill="#FFF" d="M4.657,16.154m-1.781,0a1.781,1.781 0,1 1,3.562 0a1.781,1.781 0,1 1,-3.562 0" id="path_5"/>
    <path fill="#FFF" d="M3.679,10.608m-1.781,0a1.781,1.781 0,1 1,3.562 0a1.781,1.781 0,1 1,-3.562 0" id="path_6"/>
    <path fill="#FFF" d="M6.634,5.49m-1.781,0a1.781,1.781 0,1 1,3.562 0a1.781,1.781 0,1 1,-3.562 0" id="path_7"/>
</svg>