<svg id="vector" xmlns="http://www.w3.org/2000/svg" width="24" height="24" viewBox="0 0 24 24">
  <defs>
    <filter id="fe-shadow" color-interpolation-filters="sRGB">
      <feGaussianBlur stdDeviation="1" />
    </filter>
  </defs>
  <g filter="url(#fe-shadow)" opacity="0.4" transform="translate(0, 1)">
    <path fill="#000" d="M16.748,5.026m-1.781,0a1.781,1.781 0,1 1,3.562 0a1.781,1.781 0,1 1,-3.562 0"/>
    <path fill="#000" d="M19.822,8.84m-1.781,0a1.781,1.781 0,1 1,3.562 0a1.781,1.781 0,1 1,-3.562 0"/>
    <path fill="#000" d="M7.405,19.076m-1.781,0a1.781,1.781 0,1 1,3.562 0a1.781,1.781 0,1 1,-3.562 0"/>
    <path fill="#000" d="M4.205,15.229m-1.781,0a1.781,1.781 0,1 1,3.562 0a1.781,1.781 0,1 1,-3.562 0"/>
    <path fill="#000" d="M3.667,10.68m-1.781,0a1.781,1.781 0,1 1,3.562 0a1.781,1.781 0,1 1,-3.562 0"/>
    <path fill="#000" d="M5.397,6.748m-1.781,0a1.781,1.781 0,1 1,3.562 0a1.781,1.781 0,1 1,-3.562 0"/>
    <path fill="#000" d="M8.569,4.293m-1.781,0a1.781,1.781 0,1 1,3.562 0a1.781,1.781 0,1 1,-3.562 0"/>
    <path fill="#000" d="M12.588,3.584m-1.781,0a1.781,1.781 0,1 1,3.562 0a1.781,1.781 0,1 1,-3.562 0"/>
  </g>
  <path fill="#FFF" d="M16.748,5.026m-1.781,0a1.781,1.781 0,1 1,3.562 0a1.781,1.781 0,1 1,-3.562 0" id="path_0"/>
    <path fill="#FFF" d="M19.822,8.84m-1.781,0a1.781,1.781 0,1 1,3.562 0a1.781,1.781 0,1 1,-3.562 0" id="path_1"/>
    <path fill="#FFF" d="M7.405,19.076m-1.781,0a1.781,1.781 0,1 1,3.562 0a1.781,1.781 0,1 1,-3.562 0" id="path_2"/>
    <path fill="#FFF" d="M4.205,15.229m-1.781,0a1.781,1.781 0,1 1,3.562 0a1.781,1.781 0,1 1,-3.562 0" id="path_3"/>
    <path fill="#FFF" d="M3.667,10.68m-1.781,0a1.781,1.781 0,1 1,3.562 0a1.781,1.781 0,1 1,-3.562 0" id="path_4"/>
    <path fill="#FFF" d="M5.397,6.748m-1.781,0a1.781,1.781 0,1 1,3.562 0a1.781,1.781 0,1 1,-3.562 0" id="path_5"/>
    <path fill="#FFF" d="M8.569,4.293m-1.781,0a1.781,1.781 0,1 1,3.562 0a1.781,1.781 0,1 1,-3.562 0" id="path_6"/>
    <path fill="#FFF" d="M12.588,3.584m-1.781,0a1.781,1.781 0,1 1,3.562 0a1.781,1.781 0,1 1,-3.562 0" id="path_7"/>
</svg>