<svg id="vector" xmlns="http://www.w3.org/2000/svg" width="24" height="24" viewBox="0 0 24 24">
  <defs>
    <filter id="fe-shadow" color-interpolation-filters="sRGB">
      <feGaussianBlur stdDeviation="1" />
    </filter>
  </defs>
  <g filter="url(#fe-shadow)" opacity="0.4" transform="translate(0, 1)">
    <path fill="#000" d="M12.589,3.584m-1.781,0a1.781,1.781 0,1 1,3.562 0a1.781,1.781 0,1 1,-3.562 0"/>
    <path fill="#000" d="M18.12,6.193m-1.781,0a1.781,1.781 0,1 1,3.562 0a1.781,1.781 0,1 1,-3.562 0"/>
    <path fill="#000" d="M16.471,19.155m-1.781,0a1.781,1.781 0,1 1,3.562 0a1.781,1.781 0,1 1,-3.562 0"/>
    <path fill="#000" d="M12.442,20.425m-1.781,0a1.781,1.781 0,1 1,3.562 0a1.781,1.781 0,1 1,-3.562 0"/>
    <path fill="#000" d="M7.974,19.414m-1.781,0a1.781,1.781 0,1 1,3.562 0a1.781,1.781 0,1 1,-3.562 0"/>
    <path fill="#000" d="M4.417,15.698m-1.781,0a1.781,1.781 0,1 1,3.562 0a1.781,1.781 0,1 1,-3.562 0"/>
    <path fill="#000" d="M3.748,10.246m-1.781,0a1.781,1.781 0,1 1,3.562 0a1.781,1.781 0,1 1,-3.562 0"/>
    <path fill="#000" d="M6.864,5.307m-1.781,0a1.781,1.781 0,1 1,3.562 0a1.781,1.781 0,1 1,-3.562 0"/>
  </g>
  <path fill="#FFF" d="M12.589,3.584m-1.781,0a1.781,1.781 0,1 1,3.562 0a1.781,1.781 0,1 1,-3.562 0" id="path_0"/>
    <path fill="#FFF" d="M18.12,6.193m-1.781,0a1.781,1.781 0,1 1,3.562 0a1.781,1.781 0,1 1,-3.562 0" id="path_1"/>
    <path fill="#FFF" d="M16.471,19.155m-1.781,0a1.781,1.781 0,1 1,3.562 0a1.781,1.781 0,1 1,-3.562 0" id="path_2"/>
    <path fill="#FFF" d="M12.442,20.425m-1.781,0a1.781,1.781 0,1 1,3.562 0a1.781,1.781 0,1 1,-3.562 0" id="path_3"/>
    <path fill="#FFF" d="M7.974,19.414m-1.781,0a1.781,1.781 0,1 1,3.562 0a1.781,1.781 0,1 1,-3.562 0" id="path_4"/>
    <path fill="#FFF" d="M4.417,15.698m-1.781,0a1.781,1.781 0,1 1,3.562 0a1.781,1.781 0,1 1,-3.562 0" id="path_5"/>
    <path fill="#FFF" d="M3.748,10.246m-1.781,0a1.781,1.781 0,1 1,3.562 0a1.781,1.781 0,1 1,-3.562 0" id="path_6"/>
    <path fill="#FFF" d="M6.864,5.307m-1.781,0a1.781,1.781 0,1 1,3.562 0a1.781,1.781 0,1 1,-3.562 0" id="path_7"/>
</svg>