<svg id="vector" xmlns="http://www.w3.org/2000/svg" width="24" height="24" viewBox="0 0 24 24">
  <defs>
    <filter id="fe-shadow" color-interpolation-filters="sRGB">
      <feGaussianBlur stdDeviation="1" />
    </filter>
  </defs>
  <g filter="url(#fe-shadow)" opacity="0.4" transform="translate(0, 1)">
    <g>
        <path fill="#000" d="M19.475 2.604h-2.66c-.842 0-1.527.685-1.527 1.527v2.66c0 .842.685 1.527 1.527 1.527h2.66c.842 0 1.527-.685 1.527-1.527v-2.66c0-.842-.685-1.527-1.527-1.527m.67 4.187c0 .37-.3.67-.67.67h-2.66a.67.67 0 0 1-.67-.67v-2.66c0-.37.3-.67.67-.67h2.66c.37 0 .67.3.67.67z"/>
        <path fill="#000" d="M19.175 4.17h-2.067a.3.3 0 1 0 0 .6h2.067a.3.3 0 1 0 0-.6m0 .886h-2.067a.3.3 0 1 0 0 .6h2.067a.3.3 0 1 0 0-.6m0 .868h-2.067a.3.3 0 1 0 0 .6h2.067a.3.3 0 1 0 0-.6"/>
    </g>
    <path fill="#000" d="M16.938 10.38 7.372 3.216a2.77 2.77 0 0 0-2.931-.262A2.75 2.75 0 0 0 2.894 5.46l.009 11.951a2.785 2.785 0 0 0 1.776 2.604c.33.129.691.197 1.044.197a2.75 2.75 0 0 0 2.031-.897l2.969-3.193a.8.8 0 0 1 .5-.25l4.336-.467c1.397-.15 2.157-1.153 2.401-2.041a2.785 2.785 0 0 0-1.022-2.984m.058 2.718c-.157.571-.645 1.216-1.544 1.312l-4.335.467a1.8 1.8 0 0 0-1.126.563l-2.97 3.193a1.74 1.74 0 0 1-1.298.578 1.9 1.9 0 0 1-.678-.128c-.551-.217-1.141-.771-1.142-1.674l-.009-11.95c0-.697.371-1.299.994-1.611.262-.131.538-.196.813-.196.377 0 .75.123 1.072.365l9.566 7.163c.723.542.814 1.346.657 1.918"/>
    <path fill="#000" d="M16.339 11.18 6.773 4.017a1.78 1.78 0 0 0-1.072-.365c-.274 0-.551.065-.813.196a1.77 1.77 0 0 0-.994 1.611l.009 11.951c0 .903.59 1.457 1.142 1.674.2.078.433.128.678.128.434 0 .906-.155 1.298-.578l2.97-3.193a1.8 1.8 0 0 1 1.126-.563l4.335-.467c.899-.097 1.387-.741 1.544-1.312.157-.573.066-1.377-.657-1.919"/>
    <path fill="#000" d="M19.475 3.461h-2.66c-.37 0-.67.3-.67.67v2.66c0 .37.3.67.67.67h2.66c.37 0 .67-.3.67-.67v-2.66a.67.67 0 0 0-.67-.67m-.3 3.062h-2.067a.3.3 0 1 1 0-.6h2.067a.3.3 0 1 1 0 .6m0-.868h-2.067a.3.3 0 1 1 0-.6h2.067a.3.3 0 1 1 0 .6m0-.885h-2.067a.3.3 0 1 1 0-.6h2.067a.3.3 0 1 1 0 .6"/>
  </g>
  <g id="g_0">
        <path fill="#fff" d="M19.475 2.604h-2.66c-.842 0-1.527.685-1.527 1.527v2.66c0 .842.685 1.527 1.527 1.527h2.66c.842 0 1.527-.685 1.527-1.527v-2.66c0-.842-.685-1.527-1.527-1.527m.67 4.187c0 .37-.3.67-.67.67h-2.66a.67.67 0 0 1-.67-.67v-2.66c0-.37.3-.67.67-.67h2.66c.37 0 .67.3.67.67z"/>
        <path fill="#fff" d="M19.175 4.17h-2.067a.3.3 0 1 0 0 .6h2.067a.3.3 0 1 0 0-.6m0 .886h-2.067a.3.3 0 1 0 0 .6h2.067a.3.3 0 1 0 0-.6m0 .868h-2.067a.3.3 0 1 0 0 .6h2.067a.3.3 0 1 0 0-.6"/>
    </g>
    <path fill="#fff" d="M16.938 10.38 7.372 3.216a2.77 2.77 0 0 0-2.931-.262A2.75 2.75 0 0 0 2.894 5.46l.009 11.951a2.785 2.785 0 0 0 1.776 2.604c.33.129.691.197 1.044.197a2.75 2.75 0 0 0 2.031-.897l2.969-3.193a.8.8 0 0 1 .5-.25l4.336-.467c1.397-.15 2.157-1.153 2.401-2.041a2.785 2.785 0 0 0-1.022-2.984m.058 2.718c-.157.571-.645 1.216-1.544 1.312l-4.335.467a1.8 1.8 0 0 0-1.126.563l-2.97 3.193a1.74 1.74 0 0 1-1.298.578 1.9 1.9 0 0 1-.678-.128c-.551-.217-1.141-.771-1.142-1.674l-.009-11.95c0-.697.371-1.299.994-1.611.262-.131.538-.196.813-.196.377 0 .75.123 1.072.365l9.566 7.163c.723.542.814 1.346.657 1.918" id="path_0"/>
    <path fill="#000" d="M16.339 11.18 6.773 4.017a1.78 1.78 0 0 0-1.072-.365c-.274 0-.551.065-.813.196a1.77 1.77 0 0 0-.994 1.611l.009 11.951c0 .903.59 1.457 1.142 1.674.2.078.433.128.678.128.434 0 .906-.155 1.298-.578l2.97-3.193a1.8 1.8 0 0 1 1.126-.563l4.335-.467c.899-.097 1.387-.741 1.544-1.312.157-.573.066-1.377-.657-1.919" id="path_1"/>
    <path fill="#000" d="M19.475 3.461h-2.66c-.37 0-.67.3-.67.67v2.66c0 .37.3.67.67.67h2.66c.37 0 .67-.3.67-.67v-2.66a.67.67 0 0 0-.67-.67m-.3 3.062h-2.067a.3.3 0 1 1 0-.6h2.067a.3.3 0 1 1 0 .6m0-.868h-2.067a.3.3 0 1 1 0-.6h2.067a.3.3 0 1 1 0 .6m0-.885h-2.067a.3.3 0 1 1 0-.6h2.067a.3.3 0 1 1 0 .6" id="path_2"/>
</svg>