<svg id="vector" xmlns="http://www.w3.org/2000/svg" width="24" height="24" viewBox="0 0 24 24">
  <defs>
    <filter id="fe-shadow" color-interpolation-filters="sRGB">
      <feGaussianBlur stdDeviation="1" />
    </filter>
  </defs>
  <g filter="url(#fe-shadow)" opacity="0.4" transform="translate(0, 1)">
    <path fill="#000" d="m19.963 10.185-3.065-1.758c-1.327-.761-2.96.14-3.072 1.633h-3.651c-.113-1.492-1.746-2.394-3.072-1.633l-3.065 1.758c-1.383.793-1.383 2.786 0 3.579l3.065 1.758c1.311.752 2.918-.12 3.065-1.581h3.666c.147 1.46 1.754 2.333 3.065 1.581l3.065-1.758c1.382-.793 1.382-2.786-.001-3.579m-.498 2.712L16.4 14.655a1.065 1.065 0 0 1-1.596-.922v-.791H9.195v.791c0 .818-.886 1.33-1.596.922l-3.065-1.758a1.063 1.063 0 0 1 0-1.845l3.065-1.758a1.065 1.065 0 0 1 1.596.922v.843h5.609v-.843c0-.818.886-1.33 1.596-.922l3.065 1.758a1.063 1.063 0 0 1 0 1.845"/>
    <path fill="#000" d="M19.465 11.052 16.4 9.294a1.065 1.065 0 0 0-1.596.922v.843H9.195v-.843c0-.818-.886-1.33-1.596-.922l-3.065 1.758a1.063 1.063 0 0 0 0 1.845l3.065 1.758a1.065 1.065 0 0 0 1.596-.922v-.791h5.609v.791c0 .818.886 1.33 1.596.922l3.065-1.758a1.063 1.063 0 0 0 0-1.845"/>
  </g>
  <path fill="#fff" d="m19.963 10.185-3.065-1.758c-1.327-.761-2.96.14-3.072 1.633h-3.651c-.113-1.492-1.746-2.394-3.072-1.633l-3.065 1.758c-1.383.793-1.383 2.786 0 3.579l3.065 1.758c1.311.752 2.918-.12 3.065-1.581h3.666c.147 1.46 1.754 2.333 3.065 1.581l3.065-1.758c1.382-.793 1.382-2.786-.001-3.579m-.498 2.712L16.4 14.655a1.065 1.065 0 0 1-1.596-.922v-.791H9.195v.791c0 .818-.886 1.33-1.596.922l-3.065-1.758a1.063 1.063 0 0 1 0-1.845l3.065-1.758a1.065 1.065 0 0 1 1.596.922v.843h5.609v-.843c0-.818.886-1.33 1.596-.922l3.065 1.758a1.063 1.063 0 0 1 0 1.845" id="path_0"/>
    <path fill="#000" d="M19.465 11.052 16.4 9.294a1.065 1.065 0 0 0-1.596.922v.843H9.195v-.843c0-.818-.886-1.33-1.596-.922l-3.065 1.758a1.063 1.063 0 0 0 0 1.845l3.065 1.758a1.065 1.065 0 0 0 1.596-.922v-.791h5.609v.791c0 .818.886 1.33 1.596.922l3.065-1.758a1.063 1.063 0 0 0 0-1.845" id="path_1"/>
</svg>