<svg id="vector" xmlns="http://www.w3.org/2000/svg" width="24" height="24" viewBox="0 0 24 24">
  <defs>
    <filter id="fe-shadow" color-interpolation-filters="sRGB">
      <feGaussianBlur stdDeviation="1" />
    </filter>
  </defs>
  <g filter="url(#fe-shadow)" opacity="0.4" transform="translate(0, 1)">
    <path fill="#000" d="M14.607,20.024m-1.781,0a1.781,1.781 0,1 1,3.562 0a1.781,1.781 0,1 1,-3.562 0"/>
    <path fill="#000" d="M8.703,19.766m-1.781,0a1.781,1.781 0,1 1,3.562 0a1.781,1.781 0,1 1,-3.562 0"/>
    <path fill="#000" d="M3.592,12.699m-1.781,0a1.781,1.781 0,1 1,3.562 0a1.781,1.781 0,1 1,-3.562 0"/>
    <path fill="#000" d="M5.49,6.634m-1.781,0a1.781,1.781 0,1 1,3.562 0a1.781,1.781 0,1 1,-3.562 0"/>
    <path fill="#000" d="M10.899,3.636m-1.781,0a1.781,1.781 0,1 1,3.562 0a1.781,1.781 0,1 1,-3.562 0"/>
    <path fill="#000" d="M16.899,5.132m-1.781,0a1.781,1.781 0,1 1,3.562 0a1.781,1.781 0,1 1,-3.562 0"/>
    <path fill="#000" d="M20.252,10.246m-1.781,0a1.781,1.781 0,1 1,3.562 0a1.781,1.781 0,1 1,-3.562 0"/>
    <path fill="#000" d="M19.269,16.282m-1.781,0a1.781,1.781 0,1 1,3.562 0a1.781,1.781 0,1 1,-3.562 0"/>
  </g>
  <path fill="#FFF" d="M14.607,20.024m-1.781,0a1.781,1.781 0,1 1,3.562 0a1.781,1.781 0,1 1,-3.562 0" id="path_0"/>
    <path fill="#FFF" d="M8.703,19.766m-1.781,0a1.781,1.781 0,1 1,3.562 0a1.781,1.781 0,1 1,-3.562 0" id="path_1"/>
    <path fill="#FFF" d="M3.592,12.699m-1.781,0a1.781,1.781 0,1 1,3.562 0a1.781,1.781 0,1 1,-3.562 0" id="path_2"/>
    <path fill="#FFF" d="M5.49,6.634m-1.781,0a1.781,1.781 0,1 1,3.562 0a1.781,1.781 0,1 1,-3.562 0" id="path_3"/>
    <path fill="#FFF" d="M10.899,3.636m-1.781,0a1.781,1.781 0,1 1,3.562 0a1.781,1.781 0,1 1,-3.562 0" id="path_4"/>
    <path fill="#FFF" d="M16.899,5.132m-1.781,0a1.781,1.781 0,1 1,3.562 0a1.781,1.781 0,1 1,-3.562 0" id="path_5"/>
    <path fill="#FFF" d="M20.252,10.246m-1.781,0a1.781,1.781 0,1 1,3.562 0a1.781,1.781 0,1 1,-3.562 0" id="path_6"/>
    <path fill="#FFF" d="M19.269,16.282m-1.781,0a1.781,1.781 0,1 1,3.562 0a1.781,1.781 0,1 1,-3.562 0" id="path_7"/>
</svg>