<svg id="vector" xmlns="http://www.w3.org/2000/svg" width="24" height="24" viewBox="0 0 24 24">
  <defs>
    <filter id="fe-shadow" color-interpolation-filters="sRGB">
      <feGaussianBlur stdDeviation="1" />
    </filter>
  </defs>
  <g filter="url(#fe-shadow)" opacity="0.4" transform="translate(0, 1)">
    <path fill="#000" d="M20.428,12.368m-1.781,0a1.781,1.781 0,1 1,3.562 0a1.781,1.781 0,1 1,-3.562 0"/>
    <path fill="#000" d="M19.232,16.345m-1.781,0a1.781,1.781 0,1 1,3.562 0a1.781,1.781 0,1 1,-3.562 0"/>
    <path fill="#000" d="M4.731,16.282m-1.781,0a1.781,1.781 0,1 1,3.562 0a1.781,1.781 0,1 1,-3.562 0"/>
    <path fill="#000" d="M3.656,10.753m-1.781,0a1.781,1.781 0,1 1,3.562 0a1.781,1.781 0,1 1,-3.562 0"/>
    <path fill="#000" d="M6.193,5.88m-1.781,0a1.781,1.781 0,1 1,3.562 0a1.781,1.781 0,1 1,-3.562 0"/>
    <path fill="#000" d="M10.972,3.626m-1.781,0a1.781,1.781 0,1 1,3.562 0a1.781,1.781 0,1 1,-3.562 0"/>
    <path fill="#000" d="M16.026,4.586m-1.781,0a1.781,1.781 0,1 1,3.562 0a1.781,1.781 0,1 1,-3.562 0"/>
    <path fill="#000" d="M19.449,8.039m-1.781,0a1.781,1.781 0,1 1,3.562 0a1.781,1.781 0,1 1,-3.562 0"/>
  </g>
  <path fill="#FFF" d="M20.428,12.368m-1.781,0a1.781,1.781 0,1 1,3.562 0a1.781,1.781 0,1 1,-3.562 0" id="path_0"/>
    <path fill="#FFF" d="M19.232,16.345m-1.781,0a1.781,1.781 0,1 1,3.562 0a1.781,1.781 0,1 1,-3.562 0" id="path_1"/>
    <path fill="#FFF" d="M4.731,16.282m-1.781,0a1.781,1.781 0,1 1,3.562 0a1.781,1.781 0,1 1,-3.562 0" id="path_2"/>
    <path fill="#FFF" d="M3.656,10.753m-1.781,0a1.781,1.781 0,1 1,3.562 0a1.781,1.781 0,1 1,-3.562 0" id="path_3"/>
    <path fill="#FFF" d="M6.193,5.88m-1.781,0a1.781,1.781 0,1 1,3.562 0a1.781,1.781 0,1 1,-3.562 0" id="path_4"/>
    <path fill="#FFF" d="M10.972,3.626m-1.781,0a1.781,1.781 0,1 1,3.562 0a1.781,1.781 0,1 1,-3.562 0" id="path_5"/>
    <path fill="#FFF" d="M16.026,4.586m-1.781,0a1.781,1.781 0,1 1,3.562 0a1.781,1.781 0,1 1,-3.562 0" id="path_6"/>
    <path fill="#FFF" d="M19.449,8.039m-1.781,0a1.781,1.781 0,1 1,3.562 0a1.781,1.781 0,1 1,-3.562 0" id="path_7"/>
</svg>