<svg xmlns="http://www.w3.org/2000/svg" viewBox="2.75 12.32 395.27 376.1"><g fill-rule="evenodd"><path d="M200.258 13.1c-.281.839-1.005 1.969-1.953 3.049-.383.435-.8 1.12-.927 1.522-.128.401-.379.729-.558.729s-.432.315-.562.7c-.281.839-1.005 1.969-1.953 3.049-.383.435-.8 1.12-.927 1.522-.128.401-.4.729-.605.729s-.373.193-.373.429c0 .235-.225.679-.5.986-1.187 1.323-1.5 1.776-1.5 2.168 0 .229-.177.417-.392.417s-.506.45-.644 1-.383 1-.544 1-.633.63-1.048 1.4-.893 1.4-1.063 1.4-.309.27-.309.6-.177.6-.392.6-.506.45-.644 1-.373 1-.523 1-.799.9-1.441 2-1.291 2-1.441 2-.385.45-.523 1-.428 1-.644 1c-.215 0-.392.27-.392.6s-.168.6-.373.6-.501.405-.657.9-.593 1.17-.97 1.5-.813 1.005-.97 1.5c-.156.495-.452.9-.657.9s-.373.27-.373.6-.168.6-.373.6-.501.405-.657.9-.593 1.17-.97 1.5-.813 1.005-.97 1.5c-.156.495-.452.9-.657.9s-.373.27-.373.6-.168.6-.373.6-.501.405-.657.9-.593 1.17-.97 1.5-.813 1.005-.97 1.5c-.156.495-.452.9-.657.9s-.373.27-.373.6-.168.6-.373.6-.501.405-.657.9-.593 1.17-.97 1.5-.813 1.005-.97 1.5c-.156.495-.452.9-.657.9s-.373.27-.373.6-.168.6-.373.6-.501.405-.657.9-.593 1.17-.97 1.5-.813 1.005-.97 1.5c-.156.495-.431.9-.61.9-.18 0-.432.315-.562.7-.314.935-1.113 2.152-1.901 2.894-.353.333-.77 1.011-.927 1.506-.156.495-.431.9-.61.9-.18 0-.432.315-.562.7-.281.839-1.005 1.969-1.953 3.049-.383.435-.8 1.12-.927 1.522-.128.401-.379.729-.558.729s-.436.315-.569.7-.559 1.159-.946 1.719c-1.561 2.256-2.691 4.186-2.504 4.273.11.051-.206.376-.701.723s-.9.862-.9 1.146-.356.837-.791 1.23c-.434.394-.709.848-.609 1.009s-.17.611-.6 1-.688.857-.575 1.04-.161.563-.609.843c-.449.28-.816.916-.816 1.413 0 .537-.244.904-.6.904-.33 0-.6.257-.6.571 0 .315-.308.88-.685 1.257-.376.376-.724.956-.773 1.288s-.313.743-.587.912-.545.624-.602 1.01-.388.862-.736 1.057c-.349.195-.529.523-.402.73.128.206.054.375-.164.375-.219 0-.525.405-.681.9s-.654 1.222-1.106 1.615c-.452.394-.866 1.02-.921 1.393s-.289.741-.521.818-.422.396-.422.707c0 .312-.168.567-.373.567s-.501.405-.657.9-.593 1.17-.97 1.5-.813 1.005-.97 1.5c-.156.495-.452.9-.657.9s-.373.27-.373.6-.168.6-.373.6-.501.405-.657.9-.593 1.17-.97 1.5-.813 1.005-.97 1.5c-.156.495-.452.9-.657.9s-.373.27-.373.6-.168.6-.373.6-.501.405-.657.9-.593 1.17-.97 1.5-.813 1.005-.97 1.5c-.156.495-.452.9-.657.9s-.373.27-.373.6-.168.6-.373.6-.501.405-.657.9-.593 1.17-.97 1.5-.813 1.005-.97 1.5c-.156.495-.423.9-.594.9s-.649.63-1.064 1.4-.893 1.4-1.063 1.4-.309.27-.309.6-.168.6-.373.6-.501.405-.657.9-.593 1.17-.97 1.5-.813 1.005-.97 1.5c-.156.495-.452.9-.657.9s-.373.27-.373.6-.168.6-.373.6-.501.405-.657.9-.593 1.17-.97 1.5-.813 1.005-.97 1.5c-.156.495-.452.9-.657.9s-.373.27-.373.6-.168.6-.373.6-.501.405-.657.9-.593 1.17-.97 1.5-.813 1.005-.97 1.5c-.156.495-.452.9-.657.9s-.373.27-.373.6-.168.6-.373.6-.501.405-.657.9-.593 1.17-.97 1.5-.813 1.005-.97 1.5c-.156.495-.452.9-.657.9s-.373.27-.373.6-.177.6-.392.6-.506.45-.644 1-.373 1-.523 1-.799.9-1.441 2-1.291 2-1.441 2-.385.45-.523 1-.428 1-.644 1c-.215 0-.392.27-.392.6s-.168.6-.373.6-.501.405-.657.9-.593 1.17-.97 1.5-.813 1.005-.97 1.5c-.156.495-.452.9-.657.9s-.373.27-.373.6-.168.6-.373.6-.501.405-.657.9-.593 1.17-.97 1.5-.813 1.005-.97 1.5c-.156.495-.452.9-.657.9s-.373.27-.373.6-.168.6-.373.6-.501.405-.657.9-.593 1.17-.97 1.5-.813 1.005-.97 1.5c-.156.495-.452.9-.657.9s-.373.27-.373.6-.168.6-.373.6-.501.405-.657.9-.593 1.17-.97 1.5-.813 1.005-.97 1.5c-.156.495-.452.9-.657.9s-.373.27-.373.6-.177.6-.392.6-.506.45-.644 1-.373 1-.523 1-.799.9-1.441 2-1.291 2-1.441 2-.385.45-.523 1-.428 1-.644 1c-.215 0-.392.341-.392.757 0 .417-.27.861-.6.988-.33.126-.6.583-.6 1.015 0 .435-.358.9-.8 1.04s-.8.605-.8 1.04c0 .432-.27.889-.6 1.015-.33.127-.6.552-.6.945s-.27.818-.6.945c-.33.126-.6.583-.6 1.015 0 .435-.358.9-.8 1.04s-.8.605-.8 1.04c0 .432-.27.889-.6 1.015-.33.127-.6.552-.6.945s-.27.818-.6.945c-.33.126-.6.583-.6 1.015 0 .435-.358.9-.8 1.04s-.8.605-.8 1.04c0 .432-.27.889-.6 1.015-.33.127-.6.552-.6.945s-.27.818-.6.945c-.33.126-.6.583-.6 1.015 0 .435-.358.9-.8 1.04s-.8.605-.8 1.04c0 .432-.27.889-.6 1.015-.33.127-.6.552-.6.945s-.27.818-.6.945c-.33.126-.6.583-.6 1.015 0 .435-.358.9-.8 1.04s-.8.605-.8 1.04c0 .432-.27.889-.6 1.015-.33.127-.6.552-.6.945s-.27.818-.6.945c-.33.126-.6.583-.6 1.015 0 .435-.358.9-.8 1.04s-.8.605-.8 1.04c0 .432-.27.889-.6 1.015-.33.127-.6.552-.6.945s-.27.818-.6.945c-.33.126-.6.583-.6 1.015 0 .435-.358.9-.8 1.04s-.8.605-.8 1.04c0 .432-.27.889-.6 1.015-.33.127-.6.552-.6.945s-.27.818-.6.945c-.33.126-.6.583-.6 1.015 0 .435-.358.9-.8 1.04s-.8.605-.8 1.04c0 .432-.27.889-.6 1.015-.33.127-.6.552-.6.945s-.27.818-.6.945c-.33.126-.6.583-.6 1.015 0 .435-.358.9-.8 1.04s-.8.605-.8 1.04c0 .432-.27.889-.6 1.015-.33.127-.6.552-.6.945s-.27.818-.6.945c-.33.126-.6.576-.6 1 0 .423-.273.874-.606 1.002s-.779.687-.99 1.243c-.211.555-.569 1.01-.794 1.01s-.41.341-.41.757c0 .417-.27.861-.6.988-.33.126-.6.497-.6.824s-.405 1.036-.9 1.575c-1.211 1.319-1.686 1.942-2.025 2.656-.417.881-3.094 4.864-3.495 5.2-.131.11-.362.47-.514.8-.151.33-.588 1.065-.97 1.633A218 218 0 0 0 21 283.586c-.88 1.386-1.973 2.992-2.428 3.567-.775.98-4.238 6.345-5.208 8.067a10.5 10.5 0 0 1-1.052 1.477c-.34.387-.741 1.108-.892 1.603-.15.495-.442.9-.647.9s-.373.27-.373.6-.168.6-.373.6-.501.405-.657.9-.593 1.17-.97 1.5-.813 1.005-.97 1.5c-.156.495-.452.9-.657.9s-.373.27-.373.6-.177.6-.392.6-.506.45-.644 1-.411 1-.607 1c-.197 0-.357.27-.357.6s-.135.606-.3.613c-1.739.072-1.795 3.187-.057 3.187.636 0 1.157.18 1.157.4s.27.4.6.4.6.157.6.349.72.464 1.6.605 1.6.433 1.6.651c0 .217.36.395.8.395s.8.157.8.349.72.464 1.6.605 1.6.433 1.6.651c0 .217.45.395 1 .395s1 .172 1 .382.63.5 1.4.644 1.4.423 1.4.619c0 .195.45.355 1 .355s1 .16 1 .357.495.476 1.1.622c1.555.376 3.3 1.166 3.3 1.494 0 .153.81.399 1.8.548.99.148 1.8.429 1.8.624s.27.355.6.355.6.178.6.395.72.511 1.6.651 1.6.413 1.6.605.36.349.8.349.8.157.8.349.72.464 1.6.605 1.6.389 1.6.553c0 .39 1.865 1.206 3.503 1.534.713.142 1.297.417 1.297.609s.349.35.776.35.879.166 1.005.369.766.488 1.424.632 1.195.428 1.195.631c0 .202.45.368 1 .368s1 .16 1 .355c0 .196.63.474 1.4.619.77.144 1.4.434 1.4.644s.45.382 1 .382 1 .178 1 .395.72.511 1.6.651 1.6.413 1.6.605.36.349.8.349.8.178.8.395.72.511 1.6.651 1.6.413 1.6.605.27.349.6.349.6.169.6.375c0 .207.81.497 1.8.646.99.148 1.8.429 1.8.624s.27.355.6.355.6.157.6.349.72.464 1.6.605 1.6.433 1.6.651c0 .217.36.395.8.395s.8.157.8.349.72.464 1.6.605 1.6.433 1.6.651c0 .217.45.395 1 .395s1 .172 1 .382.63.5 1.4.644 1.4.423 1.4.619c0 .195.45.355 1 .355s1 .16 1 .357.495.476 1.1.622c1.555.376 3.3 1.166 3.3 1.494 0 .153.81.399 1.8.548.99.148 1.8.429 1.8.624s.27.355.6.355.6.178.6.395.72.511 1.6.651 1.6.413 1.6.605.36.349.8.349.8.157.8.349.72.464 1.6.605 1.6.389 1.6.553c0 .39 1.865 1.206 3.503 1.534.713.142 1.297.417 1.297.609s.45.35 1 .35 1 .166 1 .368c0 .203.54.487 1.2.632s1.2.429 1.2.632c0 .202.45.368 1 .368s1 .18 1 .4.315.401.7.402 1.216.272 1.846.6c.63.329 1.395.598 1.7.598s.554.178.554.395.72.511 1.6.651 1.6.413 1.6.605.36.349.8.349.8.178.8.395.72.511 1.6.651 1.6.413 1.6.605.27.349.6.349.6.16.6.355.81.476 1.8.624 1.8.439 1.8.646c0 .206.27.375.6.375s.6.18.6.4.405.401.9.402 1.416.272 2.046.6c.63.329 1.395.598 1.7.598s.554.18.554.4.315.401.7.402 1.216.272 1.846.6c.63.329 1.395.598 1.7.598s.554.178.554.395.72.511 1.6.651 1.6.413 1.6.605.36.349.8.349.8.172.8.382.675.506 1.5.658c.825.151 1.59.384 1.7.518.439.531 1.978 1.202 3.351 1.459.797.15 1.449.388 1.449.53 0 .311 1.783 1.108 3.3 1.474.605.146 1.1.426 1.1.622 0 .197.349.357.776.357s.875.16.996.355.851.473 1.624.618c.772.145 1.404.435 1.404.645s.249.382.554.382 1.07.269 1.7.598 1.461.598 1.846.6c.385.001.7.182.7.402s.45.4 1 .4 1 .172 1 .382.63.5 1.4.644 1.4.423 1.4.619c0 .195.249.355.554.355s1.07.269 1.7.598 1.551.598 2.046.6c.495.001.9.14.9.308 0 .371 2.969 1.694 3.803 1.694.328 0 .597.18.597.4s.349.4.776.4.888.18 1.024.4c.322.52 3.278.52 3.6 0 .136-.22.676-.4 1.2-.4s1.054-.163 1.177-.363 1.124-.486 2.223-.637c1.1-.151 2-.438 2-.638 0-.199.439-.362.976-.362s1.078-.163 1.201-.363 1.123-.486 2.223-.637 2.1-.438 2.223-.637c.123-.2.664-.363 1.201-.363s.976-.157.976-.348c0-.192.893-.467 1.984-.612s2.091-.438 2.223-.652c.132-.213.68-.388 1.217-.388s.976-.15.976-.333c0-.293.902-.535 5.7-1.53.605-.125 1.1-.37 1.1-.545 0-.174.9-.441 2-.592s2-.438 2-.638c0-.199.529-.362 1.176-.362s1.275-.159 1.395-.354 1.027-.475 2.015-.623c.987-.148 1.9-.439 2.028-.646s.673-.377 1.21-.377.976-.159.976-.354.99-.478 2.2-.629 2.2-.442 2.2-.646.439-.371.976-.371 1.075-.159 1.195-.353c.12-.195 1.211-.477 2.424-.629s2.205-.443 2.205-.647.45-.371 1-.371 1-.159 1-.354.987-.477 2.194-.628 2.297-.441 2.423-.646c.127-.205.67-.372 1.207-.372s.976-.163.976-.362c0-.2.9-.487 2-.638 1.099-.151 2.1-.438 2.223-.637.123-.2.664-.363 1.201-.363s.976-.163.976-.362c0-.2.9-.487 2-.638s2-.438 2-.638c0-.199.529-.362 1.176-.362s1.278-.163 1.401-.363 1.124-.486 2.223-.637c1.1-.151 2-.438 2-.638 0-.199.45-.362 1-.362s1-.157 1-.348c0-.192 1.08-.471 2.4-.62s2.4-.443 2.4-.652.45-.38 1-.38 1-.167 1-.371.99-.495 2.2-.646 2.2-.434 2.2-.629.45-.354 1-.354 1-.163 1-.362c0-.2.9-.487 2-.638s2-.438 2-.638c0-.199.63-.362 1.4-.362s1.4-.163 1.4-.362c0-.2.9-.487 2-.638s2-.438 2-.638c0-.199.439-.362.976-.362s1.075-.159 1.195-.353c.12-.195 1.211-.477 2.424-.629s2.205-.443 2.205-.647.45-.371 1-.371 1-.159 1-.354.99-.478 2.2-.629 2.2-.442 2.2-.646.45-.371 1-.371 1-.167 1-.371.992-.495 2.205-.647 2.304-.434 2.424-.629c.12-.194.658-.353 1.195-.353s.976-.163.976-.362c0-.2.9-.487 2-.638s2-.438 2-.638c0-.199.63-.362 1.4-.362s1.4-.163 1.4-.362c0-.2.9-.487 2-.638s2-.438 2-.638c0-.199.45-.362 1-.362s1-.159 1-.354.99-.478 2.2-.629 2.2-.442 2.2-.646.45-.371 1-.371 1-.162 1-.361 1.08-.486 2.4-.639 2.4-.441 2.4-.639c0-.199.45-.361 1-.361s1-.163 1-.362c0-.2.9-.487 2-.638 1.099-.151 2.1-.438 2.223-.637.123-.2.754-.363 1.401-.363s1.176-.163 1.176-.362c0-.2.9-.487 2-.638s2-.438 2-.638c0-.199.54-.362 1.2-.362s1.2-.163 1.2-.362c0-.2.9-.487 2-.638s2-.438 2-.638c0-.199.45-.362 1-.362s1-.157 1-.348c0-.192 1.08-.471 2.4-.62s2.4-.443 2.4-.652.45-.38 1-.38 1-.167 1-.371.992-.495 2.205-.647 2.304-.434 2.424-.629c.12-.194.658-.353 1.195-.353s.976-.163.976-.362c0-.2.9-.487 2-.638s2-.438 2-.638c0-.199.54-.362 1.2-.362s1.2-.163 1.2-.362c0-.2.9-.487 2-.638s2-.438 2-.638c0-.199.439-.362.976-.362s1.075-.159 1.195-.353c.12-.195 1.211-.477 2.424-.629s2.205-.443 2.205-.647.45-.371 1-.371 1-.162 1-.361 1.08-.486 2.4-.639 2.4-.42 2.4-.593c0-.172.36-.408.8-.523s.8-.468.8-.785-.36-.992-.8-1.499-.8-1.125-.8-1.373-.353-.705-.785-1.016-.898-1.08-1.036-1.708-.595-1.356-1.015-1.618c-.42-.263-.764-.8-.764-1.194s-.27-.82-.6-.946c-.33-.127-.6-.571-.6-.988 0-.416-.16-.757-.357-.757s-.469-.45-.607-1-.428-1-.644-1c-.215 0-.392-.27-.392-.6s-.177-.6-.392-.6-.506-.45-.644-1-.411-1-.607-1c-.197 0-.357-.27-.357-.6s-.177-.6-.392-.6-.502-.437-.636-.971c-.134-.533-.588-1.281-1.008-1.662-.42-.38-.764-.919-.764-1.198s-.405-1.018-.9-1.641c-1.067-1.345-1.57-2.153-2.756-4.428-.487-.935-1.034-1.7-1.215-1.7s-.329-.27-.329-.6-.16-.6-.357-.6-.461-.405-.589-.9-.688-1.423-1.244-2.062c-.555-.639-1.01-1.404-1.01-1.7s-.18-.538-.4-.538-.4-.255-.4-.567-.141-.626-.313-.7c-.43-.183-3.687-5.415-3.687-5.923 0-.226-.168-.41-.373-.41s-.499-.405-.654-.9c-.154-.495-.409-.99-.566-1.1s-1.072-1.46-2.033-3-1.889-2.86-2.061-2.933c-.172-.074-.313-.389-.313-.7 0-.312-.16-.567-.357-.567s-.469-.45-.607-1-.428-1-.644-1c-.215 0-.392-.27-.392-.6s-.168-.6-.373-.6-.501-.405-.657-.9-.574-1.17-.927-1.5-.986-1.275-1.406-2.1-.915-1.5-1.1-1.5-.337-.366-.337-.813-.27-.916-.6-1.042c-.33-.127-.6-.552-.6-.945s-.27-.818-.6-.945c-.33-.126-.6-.596-.6-1.042s-.152-.813-.337-.813-.68-.672-1.1-1.494c-.913-1.787-1.708-2.695-2.055-2.347-.14.14-.042.467.219.728 1.395 1.395-.323 2.869-3.067 2.633-1.61-.139-2.828-2.485-2.048-3.943.593-1.107 3.024-1.449 4.004-.563.91.824 1.077.137.184-.757-.33-.33-.6-.793-.6-1.028 0-.236-.16-.429-.357-.429s-.469-.45-.607-1-.428-1-.644-1c-.215 0-.392-.27-.392-.6s-.168-.6-.373-.6-.501-.405-.657-.9-.607-1.181-1-1.524c-.394-.343-.841-1.12-.994-1.728-.152-.607-.614-1.315-1.026-1.572s-.75-.791-.75-1.185-.27-.82-.6-.946c-.33-.127-.6-.571-.6-.988 0-.416-.177-.757-.392-.757s-.506-.45-.644-1-.411-1-.607-1c-.197 0-.357-.27-.357-.6s-.168-.6-.373-.6-.501-.405-.657-.9-.593-1.17-.97-1.5-.827-1.05-1-1.6-.623-1.27-1-1.6-.813-1.005-.97-1.5c-.156-.495-.452-.9-.657-.9s-.373-.27-.373-.6-.177-.6-.392-.6-.506-.45-.644-1-.411-1-.607-1c-.197 0-.357-.341-.357-.757 0-.417-.27-.861-.6-.988-.33-.126-.6-.583-.6-1.015 0-.433-.339-.894-.752-1.025-.414-.131-.852-.728-.973-1.327-.121-.598-.57-1.462-.999-1.919-.428-.457-.902-1.222-1.054-1.7s-.444-.869-.649-.869-.373-.27-.373-.6-.177-.6-.392-.6-.506-.45-.644-1-.411-1-.607-1c-.197 0-.357-.27-.357-.6s-.168-.6-.373-.6-.501-.405-.657-.9-.574-1.17-.927-1.5-.986-1.275-1.406-2.1-.915-1.5-1.1-1.5-.337-.366-.337-.813-.27-.916-.6-1.042c-.33-.127-.6-.552-.6-.945s-.27-.818-.6-.945c-.33-.126-.6-.596-.6-1.042s-.18-.813-.4-.813-.4-.27-.4-.6-.168-.6-.373-.6-.501-.405-.657-.9-.574-1.17-.927-1.5-.986-1.275-1.406-2.1-.895-1.5-1.057-1.5-.406-.45-.544-1-.428-1-.644-1c-.215 0-.392-.27-.392-.6 0-.926-.728-.709-.872.259-.315 2.114-2.944 1.762-4.304-.576-.512-.88-.498-1.11.123-2.058.8-1.221 1.93-1.794 2.162-1.097.219.657.891.593.891-.085 0-.307-.27-.661-.6-.788-.33-.126-.6-.583-.6-1.015 0-.435-.358-.9-.8-1.04-.44-.14-.8-.518-.8-.841 0-.558-1.092-2.532-1.637-2.959-.14-.11-.382-.605-.536-1.1s-.449-.9-.654-.9-.373-.27-.373-.6-.177-.6-.392-.6-.506-.45-.644-1-.411-1-.607-1c-.197 0-.357-.27-.357-.6s-.168-.6-.373-.6-.501-.405-.657-.9-.574-1.17-.927-1.5-.986-1.275-1.406-2.1-.915-1.5-1.1-1.5-.337-.366-.337-.813-.27-.916-.6-1.042c-.33-.127-.6-.571-.6-.988 0-.416-.177-.757-.392-.757s-.506-.45-.644-1-.411-1-.607-1c-.197 0-.357-.27-.357-.6s-.168-.6-.373-.6-.501-.405-.657-.9-.574-1.17-.927-1.5-.986-1.275-1.406-2.1-.895-1.5-1.057-1.5-.406-.45-.544-1-.428-1-.644-1c-.215 0-.392-.27-.392-.6s-.18-.6-.4-.6-.4-.257-.4-.571c0-.315-.235-.81-.522-1.1a5.2 5.2 0 0 1-.816-1.129c-1.581-3.235-2.144-3.682-3.246-2.58-2.611 2.612-6.391.436-4.163-2.396.468-.596 1.291-1.25 1.826-1.454 1.126-.428.957-1.783-.336-2.693-.409-.287-.743-.788-.743-1.112s-.27-.694-.6-.82c-.33-.127-.6-.571-.6-.988 0-.416-.16-.757-.357-.757s-.469-.45-.607-1-.428-1-.644-1c-.215 0-.392-.27-.392-.6s-.177-.6-.392-.6-.506-.45-.644-1-.411-1-.607-1c-.197 0-.357-.193-.357-.429 0-1.298-1.123-1.508-1.358-.254-.511 2.722-2.748 2.856-4.21.254-1.026-1.826-.752-2.472 1.69-3.977 1.016-.626 1.063-.752.5-1.315-.342-.342-.622-.815-.622-1.05s-.18-.429-.4-.429-.4-.366-.4-.813-.27-.916-.6-1.042c-.33-.127-.6-.552-.6-.945s-.27-.818-.6-.945c-.33-.126-.6-.596-.6-1.042s-.18-.813-.4-.813-.4-.27-.4-.6-.168-.6-.373-.6-.501-.405-.657-.9-.574-1.17-.927-1.5-.986-1.275-1.406-2.1c-.938-1.845-1.146-1.86-1.823-.137-.691 1.763-1.865 2.316-3.477 1.638-2.873-1.208-1.611-5.5 1.638-5.571 1.322-.029 1.337-.048.591-.746-.421-.393-.766-.978-.766-1.3 0-.321-.18-.584-.4-.584s-.4-.26-.4-.577c0-.937-1.732-3.626-1.938-3.009-.1.301.025.615.278.699.899.3.442.887-.691.887-1.246 0-2.375-1.773-1.907-2.993.332-.865.959-.75 1.271.233.191.601.389.718.698.409s.172-.657-.481-1.223c-.502-.435-1.283-1.474-1.736-2.309a295 295 0 0 0-1.958-3.517c-.623-1.1-1.245-2.315-1.381-2.7-.137-.385-.461-.7-.721-.7s-.701-.63-.98-1.4c-.278-.77-.653-1.4-.833-1.4s-.433-.315-.563-.7c-.228-.68-1.054-2.096-1.458-2.5-.11-.11-.543-.875-.963-1.7s-.915-1.5-1.1-1.5-.337-.261-.337-.58-.227-.724-.504-.9-.862-1.036-1.3-1.911c-1.031-2.061-3.396-5.86-4.07-6.538-.289-.29-.526-.785-.526-1.1 0-.314-.18-.571-.4-.571s-.4-.27-.4-.6-.16-.6-.357-.6-.469-.45-.607-1-.428-1-.644-1c-.215 0-.392-.27-.392-.6s-.177-.6-.392-.6-.506-.45-.644-1-.411-1-.607-1c-.197 0-.357-.27-.357-.6s-.139-.6-.309-.6-.648-.63-1.063-1.4-.906-1.4-1.091-1.4-.337-.257-.337-.571c0-.315-.225-.817-.5-1.117-.654-.714-1.413-1.91-1.859-2.928-.197-.449-.635-1.047-.974-1.328s-.731-1.039-.873-1.684c-.142-.644-.395-1.172-.563-1.172s-.648-.675-1.068-1.5-1.052-1.77-1.406-2.1-.77-1.005-.927-1.5c-.156-.495-.452-.9-.657-.9s-.373-.27-.373-.6-.177-.6-.392-.6-.506-.45-.644-1-.411-1-.607-1c-.197 0-.357-.341-.357-.757 0-.417-.27-.861-.6-.988-.33-.126-.6-.478-.6-.78s-.36-.877-.8-1.275-.8-.972-.8-1.275-.27-.654-.6-.78c-.33-.127-.6-.571-.6-.988 0-.416-.177-.757-.392-.757s-.506-.45-.644-1-.411-1-.607-1c-.197 0-.357-.27-.357-.6s-.16-.6-.357-.6-.469-.45-.607-1-.428-1-.644-1c-.215 0-.392-.27-.392-.6s-.168-.6-.373-.6-.501-.405-.657-.9-.593-1.17-.97-1.5-.813-1.005-.97-1.5c-.156-.495-.452-.9-.657-.9s-.373-.27-.373-.6-.18-.6-.4-.6-.4-.257-.4-.571c0-.315-.236-.81-.525-1.1-.288-.291-.782-1.114-1.097-1.829-.655-1.486-2.495-1.864-2.92-.6m7.342 8.7c0 .33.16.6.357.6s.469.45.607 1 .428 1 .644 1c.215 0 .392.248.392.551s.27.775.6 1.049.6.821.6 1.216c0 .394.225.808.5.919.307.124.237.214-.179.233-.374.018-1.17-.423-1.77-.978-.745-.691-1.22-.881-1.501-.6-1.35 1.35-4.756-.963-4.57-3.103.153-1.77 4.32-3.59 4.32-1.887m-.369 10.969c1.89 1.89 1.491 4.446-.882 5.657-1.646.84-1.925 1.344-.949 1.719.739.283.813 2.781.1 3.37-1.059.876-3.404 1.018-3.655.222-.405-1.288-.157-3.913.434-4.596.471-.544.493-1.092.121-3.141-.58-3.199.016-4.026 3.131-4.346.292-.029 1.057.472 1.7 1.115m7.736.674c.348.133.633.583.633 1 0 .416.159.757.353.757.824 0 .799 1.8-.037 2.689-1.254 1.335-2.94 1.212-3.706-.269-1.372-2.653.266-5.133 2.757-4.177m.169 9.576c.906 1.988-.015 4.981-1.532 4.981-1.114 0-3.604-2.316-3.604-3.352 0-2.592 4.104-3.894 5.136-1.629M223.6 47.2c0 .44.216.8.48.8.373 0 .373.107 0 .48-.264.264-.48.725-.48 1.023 0 2.715-4.276 4.67-5.412 2.475-1.525-2.951.671-6.479 2.743-4.407.73.73 1.869.504 1.869-.371 0-.44.18-.8.4-.8s.4.36.4.8m-18.154 1.106c.245.162.573.699.727 1.194.251.804 1.156 1.157 2.384.928 2.03-.378 4.522 3.225 3.705 5.355-.178.463.035.617.851.618 2.386.004 4.887 2.195 4.887 4.283 0 1.22.083 1.31 1 1.08 3.501-.879 6.485 3.641 3.442 5.214-3.643 1.884-6.395.47-5.924-3.044l.211-1.572-1.671.25c-2.895.434-4.89-1.829-3.679-4.172.815-1.575.798-1.64-.408-1.64-.566 0-1.827-.468-2.802-1.039-1.652-.968-1.934-1.411-2.253-3.528-.163-1.076-.997-1.24-1.309-.256-.271.856-1.852 1.49-2.584 1.037-.459-.284-.592-4.312-.156-4.747.358-.359 3.02-.329 3.579.039m19.572 7.876c.54.54.982 1.151.982 1.357 0 .77 1.182.79 2.139.038 1.179-.928 2.098-.682 2.433.652.134.534.42.971.636.971.215 0 .392.255.392.567s.225.66.5.775c.353.146.264.4-.3.861-1.016.831-3.183.54-4.383-.587-1.037-.974-1.544-1.013-2.766-.212-1.095.717-4.251-1.178-4.251-2.553 0-2.418 2.897-3.591 4.618-1.869m-18.578 5.46c1.843 1.974.77 4.358-1.962 4.358-2.64 0-3.474-3.404-1.178-4.804 1.688-1.03 1.772-1.018 3.14.446M233.6 63c0 .33.168.6.373.6s.499.405.654.9c.154.495.48 1.028.724 1.183.794.509-.344 1.184-1.504.893-1.487-.373-2.042-1.54-1.432-3.012.513-1.24 1.185-1.559 1.185-.564m-23.141 1.967c2.848 1.19 3.57 3.293 1.341 3.905-3.345.92-5.499-1.418-3.477-3.772.719-.837.486-.822 2.136-.133m17.912 2.818c1.59.822 1.76 1.627.726 3.437-1.491 2.613-4.561 2.078-5.31-.925-.63-2.525 1.89-3.905 4.584-2.512m9.658 1.815c.204 0 .371.366.371.813s.27.916.6 1.042c.988.38.721 1.961-.419 2.481-3.135 1.428-4.811-1.382-2.724-4.567.547-.835.691-.878 1.211-.358.324.324.756.589.961.589m-16.335 1.5c1.214 1.28 1.85 3.84 1.072 4.321-.863.533-4.449.267-5.094-.378-.532-.532-.725-.4-1.727 1.179-1.203 1.898-2.571 2.352-3.545 1.178-.772-.93-1.6-.724-1.6.399 0 1.089-2.539 4.201-3.428 4.201-.294 0-1.106-.711-1.804-1.58-1.107-1.378-1.423-1.549-2.471-1.339-2.09.418-3.524-2.789-2.283-5.107.668-1.248 3.856-1.097 4.452.21.337.741.866 1.047 2.144 1.238 2.465.37 3.034.141 3.538-1.421.6-1.858 3.015-3.266 4.264-2.486.716.447.993.382 2.106-.496 1.678-1.322 3.069-1.297 4.376.081m13.38 4.17c1.903 1.787.644 4.73-2.023 4.73-.954 0-3.107-2.406-2.972-3.322.277-1.874 3.525-2.79 4.995-1.408m7.556 2.03c.157.495.616 1.189 1.022 1.542 1.1.959 1.156 2.525.094 2.678-1.143.165-2.546-1.658-2.546-3.307 0-1.944.919-2.531 1.43-.913m-15.476 2.615c1.049 2.891-1.374 4.722-3.885 2.934-1.517-1.08-1.53-1.078-2.266.345-1.211 2.342-5.403 1.397-5.403-1.218 0-2.362 3.047-3.599 5.181-2.104.934.654.986.638 1.956-.62 1.544-2.002 3.558-1.7 4.417.663m15.076 4.433c.882 2.998.3 3.762-2.735 3.592-2.345-.132-2.497-.087-2.54.753-.127 2.506-3.519 3.03-4.922.76-1.646-2.663-.639-5.756 1.716-5.272 3.58.736 3.764.729 4.242-.164 1.176-2.198 3.55-2.013 4.239.331m-37.055-.178c1.426 1.718-.766 4.795-3.247 4.557-1.588-.152-2.211-3.187-.919-4.478.805-.806 3.52-.857 4.166-.079m10.046 2.966.909.737-.97 1.763c-1.719 3.125-5.96 2.258-5.96-1.217 0-1.74 4.32-2.66 6.021-1.283m33.579.064c.44.44.8 1.051.8 1.357s.27.661.6.788c.795.305.771 2.104-.033 2.412-2.589.994-4.799-.173-4.446-2.347.428-2.636 1.723-3.566 3.079-2.21m-23.339.411c2.745.958 3.227 5.989.573 5.989-3.463 0-4.845-2.548-2.983-5.5.646-1.025.788-1.054 2.41-.489m18.063 4.036c2.88 2.816.37 6.363-3.315 4.684-1.834-.835-1.712-2.81.311-5.031 1.079-1.185 1.484-1.139 3.004.347m-38.32 1.253c1.508 2.472.06 5.659-2.12 4.666-2.061-.94-2.876-3.774-1.484-5.166 1.231-1.231 2.671-1.031 3.604.5m29.014.482c1.798 1.797 1.118 5.018-1.058 5.018-3.208 0-5.349-4.021-2.86-5.371 1.601-.869 2.805-.76 3.918.353m-19.416 2.112c1.147 1.457.992 2.429-.63 3.959-2.384 2.247-4.972 1.134-4.972-2.138 0-3.338 3.511-4.479 5.602-1.821m10.808.732c1.367 3.596-.579 5.555-4.165 4.191-2.121-.806-2.799-4.201-.918-4.6l1.673-.355c2.166-.458 3.018-.267 3.41.764m13.91 2.254c1.426 1.426.013 5.92-1.861 5.92-1.684 0-3.654-3.315-2.855-4.807.761-1.422 3.711-2.118 4.716-1.113m9.68 1.12c0 .22.428.4.951.4 2.066 0 3.051 4.515 1.144 5.24-.602.229-1.392.686-1.758 1.017-2.472 2.237-4.484-3.677-2.23-6.557.466-.595 1.893-.671 1.893-.1m-34.889 3.423c1.123.787 1.258 3.751.217 4.791-.746.747-3.318.624-4.318-.206-2.759-2.29 1.145-6.656 4.101-4.585m15.832.581c1.332 1.263.149 3.596-1.823 3.596-2.769 0-3.796-2.066-2.028-4.081.726-.827 2.733-.574 3.851.485m-24.077 2.066c.501.756.003 3.238-.768 3.83-2.377 1.825-4.789-1.115-3.259-3.974.504-.941 3.378-.838 4.027.144m17.683.986c2.637 1.258 2.87 3.135.564 4.54-2.824 1.722-4.313.998-4.313-2.097 0-2.794 1.273-3.623 3.749-2.443m18.164 4.368c.49.344 1.185 1.192 1.544 1.885l.652 1.261-1.545 1.336c-2.971 2.568-6.506.263-4.764-3.106 1.019-1.971 2.538-2.479 4.113-1.376m-36.767.476c.92.772 1.321 3.793.599 4.515-.747.747-4.217.574-4.812-.239-1.822-2.492 1.871-6.241 4.213-4.276m12.481 2.5c1.266 1.791 1.317 2.692.216 3.793-2.206 2.206-5.869.813-5.108-1.943.811-2.938 3.426-3.926 4.892-1.85m36.298.416c1.604 1.494.755 4.083-1.502 4.579-1.638.36-2.715-.345-3.21-2.1-.748-2.653 2.622-4.426 4.712-2.479m-21.539 1.158c.577 1.078.495 2.886-.171 3.765-1.289 1.701-5.415.309-5.415-1.827 0-2.215 4.586-3.806 5.586-1.938m30.312 2.107c.867.72.592 2.905-.515 4.1-2.036 2.196-4.813-.016-4.014-3.198.414-1.65 3.006-2.166 4.529-.902m-16.729.555c2.272 1.911 1.295 4.964-1.588 4.964-1.915 0-4.048-3.778-2.436-4.315.244-.081.852-.488 1.35-.903 1.168-.975 1.22-.97 2.674.254m-42.796 2.526c1.093 1.534 1.045 2.08-.295 3.363-1.793 1.718-2.942 1.436-3.967-.973-1.176-2.763 2.52-4.836 4.262-2.39m11.422.687c1.199 2.869.461 4.151-2.388 4.151-.955 0-2.607-2.065-2.607-3.258 0-2.629 3.972-3.339 4.995-.893m6.976-.264c2.044 1.093 1.685 4.773-.611 6.278-1.395.914-2.273.519-3.215-1.444-1.554-3.239.934-6.382 3.826-4.834m17.149 4.095c1.192 1.192-.382 4.756-2.078 4.707-1.526-.044-2.89-3.056-1.975-4.361.657-.939 3.24-1.159 4.053-.346m-7.502.433c2.181 1.718 2.46 3.586.805 5.398-1.947 2.131-5.623.435-5.623-2.595 0-2.442 3.035-4.208 4.818-2.803m-22.651.13c.428.164.633.749.633 1.803v1.561l2.124-.25c3.223-.378 4.834 2.828 2.515 5.006-1.43 1.344-2.673.986-3.639-1.049-.854-1.798-1.402-2.076-2.2-1.114-1.246 1.502-4.8-.169-4.8-2.256 0-2.784 2.774-4.696 5.367-3.701m48.811 1.604c2.624 1.007.744 5.316-2.082 4.772-3.153-.608-3.582-4.271-.554-4.737 1.857-.285 1.981-.287 2.636-.035m-10.292 2.115c1.703 2.527.832 4.979-1.937 5.447-3.399.574-4.471-3.09-1.658-5.667 1.772-1.623 2.378-1.586 3.595.22m25.214.69c1.161.311 1.395 5.472.267 5.905-3.069 1.178-5.637-2.527-3.407-4.915 1.195-1.278 1.594-1.404 3.14-.99m-6.533 4.99c.702.636-.513 3.51-1.757 4.153-1.731.895-3.599-1.391-3.02-3.697.396-1.577 3.24-1.849 4.777-.456m-42.865.81c1.021 1.373.661 2.427-1.12 3.276-2.538 1.211-4.182.351-4.182-2.188 0-2.501 3.689-3.258 5.302-1.088m32.044 1.177c.604.475 1.054 1.23 1.054 1.768 0 1.023 1.686 1.684 3.128 1.226 2.104-.668 3.484 2.193 2.039 4.224-2.254 3.165-5.557 2.484-6.507-1.341-.182-.733-.6-1.162-1.266-1.3l-1.994-.414q-1.773-.367-.42-3.605c.696-1.666 2.275-1.888 3.966-.558m-48.029.471c2.305 1.071.935 6.309-1.646 6.294-2.883-.017-4.257-3.893-2.04-5.758 1.376-1.159 2.114-1.266 3.686-.536m73.883.129c0 .298 1.075 1.371 1.375 1.371.127 0 .007-.36-.268-.8-.469-.751-1.107-1.08-1.107-.571m-42.842 1.693c.515.962.07 4.092-.618 4.356-1.974.758-5.746-1.954-5.092-3.659.566-1.474 5.005-2.015 5.71-.697m33.48 4.384c1.261.845 1.041 5.088-.286 5.509-2.825.897-5.886-3.321-3.872-5.335.524-.524 3.454-.646 4.158-.174m-26.129 1.323c1.822 1.502 1.999 3.099.509 4.589-2.923 2.924-6.265-1.181-3.791-4.656 1.041-1.462 1.437-1.454 3.282.067m-17.398.194c2.504 1.753.777 5.201-2.44 4.869-1.911-.197-2.449-.096-3.586.676-2.372 1.61-3.369 1.642-4.285.14-1.94-3.183-.634-5.164 3.407-5.165 1.536 0 3.333-.243 3.993-.539 1.592-.715 1.866-.713 2.911.019m58.409 1.457c1.218 1.218-.616 5.52-2.353 5.52-1.104 0-2.767-1.756-2.767-2.923 0-2.23 3.641-4.076 5.12-2.597m-74.086 1.72c.757 2.187-.205 3.623-2.381 3.555-2.779-.087-3.547-2.178-1.56-4.252 1.629-1.701 3.207-1.422 3.941.697m57.737 2.454c2.137 2.717-.953 5.601-3.389 3.164-1.281-1.281-1.322-3.132-.082-3.73 1.503-.725 2.596-.546 3.471.566m-10.791-.265c.401.215.838.828.972 1.363.135.536.346 1.239.471 1.564.707 1.842-3.689 3.524-5.787 2.214-.629-.393-.963-.294-2.025.6-2.084 1.753-3.753 1.254-4.772-1.427-.88-2.314 1.882-3.861 4.588-2.57 1.657.79 2.173.835 2.173.193 0-1.611 2.732-2.819 4.38-1.937m-58.444 1.451c2.162 1.515 1.895 4.96-.385 4.96-1.735 0-2.894-1.365-2.615-3.081.396-2.441 1.347-3.037 3-1.879m35.047 2.135 1.091 1.575-1.137 1.437c-2.227 2.816-4.937 2.321-4.937-.902 0-2.632.737-3.458 3.246-3.639.355-.025 1.136.663 1.737 1.529m54.51 1.852c1.033 2.164.162 3.529-2.357 3.693-2.276.148-3.136-.583-3.136-2.669 0-2.955 4.199-3.738 5.493-1.024m-67.502-.036c1.703 1.813.642 5.451-1.671 5.73-1.344.162-3.678-2.394-3.293-3.606.867-2.732 3.382-3.808 4.964-2.124m58.124-.557c1.168.532 2.285 2.34 2.285 3.699 0 2.465-4.861 3.766-6.236 1.669-1.677-2.56 1.284-6.583 3.951-5.368m-37.941 1.556c1.761.67 1.405 4.534-.485 5.252-1.175.447-4.298-.566-4.66-1.512-.836-2.178 2.629-4.697 5.145-3.74m31.805 1.51c.55 1.982.554 1.952-.451 3.312-1.864 2.521-4.328 2.001-5.103-1.078-.916-3.639 4.553-5.839 5.554-2.234m-63.774 1.562c2.019 2.019 1.403 4.654-1.138 4.864-1.684.139-3.467-.764-3.467-1.755 0-2.547 3.085-4.629 4.605-3.109m37.669 3.408c1.839 1.727.459 4.33-2.295 4.33-1.937 0-3.621-3.114-2.588-4.785.494-.799 3.885-.483 4.883.455m13.962.128c.817 1.247.464 3.613-.627 4.197-2.865 1.534-5.479-2.711-2.709-4.399 1.724-1.052 2.547-1.002 3.336.202m-60.236.195c1.909.498 1.396 3.071-.842 4.229-1.572.813-2.798.115-3.433-1.954-.839-2.736.264-3.323 4.275-2.275m26.708 1.428c1.993 1.395 1.961 3.79-.072 5.47-2.822 2.332-5.886-2.478-3.254-5.109 1.134-1.135 2.076-1.237 3.326-.361m61.536 3.464c.986 1.907-.874 4.511-2.98 4.174-3.845-.616-4.052-4.907-.264-5.468 2.078-.307 2.504-.137 3.244 1.294m-71.204-.579c2.111 1.41 1.489 5.294-.848 5.294-2.697 0-4.128-3.758-1.892-4.971 1.223-.664 2.079-.764 2.74-.323m36.589 2.549c.542 1.012.217 3.542-.515 4.007-2.098 1.331-5.114-.16-5.114-2.529 0-2.064 4.661-3.288 5.629-1.478m9.987.02c2.38 1.76 1.472 4.725-1.447 4.725-1.977 0-2.56-.568-2.857-2.78-.375-2.797 1.814-3.786 4.304-1.945m33.341-.242c.86 2.239-.539 6.167-2.196 6.167-1.243 0-2.84-3.045-2.42-4.615.433-1.621 4.115-2.859 4.616-1.552m-21.917 1.273c.85.568 1.427 2.171 1.163 3.231-.889 3.564-6.603 3.417-6.603-.17 0-2.225 3.632-4.268 5.44-3.061m-77.566.964c1.152 1.082 1.178 2.302.08 3.698-1.355 1.723-2.918 1.32-3.073-.791-.246-3.35 1.115-4.672 2.993-2.907m30.922.528c3.186 1.647 2.987 4.985-.338 5.65-2.63.526-4.298-1.84-3.035-4.305 1.069-2.085 1.561-2.282 3.373-1.345m-19.626 2.366c1.276 1.537.425 5.436-1.185 5.436-.952 0-3.185-2.537-3.185-3.619 0-1.942 3.172-3.261 4.37-1.817m33.581 2.089c1.187 2.604.258 4.147-2.496 4.147-3.53 0-4.335-4.987-.85-5.27 2.268-.185 2.838.007 3.346 1.123m33.863 1.619c1.636 1.635-.177 5.328-2.616 5.328-1.276 0-1.498-.407-1.849-3.395-.219-1.863-.157-2.151.501-2.32 1.635-.419 3.323-.255 3.964.387m-55.872 3.461c2.157 1.73.712 5.467-2.115 5.467-2.322 0-4.225-1.928-3.303-3.348.305-.469.8-1.25 1.101-1.735.81-1.31 2.929-1.498 4.317-.384m65.791-.107c1.12 1.598-.689 4.147-2.772 3.905-1.56-.182-2.854-2.37-2.222-3.757.61-1.339 4.088-1.442 4.994-.148m-30.779.934c.776 1.635.814 2.408.146 2.94-3.325 2.648-6.937.259-4.48-2.962 1.464-1.92 3.418-1.91 4.334.022m12.689.445c.929 2.098.84 2.332-1.293 3.42-2.496 1.274-3.547.622-4.121-2.555-.608-3.367 3.983-4.101 5.414-.865m-62.883-.174c1.564 2.572-.581 4.604-3.409 3.23-2.058-1-2.18-1.693-.582-3.292 1.572-1.572 3.011-1.549 3.991.062m27.386.972c1.372 1.372-.545 5.337-2.602 5.383-2.202.048-3.52-4.137-1.717-5.455.979-.716 3.574-.673 4.319.072m65.123 2.459c1.973 1.786-1.313 6.145-3.492 4.632-.663-.461-1.777-2.216-1.777-2.801 0-1.919 3.736-3.217 5.269-1.831m-36.549 4.218c.821.821.609 4.223-.294 4.706-2.793 1.495-6.206-2.746-3.726-4.629.879-.667 3.382-.715 4.02-.077m-13.951.956c1.748 1.47 1.655 2.776-.254 3.574-2.761 1.153-4.708-1.369-2.71-3.51 1.263-1.353 1.429-1.356 2.964-.064m26.22.72 1.589 1.344-1.143 1.65c-2.12 3.059-5.435 2.269-5.435-1.295 0-3.193 2.298-3.976 4.989-1.699m-67.018 2.098c1.685 2.142.408 5.325-1.906 4.751-2.375-.589-3.488-2.513-2.632-4.548.724-1.723 3.253-1.836 4.538-.203m-8.229.327c2.517 2.333.613 6.519-2.422 5.32-2.465-.973-3.217-3.307-1.691-5.247 1.065-1.354 2.7-1.383 4.113-.073m40.629.404c2.671 1.381 1.841 4.615-1.184 4.615-1.517 0-2.374-.808-2.648-2.498-.409-2.521 1.264-3.445 3.832-2.117m-19.571.494c2.218.474 2.499 1.924.759 3.907-1.314 1.496-3.287 1.926-4.279.934-1.317-1.317.078-5.817 1.65-5.326.479.149 1.32.367 1.87.485m66.628 2.243c1.958 1.685.676 5.078-1.919 5.078-1.97 0-2.897-2.402-1.919-4.974.509-1.34 2.343-1.389 3.838-.104m21.743.532c1.509 1.919.437 3.492-2.232 3.272-1.568-.128-2.302-1.882-1.578-3.768.388-1.011 2.88-.687 3.81.496m-51.602 2.846c3.35 1.902.855 5.742-3.118 4.798-2.227-.529-2.547-.919-2.196-2.675.525-2.624 2.817-3.54 5.314-2.123m25.746 3.054c.408.58.057 2.957-.545 3.682-1.424 1.716-4.77.024-4.77-2.412 0-1.913 4.161-2.907 5.315-1.27m36.671.22c1.781 3.327-2.87 6.385-5.093 3.348-.887-1.212-.469-3.442.707-3.766 2.073-.572 3.952-.393 4.386.418m-111.217 1.462c1.327 1.116 1.727 3.508.751 4.484-.914.914-3.754.592-4.474-.506-2.135-3.259.823-6.419 3.723-3.978m35.7.826c1.819 1.647.254 4.425-2.264 4.016-1.626-.264-3.805-1.679-3.805-2.472 0-1.749 4.56-2.909 6.069-1.544m54.768 1.157c2.165 1.119 2.464 3.642.536 4.52-3.325 1.515-5.545-.667-3.944-3.878.71-1.422 1.582-1.586 3.408-.642m-72.137.829c2.75 1.743-1.038 5.667-3.977 4.119-1.702-.897-2.225-3.908-.823-4.745.853-.509 3.57-.155 4.8.626M288.423 212c3.507.974 4.404 3.725 1.625 4.979-2.892 1.304-4.43.192-4.442-3.212-.008-2.319.249-2.481 2.817-1.767m-16.852 1.454c1.732 2.201.466 4.867-2.084 4.389-3.759-.706-3.835-5.443-.087-5.443.973 0 1.57.29 2.171 1.054m-16.071 1.451c.638.502.653 3.982.02 4.615-1.041 1.041-3.844.588-4.526-.731-1.69-3.269 1.638-6.137 4.506-3.884m61.854 1.281c1.388 2.118.547 5.014-1.455 5.014-3.553 0-4.289-3.626-1.092-5.377 1.443-.791 1.827-.736 2.547.363m-84.85.636c2.917.81 3.488 3.665 1.033 5.158-2.671 1.624-5.477-1.868-3.691-4.594.741-1.131.669-1.116 2.658-.564m-31.83 2.048c1.096 1.029 1.224 2.927.288 4.263-1.479 2.111-5.177-.155-4.259-2.608.232-.619.523-1.44.647-1.825.318-.988 2.193-.893 3.324.17m20.474 1.167c2.479 2.31-1.313 5.919-3.917 3.727-1.289-1.084-1.569-2.385-.817-3.79.595-1.111 3.515-1.072 4.734.063m40.05 2.561c3.407 2.514 2.364 5.824-1.665 5.284-3.24-.435-3.908-2.424-1.698-5.051 1.254-1.49 1.624-1.516 3.363-.233m41.253.191c1.045 1.046 1.156 1.373.916 2.7-.342 1.891-.321 1.871-1.928 1.871-3.285 0-4.45-2.482-2.15-4.583 1.593-1.455 1.695-1.454 3.162.012m-58.023 1.445c.958 1.154.718 4.254-.373 4.806-1.593.807-5.265-.76-5.585-2.384-.407-2.072 4.569-4.095 5.958-2.422m82.398.98c.651.348.774.855.774 3.186 0 3.165-.38 3.6-3.145 3.6-2.373 0-3.302-1.31-2.723-3.842.611-2.67 3.013-4.058 5.094-2.944m-51.29 3.426c2.35 1.646 1.684 4.166-1.098 4.154-1.645-.007-2.321-.337-2.445-1.194-.394-2.699 1.572-4.341 3.543-2.96m-44.836.556c2.536 1.546.976 5.204-2.219 5.204-2.513 0-2.921-4.85-.481-5.722 1.021-.365 1.358-.301 2.7.518m56.374.474c.92.864 1.244 2.836.62 3.769-.534.799-3.563 1.035-4.265.333-2.337-2.338 1.239-6.362 3.645-4.102m-71.612 1.981c.746.62.674 2.736-.124 3.618-.928 1.025-3.567.998-4.124-.043-1.538-2.874 1.754-5.645 4.248-3.575m33.465 2.437c1.106 2.262.322 3.669-2.133 3.83-2.762.181-3.764-1.618-2.21-3.966 1.442-2.179 3.239-2.123 4.343.136m63.973 1.588c1.743 2.023-.412 5.524-3.4 5.524-3.043 0-3.598-5.935-.61-6.52 1.518-.297 3.27.138 4.01.996m-12.469.293c1.399 1.4 1.508 2.884.294 4.015-2.202 2.051-5.252-.241-3.874-2.91 1.292-2.5 1.974-2.71 3.58-1.105m-98.52 1.054c1.651 1.156.871 4.587-1.04 4.572-1.554-.013-2.442-.537-2.839-1.675-.879-2.521 1.683-4.435 3.879-2.897m138.307 1.159c1.101 1.1 1.149 1.399.567 3.495-.647 2.33-3.8 2.591-4.943.409-1.618-3.087 1.982-6.299 4.376-3.904m-106.108 2.643.825 1.424-.943 1.276c-1.099 1.487-1.882 1.591-3.338.446-1.615-1.271-1.49-3.376.246-4.142 1.793-.791 2.26-.646 3.21.996m35.732.966c1.994 1.306.244 4.203-2.542 4.208-2.096.003-3.506-3.745-1.8-4.787.88-.538 3.086-.244 4.342.579m13.75 1.652c2.875 1.151 2 4.557-1.172 4.557-2.561 0-3.724-2.831-1.788-4.354 1.284-1.01.992-.99 2.96-.203m-73.614 5.133.917.976-.881 1.425c-1.658 2.683-4.814 2.325-4.814-.546 0-2.704 2.916-3.836 4.778-1.855m38.408.998c.458.857.547 2.814.171 3.793-.659 1.719-4.957.323-4.957-1.61 0-2.737 3.609-4.383 4.786-2.183m75.29.826c1.16 2.393-.278 4.8-2.866 4.8-1.639 0-2.41-.573-2.41-1.791 0-.457-.264-1.208-.587-1.669-.524-.748-.513-.903.1-1.434 2.344-2.027 4.754-1.988 5.763.094m-24.808.189c.303.665.333 1.549.091 2.7l-.36 1.711-2.443.118c-2.797.134-3.931-1.122-3.113-3.447.758-2.157 4.978-2.941 5.825-1.082m-17.568 1.016c2.983 3.275-1.134 7.288-4.692 4.574-1.757-1.34-1.919-1.884-1.143-3.825 1.068-2.669 3.77-3.015 5.835-.749m-55.925.613q.668 1.018.546 2.9L225.8 257l-1.631.12c-3.157.231-4.729-2.621-2.612-4.739 1.477-1.476 2.917-1.538 3.818-.163m11.704 6.021c2.438 2.259 1.266 5.761-1.928 5.761-4.011 0-5.009-4.328-1.411-6.121 1.734-.864 2.056-.83 3.339.36m-34.269 2.387c1.028 2.705.022 4.574-2.462 4.574-1.468 0-2.748-1.275-2.748-2.738 0-2.174 4.481-3.753 5.21-1.836m13.453 4.074c2.139 2.295 2.169 4.449.078 5.531-3.041 1.572-5.659-3.313-3.131-5.841 1.072-1.072 1.838-.994 3.053.31m51.364.008c1.126 1.005 1.196 1.204.762 2.156-.934 2.051-3.083 2.446-4.573.84-2.675-2.885.842-5.65 3.811-2.996m-15.985.743c.711.857.691 3.466-.034 4.34-.738.889-3.538.588-4.319-.464-1.776-2.396 2.455-6.164 4.353-3.876m38.445 5.299c-.212 3.287-1.903 4.254-4.233 2.421-2.481-1.952-1.115-4.438 2.346-4.269l2 .098zm-56.067.66c2.328 1.204 1.236 4.99-1.439 4.99-1.675 0-3.515-3.231-2.841-4.988.309-.804 2.726-.805 4.28-.002m110.396 1.465c2.082 1.539 1.561 4.184-.903 4.584-2.648.43-4.159-2.586-2.297-4.584 1.026-1.102 1.71-1.102 3.2 0m-128.135 4.403c2.081 2.018 1.647 4.009-1.103 5.054-1.248.475-2.378-.061-2.378-1.128 0-.416-.18-.868-.4-1.004-.703-.434-.431-1.701.636-2.969 1.295-1.54 1.612-1.535 3.245.047m-13.17.145c1.864 1.305.273 4.577-2.225 4.577-1.837 0-2.486-.562-2.486-2.154 0-2.453 2.692-3.838 4.711-2.423m111.972 6.62c.914 1.506.4 2.958-1.488 4.208-1.689 1.118-2.795.873-2.795-.62 0-.369-.198-.869-.44-1.111-.595-.595-.078-2.802.882-3.762.961-.961 2.866-.325 3.841 1.285m-87.965.56c.244 3.309-4.272 4.227-4.845.985-.378-2.137.306-2.842 2.622-2.709L227 283zm37.45.162c1.806 1.995-.337 4.53-3.225 3.815-1.783-.442-2.035-1.108-1.185-3.141.719-1.722 3.129-2.09 4.41-.674m102.361 1.742c.559 2.378-.424 3.571-2.812 3.414-3.719-.245-4.452-4.122-.903-4.777 2.728-.503 3.328-.283 3.715 1.363m-117.825 1.596c.708 1.437.053 3.003-1.39 3.319-.613.135-1.352.319-1.643.41-1.706.532-3.043-3.336-1.571-4.545 1.398-1.148 3.851-.713 4.604.816m-50.192 5.064c2.606.99 3.273 4.303 1.093 5.43-2.992 1.548-6.369-2.693-3.862-4.85 1.234-1.061 1.408-1.098 2.769-.58m80.196 2.461c1.556.542 1.848 1.31 1.07 2.815-.752 1.453-2.196 2.082-3.578 1.557-.957-.364-1.046-.599-1.167-3.088-.06-1.255 1.846-1.922 3.675-1.284m-51.794 10.334c1.161 1.966.923 4.243-.506 4.835-3.201 1.326-6.421-2.183-4.794-5.223.733-1.369 4.421-1.099 5.3.388m82.014 1.794c1.501 3.195-1.438 5.901-4.342 3.998-1.429-.936-1.498-4.951-.086-4.96.495-.003 1.17-.185 1.5-.402 1.113-.735 2.174-.241 2.928 1.364m38.248.11c.88 2.98-1.823 4.559-4.729 2.763-1.635-1.011.47-4.629 2.693-4.629 1.423 0 1.509.079 2.036 1.866m-139.302 7.404c1.232 1.157 1.168 2.348-.196 3.655-2.245 2.152-5.051.888-4.963-2.234.066-2.307 3.275-3.191 5.159-1.421m42.701 1.191c1.319.601 1.729 2.59.875 4.242-1.533 2.965-4.25 1.361-4.25-2.509 0-1.958 1.354-2.653 3.375-1.733m26.751 9.199c2.81 1.479 1.305 6.537-1.64 5.51-2.392-.834-2.695-4.334-.472-5.459 1.205-.61 1.057-.607 2.112-.051m-58.251 3.854c1.5.954 1.229 4.829-.411 5.863-1.303.822-4.895-2.44-4.577-4.157.231-1.242 3.798-2.462 4.988-1.706" fill="#fbb304"/><path d="M204.8 21.798c-1.19.427-1.418.71-1.52 1.889-.186 2.14 3.22 4.453 4.57 3.103.281-.281.756-.091 1.501.6.6.555 1.396.996 1.77.978.416-.019.486-.109.179-.233-.275-.111-.5-.525-.5-.919 0-.395-.27-.942-.6-1.216s-.6-.746-.6-1.049-.177-.551-.392-.551-.506-.45-.644-1-.411-1-.607-1c-.197 0-.357-.27-.357-.6 0-.701-.85-.702-2.8-.002m-.658 10.079c-1.798.351-2.237 1.392-1.742 4.123.372 2.049.35 2.597-.121 3.141-.591.683-.839 3.308-.434 4.596.251.796 2.596.654 3.655-.222.713-.589.639-3.087-.1-3.37-.976-.375-.697-.879.949-1.719 2.373-1.211 2.772-3.767.882-5.657-1.154-1.153-1.396-1.223-3.089-.892M212.4 34c-.957.957-1.013 2.027-.19 3.62.766 1.481 2.452 1.604 3.706.269.836-.889.861-2.689.037-2.689-.194 0-.353-.341-.353-.757 0-1.388-1.981-1.662-3.2-.443m-1.777 8.889c-1.255 1.791.681 5.111 2.981 5.111 1.517 0 2.438-2.993 1.532-4.981-.64-1.405-3.561-1.489-4.513-.13M222.8 47.2c0 .875-1.139 1.101-1.869.371-2.072-2.072-4.268 1.456-2.743 4.407 1.136 2.195 5.412.24 5.412-2.475 0-.298.216-.759.48-1.023.373-.373.373-.48 0-.48-.264 0-.48-.36-.48-.8s-.18-.8-.4-.8-.4.36-.4.8m-20.933 1.067c-.436.435-.303 4.463.156 4.747.732.453 2.313-.181 2.584-1.037.312-.984 1.146-.82 1.309.256.319 2.117.601 2.56 2.253 3.528.975.571 2.236 1.039 2.802 1.039 1.206 0 1.223.065.408 1.64-1.211 2.343.784 4.606 3.679 4.172l1.671-.25-.211 1.572c-.471 3.514 2.281 4.928 5.924 3.044 3.043-1.573.059-6.093-3.442-5.214-.917.23-1 .14-1-1.08 0-2.088-2.501-4.279-4.887-4.283-.816-.001-1.029-.155-.851-.618.817-2.13-1.675-5.733-3.705-5.355-1.228.229-2.133-.124-2.384-.928-.424-1.36-3.344-2.196-4.306-1.233m19.362 7.987c-1.661 2.112 1.229 5.786 3.422 4.35 1.222-.801 1.729-.762 2.766.212 1.2 1.127 3.367 1.418 4.383.587.564-.461.653-.715.3-.861-.275-.115-.5-.464-.5-.775 0-.312-.177-.567-.392-.567s-.502-.437-.636-.971c-.335-1.334-1.254-1.58-2.433-.652-.957.752-2.139.732-2.139-.038 0-1.96-3.499-2.903-4.771-1.285M203.3 61.196c-2.296 1.4-1.462 4.804 1.178 4.804 2.732 0 3.805-2.384 1.962-4.358-1.368-1.464-1.452-1.476-3.14-.446m29.115 2.368c-.61 1.472-.055 2.639 1.432 3.012 1.16.291 2.298-.384 1.504-.893-.244-.155-.57-.688-.724-1.183s-.449-.9-.654-.9-.373-.27-.373-.6c0-.995-.672-.676-1.185.564M208.323 65.1c-2.022 2.354.132 4.692 3.477 3.772 2.229-.612 1.507-2.715-1.341-3.905-1.65-.689-1.417-.704-2.136.133m15.842 3.097c-1.292 1.973.194 4.605 2.597 4.6 1.581-.003 3.503-2.44 2.987-3.786-.706-1.838-4.546-2.398-5.584-.814m11.692 1.172c-2.087 3.185-.411 5.995 2.724 4.567 1.14-.52 1.407-2.101.419-2.481-.33-.126-.6-.596-.6-1.042s-.167-.813-.371-.813c-.205 0-.637-.265-.961-.589-.52-.52-.664-.477-1.211.358m-18.539 1.65c-1.113.878-1.39.943-2.106.496-1.249-.78-3.664.628-4.264 2.486-.504 1.562-1.073 1.791-3.538 1.421-1.278-.191-1.807-.497-2.144-1.238-.596-1.307-3.784-1.458-4.452-.21-1.241 2.318.193 5.525 2.283 5.107 1.048-.21 1.364-.039 2.471 1.339.698.869 1.51 1.58 1.804 1.58.889 0 3.428-3.112 3.428-4.201 0-1.123.828-1.329 1.6-.399.974 1.174 2.342.72 3.545-1.178 1.002-1.579 1.195-1.711 1.727-1.179 1.723 1.724 5.714.684 5.333-1.389-.599-3.255-3.307-4.51-5.687-2.635m14.082 4.14c-3.068 1.792.235 5.878 3.42 4.231 1.525-.789 1.65-2.809.254-4.12-1.098-1.032-2.047-1.061-3.674-.111m10.067 1.508c-1.165 1.164.676 5.084 2.279 4.853 1.062-.153 1.006-1.719-.094-2.678-.406-.353-.865-1.047-1.022-1.542q-.431-1.365-1.163-.633m-18.73 2.585c-.97 1.258-1.022 1.274-1.956.62-2.134-1.495-5.181-.258-5.181 2.104 0 2.615 4.192 3.56 5.403 1.218.736-1.423.749-1.425 2.266-.345 2.511 1.788 4.934-.043 3.885-2.934-.859-2.363-2.873-2.665-4.417-.663m16.589 3.543c-.48.198-1.081.748-1.335 1.222-.478.893-.662.9-4.242.164-2.355-.484-3.362 2.609-1.716 5.272 1.403 2.27 4.795 1.746 4.922-.76.043-.84.195-.885 2.54-.753 3.035.17 3.617-.594 2.735-3.592-.545-1.853-1.254-2.232-2.904-1.553m-38.317 1.454c-1.292 1.291-.669 4.326.919 4.478 2.481.238 4.673-2.839 3.247-4.557-.646-.778-3.361-.727-4.166.079m9.491 2.747c-1.55.674-1.69 1.732-.458 3.463 1.379 1.937 3.815 1.545 5.118-.823l.97-1.763-.909-.737c-1.075-.87-2.915-.925-4.721-.14m36.145.154c-2.516 2.781-.067 5.984 3.522 4.607.804-.308.828-2.107.033-2.412-.33-.127-.6-.481-.6-.788 0-1.572-1.961-2.505-2.955-1.407m-23.594.95c-1.862 2.952-.48 5.5 2.983 5.5 2.654 0 2.172-5.031-.573-5.989-1.622-.565-1.764-.536-2.41.489m17.469 3.2c-2.023 2.221-2.145 4.196-.311 5.031 3.685 1.679 6.195-1.868 3.315-4.684-1.52-1.486-1.925-1.532-3.004-.347m-38.92 1.1c-1.392 1.392-.577 4.226 1.484 5.166 1.163.529 2.917-.944 2.915-2.448-.005-2.765-2.691-4.426-4.399-2.718m28.7.629c-2.489 1.35-.348 5.371 2.86 5.371 2.176 0 2.856-3.221 1.058-5.018-1.113-1.113-2.317-1.222-3.918-.353m-19.938 1.748c-2.007 2.006-1.047 6.023 1.439 6.023 1.173 0 3.799-2.414 3.799-3.493 0-2.596-3.488-4.281-5.238-2.53m11.838.685-1.673.355c-1.881.399-1.203 3.794.918 4.6 2.704 1.028 4.555.268 4.555-1.871 0-2.998-.869-3.704-3.8-3.084m31.142.745c-.468 1.22.661 2.993 1.907 2.993.633 0 1.151-.18 1.151-.4s-.18-.4-.4-.4-.4-.27-.4-.6-.168-.6-.373-.6-.487-.36-.627-.8c-.301-.948-.931-1.045-1.258-.193m-17.216 2.196c-1.991.802-2.079 2.897-.206 4.897 1.948 2.081 4.08.777 4.08-2.495 0-2.651-1.283-3.446-3.874-2.402m11.181 1.297c-2.254 2.88-.242 8.794 2.23 6.557.366-.331 1.156-.788 1.758-1.017 1.907-.725.922-5.24-1.144-5.24-.523 0-.951-.18-.951-.4 0-.571-1.427-.495-1.893.1m-37.072 3.863c-1.92 2.005-.902 4.316 2.078 4.716 2.057.276 2.887-.554 2.887-2.885 0-3.007-2.836-4.053-4.965-1.831m16.057-.444c-1.768 2.015-.741 4.081 2.028 4.081 1.972 0 3.155-2.333 1.823-3.596-1.118-1.059-3.125-1.312-3.851-.485m31.094.862c-2.468 1-2.754 4.451-.449 5.42 2.174.914 4.301-1.202 3.683-3.664-.479-1.907-1.497-2.46-3.234-1.756m-55.347 1.545c-1.53 2.859.882 5.799 3.259 3.974.771-.592 1.269-3.074.768-3.83-.649-.982-3.523-1.085-4.027-.144m18.623 1.205c-.661.73-.9 3.382-.419 4.636.53 1.382 4.964.123 5.624-1.596.815-2.124-3.666-4.741-5.205-3.04m18.438 4.101c-1.801 1.049-2.404 4.023-1 4.932 1.881 1.216 2.821 1.162 4.464-.258l1.545-1.336-.652-1.261c-1.117-2.158-2.822-2.971-4.357-2.077m-37.404 1.079c-2.456 2.052-1.496 4.619 1.703 4.554 2.398-.048 2.781-.416 2.669-2.563-.156-3.001-2.102-3.887-4.372-1.991m12.364 1.637c-1.499 1.3-1.944 3.655-.857 4.535 2.026 1.64 6.025.015 5.389-2.19-.776-2.689-2.88-3.777-4.532-2.345m35.758.952c-.94.824-.991 1.026-.605 2.395.692 2.454 3.561 3.02 4.987.984 1.991-2.843-1.724-5.709-4.382-3.379m-22.036 1.282c-1.251 1.251-1.243 2.233.028 3.427 2.695 2.533 6.331-.356 4.576-3.635-.633-1.183-3.336-1.061-4.604.208m31.53 1.417c-.488.202-1.003.824-1.143 1.384-.799 3.182 1.978 5.394 4.014 3.198 2.352-2.538.262-5.873-2.871-4.582m-16.017.783c-.498.415-1.106.822-1.35.903-1.612.537.521 4.315 2.436 4.315 2.883 0 3.86-3.053 1.588-4.964-1.454-1.224-1.506-1.229-2.674-.254m-44.068 2.87c-1.053 1.731-.029 4.348 1.7 4.348.951 0 3.073-1.873 3.073-2.713 0-2.619-3.455-3.802-4.773-1.635m10.996.037c-1.789 2.553.892 5.484 3.951 4.321 1.206-.459 1.332-1.581.421-3.761-.759-1.815-3.268-2.136-4.372-.56m8.116.611c-2.415 2.892-.241 7.839 2.621 5.963 1.521-.996 2.408-3.293 1.82-4.712-.811-1.958-3.271-2.651-4.441-1.251m50.193 1.435-1.457 1.334.934 1.661c1.051 1.871 1.968 2.341 3.14 1.609 1.534-.958 1.675-3.552.269-4.957-1.231-1.232-1.146-1.242-2.886.353m-33.865 2.691c-.915 1.305.449 4.317 1.975 4.361 1.696.049 3.27-3.515 2.078-4.707-.813-.813-3.396-.593-4.053.346m-6.467.036c-2.247 1.229-2.424 3.394-.44 5.378 1.699 1.699 2.76 1.716 4.263.071 2.587-2.833-.517-7.257-3.823-5.449m-23.98 1.276c-2.292 3.005 1.39 7.742 3.78 4.862.798-.962 1.346-.684 2.2 1.114.966 2.035 2.209 2.393 3.639 1.049 2.319-2.178.708-5.384-2.515-5.006l-2.124.25v-1.561c0-1.725-.41-2.046-2.612-2.046-1.058 0-1.567.288-2.368 1.338m50.522.544c-3.028.466-2.599 4.129.554 4.737 2.826.544 4.706-3.765 2.082-4.772-.655-.252-.779-.25-2.636.035m-11.251 1.86c-2.813 2.577-1.741 6.241 1.658 5.667 2.769-.468 3.64-2.92 1.937-5.447-1.217-1.806-1.823-1.843-3.595-.22m25.669 1.9c-2.23 2.388.338 6.093 3.407 4.915 1.128-.433.894-5.594-.267-5.905-1.546-.414-1.945-.288-3.14.99m-7.05 3.196c-1.6.592-1.555 3.259.082 4.897.594.594.774.6 1.818.06 1.244-.643 2.459-3.517 1.757-4.153-.744-.675-2.791-1.125-3.657-.804m-43.861.97c-1.309 1.309-.337 4.592 1.36 4.592 1.245 0 3.564-1.284 3.829-2.12.675-2.126-3.531-4.13-5.189-2.472m32.731 2.379q-1.353 3.238.42 3.605l1.994.414c.666.138 1.084.567 1.266 1.3.95 3.825 4.253 4.506 6.507 1.341 1.445-2.031.065-4.892-2.039-4.224-1.442.458-3.128-.203-3.128-1.226 0-2.532-4.059-3.51-5.02-1.21m-47.749.449c-1.392 1.171-1.52 2.039-.575 3.884 1.765 3.446 5.348 2.055 5.341-2.074-.005-2.839-2.443-3.765-4.766-1.81m76.362-.1c-.504.255-1.283.959-1.733 1.564l-.816 1.1.818 1.1c1.04 1.398 1.995 1.525 3.677.489 2.151-1.325.292-5.387-1.946-4.253m-46.237 1.056c-2.918 1.179 1.028 5.821 3.984 4.686.688-.264 1.133-3.394.618-4.356-.42-.786-3.014-.972-4.602-.33m33.924 4.888c-2.014 2.014 1.047 6.232 3.872 5.335 1.327-.421 1.547-4.664.286-5.509-.704-.472-3.634-.35-4.158.174m-25.253 1.082c-2.474 3.475.868 7.58 3.791 4.656 1.49-1.49 1.313-3.087-.509-4.589-1.845-1.521-2.241-1.529-3.282-.067m-17.027.242c-.66.296-2.457.539-3.993.539-4.041.001-5.347 1.982-3.407 5.165.916 1.502 1.913 1.47 4.285-.14 1.137-.772 1.675-.873 3.586-.676 2.645.273 3.329-.291 3.329-2.746 0-2.35-1.48-3.184-3.8-2.142m57.181 2.054c-1.665 1.797-.528 4.942 1.786 4.942 1.737 0 3.571-4.302 2.353-5.52-.877-.877-3.074-.57-4.139.578m-73.888.445c-1.987 2.074-1.219 4.165 1.56 4.252 2.176.068 3.138-1.368 2.381-3.555-.734-2.119-2.312-2.398-3.941-.697m58.207 2.585c-1.24.598-1.199 2.449.082 3.73 1.148 1.148 1.877 1.224 3.232.336 2.693-1.764-.349-5.496-3.314-4.066m-10.83.838c-.479.509-.87 1.139-.87 1.4 0 .642-.516.597-2.173-.193-2.706-1.291-5.468.256-4.588 2.57 1.019 2.681 2.688 3.18 4.772 1.427 1.062-.894 1.396-.993 2.025-.6 2.098 1.31 6.494-.372 5.787-2.214a17 17 0 0 1-.471-1.564c-.473-1.885-3.042-2.359-4.482-.826m-57.24.838c-1.644 1.981-.478 5.036 1.921 5.036 2.28 0 2.547-3.445.385-4.96-1.126-.788-1.699-.807-2.306-.076m34.17.916c-1.26.295-1.8 1.317-1.8 3.405 0 3.223 2.71 3.718 4.937.902l1.137-1.437-1.091-1.575c-1.056-1.523-1.477-1.694-3.183-1.295m52.68 2.2c-.7.7-.591 3.352.169 4.111 1.089 1.09 4.177.674 4.925-.664 1.468-2.626-2.936-5.605-5.094-3.447m-66.17 1.068c-1.66 1.862-1.706 2.601-.267 4.24 1.507 1.716 2.858 1.777 4.042.183 2.412-3.245-1.129-7.394-3.775-4.423m58.934-.124c-3.808 3.204.189 8.025 4.102 4.947 1.723-1.356 1.022-4.51-1.231-5.537-1.324-.603-1.494-.568-2.871.59m-38.357 1.2c-1.117.783-2.153 2.738-1.858 3.506.668 1.742 5.287 2.108 5.916.468 1.284-3.346-1.317-5.894-4.058-3.974m29.963.722c-.977 1.041-.625 4.079.59 5.087 1.257 1.043 4.97-.992 4.958-2.717-.023-3.255-3.372-4.686-5.548-2.37m-61.129 1.859c-.908.365-2.121 2.291-2.121 3.366 0 1.973 4.604 2.447 5.501.566 1.132-2.374-1.023-4.881-3.38-3.932m35.27 3.21c-.331.535.178 3.634.703 4.285 1.217 1.507 5.106-.135 5.106-2.156 0-1.908-4.848-3.685-5.809-2.129m15.509.381c-1.501.915-1.612 1.688-.504 3.504 1.282 2.103 3.767 1.571 4.232-.907.531-2.832-1.277-4.092-3.728-2.597m-61.041.441c-.74 1.056-.08 3.4 1.191 4.233 1.635 1.071 4.383-1.063 4.075-3.164-.21-1.434-4.413-2.287-5.266-1.069m27.523 1.745c-2.632 2.631.432 7.441 3.254 5.109 2.033-1.68 2.065-4.075.072-5.47-1.25-.876-2.192-.774-3.326.361m61.618 1.809c-2.212.327-2.6.654-2.6 2.188 0 3.299 3.623 4.578 5.393 1.904 1.741-2.632.42-4.567-2.793-4.092m-70.7 1.038c-1.526.828-1.55 2.959-.046 4.142 2.576 2.026 5.236-.353 3.686-3.297-.848-1.612-1.813-1.836-3.64-.845m34.8 2.035c-2.339 1.232-1.007 4.54 1.823 4.53 2.168-.008 2.656-.352 2.935-2.072.466-2.875-1.771-4.031-4.758-2.458m10.497-.06c-1.468 1.769.193 4.996 2.572 4.996 2.049 0 2.631-.532 2.631-2.405 0-2.436-3.773-4.315-5.203-2.591m34.419-.009c-2.249.812-2.446 3.19-.439 5.305 1.543 1.626 3.623-.051 3.623-2.922 0-3.081-.407-3.385-3.184-2.383m-23.116 2.038c-2.586 2.039-1.425 4.967 1.97 4.967 1.983 0 2.884-.666 3.333-2.463.763-3.058-2.591-4.641-5.303-2.504m-76.129.444c-1.289 3.389.8 6.011 2.783 3.491 1.098-1.396 1.072-2.616-.08-3.698-1.244-1.17-2.208-1.096-2.703.207m31.385.029c-.855.565-1.823 2.972-1.582 3.932.739 2.946 6.226 2.409 6.226-.61 0-1.85-3.301-4.211-4.644-3.322m-20.867 2.717c-1.383.968-1.17 2.647.525 4.136 1.727 1.516 1.905 1.524 2.993.141 2.205-2.803-.657-6.282-3.518-4.277m33.716.907c-2.376.193-3.011 2.138-1.376 4.216 1.511 1.921 5.171 1.255 5.171-.941 0-2.709-.927-3.509-3.795-3.275m33.245 2.355c-.749.192-.753 3.139-.008 5.081.736 1.917 4.091.099 4.426-2.398.34-2.53-1.251-3.496-4.418-2.683m-54.864 3.191c-.448.086-1.06.555-1.361 1.041s-.796 1.266-1.101 1.735c-.922 1.42.981 3.348 3.303 3.348 1.643 0 1.809-.102 2.563-1.58 1.388-2.721-.41-5.122-3.404-4.544m63.753.698c-.632 1.387.662 3.575 2.222 3.757 2.083.242 3.892-2.307 2.772-3.905-.906-1.294-4.384-1.191-4.994.148m23.29.08c-1.12 1.424-1.047 2.021.413 3.386 2.852 2.663 5.017-.171 2.399-3.14-1.388-1.574-1.743-1.605-2.812-.246m-53.409.684c-2.457 3.221 1.155 5.61 4.48 2.962.668-.532.63-1.305-.146-2.94-.916-1.932-2.87-1.942-4.334-.022m11.805-.768c-.487.586-.248 2.993.427 4.303.568 1.102 1.788 1.225 3.498.352 2.133-1.088 2.222-1.322 1.293-3.42-.866-1.959-4.002-2.701-5.218-1.235m-61.656.999c-1.598 1.599-1.476 2.292.582 3.292 2.828 1.374 4.973-.658 3.409-3.23-.98-1.611-2.419-1.634-3.991-.062m27.058.962c-1.803 1.318-.485 5.503 1.717 5.455 2.057-.046 3.974-4.011 2.602-5.383-.745-.745-3.34-.788-4.319-.072m65.155 2.851c-1.314 1.314-.99 3.072.795 4.312 1.325.92 4.223-1.14 4.223-3.001 0-2.265-3.222-3.107-5.018-1.311m-36.282 3.975c-2.48 1.883.933 6.124 3.726 4.629.903-.483 1.115-3.885.294-4.706-.638-.638-3.141-.59-4.02.077m-12.895.943c-1.998 2.141-.051 4.663 2.71 3.51 1.909-.798 2.002-2.104.254-3.574-1.535-1.292-1.701-1.289-2.964.064m24.857.031c-1.389 1.536-.612 5.169 1.138 5.325 1.913.17 2.538-.124 3.635-1.706l1.143-1.65-1.589-1.344c-1.781-1.507-3.327-1.73-4.327-.625m-67.229 2.926c-.633 1.505-.451 2.4.705 3.479 2.061 1.924 4.662 1.097 4.662-1.482 0-3.094-4.242-4.672-5.367-1.997m-7.804.197c-1.526 1.94-.774 4.274 1.691 5.247 2.034.804 3.48-.356 3.48-2.79 0-3.04-3.43-4.67-5.171-2.457m41.168.349c-.662.798-.23 3.437.67 4.096 1.504 1.099 4.533.104 4.533-1.489 0-2.452-3.765-4.339-5.203-2.607m-19.367.938c-2.089 4.04 1.198 6.783 4.129 3.445 1.74-1.983 1.459-3.433-.759-3.907a26 26 0 0 1-1.87-.485c-.698-.218-.994-.031-1.5.947m66.16 1.885c-1.417 3.726 1.112 6.396 3.838 4.052.702-.605 1.072-1.321 1.072-2.078 0-2.518-4.08-4.158-4.91-1.974m21.771-.068c-.724 1.886.01 3.64 1.578 3.768 1.567.129 3.061-.718 3.061-1.734 0-1.879-4.022-3.642-4.639-2.034m-52.101 3.47c-.424.455-.876 1.353-1.005 1.995-.651 3.259 4.765 4.233 6.361 1.145 1.449-2.8-3.157-5.5-5.356-3.14m26.44 2.443c-1.598.353-1.7.459-1.7 1.753 0 3.753 4.893 4.214 5.434.512.328-2.246-.781-2.919-3.734-2.265m35.9.285c-1.176.324-1.594 2.554-.707 3.766 1.587 2.169 5.507 1.08 5.507-1.53 0-2.406-1.556-3.131-4.8-2.236m-110.577 1.733c-1.577 2.252-.266 5.111 2.343 5.111 2.062 0 2.634-.531 2.634-2.444 0-2.746-3.579-4.663-4.977-2.667m34.477 1.157c-1.41 1.052-1.388 1.694.096 2.751 2.665 1.898 5.604 1.27 5.604-1.197 0-2.318-3.425-3.252-5.7-1.554m56.329 1.615c-1.601 3.211.619 5.393 3.944 3.878 1.928-.878 1.629-3.401-.536-4.52-1.826-.944-2.698-.78-3.408.642m-73.529-.439c-.723.431-.981 2.938-.394 3.818 1.518 2.273 6.094 1.152 6.094-1.493 0-1.817-3.892-3.404-5.7-2.325m62.767 2.645c-.451.45-.284 3.475.249 4.533.877 1.739 5.087 1.08 5.714-.894.556-1.753-4.664-4.939-5.963-3.639m-18.638 1.587c-1.035 1.316-1.037 1.774-.012 3.077 1.194 1.517 3.491 1.869 4.453.682 1.554-1.919.189-4.813-2.27-4.813-.973 0-1.57.29-2.171 1.054m-15.479.956c-2.524.971-1.219 5.59 1.58 5.59 2.181 0 2.67-.518 2.67-2.831 0-2.447-1.883-3.67-4.25-2.759m63.057 1.413c-3.197 1.751-2.461 5.377 1.092 5.377 2.002 0 2.843-2.896 1.455-5.014-.72-1.099-1.104-1.154-2.547-.363m-84.961 1.563c-1.786 2.726 1.02 6.218 3.691 4.594 2.455-1.493 1.884-4.348-1.033-5.158-1.989-.552-1.917-.567-2.658.564M197.35 218.7a52 52 0 0 1-.647 1.825c-.918 2.453 2.78 4.719 4.259 2.608.936-1.336.808-3.234-.288-4.263-1.131-1.063-3.006-1.158-3.324-.17m19.064 1.274c-.91 1.699.618 4.826 2.358 4.826.924 0 3.04-1.932 3.151-2.876.271-2.31-4.427-3.973-5.509-1.95m41.421 2.857c-2.21 2.627-1.542 4.616 1.698 5.051 4.029.54 5.072-2.77 1.665-5.284-1.739-1.283-2.109-1.257-3.363.233m41.454-.054c-2.3 2.101-1.135 4.583 2.15 4.583 1.607 0 1.586.02 1.928-1.871.527-2.916-2.008-4.602-4.078-2.712m-59.749 2.022c-1.375 1.374-1.359 2.204.06 3.26 2.944 2.188 5.413 1.571 5.377-1.344-.042-3.362-2.963-4.391-5.437-1.916m83.84.748c-3.033 1.85-2.266 6.453 1.075 6.453 2.765 0 3.145-.435 3.145-3.6 0-3.641-1.388-4.58-4.22-2.853M272.8 228.8c-1.069 1.069-1.211 3.086-.26 3.694.911.582 3.325.318 4.009-.438 1.79-1.978-1.859-5.146-3.749-3.256m-44.8-.122c-1.6.571-2.223 3.841-.971 5.093 1.519 1.52 4.971-.154 4.971-2.41 0-1.877-2.174-3.336-4-2.683m55.854.951c-2.338 1.839-1.038 4.965 1.875 4.51 1.915-.298 2.256-.656 2.265-2.369.012-2.442-2.262-3.618-4.14-2.141m-72.156 2.066c-1.757 1.871-.935 4.305 1.454 4.305 1.835 0 2.848-.954 2.848-2.683 0-2.238-2.749-3.274-4.302-1.622m32.886 2.257c-1.554 2.348-.552 4.147 2.21 3.966 2.455-.161 3.239-1.568 2.133-3.83-1.104-2.259-2.901-2.315-4.343-.136m64.306.728c-2.988.585-2.433 6.52.61 6.52 2.053 0 4.1-1.984 4.1-3.975 0-1.739-2.348-3.007-4.71-2.545m-10.977.82c-2.166 2.483-1.628 5.3 1.012 5.3 2.521 0 3.428-2.909 1.506-4.831-1.359-1.359-1.688-1.42-2.518-.469m-98.808 1.329c-2.494 1.454-1.276 4.741 1.766 4.766 1.911.015 2.691-3.416 1.04-4.572-1.021-.715-1.817-.77-2.806-.194m137.807.693c-1.021.649-1.67 3.418-1.07 4.564 1.575 3.006 5.34 1.316 5.356-2.404.006-1.527-2.943-3.013-4.286-2.16M230.9 239.829c-1.736.766-1.861 2.871-.246 4.142 1.456 1.145 2.239 1.041 3.338-.446l.943-1.276-.825-1.424c-.95-1.642-1.417-1.787-3.21-.996m34.6 1.383c-1.706 1.042-.296 4.79 1.8 4.787 1.526-.003 3.5-1.46 3.5-2.584 0-1.722-3.623-3.228-5.3-2.203m15.132 2.434c-1.936 1.523-.773 4.354 1.788 4.354 3.172 0 4.047-3.406 1.172-4.557-1.968-.787-1.676-.807-2.96.203m-74.543 4.577c-1.317.922-1.265 3.623.082 4.236 1.447.66 2.855.116 3.843-1.482l.881-1.425-.917-.976c-1.054-1.121-2.593-1.261-3.889-.353m37.975 1.596c-1.137 2.495-.079 4.181 2.625 4.181 1.767 0 2.111-.4 2.111-2.459 0-2.828-3.631-4.148-4.736-1.722m75.336-.561c-1.904 1.081-2.221 1.577-1.587 2.482.323.461.587 1.212.587 1.669 0 1.946 3.167 2.549 4.684.891 2.618-2.86-.357-6.931-3.684-5.042m-24.993.856c-3.069 1.553-1.803 5.175 1.749 5.004l2.443-.118.36-1.711c.689-3.281-1.426-4.756-4.552-3.175m-17.45.262c-.946.4-2.263 3.282-1.914 4.191.886 2.309 4.241 3.184 6.126 1.597 2.916-2.453-.616-7.305-4.212-5.788m71.999.016c-2.06.832-1.196 4.529 1.104 4.728 2.909.251 4.127-.881 3.04-2.825-1.282-2.295-2.168-2.702-4.144-1.903m-127.399 1.989c-2.117 2.118-.545 4.97 2.612 4.739l1.631-.12.121-1.882c.236-3.663-2.022-5.079-4.364-2.737m12.183 5.498c-3.598 1.793-2.6 6.121 1.411 6.121 2.366 0 2.959-.587 3.011-2.977.064-2.95-1.945-4.378-4.422-3.144m-34.98 2.963c-1.341 1.436-1.368 1.595-.55 3.178 1.185 2.29 4.99 1.279 4.99-1.325 0-3.267-2.244-4.203-4.44-1.853m14.45 3.548c-2.528 2.528.09 7.413 3.131 5.841 2.091-1.082 2.061-3.236-.078-5.531-1.215-1.304-1.981-1.382-3.053-.31m50.252-.059c-.935 1.034-.823 2.104.354 3.373 1.49 1.606 3.639 1.211 4.573-.84.981-2.154-3.286-4.346-4.927-2.533m-15.416 1.169c-2.077 1.724-1.298 4.408 1.385 4.768 1.97.264 2.751-.493 2.751-2.668 0-2.626-2.173-3.73-4.136-2.1m37.454 3.722c-1.959 1.169-.04 4.778 2.54 4.778 1.363 0 1.892-.839 2.047-3.25l.113-1.75-2-.098c-1.1-.053-2.315.09-2.7.32m-55.76 2.19c-.674 1.757 1.166 4.988 2.841 4.988 2.675 0 3.767-3.786 1.439-4.99-1.554-.803-3.971-.802-4.28.002m111.476 1.463c-1.862 1.998-.351 5.014 2.297 4.584 2.464-.4 2.985-3.045.903-4.584-1.49-1.102-2.174-1.102-3.2 0m-128.18 4.356c-1.067 1.268-1.339 2.535-.636 2.969.22.136.4.588.4 1.004 0 1.067 1.13 1.603 2.378 1.128 2.75-1.045 3.184-3.036 1.103-5.054-1.633-1.582-1.95-1.587-3.245-.047m-13.766.495c-1.822 1.939-.94 4.274 1.616 4.274 2.498 0 4.089-3.272 2.225-4.577-1.273-.892-2.835-.769-3.841.303m111.972 5.032c-.96.96-1.477 3.167-.882 3.762.242.242.44.742.44 1.111 0 2.247 4.037.954 4.65-1.489.587-2.338-2.651-4.941-4.208-3.384m-88.798.921c-.685 1.824.194 3.921 1.643 3.921 1.858 0 3.158-1.285 3.031-2.997L227 283l-2.105-.121c-1.886-.109-2.141-.025-2.451.8m37.714 1.76c-.85 2.033-.598 2.699 1.185 3.141 2.002.496 3.601-.318 3.787-1.928.33-2.849-3.861-3.871-4.972-1.213m103.056-.295c-3.549.655-2.816 4.532.903 4.777 2.388.157 3.371-1.036 2.812-3.414-.387-1.646-.987-1.866-3.715-1.363M246 286.72c-1.561.245-2 .84-2 2.715 0 1.782.858 2.776 2.071 2.397.291-.091 1.03-.275 1.643-.41 3.24-.711 1.595-5.221-1.714-4.702m-49.857 7.027c-2.507 2.157.87 6.398 3.862 4.85 2.18-1.127 1.513-4.44-1.093-5.43-1.361-.518-1.535-.481-2.769.58m80.257 1.971c-.55.278-.985.815-.967 1.194.121 2.489.21 2.724 1.167 3.088 1.914.728 4.644-1.577 3.965-3.347-.443-1.153-2.722-1.665-4.165-.935m-54.386 9.856c-1.627 3.04 1.593 6.549 4.794 5.223 1.429-.592 1.667-2.869.506-4.835-.879-1.487-4.567-1.757-5.3-.388m84.386.818c-.33.217-1.005.399-1.5.402-1.412.009-1.343 4.024.086 4.96 1.704 1.117 4.389.281 4.838-1.506.564-2.249-1.809-4.923-3.424-3.856m36.827.77c-.899 1.263-1.092 3.027-.38 3.467 2.906 1.796 5.609.217 4.729-2.763-.707-2.396-2.892-2.75-4.349-.704m-139.375 7.75c-1.761 1.288-.39 5.088 1.835 5.088 1.508 0 3.513-1.716 3.513-3.005 0-2.035-3.532-3.41-5.348-2.083m44.448 1.52c-1.318.768-.713 4.705.852 5.542 1.076.576 1.958.161 2.698-1.271 1.46-2.823-.985-5.765-3.55-4.271m27.314 9.279c-2.223 1.125-1.92 4.625.472 5.459 2.945 1.027 4.45-4.031 1.64-5.51-1.055-.556-.907-.559-2.112.051m-59.613 4.19c-1.736.868-1.884 1.561-.706 3.309 2.001 2.97 3.981 3.07 4.957.252 1.17-3.379-.993-5.19-4.251-3.561" fill="#180d04"/></g></svg>