<svg xmlns="http://www.w3.org/2000/svg" viewBox="28.45 7.52 43.05 84.87"><desc>Created by Icongeek26, downloaded from Noun Project</desc><path fill="var(--darkcolor)" d="m37.273 67.969-2.078 24.414h29.602l-2.082-24.414zm3.66 20.492a.97.97 0 0 1-.972.914h-.063a.98.98 0 0 1-.914-1.035l.742-11.73c.035-.54.5-.95 1.04-.914a.975.975 0 0 1 .91 1.035zm1.012-15.984a.98.98 0 0 1-.973.918h-.062v-.004a.973.973 0 0 1-.914-1.035l.058-.93v-.004a.975.975 0 0 1 1.035-.91c.54.031.95.496.915 1.035zm25.711-9.879a3.42 3.42 0 0 0-3.398-3.418H35.735a3.417 3.417 0 0 0-3.418 3.418 3.417 3.417 0 0 0 3.418 3.418h28.523a3.42 3.42 0 0 0 3.398-3.418m-39.09-15.457 8.012 10.086h27.336l7.523-10.066h.004a.35.35 0 0 0-.008-.371L50.781 7.548v25.19a4.06 4.06 0 0 1 3.285 4.024 4.1 4.1 0 0 1-4.089 4.121 4.144 4.144 0 0 1-4.141-4.12 4.076 4.076 0 0 1 2.992-3.97V7.584l-20.34 39.184a.34.34 0 0 0 .078.375z"/><path d="M47.828 36.762a2.167 2.167 0 1 0 4.329.003 2.167 2.167 0 0 0-4.329-.003"/></svg>