<svg xmlns="http://www.w3.org/2000/svg" viewBox="5.05 5.05 89.9 89.9"><desc>Created by Arkinasi, downloaded from Noun Project</desc><path fill="var(--darkcolor)" d="M20.059 5.078h65.879c2.05 0 3.969 1.023 5.504 2.824 2.086 2.45 3.48 6.39 3.48 10.848s-1.39 8.399-3.48 10.848c-1.54 1.805-3.453 2.825-5.504 2.825H20.059c.45-.391.883-.825 1.29-1.305 2.386-2.797 4.038-7.277 4.038-12.367s-1.656-9.57-4.039-12.367q-.615-.72-1.289-1.305zM5.079 18.75c0-4.457 1.39-8.398 3.48-10.848 1.54-1.805 3.454-2.824 5.504-2.824s3.97 1.023 5.504 2.824c2.086 2.45 3.48 6.39 3.48 10.848s-1.39 8.399-3.48 10.848c-1.539 1.805-3.453 2.824-5.504 2.824S10.095 31.4 8.56 29.598c-2.085-2.45-3.48-6.39-3.48-10.848m11.328 0c0-2.371-1.05-4.297-2.344-4.297S11.72 16.38 11.72 18.75s1.051 4.297 2.344 4.297 2.344-1.926 2.344-4.297m11.328 43.36H20.06c.45-.392.883-.825 1.29-1.306 2.386-2.797 4.038-7.277 4.038-12.367s-1.656-9.57-4.039-12.367q-.615-.72-1.289-1.304h3.38c.75 0 1.374.515 1.937 1.18 1.492 1.753 2.359 4.617 2.359 7.804zm55.129-27.345h3.074c2.051 0 3.969 1.023 5.504 2.824 2.086 2.45 3.48 6.39 3.48 10.848s-1.39 8.399-3.48 10.848c-1.539 1.805-3.453 2.824-5.504 2.824h-1.172V43.75c0-3.363-.722-6.46-1.902-8.984zM5.079 48.437c0-4.457 1.39-8.398 3.48-10.848 1.54-1.805 3.454-2.824 5.504-2.824s3.97 1.023 5.504 2.824c2.086 2.45 3.48 6.39 3.48 10.848s-1.39 8.399-3.48 10.848c-1.539 1.805-3.453 2.824-5.504 2.824s-3.968-1.023-5.503-2.824c-2.086-2.45-3.481-6.39-3.481-10.848m11.328 0c0-2.371-1.05-4.297-2.344-4.297s-2.344 1.926-2.344 4.297 1.051 4.297 2.344 4.297 2.344-1.926 2.344-4.297m51.172 46.484H34.376a4.3 4.3 0 0 1-3.04-1.258 4.3 4.3 0 0 1-1.257-3.039V43.75c0-3.62-1.012-6.867-2.64-8.984h52.797c1.351 2.383 2.187 5.527 2.187 8.984v36.328h-8.984a5.86 5.86 0 0 0-5.86 5.86zM37.501 71.483h37.5A1.17 1.17 0 1 0 75 69.14H37.5a1.171 1.171 0 1 0 0 2.344m0-12.5H75c.648 0 1.172-.523 1.172-1.172S75.649 56.64 75 56.64H37.5a1.171 1.171 0 1 0 0 2.344m0 18.75H75c.648 0 1.172-.523 1.172-1.172S75.649 75.39 75 75.39H37.5a1.171 1.171 0 1 0 0 2.344m0-12.5H75c.648 0 1.172-.523 1.172-1.172S75.649 62.89 75 62.89H37.5a1.171 1.171 0 1 0 0 2.344m0-25h31.25c.648 0 1.172-.523 1.172-1.172s-.524-1.172-1.172-1.172H37.5a1.171 1.171 0 1 0 0 2.344m0 43.75h21.875c.648 0 1.172-.523 1.172-1.172s-.524-1.172-1.172-1.172H37.501a1.171 1.171 0 1 0 0 2.344m0-31.25h37.5c.648 0 1.172-.523 1.172-1.172S75.649 50.39 75 50.39H37.5a1.171 1.171 0 1 0 0 2.344m0-6.25H75c.648 0 1.172-.523 1.172-1.172S75.649 44.14 75 44.14H37.5a1.171 1.171 0 1 0 0 2.344m44.234 35.938L69.923 94.233v-8.297a3.516 3.516 0 0 1 3.516-3.515z" fill-rule="evenodd"/></svg>