<svg xmlns="http://www.w3.org/2000/svg" viewBox="-0.02 -0.02 786.65 874.65"><desc>Created by Lucas Rathgeb, downloaded from the Noun Project</desc><path d="M323.958 849.427c-23.76-13.837-77.76-45.196-120-69.687-101.109-58.625-98.374-56.998-96.429-57.372 2.02-.39 15.54 1.862 124.162 20.676 45.76 7.926 94.48 16.312 108.267 18.635s26.147 4.686 27.467 5.25l2.4 1.025v45.195c0 43.073-.61 61.566-2.024 61.477-.354-.022-20.083-11.362-43.843-25.199m97.533 22.998c-1.468-2.375-2.404-24.853-2.616-62.825-.12-21.413-.165-39.968-.1-41.233.099-1.952.964-2.407 5.716-3.006 21.392-2.698 97.311-15.61 178.934-30.432 55.674-10.11 78.88-14.058 80.148-13.635 1.184.395-8.44 6.157-42.815 25.635-36.348 20.596-191.641 110.625-206.256 119.574-6.374 3.904-11.746 7.097-11.937 7.097s-.675-.529-1.074-1.175M340.936 714.24c-.667-.641-57.239-10.719-144.445-25.732-42.826-7.372-91.54-15.812-108.253-18.755-38.07-6.703-63.99-10.548-71.126-10.55-9.399 0-9.3.512-3.008-15.803 21.709-56.276 105.13-265.34 113.63-284.77 3.667-8.381 7.197-15.071 7.845-14.867 2.038.642 13.233 20.001 76.768 132.754 13.3 23.605 27.564 48.515 31.696 55.357 4.132 6.843 9.11 15.61 11.06 19.483 1.952 3.874 16.393 29.363 32.093 56.643 51.86 90.115 60.229 104.808 60.229 105.742 0 .907-5.615 1.337-6.49.498m101.422-1.172c0-.88 3.527-7.96 7.838-15.734 38.942-70.222 194.042-340.377 201.585-351.124l2.193-3.124 3.104 6.857c1.707 3.771 8.748 21.257 15.647 38.857s19.029 48.08 26.955 67.733c36.606 90.77 77.781 196.195 77.073 197.341-1.743 2.821-28.347 7.918-141.862 27.178-92.327 15.665-178.754 30.748-186.666 32.577-5.673 1.31-5.867 1.292-5.867-.561m-53.667-24.801c-9.158-14.375-81.072-139.797-134.094-233.867-10.416-18.48-22.644-39.84-27.172-47.467-4.53-7.626-9.685-16.746-11.458-20.266s-10.296-18.64-18.94-33.6-17.716-30.866-20.157-35.347l-4.44-8.146 25.364-.898c30.727-1.087 415.805-1.257 416.878-.184 1.014 1.014.39 2.122-137.909 245.108-75.267 132.242-80.863 141.867-82.488 141.867-.549 0-3.062-3.24-5.584-7.2m392.992-153.373c-8.108-21.48-78.076-199.88-88.987-226.892l-3.77-9.331 4.45-3.622c11.295-9.197 60.99-40.246 81.767-51.088l10.118-5.28.71 2.526c.873 3.117.85 183.525-.033 252.62l-.647 50.628zM.235 504c-.926-43.587 1.065-233 2.64-251.089.531-6.098 1.413-11.536 1.96-12.083 1.37-1.37 8.1 2.17 36.455 19.17 28.521 17.1 57.6 36.043 57.6 37.522 0 3.165-85.148 218.296-94.352 238.385l-3.464 7.562zm181.736-244.533c1.565-2.86 109.004-135.446 125.978-155.467 4.476-5.28 12.421-15.12 17.655-21.867 5.234-6.746 16.246-20.426 24.47-30.4 8.226-9.973 20.94-25.693 28.254-34.933C385.643 7.56 392.218 0 392.939 0c1.556 0 26.546 28.97 45.084 52.267 7.236 9.093 15.645 19.413 18.686 22.933s17.718 21.52 32.614 40 42.722 52.8 61.837 76.267c54.966 67.48 53.699 65.842 51.773 66.92-4.243 2.374-45.22 2.902-227.014 2.923-185.368.022-194.92-.069-193.948-1.843m-64.414-10.308c-2.347-1.37-17.707-10.084-34.133-19.363s-36.275-20.662-44.106-25.297l-14.239-8.426 3.572-2.42C40.18 185.845 82.142 162.1 237.557 75.442c46.437-25.894 53.534-29.73 54.043-29.221.618.617-10.366 14.59-47.515 60.446-100.913 124.564-117.986 145.091-120.621 145.025-.901-.023-3.56-1.163-5.906-2.533m531.959-12.626c-6.95-8.36-22.674-27.68-34.941-42.933s-25.216-31.093-28.774-35.2c-3.559-4.107-11.002-13.227-16.541-20.267s-15.844-19.76-22.9-28.266c-26.771-32.272-54.084-66.275-53.614-66.745.269-.269 20.121 10.643 44.116 24.25s84.428 47.668 134.295 75.694c49.867 28.025 91.387 51.393 92.267 51.929 1.248.759.348 1.65-4.09 4.055-3.129 1.696-23.289 13.083-44.8 25.305-43.329 24.619-48.446 27.378-50.777 27.378-.882 0-7.29-6.84-14.241-15.2" fill="var(--darkcolor)"/></svg>