<svg xmlns="http://www.w3.org/2000/svg" xml:space="preserve" viewBox="10.53 7.93 79.1 84.17"><desc>Created by anggun, downloaded from the Noun Project</desc><path fill="var(--darkcolor)" d="M34.5 25.6 30.1 39l9.5-3.5c-.2-.4-.2-.9 0-1.3L44 20.8l-9.5 3.5c.2.4.2.8 0 1.3M62 15.5l-4.5 13.4 9.5-3.5c-.2-.4-.2-.9 0-1.3l4.5-13.4-9.5 3.5c.1.4.1.9 0 1.3m-13.7 5L43.8 34l9.5-3.5c-.2-.4-.2-.9 0-1.3l4.5-13.4-9.5 3.5c.1.3.1.8 0 1.2M20.8 30.6 16.4 44h.2l9.3-3.4c-.2-.4-.2-.9 0-1.3l4.5-13.4-9.5 3.5c0 .3 0 .8-.1 1.2m-8.5 1.8c-1.4.5-2.1 2.1-1.6 3.5l2.2 6 3.7-11zm63.4-21.9-4.5 13.4L83 19.6c1.4-.5 2.1-2.1 1.6-3.5l-2.4-6.4c-.5-1.4-2.1-2.1-3.5-1.6l-3 1.1c.1.4.2.8 0 1.3M62.4 55.6l-13-9.9c-.5-.4-.8-1-.8-1.6H35.2l15.1 11.5zm24.1-11.5h-14l15.1 11.5h1.9v-8.5c0-1.6-1.3-3-3-3M81 55.6l-13-9.9c-.5-.4-.8-1-.8-1.6H53.9L69 55.6zm-67.7 4v29.5c0 1.6 1.3 3 3 3h70.3c1.6 0 3-1.3 3-3V59.6zm0-12.5v8.5h11.8l-11.8-9zm30.4 8.5-13-9.9c-.5-.4-.8-1-.8-1.6H16.6l15.1 11.5z"/></svg>