<svg xmlns="http://www.w3.org/2000/svg" version="1.1" viewBox="21.2 5 57.62 90">  <path d="m62.082 41.574-5.9531 0.71875c-0.03125-0.4375 3.0469-20.547 3.8984-24.844 0.60547-3.0547 1.2969-5.8906 2.8516-8.4766 1.7031-2.8359 4.7148-4.2617 7.8516-3.5703 7.3086 1.6172 5.8945 10.945 4.5469 16.371l-5.3711 22.164c-2.2773-1.8203-4.9531-2.6484-7.8242-2.3672zm-23.336-6.5039c0.47266-0.070312 0.95312-0.10156 1.4258-0.10156 2.3164 0 4.5078 0.82031 6.1797 2.3164 1.0352 0.92188 1.6797 1.9375 2.1602 2.6758 0.17578 0.26562 0.32812 0.51172 0.49219 0.71875l1.3008 1.6094c1.5469 0.039063 4.7539 0.10156 4.7539 0.10156-0.18359-0.29688-5.5039-24.848-5.5039-24.848-1.1484-5.5547-3.5352-13.586-10.316-12.43-3.0547 0.52344-5.4219 2.8281-5.9648 6.0859-0.44141 2.7148-0.082032 5.3906 0.78906 8.082zm39.039 23.934c-0.70703-1.5156-1.5156-2.9297-2.4883-4.2812l-1.4453-1.9961c-1.1367-1.5898-2.3359-3.0859-3.7109-4.4883-2.1094-2.1719-4.6328-3.9023-7.8164-3.5156l-4.0078 0.49219c-2.4609 0.30859-4.8672 0.32812-7.3477 0.19531-1.0742-0.050781-2.1094-0.13281-3.1758-0.039062-0.66406 0.0625-1.1367 0.36719-1.4766 0.94141-1.6719 2.8477-0.39062 6.6172 1.875 8.8516 1.4844 1.4844 3.4336 2.5508 5.4922 3.0938 2.6836 0.70703 5.4492 0.58594 8.1055-0.050781 0.23438-0.0625 0.49219-0.019531 0.60547 0.13281 0.50391 0.64453-0.80078 1.4336-1.2891 1.7422 0.6875 1.4531 1.7734 2.6836 3.1641 3.5156l2.2422 1.3438c0.24609 0.125 0.39062 0.39062 0.34766 0.64453-0.18359 0.89062-1.8125 0.625-2.5117 0.39844-1.7305-0.55469-4.0781-2.1016-5.0391-3.7305-1.6172 1.2188-3.1367 2.5391-4.4688 4.1172-2.9922 3.5742-4.6211 7.9805-4.0586 12.652 0.082031 0.60547-0.37891 1.1875-0.99219 1.1367-0.74609-0.070312-1.3203-1.9375-1.4336-2.6445-0.67578-3.7891 0.72656-7.8789 2.8906-10.965 1.3008-1.8633 2.8906-3.4023 4.6602-4.8555-1.3125-0.039062-2.6133-0.24609-3.8203-0.70703-0.15234 0.60547-0.42188 1.0742-0.76953 1.5781-1.7617 2.5938-5.0312 3.9141-8.1133 3.2578-0.94141-0.20312-1.793-0.52344-2.5195-1.0977-0.54297 1.4453-1.5781 2.5625-2.8906 3.3594-2.1328 1.2891-4.7344 1.4531-7.1016 0.61328-1.6914-0.59375-3.1641-1.8633-4.3125-3.1445-1.6602-1.8438-2.6523-3.7305-2.6523-3.7305s0 0.97266 0.039063 2.1914c0.039063 1.2617 0.12109 2.7773 0.28516 3.75 0.28516 1.7109 0.66406 3.4023 1.1172 5.0703 0.89062 3.1445 2.1914 6.168 4.1289 8.8203 1.3828 1.9375 3.1133 3.5547 5.0703 4.8555 0.09375 1.0977 0.23437 3.0938 0.32812 4.3438 0.039063 0.64453 0.44141 1.2305 1.0469 1.4648 9.2305 3.6875 22.594 3.1953 31.125 0.65625 0.75781-0.22656 1.2695-0.93359 1.2383-1.7227l-0.11328-2.5391-0.09375-1.5078c-0.011719-0.29688 0.09375-0.54297 0.27734-0.75781 2.5-2.9492 4.9883-5.8906 6.5977-9.4062 1.8633-4.0781 3.4727-7.8984 3.9453-12.297 0.21484-2.0273-0.09375-3.9141-0.94141-5.7578zm-54.223-1.9648c0.20312-0.050781 0.44141 0.03125 0.59375 0.19531 0.47266 0.51172 0.80859 1.0859 1.1797 1.6914 0.92187 1.4531 1.8438 2.8594 2.9727 4.1484 0.82812 0.96484 1.7227 1.7617 2.8789 2.3672 2.0391 1.1055 4.5781 0.72656 6.0859-1.0039 0.82812-0.96484 1.168-2.1406 0.92187-3.3828-0.52344-2.8594-2.2539-6.6797-3.5039-9.3438l-1.0977-2.3242c-0.13281-0.27734-0.16406-0.5625 0-0.82031 0.12109-0.22656 0.37891-0.35938 0.6875-0.39062 1.0859-0.09375 2.2227 1.8633 2.7461 2.7344 1.5898 2.6328 2.7656 5.4492 3.7188 8.3828 0.20312 0.59375 0.15234 1.3633 0.51172 1.8633 0.85156 1.2109 2.5 1.7539 3.9023 1.6289 1.8633-0.16406 3.3594-1.25 4.1602-2.9414-2.1602-1.1289-4.0586-2.8086-5.3477-4.9492-1.7109-2.8398-2.2422-6.6797-0.69531-9.7031 0.73828-1.4258 1.9883-2.3672 3.4922-2.7148-0.65625-0.82031-1.1992-2.0391-2.3359-3.0625-1.6797-1.4961-3.9844-1.9062-6.1484-1.332-2.3789 0.88281-4.6328 2.6836-5.2266 5.1758-0.26562 0.80078-0.33984 1.8867-1.0469 2.3672-0.66406 0.42188-2.1094 0.082031-3.5156 0.22656-2.4805 0.16406-4.5195 1.6406-5.9844 3.5977-1.1875 2.0703-1.5977 4.5078-1.1055 6.8359 0.26562 1.3438 0.72656 2.5391 1.4961 3.668 0.17578 0.23438 0.35938 0.46094 0.63672 0.625-0.18359-0.69531-0.80078-3.3008 0.019532-3.5352z"/> </svg>