<svg xmlns="http://www.w3.org/2000/svg" xml:space="preserve" viewBox="5 5 90 90"><desc>Created by Ben Avery from the Noun Project</desc><path fill="var(--darkcolor)" d="M50 5C25.142 5 5 25.132 5 50c0 24.848 20.142 45 45 45 24.848 0 45-20.152 45-45C95 25.132 74.848 5 50 5m-5.37 15.089c1.347-1.348 2.96-2.021 4.859-2.021 1.868 0 3.46.674 4.797 2.021 1.338 1.307 2.012 2.898 2.012 4.798 0 1.898-.674 3.512-2.012 4.859-1.337 1.307-2.93 1.96-4.797 1.96-1.899 0-3.512-.674-4.859-2.001-1.337-1.348-2.001-2.94-2.001-4.818 0-1.9.664-3.491 2.001-4.798M62.24 79.81h-23.5v-3.9h2.593c1.398 0 2.368-.326 2.93-.959.582-.633.878-1.756.878-3.349V48.938q0-2.144-1.256-3.308c-.806-.776-1.95-1.164-3.399-1.164H38.74v-3.798l17.395-.796v33.239c0 .898.276 1.593.838 2.083.582.47 1.46.714 2.634.714h2.634v3.902z"/></svg>