<svg xmlns="http://www.w3.org/2000/svg" viewBox="5.37 5 89.63 90"><desc>Created by Ngiconan, downloaded from Noun Project</desc><path fill="var(--darkcolor)" d="M93.5 5h-42A1.5 1.5 0 0 0 50 6.5v4.129L31.539 5.098a1.51 1.51 0 0 0-1.871 1.011L5.43 87.031c-.11.38-.07.79.121 1.141.191.352.512.61.89.73l20.122 6.032a1.514 1.514 0 0 0 1.871-1.012L50 21.891V93.5a1.5 1.5 0 0 0 1.5 1.5h42a1.5 1.5 0 0 0 1.5-1.5v-87A1.5 1.5 0 0 0 93.5 5M53 23h18v54H53zm21 0h18v54H74zm18-9H74V8h18zM71 8v6H53V8zM29.828 78.762l-17.238-5.16 15.5-51.73 17.238 5.16zM32.121 8.41l17.238 5.172-1.45 4.84-17.237-5.172zm-6.14 83.211-17.239-5.16 1.27-4.239 17.238 5.172-1.27 4.239zM53 86h18v6H53zm21 6v-6h18v6z"/><path fill="var(--darkcolor)" d="M87.5 26h-9a1.5 1.5 0 0 0-1.5 1.5v45a1.5 1.5 0 0 0 1.5 1.5h9a1.5 1.5 0 0 0 1.5-1.5v-45a1.5 1.5 0 0 0-1.5-1.5m-21 0h-9a1.5 1.5 0 0 0-1.5 1.5v45a1.5 1.5 0 0 0 1.5 1.5h9a1.5 1.5 0 0 0 1.5-1.5v-45a1.5 1.5 0 0 0-1.5-1.5m-26.34 2.621-8.621-2.578a1.5 1.5 0 0 0-1.871 1.012l-12.91 43.109a1.51 1.51 0 0 0 1.012 1.87l8.62 2.579a1.514 1.514 0 0 0 1.871-1.012l12.91-43.109a1.505 1.505 0 0 0-1.011-1.871"/></svg>