<svg xmlns="http://www.w3.org/2000/svg" viewBox="23.27 5 367.77 257.93"><path fill="currentColor" d="M79.998 8.01c-1.749 1.686-3.123 3.573-3.123 4.289 0 .704-.845 2.342-1.877 3.641-4.044 5.089-4.67 11.363-1.912 19.158 1.01 2.853 1.726 5.298 1.592 5.433-1.304 1.304-12.907-5.47-15.261-8.91-.492-.72-2.406-2.723-4.254-4.451-4.888-4.574-5.699-11.07-1.89-15.136 1.659-1.771.888-2.722-.822-1.013-1.328 1.328-3.231 7.353-3.33 10.541-.032 1.031-.41 1.91-.84 1.953-.429.043-.945.114-1.146.157s1.416 1.017 3.593 2.165c3.053 1.609 4.478 2.862 6.223 5.469 1.245 1.86 3.684 4.574 5.418 6.032 2.005 1.685 3.305 3.336 3.567 4.531.227 1.035.646 1.881.93 1.881s.37-.562.19-1.25-.056-1.25.274-1.25c1.301 0 2.954 2.723 3.343 5.507l.41 2.931.083-2.553c.111-3.373.25-3.445 4.023-2.066 5.269 1.926 11.053 8.135 11.587 12.439.381 3.077.566 3.372 2.522 4.03 2.592.871 4.447 3.053 4.466 5.25.017 2.036 1.928 6.352 3.324 7.507.571.472 1.037 1.105 1.037 1.407 0 .988-1.657.574-2.812-.702-1.497-1.654-3.438-1.643-3.438.02 0 4.742-6.847.651-7.242-4.327-.12-1.516-.847-2.806-2.47-4.389-1.565-1.526-2.078-1.806-1.606-.876 2.323 4.574.162 5.889-9.8 5.962l-8.292.06-1.916-1.819c-4.2-3.987-7.424-13.526-7.424-21.962 0-3.029-.259-5.169-.625-5.169-.344 0-.631 1.336-.637 2.969s-.284 4.841-.615 7.129c-.504 3.489-.398 4.953.656 9.063 1.016 3.961 1.114 5.17.513 6.3-.57 1.071-.575 1.966-.018 3.822.399 1.334.726 2.583.726 2.776 0 1.667-6.999 1.055-10.41-.91-7.156-4.123-9.872-5.109-12.502-4.539-1.32.286-3.059.448-3.864.36-.98-.107-1.315.08-1.013.567.3.487 1.454.594 3.486.325 2.825-.375 6.301.609 7.428 2.101.172.228 1.396.821 2.719 1.319 1.981.745 3.285 2.594 1.383 1.96-2.028-.676-4.102-.81-4.102-.266 0 .348 1.302.827 2.892 1.066 6.442.966 6.544 3.458.141 3.458-1.37 0-3.042.295-3.717.657-1.403.751-7.991-.68-10.401-2.259-.778-.51-1.411-.709-1.405-.444.055 2.796 7.31 5.416 17.49 6.318 2.578.229 5.109.679 5.625 1.001 3.15 1.966 5.612 4.527 6.54 6.803.585 1.436 1.458 3.315 1.938 4.174 2.857 5.104 2.983 5.722 1.855 9.057-2.401 7.095-2.739 8.428-2.218 8.749.661.409 3.772-5.594 5.305-10.235 1.505-4.555.986-9.146-1.609-14.26-1.103-2.173-1.891-4.052-1.752-4.176.629-.561 4.32-2.26 4.91-2.26.361 0 .689.914.729 2.031.042 1.201.18 1.52.336.782l.547-2.588c.8-3.78 25.511-.747 31.927 3.918 1.071.779 2.666 1.596 3.546 1.817.92.231 2.814 1.948 4.463 4.046 1.575 2.005 3.832 4.244 5.016 4.976 2.215 1.368 2.457 1.816 3.124 5.775.494 2.933-1.966 4.77-8.965 6.693-5.638 1.55-5.452 1.364-4.442 4.425.455 1.378.711 2.622.57 2.762-.304.303-10.448-6.245-13.919-8.984-1.326-1.047-2.651-1.903-2.943-1.903s-.871-1.128-1.284-2.507c-.973-3.248-2.606-4.81-2.033-1.944.507 2.536-1.3 2.683-4.093.333-1.058-.89-1.914-1.382-1.903-1.094.042 1.12 1.665 2.589 4.357 3.943 12.557 6.319 20.564 16.011 17.414 21.079-1.256 2.019-1.526 3.434-1.791 9.397-.371 8.334-1.448 9.995-7.851 12.108l-3.656 1.206-3.229-1.58c-2.098-1.026-3.858-2.498-5.027-4.203-1.824-2.66-7.737-9.181-7.737-8.533 0 1.098 2.601 5.228 6.05 9.608 4.781 6.069 4.77 5.937.475 5.937-3.333 0-3.616-.134-6.928-3.266-3.631-3.434-5.924-4.065-10.299-2.836-3.353.943-8.714-4.578-11.703-12.052-1.323-3.306-4.255-7.269-4.901-6.624-.167.168.329 1.161 1.103 2.207 1.175 1.59 2.85 8.632 2.206 9.277-.416.415-8.339-4.743-11.109-7.233-1.66-1.492-3.019-2.447-3.019-2.122 0 .765 5.897 6.268 8.806 8.219 4.603 3.087 6.236 7.123 2.199 5.436-3.555-1.485-2.628.031 1.096 1.793 3.479 1.645 9.774 7.645 9.774 9.314 0 .516.326 1.139.723 1.385.496.307.613.023.371-.9-.542-2.075.911-1.614 2.462.781 1.996 3.082-.869 4.011-5.896 1.91-3.039-1.27-9.906-2.019-9.284-1.013.246.398 1.066.724 1.822.724s2.695.703 4.31 1.563c2.319 1.234 3.845 1.562 7.272 1.562 4.768 0 5.095.262 5.095 4.077 0 3.246 1.105 3.167 2.068-.149 1.556-5.362 3.637-4.83 12.884 3.294 7.808 6.859 9.939 9.512 8.663 10.788-.511.511-.146 1.889 1.376 5.189 1.958 4.248 2.03 4.653 1.326 7.401-.41 1.6-.531 3.455-.27 4.123.389.99.579.753 1.029-1.285 1.941-8.779.824-15.147-3.987-22.73-2.925-4.609-2.906-4.708.733-3.859 1.507.352 4.053.797 5.658.989 3.704.442 4.308 1.217 4.716 6.045.263 3.107.823 4.718 2.678 7.697 1.591 2.557 2.489 4.868 2.79 7.188.244 1.881 1.177 5.622 2.073 8.313l1.628 4.893-2.288 2.159c-2.683 2.531-2.657 3.592.253 10.347.987 2.292 1.795 4.98 1.795 5.974 0 2.045 1.819 5.123 1.855 3.14.033-1.801 3.065.507 3.124 2.377.027.864 3.769 4.363 5.205 4.867 1.282.451 2.941 4 2.941 6.293 0 .85.299 1.73.665 1.956.966.597.101-3.829-1.359-6.953-.656-1.405-1.924-2.945-2.817-3.423-1.826-.978-6.489-7.161-6.489-8.606 0-.518-.844-2.436-1.875-4.264-1.031-1.827-1.875-3.872-1.875-4.545 0-.672-.281-1.396-.625-1.608-1.364-.844-.644-3.396 1.231-4.366 2.515-1.3 3.314-2.918 2.5-5.059-.446-1.173-.438-2.315.025-3.718.53-1.607.454-2.523-.369-4.441-.57-1.329-1.424-3.34-1.899-4.469-1.327-3.155-1.223-16.649.122-15.896 2.216 1.24 7.653 7.184 8.704 9.515.62 1.375 1.574 2.505 2.125 2.516.549.011 1.774 1.297 2.722 2.858l1.723 2.839-2.192 3.921c-3.676 6.574-2.092 12.556 3.646 13.763.914.192 2.317.483 3.117.646.953.195 2.041 1.375 3.153 3.419 2.446 4.493 3.879 5.272 1.842 1.001-1.223-2.565-.809-3.32 1.295-2.361 3.875 1.765 9.15 14.39 10.037 24.019.48 5.205 1.725 7.705 6.322 12.688 4.428 4.8 5.268 6.236 5.337 9.121l.065 2.754.802-2.5c.665-2.075.655-2.735-.058-3.874-.474-.755-.699-1.795-.501-2.311.207-.541-.259-1.486-1.101-2.232a683 683 0 0 0-4.47-3.9c-3.324-2.877-4.777-4.984-3.69-5.346.441-.147.335-1.007-.31-2.53-1.05-2.477-2.236-16.349-1.469-17.172.759-.813 6.272 5.609 7.938 9.248 1.647 3.599 3.205 5.355 2.417 2.726-1.116-3.725-6.528-11.483-12.11-17.357-7.904-8.319-4.768-15.526 3.262-7.496 1.337 1.337 2.571 2.431 2.742 2.431.728 0-1.912-3.247-5.063-6.227l-3.401-3.217 1.614-2.466c.888-1.356 1.932-2.465 2.321-2.465 1.243 0 6.597 6.705 6.194 7.755-.414 1.08 1.375 4.945 5.022 10.848 3.271 5.294 3.633 4.387.62-1.55-2.743-5.405-4.043-12.895-2.175-12.536.513.099 1.304 1.494 1.758 3.1.714 2.528 1.198 3.1 3.613 4.27 2.129 1.03 2.789 1.698 2.789 2.819 0 .809.281 1.644.625 1.857.364.224.625-.398.625-1.489 0-2.631.968-2.938 3.406-1.078l2.103 1.604-.327 4.856c-.325 4.82-.313 4.87 1.62 6.58 2.25 1.991 2.483 1.762.684-.671-1.239-1.676-.191-6.961 1.386-6.984 1.878-.027 9.865 18.74 9.897 23.256.016 2.22.134 2.478.694 1.515.418-.72.522-2.737.274-5.313-.417-4.326-.602-16.889-.251-17.069.59-.303 9.352 6.724 11.105 8.907 4.624 5.753 8.784 13.765 8.784 16.916 0 1.634.303 4.383.673 6.109.465 2.169.478 4.155.041 6.437-1.072 5.588-1.495 10.656-.857 10.262 1.293-.799 2.202-14.418 2.17-32.5-.013-6.982-.121-7.621-1.871-11.014-1.364-2.645-1.7-3.885-1.262-4.666.882-1.576.049-1.964-1.4-.653-2.163 1.958-3.243-.184-2.886-5.73.346-5.396 1.04-6.856 3.512-7.399 4.014-.882 1.81-1.624-3.589-1.208-6.941.535-9.239 1.784-2.812 1.53 1.461-.058 2.656.006 2.656.143 0 2.758-3.125 8.44-3.89 7.073-.301-.537-1.355-.977-2.341-.977-1.501 0-1.865-.319-2.223-1.951-.254-1.155-.912-2.077-1.612-2.26-.923-.242-1.184-.884-1.184-2.917 0-1.434-.568-3.721-1.262-5.082-1.034-2.029-1.136-2.776-.568-4.149.697-1.682.311-4.266-.638-4.266-.28 0-.833 1.288-1.229 2.862-.852 3.381-3.25 6.057-5.174 5.773-1.933-.284-2.082-1.542-.237-2.005 4.064-1.02 2.673-6.687-1.781-7.255-3.117-.397-3.347-1.175-1.012-3.413l1.87-1.791 2.501 1.128c2.039.92 2.677.982 3.453.338 1.38-1.145 1.203-1.536-1.215-2.689-3.268-1.558-6.479-7.166-4.725-8.25.581-.359 1.349.338 3.431 3.115.765 1.02 1.042 1.09 1.507.384.377-.573 1.124-.727 2.205-.456 1.031.259 2.383.022 3.661-.641l2.026-1.051-1.563-.443c-7.623-2.157-8.782-2.651-10.218-4.357-2.027-2.41-3.769-9.999-2.295-9.999.812 0 3.138 4.609 3.138 6.218 0 1.803 2.406 1.412 4.206-.683 2.166-2.523 1.812-3.886-1.659-6.379-5.261-3.779-7.804-9.551-3.861-8.763 2.515.503 3.102-1.829.961-3.814-1.797-1.665-1.914-2.547-.448-3.368.979-.548.942-.709-.412-1.805-1.714-1.388-1.287-2.656.897-2.656 1.997 0 4.691-1.068 4.691-1.86 0-.352-.367-.64-.815-.64s-1.769-.984-2.935-2.187c-1.166-1.204-2.487-2.188-2.935-2.188s-.815-.258-.815-.574-.157-.982-.348-1.482c-.275-.714.191-.877 2.187-.764 2.843.16 3.106-.221 1.286-1.868-.687-.622-1.25-1.668-1.25-2.325s-.283-1.723-.629-2.37c-.484-.903-.382-1.314.439-1.773.821-.46.904-.796.36-1.452-.39-.47-.799-2.092-.908-3.606-.255-3.514-1.563-4.059-2.06-.857-.203 1.311-.782 3.18-1.286 4.153s-.916 2.292-.916 2.932c0 .639-.281 1.336-.625 1.549-.945.583-.749 1.562.313 1.562.515 0 .937.251.937.558s-.422.72-.937.918c-1.092.419-1.242 2.345-.26 3.327.727.727-1.466 2.697-3.005 2.697-.439 0-.798.281-.798.625s.431.625.957.625c.527 0 1.142.492 1.368 1.094.225.601.829 1.408 1.342 1.792 1.469 1.101-1.533 3.643-5.752 4.87-4.694 1.364-4.465 2.077.835 2.599 5.217.514 5.209.489 1.25 3.898-3.481 2.998-3.845 3.872-1.614 3.872 5.466 0 4.402 5.473-1.269 6.533-3.69.689-4.193 1.371-2.601 3.524 1.648 2.228 2.566 2.296 3.495.256 1.123-2.465 3.373-2.128 3.122.468-.157 1.628-.668 2.28-2.572 3.282-1.904 1.001-2.324 1.536-2.112 2.691.396 2.145-.755 2.874-6.01 3.808-6.533 1.16-6.946.931-6.366-3.538.532-4.108.879-7.438 1.172-11.253.112-1.466.709-3.224 1.327-3.906 1.29-1.426 1.014-1.537-1.249-.506-.943.429-2.107 1.856-2.807 3.437-2.066 4.671-3.473 3.094-2.447-2.741.35-1.989.846-5.224 1.104-7.189.476-3.636.713-4.036 5.584-9.418 1.489-1.644 3.284-4.316 3.989-5.937s1.699-3.424 2.208-4.006c.508-.582.808-1.406.666-1.832-.219-.657-4.364 5.232-5.083 7.223-.512 1.417-.805-.089-.557-2.86.223-2.486.789-3.497 3.953-7.061 3.576-4.029 5.285-9.1 3.067-9.1-.344 0-.625 1.136-.625 2.524 0 2.107-.422 2.96-2.551 5.156-3.24 3.345-3.923 4.689-5.301 10.445-1.621 6.764-6.615 11.477-8.283 7.816-.39-.858-2.128-2.431-3.86-3.497-3.309-2.036-4.38-3.388-4.38-5.528 0-1.523-.953-1.716-1.496-.302-.746 1.943-.333 2.822 3.059 6.511 2.532 2.754 3.437 4.221 3.437 5.568 0 4.251-1.657 5.006-3.707 1.69-.719-1.165-1.742-2.478-2.273-2.918-1.453-1.206.169 2.378 1.996 4.41 4.371 4.862 3.495 14.364-1.833 19.878-1.204 1.247-2.008 2.734-2.026 3.75-.036 1.948-2.733 9.497-3.394 9.497-1.028 0-2.706-2.656-3.971-6.285-1.553-4.452-8.116-9.043-14.363-10.045-3.267-.524-12.284-5.374-12.296-6.613-.044-4.272 13.134-8.683 19.128-6.404 2.557.972 10.214 6.2 11.057 7.548 1.174 1.88 1.807 1.353.774-.645-.518-1-2.97-3.464-5.45-5.475-5.302-4.3-5.38-4.523-1.972-5.659 3.646-1.215 6.957-7.765 4.647-9.193-.444-.274-.692.207-.692 1.345 0 5.49-4.804 6.233-8.697 1.344-3.366-4.228-3.192-9.316.407-11.868 1.478-1.048 2.665-3.175 2.665-4.775 0-1.47 2.02-3.361 5.404-5.059 1.426-.716 5.328-3.841 8.671-6.946s6.322-5.645 6.619-5.645 1.281-1.174 2.187-2.608 2.916-3.966 4.468-5.625c3.449-3.687 2.878-3.961-.933-.448-2.608 2.404-10.901 6.806-12.821 6.806-.999 0-3.724-2.772-4.825-4.907-.657-1.275-.558-1.69.744-3.125.825-.911 1.815-2.399 2.2-3.308.459-1.085 1.896-2.22 4.18-3.3 4.845-2.292 4.367-3.1-.655-1.108-2.591 1.029-4.507 2.233-5.129 3.226-.546.871-1.778 2.508-2.739 3.637s-1.746 2.466-1.746 2.969c0 1.346-.839 1.122-2.528-.677l-1.497-1.592 1.096-4.179c1.82-6.939 3.834-10.761 5.671-10.761.859 0 1.93-.523 2.379-1.162 1.15-1.636 7.026-4.489 11.302-5.488 1.986-.464 4.25-1.262 5.032-1.774.793-.52 2.787-.921 4.514-.907 11.928.092 19.206-.221 24.912-1.073 2.058-.307 2.613-.138 3.525 1.071 1.019 1.35 6.219 3.455 6.219 2.517 0-.89-1.545-1.934-2.861-1.934-2.163 0-3.164-1.649-1.391-2.291.98-.355-.839-.621-5.698-.834-7.956-.348-8.621-.785-5.006-3.288 1.371-.949 2.754-2.414 3.074-3.256 1.018-2.678 9.933-6.003 18.624-6.946 2.723-.296 4.17-.771 4.716-1.55.432-.618 2.18-1.838 3.883-2.713 4.072-2.091 1.728-2.137-2.747-.053-4.406 2.051-4.509 2.019-4.06-1.256.262-1.909.158-2.813-.324-2.813-.391 0-.71.589-.71 1.31 0 3.983-2.673 5.841-9.687 6.732-2.75.35-5.681.838-6.512 1.085-1.245.369-1.441.265-1.114-.589.9-2.344-1.424-.855-3.35 2.147-3.204 4.992-15.648 11.229-17.986 9.014-.593-.561-1.504-.637-3.125-.261-4.916 1.143-5.303.088-.752-2.047 1.727-.81 3.111-1.885 3.125-2.427.014-.535 1.309-1.877 2.876-2.982 2.826-1.992 4.65-4.997 4.65-7.659 0-.738.874-2.083 1.942-2.989s2.942-2.701 4.165-3.99 2.564-2.344 2.981-2.344c.418 0 1.128-.445 1.579-.988.732-.882.556-.941-1.642-.551-2.492.443-3.921 1.528-9.916 7.525-5.904 5.907-8.493 4.667-7.157-3.428.26-1.579.49-4.077.511-5.552.038-2.776 1.716-6.796 3.429-8.218.541-.449.983-1.299.983-1.89 0-.784.885-1.275 3.281-1.819 1.805-.409 3.879-1.228 4.61-1.818 1.762-1.425 3.693-4.511 2.822-4.511-.375 0-1.11.831-1.635 1.846-.876 1.692-3.814 3.139-6.401 3.151-1.824.008-5.022 2.203-6.916 4.747-1.993 2.679-3.886 3.614-3.886 1.92 0-1.771-5.084-7.859-8.127-9.731-4.247-2.613-4.968-2.431-2.258.569 1.243 1.376 2.26 2.888 2.26 3.361s.617 1.269 1.371 1.77c2.737 1.817 2.618 20.186-.166 25.761-2.128 4.26-4.86 7.235-7.804 8.497-1.459.625-4.468 2.284-6.688 3.685s-4.229 2.549-4.465 2.549c-1.168 0 .988-7.392 2.943-10.091 1.658-2.29 1.358-10.977-.449-12.974-1.594-1.761-1.937-1.241-.726 1.101 1.315 2.541 1.317 9.336.004 11.21-1.31 1.871-2.145 1.207-2.145-1.706 0-1.376-.403-2.722-.953-3.178-1.27-1.054-1.813-.402-.973 1.168 2.168 4.051-.028 14.177-4.029 18.58l-3.253 3.58-2.266-4.053c-1.246-2.229-3.253-4.95-4.459-6.047-1.708-1.555-2.192-2.478-2.192-4.182 0-1.829-.56-2.729-3.437-5.515-3.952-3.827-4.171-4.786-1.528-6.668 2.866-2.041 5.155-5.953 4.355-7.446-.941-1.759-.743-7.028.317-8.43.961-1.27 1.182-3.31.539-4.985-.657-1.71-1.255-1.076-1.005 1.064.161 1.378-.159 2.545-.97 3.547l-1.209 1.493-1.969-1.401c-1.082-.771-1.968-1.805-1.968-2.297s-.281-.895-.625-.895c-1.723 0-.221 3.507 3.002 7.007l1.56 1.694-1.099 3.492c-1.337 4.25-2.784 5.313-7.403 5.434-4.094.108-4.368-.077-9.316-6.29-6.897-8.66-7.688-13.812-3.289-21.41 1.118-1.93 2.239-4.159 2.49-4.952s1.728-2.8 3.28-4.459c3.66-3.912 2.331-3.917-1.727-.006m252.076-.979c6.572 5.85 10.608 19.226 7.614 25.233-1.87 3.752-9.25 12.555-10.791 12.87-4.962 1.015-8.996-1.152-10.437-5.605l-1.062-3.284 2.551-2.898c1.445-1.641 2.551-3.537 2.551-4.372 0-1.771-1.013-1.955-1.545-.281-1.378 4.343-6.248 2.97-5.788-1.632.158-1.578.029-1.859-.609-1.33-1.074.891-.994 3.657.149 5.169 1.047 1.384 1.277 8.178.298 8.784-1.003.619 1.562 4.946 4.183 7.057l2.375 1.913-1.19 2.23c-.654 1.226-2.09 2.761-3.191 3.411-1.696 1-2.054 1.637-2.338 4.156-.267 2.371-.728 3.282-2.275 4.492-1.067.835-3.116 3.497-4.552 5.916l-2.612 4.396-3.284-3.613c-3.485-3.836-3.358-3.448-4.35-13.25-.31-3.062-.175-4.259.618-5.469.78-1.19.823-1.549.188-1.549-1.457 0-2.327 1.436-2.327 3.838 0 3.118-.959 3.546-2.449 1.095-1.366-2.245-1.219-6.623.353-10.498 1.159-2.857.592-3.199-.993-.599-1.97 3.231-1.819 10.089.29 13.193 1.213 1.785 2.799 6.882 2.799 8.994 0 .697-1.594-.022-4.217-1.903-1.634-1.171-4.55-2.826-6.481-3.679-4.114-1.815-7.27-5.513-9.362-10.971-2.029-5.291-2.065-19.928-.057-22.454.746-.937 1.746-2.57 2.223-3.63.477-1.059 1.605-2.506 2.506-3.215 3.545-2.789 1.504-2.745-2.881.062-3.019 1.933-7.162 6.951-8.185 9.913-.522 1.512-2.007.782-3.577-1.759-1.778-2.876-4.144-4.438-8.404-5.548-3.952-1.029-5.077-1.731-5.645-3.52-.495-1.559-1.523-1.557-1.115.002.55 2.104 3.148 3.933 7.195 5.066 2.287.64 3.865 1.412 3.765 1.842-.094.407.528 1.572 1.383 2.588 1.775 2.11 2.824 5.37 2.892 8.996.027 1.375.246 3.001.488 3.614.936 2.369-.101 7.651-1.465 7.462-3.036-.422-4.003-.837-4.335-1.859-.716-2.2-8.663-8.675-11.134-9.074-2.835-.457-3.069.342-.421 1.439 1.058.438 2.375 1.486 2.927 2.327.551.842 2.042 2.187 3.312 2.989 1.947 1.229 2.376 1.908 2.741 4.337.473 3.158 3.031 6.619 6.043 8.176 1.096.567 1.631 1.249 1.417 1.806-.233.608.678 1.413 2.834 2.506 4.522 2.291 4.247 3.596-.474 2.242-1.46-.419-2.435-.375-3.268.145-2.981 1.862-14.299-3.854-17.587-8.883-2.021-3.089-3.618-4.073-3.618-2.227q0 1.649-2.554.283c-.672-.36-3.05-.775-5.285-.923-6.066-.401-9.036-2.264-9.036-5.67 0-1.13-.281-2.228-.625-2.44-.682-.422-.883.759-.667 3.906.168 2.436.399 2.411-3.945.423-1.932-.885-4.005-1.498-4.607-1.363-.765.171-.343.57 1.407 1.329 1.375.596 3.203 1.737 4.062 2.537 1.124 1.046 2.637 1.569 5.393 1.864 8.519.914 17.141 4.306 18.348 7.22.412.993 1.879 2.554 3.261 3.468 3.714 2.458 2.496 3.066-5.905 2.947-5.022-.071-6.617.073-5.576.503 1.904.785 1.441 2.033-.935 2.518-2.347.48-3.453 1.141-3.037 1.813.525.85 5.1-.814 6.351-2.31 1.129-1.35 1.342-1.372 7.413-.766 3.437.344 10.382.64 15.432.66 6.939.026 9.354.242 9.887.884.387.466 2.683 1.298 5.101 1.848 4.923 1.12 9.605 3.282 11.395 5.263.655.725 1.845 1.318 2.644 1.318 3.946 0 7.836 14.09 4.716 17.079-1.824 1.748-2.613 1.658-2.613-.297 0-1.076-.638-1.946-4.8-6.542-1.598-1.765-8.14-5.009-8.79-4.359-.263.264.781.953 4.528 2.988 1.92 1.043 6.559 7.052 6.561 8.499.001.443-1.091 1.976-2.425 3.406l-2.426 2.601-3.98-1.706c-4.18-1.793-6.709-3.542-13.178-9.117l-3.927-3.385 3.437 3.604c1.891 1.983 4.297 4.49 5.348 5.573 1.05 1.083 2.281 2.72 2.735 3.638.454.919 2.126 2.587 3.715 3.707 1.589 1.121 4.489 3.654 6.444 5.63s5.611 4.949 8.125 6.606c3.762 2.479 4.608 3.343 4.782 4.878.124 1.086 1.217 2.956 2.618 4.475 4.04 4.383 3.98 7.978-.217 12.956-3.433 4.072-6.273 3.361-7.61-1.907-.663-2.608-.822-2.809-1.223-1.546-1.063 3.351 1.737 8.844 4.509 8.844 4.387 0 2.833 3.083-3.893 7.723-1.687 1.164-4.091 4.544-4.064 5.715.008.343.78-.252 1.717-1.323 5.251-6.007 14.741-9.802 20.317-8.124 5.088 1.531 11.369 6.376 9.723 7.499-3.756 2.563-9.623 5.428-11.776 5.751-3.402.51-12.166 4.961-13.333 6.77-.461.716-1.306 2.684-1.876 4.375-.989 2.932-2.6 5.364-3.554 5.364-.245 0-1.062-1.694-1.817-3.764-.757-2.077-2.698-5.368-4.331-7.344-5.073-6.136-5.089-6.174-5.089-11.782 0-5.058.028-5.149 2.725-8.767 3.093-4.148 4.422-6.469 3.703-6.467-.27.001-1.455 1.417-2.634 3.147-2.223 3.26-3.58 3.361-3.873.287-.279-2.93.247-4.144 3.204-7.379 2.99-3.271 4.37-7.306 2.5-7.306-.344 0-.625.539-.625 1.199 0 2.247-.753 3.163-4.44 5.403-2.027 1.231-3.685 2.446-3.685 2.699 0 5.368-6.881.464-8.343-5.945-1.164-5.102-2.403-6.761-1.884-2.523.433 3.529.025 3.675-1.601.573-2.857-5.45-4.459-6.209-1.76-.834 1.504 2.998 4.188 6.968 6.239 9.231 2.66 2.936 3.599 4.45 3.599 5.804 0 1.008.422 3.452.938 5.431 1.901 7.302.754 12.158-1.61 6.814-.697-1.576-1.965-3.322-2.817-3.881-1.808-1.184-2.696-.712-1.461.777.469.565 1.042 2.892 1.273 5.171s.787 6.174 1.235 8.655c1.007 5.579 1.063 5.529-5.141 4.652-7.636-1.08-8.863-2.728-3.667-4.923 4.054-1.713 4.13-2.85.156-2.34-2.097.269-3.319.118-4.164-.513-1.767-1.322-.863-2.948 1.645-2.959 5.713-.023 6.26-1.785.889-2.861-3.989-.799-4.452-1.07-3.97-2.325.252-.657 1.014-.77 3.084-.456 4.311.654 5.222-.057 3.159-2.467-.592-.691-1.844-1.257-2.782-1.257-2.873 0-3.754-3.858-1.075-4.709.695-.22 1.183-.951 1.183-1.771 0-.767.331-1.726.736-2.131.754-.754-2.636-2.639-4.748-2.639-1.145 0-5.363-4.254-5.363-5.408 0-.463.422-.842.938-.842.529 0 .937.56.937 1.287 0 .708.281 1.113.625.901 1.737-1.074.672-6.291-1.719-8.42-1.592-1.418-2.07-2.18-1.49-2.378.469-.161 1.087.085 1.372.547.779 1.26 1.397.239.662-1.095-.35-.635-1.283-3.332-2.074-5.994-1.305-4.39-2.321-6.105-2.41-4.067-.019.43-.116 2.047-.215 3.594-.1 1.547.102 3.448.449 4.225.513 1.147.36 1.701-.814 2.95-1.042 1.11-1.266 1.761-.804 2.338 1.829 2.285 1.472 3.254-2.025 5.487-3.914 2.499-4.091 2.844-1.713 3.334 1.238.255 2.008.013 2.756-.865 1.86-2.185 2.4-1.452 2.4 3.259v4.479l-3.218 3.005c-3.565 3.33-3.258 4.159 1.271 3.435 1.309-.21 2.544-.217 2.745-.016.609.61-3.271 6.39-5.222 7.779-3.497 2.49-2.049 3.903 2.188 2.133 1.26-.527 2.56-.792 2.889-.588.874.54.729 3.424-.184 3.667-3.23.858-4.468 1.433-4.72 2.192-.291.875.595.809 3.114-.231.941-.388.978-.196.351 1.845-.848 2.765-3.023 4.414-7.092 5.379-5.026 1.191-5.815 1.582-4.371 2.168 1.349.546 7.183-.396 10.194-1.647 1.104-.459 2.166-.676 2.359-.482.585.585-2.355 5.611-4.523 7.731-3.867 3.782-2.394 4.719 3.361 2.137 6.727-3.018 8.997 2.257 2.421 5.624-3.493 1.787-3.812 2.947-.733 2.659 3.446-.322 5.42.79 5.42 3.054 0 1.619.189 1.88 1.094 1.507 3.769-1.551 4.631-.265 1.043 1.556-1.003.509-3.144 1.723-4.757 2.698-3.396 2.052-4.585 1.762-6.679-1.626-3.26-5.275-5.25-5.314-3.467-.069 1.171 3.444 1.17 3.508-.017 4.377-1.666 1.218-2.371 1.102-1.921-.316.711-2.24-.933-2.052-1.88.215-1.081 2.588-2.969 2.986-4.103.865-.634-1.184-.512-1.541.915-2.679.906-.723 1.647-1.795 1.647-2.384 0-.588.435-1.07.966-1.07.761 0 .881-.453.564-2.143-.365-1.943-.134-2.411 2.471-5.016 1.581-1.581 2.874-3.011 2.874-3.178 0-.522-4.583 1.582-5.753 2.64-3.89 3.521-7.327-1.944-4.626-7.357 1.217-2.439 1.217-2.446.145-2.446-.473 0-1.037-.889-1.255-1.975-.514-2.569-1.307-1.757-1.112 1.139.093 1.385-.242 2.679-.874 3.377-.941 1.04-.943 1.249-.025 2.56 2.64 3.769 1.149 6.243-3.846 6.381-4.55.125-5.332-6.359-1.286-10.669.839-.894 1.139-1.768.857-2.5-.408-1.057-.476-1.049-1.129.125-.382.687-1.464 1.972-2.404 2.856-.939.883-2.018 2.755-2.396 4.159-.378 1.405-1.195 3.18-1.815 3.946l-1.128 1.393-1.676-3.427c-.922-1.885-1.681-4.102-1.687-4.927-.005-.825-.282-1.922-.615-2.438-.446-.69-.608-.26-.615 1.625-.024 6.251-2.046 8.171-3.196 3.034-.932-4.167-1.532-4.771-1.636-1.648-.166 5.032-.842 7.061-2.209 6.627-1.107-.351-1.213-.199-.855 1.23.538 2.144.15 2.059-1.558-.34-1.346-1.89-1.639-2.893-1.754-5.997-.065-1.76-1.302-1.875-1.302-.12 0 3.513-1.386 6.839-2.85 6.839-2.089 0-2.133-.192-2.432-10.73-.206-7.269-.569-10.488-1.5-13.332l-1.229-3.75-.057 2.928c-.031 1.61.226 3.672.572 4.583 1.522 4.001.64 18.662-1.16 19.307-.567.204-1.383.534-1.813.734-.517.241-.781-.181-.781-1.25 0-.888-.302-1.615-.672-1.615-.383 0-.585.873-.469 2.031.148 1.48-.051 2.032-.734 2.032-.752 0-.937-.949-.937-4.785 0-5.302-.426-5.723-1.495-1.476q-1.474 5.841-1.312-1.083c.126-5.307.112-5.348-1.218-3.754-.856 1.026-1.085 2.033-.855 3.75.224 1.673-.136 3.367-1.255 5.896-1.874 4.237-1.139 6.917 1.292 4.716 1.215-1.099 18.28-2.024 18.28-.99 0 .701-1.881 1.163-4.739 1.163-1.518 0-2.761.281-2.761.625s.563.625 1.25.625 1.25.283 1.25.629c0 .403-1.612.48-4.473.214-3.317-.308-4.357-.229-4.026.308.271.437 2.183.724 4.827.724 2.409 0 4.894.275 5.522.612.831.444 1.354.359 1.911-.313.989-1.191 2.428-1.184 2.888.014.271.706 1.411.937 4.631.937 2.349 0 4.445.281 4.658.625.245.397-1.452.625-4.651.625-2.77 0-5.037.25-5.037.555s-.984.741-2.187.966c-2.273.427-2.871 1.381-1.254 2.002 1.394.534.482 1.476-1.44 1.487-.925.005-2.055.246-2.511.535-.977.619 2.497 1.312 6.63 1.323 2.719.007 4.317 1.469 2.699 2.468-1.041.644 20.508 2.446 22.401 1.874 1.231-.373 1.515 1.364.459 2.808-.844 1.154-.93 1.15-3.653-.168-2.142-1.037-3.938-1.349-7.748-1.346-2.727.002-8.362-.466-12.523-1.04s-8.098-.826-8.75-.561c-1.842.748 5.896 2.779 12.408 3.256 6.82.5 6.948 1.116.403 1.951-8.029 1.025-8.486 3.381-.714 3.682 3.899.151 4.041.113 1.874-.501-3.7-1.05-2.75-1.791 2.292-1.791 5.191 0 6.676-.361 6.234-1.514-.481-1.254 1.369-2.338 3.62-2.122 1.832.175 2.095.434 2.268 2.23.217 2.245.033 2.38-1.738 1.273-.667-.416-1.373-.597-1.569-.402-.594.595.376 2.41 1.288 2.41.693 0 .717.326.126 1.719-1.305 3.075-1.117 31.383.246 37.031l1.131 4.688-.433-4.688c-1.818-19.676 2.562-30.638 16.196-40.536 1.961-1.424 3.743-2.589 3.958-2.589s.216 3.445.001 7.656c-.529 10.357-.496 14.674.121 15.777.329.587.535-.286.566-2.39.064-4.437 1.563-8.827 5.629-16.488 3.8-7.16 4.334-7.741 5.22-5.686.342.794.965 1.923 1.384 2.509.632.884.508 1.336-.73 2.654-1.983 2.11-1.18 2.801.871.75 1.804-1.804 2.231-6.269.819-8.575-.695-1.135-.517-1.521 1.601-3.474 2.796-2.577 3.985-2.155 4.317 1.533l.207 2.297.619-2.76c.526-2.348.93-2.865 2.704-3.463 2.17-.73 3.773-2.858 3.811-5.059.022-1.259 1.096-2.781 1.963-2.781 1.241 0-.267 8.071-2.279 12.188-1.681 3.44-2.199 5.376-2.427 9.062l-.289 4.688.89-2.752c.489-1.514.743-3.342.564-4.063-.209-.837.495-2.666 1.946-5.06 3.676-6.067 5.389-9.75 5.003-10.756-.32-.833.751-2.463 4.328-6.588 1.31-1.511 2.75-1.368 3.398.338.3.788.998 1.808 1.553 2.269.898.745.495 1.374-3.685 5.748-2.581 2.702-4.692 5.267-4.691 5.7.001.434 1.055-.375 2.343-1.797 4.922-5.434 8.905-6.626 8.905-2.665 0 2.765-1.638 6.166-4.169 8.658-5.923 5.831-13.245 16.929-12.521 18.978.144.407 1.181-1.191 2.305-3.551 2.267-4.76 6.966-10.182 8.176-9.434 1.204.744.361 11.748-1.217 15.882-.984 2.58-1.116 3.522-.542 3.877.876.541-2.347 4.278-3.69 4.278-3.947 0-11.145 12.33-8.244 14.123.493.305.615.031.383-.856-.456-1.743 2.318-7.429 4.069-8.34 6.517-3.392 9.583-7.905 10.422-15.339.706-6.265 3.782-15.667 6.202-18.963 3.886-5.291 7.377-6.041 4.76-1.022-1.231 2.36-1.178 2.687.229 1.413.64-.579 1.67-2.176 2.289-3.548.738-1.637 1.628-2.598 2.586-2.794.804-.164 2.16-.444 3.013-.621 6.233-1.292 7.919-7.733 3.715-14.196-1.87-2.874-1.883-3.655-.11-6.76 1.593-2.789 2.324-3.115 2.388-1.066.034 1.078.238.879.875-.85 1.658-4.506 8.997-13.349 10.134-12.211.957.957.238 14.004-.935 16.982-.795 2.015-1.307 5.093-1.454 8.73l-.226 5.617 2.343 1.518c2.255 1.46 3.027 3.312 1.719 4.121-.344.212-.625.84-.625 1.396 0 .877-1.502 4.289-5.539 12.581-.563 1.156-2.482 3.41-4.264 5.009-3.474 3.116-4.182 4.428-4.761 8.826-.387 2.946.01 2.1 1.379-2.931.494-1.815 1.14-2.747 2.105-3.038 1.596-.48 5.445-3.95 5.475-4.935.049-1.635 1.793-3.05 2.766-2.243 1.078.894 1.041.962 2.19-3.975.392-1.683 1.402-4.755 2.243-6.827 2.032-5 1.968-6.705-.33-8.752-2.034-1.813-2.083-3.256-.271-8.093.485-1.296.882-3.301.882-4.455s.428-2.453.952-2.888c.542-.45.795-1.282.587-1.936-.227-.715.589-2.75 2.174-5.417 2.073-3.489 2.537-4.851 2.537-7.446 0-4.567 1.225-5.824 6.279-6.443 2.219-.272 4.666-.696 5.44-.943 2.002-.639 1.789.207-1.323 5.255-4.317 7.003-4.519 8.332-3.35 22.039.078.912.382 1.51.675 1.329s.342-2.116.108-4.3c-.391-3.653-.268-4.279 1.546-7.849 1.694-3.333 1.871-4.102 1.254-5.456-.682-1.495-.387-1.893 5.733-7.743 11.404-10.901 14.483-11.912 16.06-5.271 1.019 4.292 1.521 4.112 1.949-.699l.317-3.545 4.942-.185c3.78-.141 5.368-.487 6.748-1.469.993-.707 2.917-1.435 4.276-1.617s2.471-.67 2.471-1.083c0-.952-6.705-.139-10.169 1.233-5.094 2.017-7.142 1.054-4.788-2.252 1.494-2.098 2.487-2.377 2.013-.565-.52 1.987.344 1.449 1.283-.799 1.129-2.701 6.546-7.515 10.433-9.271 4.276-1.933 4.551-3.232.309-1.46-5.175 2.162-2.449-2.188 4.665-7.447 3.783-2.796 6.254-5.245 6.254-6.2 0-.34-1.366.659-3.036 2.221s-4.272 3.461-5.781 4.221c-1.51.759-3.239 1.815-3.843 2.346-2.247 1.976-1.553-5.327.823-8.665.742-1.041 1.177-2.064.968-2.274s-.467-.263-.573-.12-1.054 1.386-2.108 2.761-2.111 3.392-2.348 4.483c-.976 4.497-8.597 12.665-10.947 11.732-4.288-1.703-7.753-.739-11.005 3.061-2.06 2.406-2.391 2.555-6.225 2.799-4.911.312-4.915.266-.547-5.2 3.665-4.587 6.835-9.558 6.383-10.01-.315-.316-6.051 6.131-7.678 8.629-3.065 4.708-8.935 5.889-14.906 2.999-3.887-1.882-4.802-4.045-4.802-11.346 0-5.02-.204-6.135-1.537-8.41-2.401-4.097 1.056-11.549 6.696-14.433 1.116-.571 3.093-1.992 4.395-3.158 1.301-1.167 3.914-2.854 5.805-3.75 3.109-1.472 5.663-3.77 4.966-4.468-.15-.149-1.149.467-2.222 1.369-2.853 2.401-4.62 2.234-4.13-.391.355-1.896.318-1.95-.547-.818-.509.667-.926 1.702-.926 2.299 0 1.618-2.588 3.752-12.811 10.561-5.841 3.889-7.002 3.935-4.988.194 1.351-2.507 1.724-2.174-4.388-3.912-10.931-3.107-12.307-6.523-5.306-13.168 1.992-1.891 4.38-4.485 5.306-5.764 1.173-1.621 2.33-2.449 3.811-2.726 1.169-.22 2.126-.639 2.126-.933 0-3.495 29.893-8.663 32.078-5.544.475.679 1.398 1.179 2.05 1.11 1.441-.15 5.247 1.285 5.247 1.98 0 .275-.822 2.063-1.826 3.972-3.537 6.723-3.144 12.695 1.395 21.186 3.15 5.895 4.05 4.389 1.314-2.2-2.122-5.106-2.129-7.93-.031-10.958.907-1.308 1.648-2.816 1.648-3.351 0-4.484 7.579-10.055 13.583-9.983 6.514.077 17.042-3.556 17.042-5.881 0-.645-.597-.513-2.344.519-3.608 2.133-17.656 1.793-17.656-.427 0-.841 4.283-2.25 6.839-2.25.707 0 1.286-.281 1.286-.625 0-.778-.992-.791-3.589-.046-1.163.333-2.164.345-2.361.027-.537-.871 3.353-2.596 4.81-2.134.719.229 1.141.16.947-.154-1.061-1.717 3.126-3.469 7.047-2.949 2.021.268 3.135.155 3.447-.35.302-.489.061-.693-.701-.591-.64.085-2.501-.065-4.137-.334-1.733-.284-3.298-.241-3.75.104-.426.326-1.76.965-2.963 1.421s-3.813 1.794-5.799 2.973c-5.651 3.357-11.166 2.396-9.74-1.696.523-1.499.51-2.344-.05-3.392-.606-1.131-.504-2.347.534-6.413 1.245-4.878 1.346-10.703.303-17.577-.558-3.678-1.434-1.47-1.377 3.471.116 10.012-6.637 25.121-10.554 23.618-.506-.194-4.264-.353-8.352-.353h-7.433l-1.03-1.993c-.796-1.538-.871-2.249-.329-3.116 1.236-1.979.756-2.052-1.196-.182-1.18 1.131-2.269 3.125-2.878 5.274-1.428 5.03-6.429 7.839-6.986 3.923-.254-1.785-1.794-1.806-3.664-.049-1.607 1.509-2.778 1.058-1.57-.606 1.593-2.192 3.219-6.123 3.232-7.811.016-1.999 2.493-4.815 4.236-4.815 1.727 0 2.653-1.254 2.653-3.594 0-5.317 9.123-13.906 14.772-13.906.682 0 .777.742.448 3.535-.305 2.601-.224 3.416.308 3.088.397-.246.722-1.723.722-3.282 0-1.865.443-3.457 1.293-4.651 1.586-2.228 2.457-2.318 2.457-.252 0 .859.281 1.562.625 1.562s.625-.895.625-1.989c0-1.632.755-2.723 4.219-6.094 2.32-2.259 4.781-5.065 5.469-6.237.852-1.455 2.488-2.745 5.148-4.062 3.728-1.846 5.336-3.403 2.625-2.543-1.178.374-1.253.223-.881-1.762.248-1.323.141-2.334-.274-2.591-.374-.231-.681-1.351-.681-2.487 0-1.867-1.709-4.939-3.398-6.107-1.331-.921-1.06.155.508 2.019 1.716 2.04 1.834 2.503 1.645 6.489-.208 4.407-5.606 11.728-11.558 15.677-1.037.687-3.096 2.145-4.577 3.239-2.7 1.995-5.838 3.1-6.915 2.435-.317-.196.229-2.396 1.213-4.89 2.921-7.403 2.301-13.681-1.915-19.414-1.033-1.405-1.878-3.176-1.878-3.936 0-1.381-5.68-7.122-7.047-7.122-.364 0 .366.914 1.621 2.031M196.526 70.6c-12.009 4.863-18.343 19.434-14.311 32.922.603 2.016 1.064 4.228 1.024 4.916-.04.687.43 1.671 1.045 2.187.614.516 1.989 2.063 3.055 3.438 1.119 1.443 3.477 3.289 5.581 4.368 2.003 1.027 4.409 2.377 5.345 2.999 1.289.857 1.994.976 2.903.489.899-.481 1.394-.41 1.968.282 1.18 1.422 7.738 1.217 10.959-.342 2.078-1.006 2.961-1.134 4.301-.625 2.196.835 2.228.829 2.237-.453.004-.601.918-1.734 2.031-2.516a502 502 0 0 0 4.211-3.003c1.429-1.033 3.332-3.683 5.487-7.64l3.299-6.059-.374-5.856c-.811-12.718-5.78-20.99-14.886-24.777-3.153-1.312-3.487-.825-1.213 1.765 13.281 15.126 8.52 34.041-9.003 35.767-3.411.336-4.77.211-6.299-.579-1.072-.554-2.672-1.008-3.556-1.008-2.148 0-8.455-6.035-8.455-8.091 0-.802-.492-1.818-1.094-2.258-3.539-2.587-.365-15.807 5.468-22.775 3.194-3.815 3.241-4.351.277-3.151m-29.282 11.667c-.389 1.012.579 2.733 1.538 2.733 1.262 0 2.51-2.009 1.788-2.879-.981-1.182-2.848-1.1-3.326.146m91.923 18.15c-.719.719-.455 1.458.521 1.458a.94.94 0 0 0 .937-.937c0-.976-.739-1.24-1.458-.521m-103.13 1.922c-.181.293-.095.912.191 1.376.634 1.025 2.735.363 2.366-.747-.313-.939-2.094-1.377-2.557-.629m103.973 12.505c.009 2.788.235 3.194 3.718 6.664 2.377 2.368 3.589 3.238 3.375 2.422-.183-.7-1.575-2.491-3.093-3.981-2.414-2.37-2.76-3.046-2.76-5.392 0-1.475-.281-2.682-.625-2.682s-.621 1.336-.615 2.969m130.087 5.226c-.309.821-.769 2.442-1.022 3.602-.705 3.241.646 1.846 1.501-1.55.783-3.107.452-4.522-.479-2.052m-366.683.399c.233.601.581 1.873.773 2.825.303 1.501 1.438 3.095 1.438 2.02 0-1.478-1.515-5.939-2.016-5.939-.34 0-.427.492-.195 1.094m73.805 10c.202.945.629 2.365.949 3.154 1.008 2.488.641 4.416-1.241 6.523-2.112 2.363-2.843 2.127-1.89-.61.474-1.358.474-2.637.002-4.391-.779-2.895-.251-6.395.965-6.395.466 0 1.013.773 1.215 1.719M320 132.214c0 .742-.306 2.227-.68 3.299-.5 1.436-.484 2.542.063 4.198 1.337 4.052-.414 3.336-2.881-1.178-1.029-1.883-.332-7.129 1.203-9.058.842-1.059 2.295.675 2.295 2.739m-151.047 1.947c.565.565-.836 2.158-1.524 1.733-.862-.533-.652-2.144.279-2.144.459 0 1.019.185 1.245.411m52.417 8.386c.123.369.491.672.818.672s.694-.303.817-.672-.245-.672-.817-.672c-.573 0-.941.302-.818.672m-41.091 13.757c-.546.883.659 2.088 1.542 1.542.991-.612.831-2.221-.222-2.221-.495 0-1.089.306-1.32.679m162.221 1.879c0 1.938-13.733 7.084-15.143 5.674-.948-.948.116-2.135 1.573-1.754.815.213 3.224-.675 6.537-2.408 4.777-2.5 7.033-2.985 7.033-1.512M79.868 160.01c2.395 1.38 4.765 2.352 5.268 2.159.978-.375 2.81 1.343 2.143 2.01-.684.685-10.597-2.276-13.06-3.901-5.448-3.593-.523-3.827 5.649-.268m99.907 2.924c-.704.704-.429 1.441.538 1.441.515 0 .937-.265.937-.588 0-.788-.976-1.353-1.475-.853m-67.54 4.097c2.801 1.897 4.197 3.594 2.954 3.594-.927 0-7.689-4.44-7.689-5.048 0-1.103 1.752-.565 4.735 1.454m194.226-.81c-1.82 1.581-6.721 4.422-7.297 4.229-.987-.329 2.34-3.479 4.739-4.488 1.964-.826 3.614-.659 2.558.259M157.5 172.765c0 1.978-3.072 4.521-6.838 5.661-3.482 1.055-4.667 2.206-3.201 3.112.322.199 2.148-.405 4.059-1.341 4.03-1.977 5.522-1.496 4.221 1.361-.986 2.163-2.726 2.634-8.223 2.226l-4.67-.346-1.197-2.897c-1.921-4.647-.139-8.976 3.089-7.506 1.914.872 10.62.4 11.243-.609.534-.864 1.517-.645 1.517.339m106.385.815c2.211.21 4.294.04 5.469-.446 3.75-1.554 5.617 2.99 3.239 7.885-1.541 3.173-6.968 4.326-6.968 1.481 0-.687.338-1.25.75-1.25 1.431 0-.412-1.151-2.176-1.358-.956-.113-1.711-.486-1.677-.829.033-.344.463-.543.956-.442 2.263.464.574-.998-2.072-1.792-2.555-.767-2.997-1.143-3.175-2.696-.175-1.534-.034-1.736.938-1.349.629.252 2.751.61 4.716.796m-61.312 9.701c.075 3.41.32 3.082.703-.937.123-1.289-.002-2.344-.277-2.344-.274 0-.466 1.477-.426 3.281m41.524 8.538c-.72 1.165 2.543 2.642 5.383 2.438 2.226-.16 2.708-.417 2.708-1.444 0-1.389-7.293-2.284-8.091-.994m-127.234 5.994c.792 2.75 1.586 5.393 1.766 5.874.4 1.07-2.518.495-4.723-.931-1.78-1.151-2.031-7.21-.396-9.545 1.301-1.858 1.621-1.419 3.353 4.602M228.75 192.5c0 .344-.5.625-1.111.625s-1.593.563-2.181 1.25c-.68.793-1.844 1.25-3.188 1.25-1.164 0-2.467.422-2.895.938-.984 1.185-1.875 1.205-1.875.042 0-.493.563-1.074 1.25-1.292 2.51-.797 1.15-1.563-2.776-1.563-6.412 0-5.549-1.175 1.035-1.409 3.192-.114 7.139-.265 8.772-.336 1.649-.072 2.969.148 2.969.495m72.4.967c1.95 4.281.62 9.016-2.911 10.359-2.547.968-2.653-.072-.626-6.17 2.068-6.218 2.421-6.637 3.537-4.189m-85.525 2.471c.677.815.282.937-3.048.937-3.535 0-4.469-.4-3.41-1.458.816-.816 5.674-.425 6.458.521m-40.563 2.337c-.62 1.63-1.778 2.718-2.318 2.177-.164-.163.19-1.319.785-2.568 1.194-2.504 2.506-2.169 1.533.391M230 196.941c0 .307-1.406.559-3.125.559-2.795 0-4.208-.785-2.461-1.367 1.197-.399 5.586.235 5.586.808m-.552 3.677c1.89.008 5.167 4.28 4.538 5.917-.417 1.088-1.838 1.287-2.423.34-.843-1.362-2.28-.643-2.076 1.039.34 2.822-1.141 2.296-1.981-.704-.436-1.559-1.055-2.835-1.374-2.835s-.405.284-.191.631c.859 1.39-.379 3.119-2.233 3.119-1.806 0-2.43-.807-1.208-1.562 1.678-1.038-.07-1.415-7.969-1.722-14.462-.562-15.463-1.996-1.406-2.016 7.462-.01 9.029-.168 8.873-.893-.288-1.339 1.196-2.014 3.627-1.649 1.203.181 2.924.331 3.823.335m30.433 12.82c-.14 1.203-.03 2.187.245 2.187.274 0 .499-.984.499-2.187 0-1.204-.11-2.188-.244-2.188s-.359.984-.5 2.188m-110.754 2.881c-.244.553-.032 2.522.47 4.375l.914 3.369-.017-2.5c-.024-3.581-.795-6.539-1.367-5.244m88.442 30.625c-.385 1.105-.596 2.113-.468 2.24s.588-.631 1.024-1.684.647-2.061.469-2.239c-.179-.179-.64.579-1.025 1.683m-61.934.05c.018 1.57 1.22 2.862 1.23 1.324.006-.753-.271-1.543-.615-1.755-.344-.213-.621-.019-.615.431" fill-rule="evenodd"/></svg>