<svg xmlns="http://www.w3.org/2000/svg" version="1.1" viewBox="5 5.9 90 88.22">  <desc>Created by Lewen Design, downloaded from Noun Project. They can be found at this link: https://thenounproject.com/browse/collection-icon/hand-and-gesture-191281/ (CC BY 3.0)</desc><path fill="currentColor" d="m92.07 59.938c-1.6992-1.8086-3.9883-2.9609-6.6328-3.3398-0.66016-0.10156-1.3281-0.14453-2-0.14453-1.5195 0-3.1055 0.23438-4.7031 0.71484-1.5977 0.46875-3.1953 1.2266-5.0273 2.3906-0.79297 0.50391-1.4414 0.81641-2.0977 1.0391-0.41406 0.14453-0.82812 0.21094-1.2266 0.21094-1.5195 0-2.8906-0.99219-3.6758-2.6484-0.4375-0.91406-0.69141-1.9531-0.80469-3.1836-0.26953-3.1367 0.53516-6.2422 1.3164-8.9023 2.043-6.957 5.6523-15.066 8.2852-20.984l0.078125-0.17969c1.4297-3.207 2.9141-6.5312 3.5078-10.094 0.22266-1.3633 0.19922-2.6367-0.066406-3.7969-0.58203-2.5703-2.5898-4.4688-5.25-4.957-0.52344-0.089844-1.0508-0.14453-1.5508-0.14453-3.0156 0-5.5625 1.7188-7.5586 5.0938-0.97266 1.6406-1.7305 3.2383-2.3359 4.9141l-1.1602 3.2148c-2.0312 5.6523-3.5195 11.414-4.9922 17.309-0.26953 1.0625-0.49219 1.832-0.75 2.5703-0.13281 0.40234-0.34766 0.71484-0.63672 0.92578-0.23437 0.17969-0.49219 0.26953-0.75781 0.26953-0.35547 0-0.69141-0.15625-0.96094-0.43359-0.34766-0.34766-0.61328-0.75-0.90625-1.1602l-0.10937-0.15234c-0.94531-1.2891-2.2734-2.2773-3.8125-2.7109-0.86719-0.24609-1.7617-0.36328-2.6523-0.36328-0.90625 0-1.7852 0.12109-2.625 0.36719-1.6875 0.51172-3.0391 1.5859-3.8984 3.1055-0.23438 0.41406-0.57031 0.70312-0.9375 0.81641-0.10156 0.035156-0.19922 0.042968-0.28906 0.042968-0.37891 0-0.71484-0.26953-1.1719-0.64844-0.69141-0.59375-1.6523-1.3867-3.4297-1.5625-0.32422-0.023437-0.66016-0.042969-0.99219-0.042969-2.6797 0-5.0469 0.98438-6.3438 2.6367-0.53516 0.67969-0.89453 1.4844-1.1484 2.6016-0.57031 2.5352-0.75781 5.25-0.54688 8.2969 0.24609 3.6406 1.2188 10.152 5.0039 12.785 0.94922 0.67188 2.1445 1.0391 3.3711 1.0391 2.3008 0 4.2109-1.2188 4.9805-3.1719l0.054688-0.12109-0.042969-0.12109c-1.6758-4.4102-2.1328-10.555-1.25-16.418 0.13281-0.83594 0.28906-1.4414 0.55859-2 0.14453-0.32422 0.46875-0.53516 0.79297-0.53516 0.15625 0 0.30078 0.042968 0.42578 0.12109 0.25781 0.17969 0.4375 0.54687 0.45703 0.9375 0.042968 0.92578 0.035156 1.8203 0.011718 2.7695l-0.011718 0.35547c-0.089844 4.3125 0.32422 8.5312 1.1836 11.859 0.54687 2.168 1.4414 4.2539 4.1875 4.8672 0.51562 0.11328 1.0391 0.16797 1.5508 0.16797 1.8555 0 3.5859-0.75 4.8672-2.1211 0.64844-0.69141 1.1055-1.543 1.4727-2.7695 0.88281-2.9922 0.75-7.0234 0.63672-10.262l-0.11328-3.6641c-0.042969-1.3281 0.36719-1.5859 0.72656-1.6641 0.054688-0.011719 0.11328-0.023438 0.16797-0.023438 0.24609 0 0.48047 0.12109 0.67188 0.33594 0.75781 0.89453 1.082 3.4297 1.2188 4.5117 0.67188 5.1914 0.48047 9.3711-0.53516 12.094l-0.22266 0.58203 0.61328-0.14453c0.48047-0.11328 1.0625-0.22266 1.5977-0.22266 0.70312 0 1.1406 0.19141 1.3516 0.59375 0.21094 0.51563-0.12109 1.0273-0.57031 1.2383-0.40234 0.19141-0.79297 0.30078-1.25 0.42578l-0.16797 0.054687c-3.2266 0.90625-6.1328 2.3672-8.5977 4.3203-2.4219 1.9219-4.3438 4.1992-5.7383 6.7695-0.67188 1.25-1.0703 2.5703-1.4531 3.8398-0.11328 0.36719-0.4375 0.67188-0.76953 0.72656-0.054688 0.011719-0.11328 0.011719-0.16797 0.011719-0.34766 0-0.63672-0.16797-0.82812-0.48047-0.25781-0.42578-0.34766-0.90625-0.28906-1.5195 0.36719-4.043 3.2734-7.3711 4.9688-8.9883l0.44531-0.43359-0.60156-0.13281c-1.25-0.27734-2.2891-0.81641-3.1172-1.5977l-0.30078-0.27734s-0.67969 0.98438-1.082 1.3281c-1.5078 1.3867-3.5508 2.1562-5.7852 2.1562-2.2773 0-4.5234-0.81641-6.1406-2.2344-2.2344-1.9336-3.9102-5.1133-4.6133-8.7227-0.97266-4.9922-0.66016-10.676 0.81641-14.832l0.054688-0.13281-0.078125-0.13281c-0.44531-0.85938-0.75781-1.7422-1.0508-2.5781-1.25-3.5977-2.3555-7.4492-3.3711-11.781l-1.6523-6.9922c-0.23438-1.0039-1.1953-4.3672-3.6758-5.1914-0.53516-0.17969-1.1055-0.26953-1.6875-0.26953-1.2266 0-2.4219 0.40234-3.3633 1.1484-0.87109 0.67969-1.543 1.6094-2.0117 2.7578-1.1953 2.9805-0.91406 6.0977-0.49219 8.7539 0.63672 3.9883 2.3672 9.582 3.7188 13.57l1.5742 4.7109c1.1953 3.5625 2.0547 6.5312 2.7031 9.3711 0.13281 0.58203 0.21094 1.0703 0.13281 1.6992-0.72656 6.8125 0.19141 13.078 2.6562 18.137 1.2266 2.5 2.7578 4.625 4.5352 6.2891 0.44531 0.41797 0.92969 0.8125 1.4453 1.1914 0.37891 0.27344 0.64062 0.68359 0.6875 1.1523 0.22266 2.1523 0.26562 4.3125 0.26562 5.6055 0 0.71875 0.47266 1.3594 1.1641 1.5625 11.59 3.4102 23.594 3.9961 35.074-0.003906 0.68359-0.23828 1.1211-0.91016 1.082-1.6328l-0.17578-3.1836c-0.035156-0.66016 0.34766-1.2539 0.94141-1.543 1.9609-0.95312 3.6797-2.25 5.5547-3.8789l4.2109-3.6406c0.87109-0.75 1.8203-1.418 3.0938-2.1758 4.5898-2.7344 9.3906-3.2148 13.883-3.3281l2.2109-0.054687c1.5195-0.042969 3.0469-0.25781 3.9297-1.5312 0.54688-0.79297 0.85938-1.7188 0.92578-2.7461 0.15625-2.7031-0.90625-5.4961-2.9141-7.6406z"/> </svg>