<svg xmlns="http://www.w3.org/2000/svg" version="1.1" viewBox="21.1 4.97 57.82 90.05">  <path d="m47.379 10.734c-0.097656-1.25 0.18359-2.4766 0.875-3.4922 1.2305-1.7969 3.418-2.6445 5.5117-2.0586 1.1836 0.33203 2.1602 1.082 2.7695 2.1797 0.44141-0.43359 0.94922-0.70703 1.5195-0.95312 1.5078-0.64453 3.2734-0.49609 4.6172 0.48438 1.9609 1.4297 2.3711 3.8984 1.4648 6.0586-0.41797 0.99609-1.0352 1.8633-1.8086 2.625-0.82812 0.81641-1.7188 1.5312-2.7148 2.1719-1.4336 0.92188-2.9141 1.6953-4.5195 2.1758-0.64062 0.19141-1.1797 0.09375-1.7188-0.28906-0.95703-0.68359-1.8047-1.4961-2.6055-2.3711-1.6094-1.7656-3.1992-4.0938-3.3906-6.5312zm30.723 54.562c-0.82422-1.5078-2.1719-2.5977-3.875-3-0.25 0.44922-0.55859 0.82812-0.89062 1.2266-1.4844 1.8125-3.0039 3.5938-4.6172 5.293-0.80859 0.85156-1.5195 1.668-2.4102 2.3789-0.39453 0.31641-0.94141 0.46094-1.4023 0.22656-0.65625-0.33594-0.73047-1.125-0.29688-1.7109 0.56641-0.76563 1.2188-1.4414 1.8867-2.1523l6.4258-6.8398c0.36328-0.38672 0.57812-0.79688 0.66016-1.3125 0.15234-0.96094 0.066407-1.9023-0.34375-2.8047-1.0117-2.2344-3.2031-3.8203-5.6992-3.9648-0.44531-0.027344-0.88281 0.082031-1.2539 0.32812-0.72266 0.47266-1.3398 1.0703-2.0078 1.6289-1.625 1.3711-3.0703 2.8672-4.6094 4.3672-1.3945 1.3594-2.7578 2.7539-3.9922 4.2578-0.31641 0.38281-0.66406 0.69141-1.1016 0.85938-0.46484 0.17969-0.94922-0.046875-1.2227-0.41016-0.29297-0.39062-0.28906-0.91406-0.011718-1.3203 0.23438-0.33984 0.44531-0.65625 0.72266-0.97656 2.5039-2.8789 5.1797-5.5898 8.0781-8.0781 1.0078-0.86328 2.4531-1.9883 3.6367-2.543 0.67188-2.2539-0.61328-4.5039-2.3281-5.9062-1.4023-1.1445-3.1172-1.8242-4.9375-1.8125-0.85547 0.003906-2.8008 1.4336-3.5469 1.9805-3.4453 2.5195-6.6328 5.3125-9.6836 8.293-0.75 0.73437-1.457 1.4805-2.2695 2.1289-0.29688 0.23828-0.67578 0.34375-1.0391 0.26172-0.3125-0.074218-0.64062-0.28906-0.78125-0.62891-0.13281-0.32031-0.046875-0.67188 0.13672-0.95312 1.7812-2.6875 10.918-10.422 13.988-12.168l2.4141-1.375 2.3242-1.3672 2.3906-1.5117c1.3867-0.87891 2.6836-1.8359 3.8711-2.9648 1.8438-1.75 3.1523-4.0703 2.1094-6.6211-0.94531-2.3164-3.125-3.168-5.5156-2.8242-1.1562 0.16406-2.25 0.45312-3.3477 0.87109-2.2578 0.85938-4.4141 1.918-6.5273 3.1055-2.9297 1.6484-5.793 3.4219-8.5586 5.3438-3.4414 2.3906-6.7344 4.9453-9.8789 7.7188-3.1562 2.7812-6.6016 6.0547-9.3125 9.2617-1.0156 1.2031-1.9219 2.4844-2.6758 3.8594-1.3672 2.4844-1.8281 5.3906-1.2852 8.1758 0.38672 1.9805 1.082 3.8633 2.0273 5.6562 1.8438 3.5039 6.8906 11.172 8.0938 12.988 0.17188 0.25781 0.25781 0.55469 0.25781 0.86328v8.9609c0 0.76172 0.54688 1.4219 1.2969 1.5547 10.16 1.7812 20.34 1.8242 30.547 0 0.73828-0.13281 1.2773-0.77734 1.293-1.5273l0.074218-4.0977c0.011719-0.5625 0.31641-1.0742 0.80859-1.3477 1.3008-0.71094 3.8516-2.1992 5.0312-3.4961 1.8281-2.0078 3.7109-5.5859 3.7109-5.5859 0.69922-0.87109 2.1875-3.1055 2.7578-4.0703 0.75-1.2734 1.3398-2.6328 1.5898-4.082 0.25781-1.4766 0.003906-2.8555-0.70312-4.1484zm-40.832-31.633c0.28516 0.85938 0.54688 1.6719 0.72656 2.5234 3.7578-2.9414 7.6055-5.6172 11.582-8.0078-1.125-2.4922-2.7969-4.7695-5.3203-5.8477-1.6875-0.72266-3.5859-0.78125-5.2383-0.023437-1.7031 0.78125-2.8359 2.2734-3.0859 4.1328-0.125 0.92969-0.066406 1.8438 0.10938 2.7773 0.28906 1.5312 0.73828 2.9688 1.2266 4.4453z"/></svg>