<svg xmlns="http://www.w3.org/2000/svg" version="1.1" viewBox="21.27 5 57.47 90.03">  <path fill="currentColor" d="m25.156 67.203c-0.30469-0.09375-0.52734-0.26172-0.74609-0.45312-0.98047-0.89453-1.6836-1.9375-2.2422-3.1484-0.98047-2.1055-1.1367-4.5078-0.46484-6.7383 0.95312-2.1914 2.5664-4.0469 4.8828-4.75 1.3008-0.45312 2.7461-0.44922 3.2812-1 0.56641-0.61719 0.39062-1.6562 0.47266-2.4805 0.003906-2.5 1.75-4.7188 3.8086-6.082 1.9258-1.0312 4.2109-1.1562 6.1406-0.10547 1.3047 0.71484 2.0938 1.7578 2.9062 2.3906-1.3594 0.66406-2.3359 1.8438-2.7188 3.3594-0.80078 3.2109 0.57031 6.75 2.8203 9.0664 1.707 1.7383 3.875 2.918 6.1797 3.5078-0.37891 1.7812-1.5586 3.1484-3.2969 3.7188-1.3047 0.43359-2.9922 0.28516-4.0742-0.67578-0.45312-0.39844-0.57031-1.1367-0.89453-1.6641-1.5586-2.5703-3.3047-4.9805-5.4023-7.1289-0.69531-0.71484-2.2109-2.3164-3.2227-1.9922-0.28516 0.09375-0.49609 0.28516-0.57031 0.52734-0.09375 0.27344 0 0.54687 0.19141 0.78125l1.5586 1.957c1.7812 2.2539 4.2734 5.5078 5.4141 8.0977 0.50391 1.125 0.45312 2.3281-0.125 3.4219-1.043 1.9805-3.3711 2.9062-5.5586 2.3164-1.2305-0.32812-2.2539-0.88281-3.2656-1.6094-1.3594-0.98047-2.5469-2.1055-3.75-3.2852-0.48438-0.48438-0.92578-0.95703-1.4961-1.3359-0.17969-0.125-0.42188-0.14844-0.60156-0.054688-0.72656 0.39844 0.43359 2.7383 0.76953 3.3594zm18.176-35.234-0.91797 3.2031-1.2656 4.5898c2.4336 1.3281 4.0547 3.1172 4.5703 4.2734 0.042969-0.011718 3.7188-0.75781 3.7188-0.75781-0.24219-0.24219-0.34766-0.47266-0.48438-0.73828l-2.0938-3.9375zm0.27344-5.4648 5.1484 9.625 2.7578 5.2344c0.22266 0.42188 0.39844 0.80078 0.52734 1.2109l5.4961-2.0117c2.6641-0.90625 5.3906-0.71484 7.9609 0.50391l-2.5703-6.0352c-2.1797-5.1172-4.6211-10.098-7.2148-15.016-1.1172-2.1602-2.2734-4.2656-3.582-6.2969-1.4336-2.2227-3.1484-4.4648-5.5703-5.6328-1.5898-0.75781-3.4102-0.78125-4.9922-0.011719-2.7383 1.3359-3.4336 4.2422-2.9062 7.0547 0.68359 3.707 3.1367 8.0117 4.9375 11.371zm33.906 44.949c0.86719-4.2969 1.5391-8.2891 1.0039-12.566-0.24609-1.9727-0.95703-3.6992-2.1719-5.2617-1.0156-1.2812-2.0938-2.4414-3.3203-3.5117l-1.8164-1.582c-1.4375-1.25-2.9102-2.4062-4.5234-3.4336-2.4961-1.5938-5.2734-2.6758-8.2148-1.5938l-3.6992 1.3594c-2.2617 0.83594-4.5469 1.3945-6.9336 1.8164-1.0352 0.1875-2.0391 0.34375-3.0312 0.66797-0.61328 0.21094-0.99219 0.60156-1.1914 1.2266-0.94922 3.0742 1.1016 6.375 3.7578 7.9922 1.7383 1.082 3.832 1.6602 5.9062 1.7148 2.707 0.078125 5.3164-0.65625 7.6914-1.8516 0.21094-0.10938 0.46875-0.13281 0.60156-0.011719 0.625 0.5-0.43359 1.5391-0.83594 1.9375 0.98047 1.2383 2.2852 2.1641 3.7891 2.6406l2.4297 0.76953c0.26562 0.066406 0.46875 0.28906 0.48047 0.53516 0.023437 0.89062-1.582 1.0039-2.2969 0.94531-1.7734-0.14453-4.3477-1.0938-5.6172-2.4297-1.2695 1.5273-2.418 3.1211-3.332 4.9141-2.0391 4.0664-2.6094 8.6133-1.0352 12.93 0.21094 0.55859-0.089844 1.2148-0.69141 1.3047-0.72266 0.10156-1.6836-1.5508-1.9492-2.1953-1.4805-3.4531-1.0586-7.6445 0.30078-11.055 0.82422-2.0625 1.9961-3.8789 3.3555-5.6602-1.2578 0.25781-2.543 0.35547-3.7891 0.17969-0.011718 0.61328-0.16797 1.125-0.37891 1.6719-1.1016 2.8633-3.9102 4.8477-6.9883 4.9023-0.9375 0.023437-1.8164-0.089844-2.6406-0.48047-0.19141 1.4922-0.92578 2.7852-1.9961 3.8438-1.7383 1.6953-4.1797 2.4297-6.6094 2.1641-4.2031-0.45703-8.1562-4.9805-8.1562-4.9805s0.90234 3.8242 1.6367 5.5742c0.65625 1.5586 1.3945 3.0859 2.1953 4.5703 1.5508 2.7969 3.4531 5.3711 5.8828 7.4688 1.75 1.5273 3.7578 2.6875 5.9062 3.4883 0.32422 1.0156 0.91016 2.8828 1.2773 4.0547 0.1875 0.60156 0.69531 1.0625 1.3203 1.1562 9.5977 1.4453 22.184-2 29.723-6.3125 0.67188-0.38281 1-1.168 0.79297-1.9141l-0.66797-2.3906-0.42188-1.4141c-0.074218-0.26953-0.03125-0.53516 0.09375-0.78125 1.7148-3.3516 3.4258-6.7109 4.1719-10.398zm-17.145-48.984 2.0547-4.0117c0.90625-1.7695 1.6211-3.5703 2.1289-5.4844 0.54688-2.1602 0.66406-4.918-1.0625-6.5703-1.4336-1.3672-3.5586-1.7695-5.4023-1.043-2.1172 0.92578-3.6445 2.7188-4.875 4.6562 0.92578 1.2422 1.7266 2.5078 2.4961 3.8438 1.6445 2.8203 3.1367 5.6562 4.6641 8.6133z"/></svg>