<svg xmlns="http://www.w3.org/2000/svg" version="1.1" viewBox="18.63 4.97 62.72 90.05">  <path d="m80.871 87.172c-4.4805 4.4336-10.941 7.0781-19.055 7.8242-0.74219 0.066406-1.4375-0.39453-1.6758-1.1055l-2.4414-7.2422c-0.42969-0.19531-0.85156-0.41016-1.2578-0.67188-2.7734-1.793-4.1055-4.6914-4.5742-7.8828-0.30859-2.1016-0.36328-4.1797-0.36328-6.3047 0-3.7227 0.34375-7.3906 0.96875-11.051 0.15625-0.92188 0.76953-2.0469 0.76953-2.0469s-2.2812-17.32-1.8789-23.359c0.10547-1.7188 0.76953-3.2852 2.0273-4.4688 1.3008-1.2266 3.6172-1.8984 4.9375-0.5 0.41406 0.4375 0.66016 0.99219 0.83203 1.5781 0.59766 2.1328 0.76953 5.1406 1.4297 7.2188l1.4336 4.582c0.30859 0.98828 0.57812 1.9883 0.80469 2.9961 0.53516 2.3984 1.0469 4.7344 1.8047 7.0547 0.19141 0.58594 0.62891 1.8008 1.3125 1.8008 0.68359 0.011719 0.94922-0.83203 0.83203-1.5469-0.13672-0.74609-0.38281-1.4297-0.58594-2.1641-0.38281-1.3867-0.64062-2.7617-0.90625-4.1914-0.42578-2.25-0.96875-4.4141-1.6758-6.5898-0.35156-1.1094-0.75781-2.1641-0.9375-3.3164l-0.72656-4.3711c-0.16016-1.0234-0.35156-1.9727-0.74609-2.9219-1.0234-2.5078-3.4141-3.668-6.0469-3.168-1.2695 0.23438-2.3906 0.82031-3.2969 1.7812l-0.11719-1.7695c-0.21484-3.1797-0.49219-6.3125-0.42578-9.5039 0.019531-1.1406 0.36328-2.1758 0.92969-3.1562 1.0664-1.8438 3.168-3.3828 5.375-3.0508 1.75 0.26562 2.4531 1.918 2.793 3.4766l1.0664 5.0234c0.28906 1.332 0.62891 2.5898 1.1094 3.8711l2.25 6.0156c0.58594 1.5781 1.0781 3.1445 1.4727 4.7891 0.86328 3.6172 1.7617 7.1992 2.7852 10.781 0.26562 0.96094 0.55469 1.8672 0.9375 2.7734 0.17188 0.41406 0.58594 1.1406 1.0781 1.0859 0.16016-0.011718 0.30859-0.11719 0.42578-0.26562 0.54297-0.67188-0.097656-2.0586-0.27734-2.8477l-2.9102-12.605c-0.28906-1.2695-0.64062-2.4844-1.0898-3.7109l-2.25-6.1445c-0.42578-1.1406-0.72656-2.2734-0.98047-3.4648l-1.2812-5.8125c-0.19141-0.875-0.48047-1.6836-0.88672-2.4648-0.875-1.6836-2.4531-2.7734-4.3711-2.9102-2.4102-0.17188-4.8008 0.9375-6.293 2.9219-0.12891-3.1367 1.4922-6.0703 4.6172-6.9219 2.1758-0.59766 4.4258 0.011718 5.3008 2.2188 0.57422 1.4492 0.80469 2.9648 1.2852 4.2422 0 0 2.4375-0.76172 3.4805 5.2812l0.70312 4.0742c0.19141 1.1094 0.54297 2.1445 0.92969 3.1992l1.4297 3.8828c0.58594 1.5898 1.0898 3.1562 1.4609 4.8086 0.80078 3.5078 1.6328 6.9844 2.582 10.465 0.61719 2.2617 2.1445 3.668 2.5703 5.2266 0.29687 1.0781 0.4375 2.1562 0.62891 3.2539l0.56641 3.3906 0.71484 4.4258c0.60938 3.7969 1.1836 10.922 1.2383 14.793 0 0.54297 0.64062 5.5391 0.64062 5.5391l1.9023 5.4805c0.20312 0.58203 0.070312 1.2383-0.36719 1.6719zm-49.215-53.445c0.28906-1.2695 0.64062-2.4844 1.0898-3.7109l2.25-6.1445c0.42578-1.1406 0.72656-2.2734 0.98047-3.4648l1.2812-5.8125c0.19141-0.875 0.48047-1.6836 0.88672-2.4648 0.875-1.6836 2.4531-2.7734 4.3711-2.9102 2.4102-0.17188 4.8008 0.9375 6.293 2.9219 0.12891-3.1367-1.4922-6.0703-4.6172-6.9219-2.1758-0.59766-4.4258 0.011719-5.3008 2.2188-0.57422 1.4492-0.80469 2.9648-1.2852 4.2422 0 0-2.4375-0.76172-3.4805 5.2812l-0.70312 4.0742c-0.19141 1.1094-0.54297 2.1445-0.92969 3.1992l-1.4297 3.8828c-0.58594 1.5898-1.0898 3.1562-1.4609 4.8086-0.80078 3.5078-1.6328 6.9844-2.582 10.465-0.61719 2.2617-2.1445 3.668-2.5703 5.2266-0.29688 1.0781-0.4375 2.1562-0.62891 3.2539l-0.56641 3.3906-0.71484 4.4258c-0.60937 3.7969-1.1836 10.922-1.2383 14.793 0 0.54297-0.64062 5.5391-0.64062 5.5391l-1.9023 5.4805c-0.20312 0.58203-0.070312 1.2383 0.36719 1.6719 4.4805 4.4336 10.941 7.0781 19.055 7.8242 0.74219 0.066406 1.4375-0.39453 1.6758-1.1055l2.4414-7.2422c0.42969-0.19531 0.85156-0.41016 1.2578-0.67188 2.7734-1.793 4.1055-4.6914 4.5742-7.8828 0.30859-2.1016 0.36328-4.1797 0.36328-6.3047 0-3.7227-0.34375-7.3906-0.96875-11.051-0.15625-0.92188-0.76953-2.0469-0.76953-2.0469s2.2812-17.32 1.8789-23.359c-0.10547-1.7188-0.76953-3.2852-2.0273-4.4688-1.3008-1.2266-3.6172-1.8984-4.9375-0.5-0.41406 0.4375-0.66016 0.99219-0.83203 1.5781-0.59766 2.1328-0.76953 5.1406-1.4297 7.2188l-1.4336 4.582c-0.30859 0.98828-0.57812 1.9883-0.80469 2.9961-0.53516 2.3984-1.0469 4.7344-1.8047 7.0547-0.19141 0.58594-0.62891 1.8008-1.3125 1.8008-0.68359 0.011719-0.94922-0.83203-0.83203-1.5469 0.13672-0.74609 0.38281-1.4297 0.58594-2.1641 0.38281-1.3867 0.64062-2.7617 0.90625-4.1914 0.42578-2.25 0.96875-4.4141 1.6758-6.5898 0.35156-1.1094 0.75781-2.1641 0.9375-3.3164l0.72656-4.3711c0.16016-1.0234 0.35156-1.9727 0.74609-2.9219 1.0234-2.5078 3.4141-3.668 6.0469-3.168 1.2695 0.23438 2.3906 0.82031 3.2969 1.7812l0.11719-1.7695c0.21484-3.1797 0.49219-6.3125 0.42578-9.5039-0.019532-1.1406-0.36328-2.1758-0.92969-3.1562-1.0664-1.8438-3.168-3.3828-5.375-3.0508-1.75 0.26562-2.4531 1.918-2.793 3.4766l-1.0664 5.0234c-0.28906 1.332-0.62891 2.5898-1.1094 3.8711l-2.25 6.0156c-0.58594 1.5781-1.0781 3.1445-1.4727 4.7891-0.86328 3.6172-1.7617 7.1992-2.7852 10.781-0.26562 0.96094-0.55469 1.8672-0.9375 2.7734-0.17188 0.41406-0.58594 1.1406-1.0781 1.0859-0.16016-0.011718-0.30859-0.11719-0.42578-0.26562-0.54297-0.67188 0.097656-2.0586 0.27734-2.8477l2.9102-12.605z"/> </svg>