<svg xmlns="http://www.w3.org/2000/svg" version="1.1" viewBox="4.97 17.12 90.05 65.77">  <path d="m76.762 31.227c3.6172-2.1719 9.4414-6.3594 13.68-4.2422 4.8672 2.4297 2.7383 7.9219 2.7383 7.9219s-2.7383-0.75781-5.4336-0.42188c-4.543 0.56641-9.168 3.6211-12.898 5.4727l-8.8555 4.5742c-0.95703 0.50391-2.7852 1.2773-2.7852 1.2773s-2.1094-3.1172-3.6445-4.3906l1.9258-0.98047 15.27-9.2109zm11.48 24.406c0.050781 2.8203-2.7734 4.7969-4.7852 6.3047-1.9258 1.4336-4 2.6602-6.1094 3.7773-0.82031 0.42969-1.6562 0.84766-2.5039 1.2383-7.4453 3.457-15.207 6.2539-23.734 8.5234-3.875 1.0312-7.3594 1.5703-10.941 1.6797-0.25781 0.011719-0.50391 0.011719-0.75 0.011719-0.36328 0-0.72656-0.011719-1.0898-0.027344-0.67969-0.035156-1.3125 0.35938-1.6133 0.97266l-1.8828 3.793c-0.36719 0.74219-1.2188 1.1211-2.0156 0.89453-12.621-3.5938-20.555-8.9531-27.414-16.879-0.47656-0.55078-0.54688-1.3555-0.17969-1.9883l3.043-5.2656c0.22656-0.39062 0.30078-0.85938 0.17578-1.293-0.57031-1.9922-0.85156-4.5547-0.14844-7.8438 0.96875-4.625 2.8828-8.2188 5.8516-11l5.2266-4.918c5.0156-4.7227 6.3906-8.6211 7.3828-11.48 0.76172-2.1602 1.3477-3.8516 3.2734-4.5508 0.80859-0.29297 1.668-0.45312 2.5508-0.45312 2.8086 0 5.543 1.5469 6.9531 3.9258 1.8281 3.0664 0.93359 6.9414-0.60156 9.9336-0.46484 0.91797-1.0039 1.8164-1.6445 2.6367-0.33203 0.42969-0.6875 0.83594-1.0547 1.2148-0.45312 0.45312-1.0195 0.76172-0.35547 1.3242 0.58984 0.49219 1.5078 0.51563 2.2305 0.51563 0.12109 0 0.23438 0 0.33203-0.011719l0.67578-0.074219c3.2617-0.35547 6.6484-0.73438 9.7734-1.8516 3.4727-1.2383 6.5625-2.9805 9.8242-4.832 0.73437-0.41797 1.4727-0.83594 2.2188-1.25 0.79687-0.44141 1.6445-0.94531 2.5391-1.4727 3.9141-2.3164 8.7695-5.1875 12.926-5.1875 0.58984 0 1.1406 0.050781 1.668 0.16016 1.8281 0.39062 3.1641 1.4453 3.668 2.918-0.18359 0.10938-22.887 13.367-22.887 13.367l-1.5938 0.89453s-1.2383-0.92188-2.0625-1.2773c-0.61328-0.26953-1.6797-0.69922-2.3164-0.25781-0.67578 0.45312-0.20703 1.3594 0.26953 1.7539 0.69922 0.5625 1.4219 1.1055 2.0977 1.7031 1.3867 1.2266 2.6719 2.5742 3.8281 4.0234 2.2461 2.7969 3.9844 5.9609 5.1875 9.332-0.63672 0.63672-0.67578 1.25-0.40625 1.8281 0.29297 0.625 0.87109 0.84766 1.5195 0.6875 0.88281-0.22266 1.7656-0.625 2.625-0.95703 0.90625-0.34375 1.8164-0.69922 2.7227-1.0547 1.8398-0.75 3.668-1.5195 5.4961-2.2812 2-0.83594 4.0352-1.7891 6.207-2.0469 2.832-0.32031 5.7656 1.8398 5.8125 4.832zm-31.629 0.83203c-5.9844-2.8438-12.906-3.7539-19.375-2.1719-2.9531 0.72266-5.6953 2-7.6719 4.1172-0.42188 0.45312-0.39062 1.2422-0.14062 1.5547 0.26172 0.32422 0.98828 0.41797 1.4453 0.15625 8.5039-4.8438 17.727-4.3086 26.504-0.53516 0.46484 0.19922 1.1328-0.09375 1.2969-0.39063 0.64062-1.1562-1.0938-2.2734-2.0625-2.7344zm35.871-18.016c-1.7891-0.87109-3.9492-0.89453-5.8398-0.37891-2.6719 0.71094-5.0898 2.1211-7.5312 3.3867-4.7812 2.4883-9.4922 4.918-14.422 6.9922 0.96875 1.6797 1.5195 3.2852 1.6328 5.1406 4.0586-1.8516 7.9609-3.6445 12.168-5.1875 2.2578-0.82031 4.4766-1.25 6.5625-0.90625 2.6016 0.41797 4.4648 2.4648 4.4648 2.4648 1.8047-1.1406 3.4727-2.4766 4.5742-4.3047 0.5625-0.93359 0.92188-2 0.90625-3.0898-0.011719-1.7773-0.90625-3.3242-2.5156-4.1094z"/></svg>