<svg xmlns="http://www.w3.org/2000/svg" version="1.1" viewBox="14.82 12.98 70.37 74.03">  <path d="m16.301 48.004c-1.4375-3.5156-2.2188-10.254-0.4375-13.773 1.4062-2.5938 4.1367-4.5508 7.1289-4.75 0.74219-0.046875 1.6406 0.25781 2.2266-0.28906 0.73438-0.89844 0.66016-2.293 1.2852-3.3008 2.0312-4.0938 7.5781-6.1875 11.863-4.6172 1.7266 0.90625 2.3438-0.65625 2.957-1.9805 2.7773-5.3164 10.852-6.4805 15.422-2.8047 1.1328 0.94141 2.1211-0.082031 2.918-0.92578 5.8047-5.3789 15.793-1.6914 18.355 5.3438 1.3008 2.8984 2.0156 8.0898 2.2188 11.301-1-0.67188-2.375-1.1719-3.7109-1.418-0.67188-0.12891-2.0156-0.19141-2.0156-0.19141s0.38281-1.4375 0.48047-2.1523c0.14844-1.043 0.13672-2.1211-0.085938-3.1211-0.12891-0.54297-0.51172-1.4727-1.1836-1.2578-0.26562 0.074219-0.44922 0.29688-0.5 0.60938-0.24609 1.3125-0.5 2.6094-0.80078 3.9023-0.16016 0.67188-0.52344 2.0039-0.52344 2.0039s-0.33203 0.03125-0.52344 0.042969c-3.1875 0.17969-6.3398 0.36328-9.5273 0.64844-1.5664 0.12891-3.082 0.33203-4.6484 0.64062-0.32031-3.2734 0.03125-6.375 0.66016-9.5703 0.03125-0.45703-0.074219-0.85156-0.42578-1.0859-0.36328-0.23437-0.83203-0.23437-1.1836 0.03125-0.70312 0.53125-1.1523 2.1016-1.3633 2.9531-0.61719 2.5586-0.77734 5.1914-0.56641 7.8125 0.019532 0.23437 0.054688 0.61719 0.054688 0.61719s-1.332 0.69141-1.918 1.1523c-1.1523 0.89453-2.0352 2.0898-2.5898 3.4844-0.5 1.2461-0.69141 2.5781-0.68359 3.9219 0.03125 3.1992 1.4375 6.1914 3.9453 8.2266-3.2305 1.2578-6.9727 0.17969-9.0508-2.5156-2.7812-3.4414-3.6992-12.141-3.6758-16.402l0.011718-2.8867c0-0.33203-0.11719-0.68359-0.38281-0.89453-0.45703-0.36328-1.1094-0.21484-1.4492 0.25781-0.61719 0.89453-0.78906 3.25-0.82031 4.3711-0.10547 3.8164 0.33203 7.6094 1.2773 11.32 0.35156 1.3555 0.77734 2.6875 1.3945 3.9453 0.58594 1.1953 1.6211 2.6875 2.7188 3.5078-1.5234 1.9609-3.9453 2.8125-6.3398 2.7188-1.1406-0.042968-2.1758-0.32031-3.1758-0.875-1.1953-0.64844-2.2188-1.5547-3.0156-2.6758-2.5273-3.4648-3.75-8.8477-4.4648-13.023-0.10547-0.62891-0.21484-1.5781-1.0977-1.5664-0.98047 0-1.1172 1.3633-1.1406 2.1328-0.019531 0.98047 0.0625 1.918 0.21484 2.8984 0.38281 2.5156 1.0352 4.9688 2.0352 7.3242 0.98047 2.2812 2.2812 4.6484 4.2539 6.1836-0.42578 0.64844-0.89453 1.2383-1.5469 1.6641-1.0234 0.68359-2.1953 1.043-3.4336 1.0547-0.92578-0.054688-1.7812-0.20312-2.6328-0.56641-3.082-1.332-5.2539-4.3789-6.5-7.4062zm66.625-7.3516c-0.45703-1.3125-1-2.5898-1.8242-3.7188-1.4609-2.0156-3.7734-3.1992-6.2227-3.4219-1.0117-0.097657-1.9727-0.10547-2.9961-0.054688-3.4102 0.19141-6.8008 0.41406-10.199 0.71484-1.6211 0.13672-4.1992 0.42578-5.6719 0.99219-1.6836 0.64063-2.9531 1.9727-3.4531 3.7188-0.5 1.7148-0.38281 3.5508 0.29688 5.2109 1.0352 2.5273 3.3789 4.125 5.9258 4.8828 3.3555 0.99219 7.2695 0.89453 10.605-0.10547 0.35156-0.10547 0.68359-0.19141 1.043-0.24609 0.24609-0.042969 0.49219 0.019531 0.61719 0.21484 0.45703 0.68359-0.66016 1.5898-1.2031 1.918-1.1289 0.68359-2.4102 1.0977-3.7188 1.3555 0.53125 0.80859 1.1602 1.4922 1.8555 2.1211 0.36328 0.33203 0.72656 0.61719 1.0547 0.98047 0.14844 0.16016 0.23438 0.33984 0.17188 0.56641-0.17969 0.56641-0.98047 0.5-1.4492 0.35156-1.7148-0.55469-3.5508-1.918-4.2539-3.6328-2.3438 0.13672-4.6797-0.23438-6.8516-1.0664-0.26562-0.10547-0.25391-0.0625-0.49219 0.0625-3.4336 1.7383-5.4023 3.3906-7.6211 6.5234-1.8438 2.6094-2.9414 5.5938-3.207 8.7812-0.054687 0.70312-0.24609 1.7578-1.1211 1.7812-1.2031 0.03125-1.332-1.5977-1.3008-2.5273 0.22266-5.0312 2.9844-9.8281 6.8125-13.09-1.375-0.054688-2.6641-0.33203-3.8594-0.91797-0.085937-0.042969-0.21484-0.11719-0.21484-0.11719s-0.10547 0.12891-0.17188 0.20312c-2.8359 3.5938-8.5273 4.9023-12.641 2.8047-1.1523 2.0039-3.3789 3.4219-5.6172 3.8359-2.3672 0.5-4.668 0.019531-6.6523-1.1172-1.7266-0.98047-3.2734-2.7305-3.2734-2.7305s0.10547 0.83203 0.14844 1.2266c0.5 4.3594 1.8906 8.7969 3.8594 12.758 1.8203 3.668 5.8633 6.8594 7.3359 7.9375 0.35547 0.26172 0.58984 0.64844 0.66016 1.0859l0.82422 5.1328c0.10547 0.64844 0.57812 1.1836 1.2109 1.3594 13.898 3.8516 25.516 3.1719 36.805-0.63281 0.68359-0.23047 1.1445-0.88672 1.1406-1.6094l-0.035156-6.9844c-0.003907-0.42578 0.15625-0.83594 0.44531-1.1484 1.8281-1.9766 8.7148-9.4727 10.605-11.691 0.73438-0.86328 1.3867-1.7695 2.0039-2.707 1.707-2.6094 2.8867-5.5859 2.8672-8.7305-0.03125-2.793-1.3203-7.5781-2.2383-10.273z"/></svg>