<svg xmlns="http://www.w3.org/2000/svg" version="1.1" viewBox="9.37 5 81.25 89.98">  <path d="m88.75 53.359c-1.8359-2.1367-4.3594-3.3125-7.2852-3.3984-1.9648-0.0625-4.0273 0.38281-5.9375 1.293-1.7422 0.82422-3.2031 1.7852-4.4648 2.957l-2.7344 2.5312c-0.58594 0.53516-1.1445 0.92969-1.7422 1.2383-0.35156 0.17188-0.71484 0.25781-1.0781 0.24609-1.2617-0.03125-2.2852-1.2266-2.918-2.2305-0.70312-1.1328-1.1758-2.4258-1.4414-4.0469-0.30859-1.8359-0.4375-3.8242-0.40625-6.25 0.042968-2.918 0.14844-5.9727 0.375-9.9219l0.68359-12.027c0.22266-4.0391 0.39453-8.6211-0.097656-11.91-0.24609-1.6445-0.65234-2.8945-1.2695-3.9531-1.0352-1.7422-2.8633-2.8203-4.9023-2.8828-0.98438-0.03125-1.9883 0.17969-2.8945 0.60938-2.3711 1.1016-3.2773 3.8242-3.6094 5.3398-0.62109 2.8516-0.72656 6.1836-0.78125 9.0898-0.023438 1.3828-0.035156 2.7656-0.046875 4.1484-0.015625 2.4805-0.011719 4.9648 0.003906 7.4453 0.007813 1.3906 0.023437 2.7812 0.039063 4.1719 0.007812 0.80469 0 1.6094 0.023437 2.4102 0.023437 0.78125 0.011719 1.5078 0.03125 2.2852 0.011719 0.38672-0.054687 0.79297-0.28516 1.1016-0.23047 0.3125-0.49219 0.54688-0.85938 0.42578-0.25391-0.085938-0.44141-0.30078-0.62109-0.5-1.2617-1.3984-2.8281-2.6094-4.6953-3.0469-0.50391-0.11719-1.0273-0.17969-1.5391-0.20312-2.5938-0.074219-5.2109 1.1445-6.9961 3.2695-0.49609 0.59375-0.99609 1.4062-1.0352 2.1992-0.011719 0.25781 0.027344 0.51562-0.015625 0.76953-0.058594 0.37109-0.31641 0.71875-0.67578 0.83984-0.4375 0.14453-0.88672-0.066406-1.2617-0.27734-0.32031-0.17969-0.68359-0.3125-1.0273-0.44531-0.73047-0.27734-1.5-0.43359-2.2773-0.43359h-0.21484c-2.0312 0-3.9844 0.8125-5.5 2.2734-1.2227 1.1797-2.1289 2.7734-2.0117 4.5195 0.019531 0.26562 0.054688 0.53906-0.03125 0.78906-0.10547 0.30469-0.38672 0.52734-0.69922 0.60938-0.47266 0.12891-0.99219-0.058593-1.4766-0.066406-0.57812-0.011719-1.1094 0.03125-1.6328 0.14844-2.5547 0.57813-4.6875 2.2539-5.7148 4.4844-1.25 2.7031 1.4414 7.4453 1.6016 7.7031l1.6133 2.5859 0.875 1.1953c0.97266 1.3242 2.957 3.6406 5.4141 4.3047 0.38281 0.097656 0.78906 0.16016 1.1953 0.17188 1.75 0.054687 3.3984-0.80078 4.3906-2.2852 0.70312-1.0586 0.94922-2.2422 0.69531-3.332-0.10547-0.48047-0.30859-0.90625-0.54297-1.3789l-4.1641-8.5703c-0.25781-0.53516-0.96094-1.9531 0-2.543 0.19141-0.11719 0.40625-0.17969 0.62891-0.17188 0.24609 0.011719 0.46875 0.085937 0.67188 0.23438 1.1953 0.89844 3.5 5.5234 3.5234 5.5781l1.9023 3.75c0.38281 0.74609 0.82422 1.3789 1.3477 1.9219 0.86328 0.91797 1.9883 1.4219 3.2461 1.4648 0.62109 0.011718 1.2617-0.085938 1.8906-0.30859 2.3828-0.83203 3.7188-3.0352 3.3008-5.4922-0.44922-2.7539-1.2578-5.5977-3.8008-11.004l-0.097656-0.19141c-0.33984-0.72656-0.82422-1.7109-0.085938-2.2852 0.22266-0.17188 0.46875-0.25781 0.71484-0.25781 0.71484 0.019531 1.3242 0.78125 1.7617 1.4414 1.1016 1.625 1.1836 2.0312 1.8242 3.4727 1.0586 2.3945 1.9648 4.9883 2.7539 7.957 0.17969 0.67188 0.46875 1.1875 0.92969 1.668 0.91797 0.97266 2.1562 1.5273 3.4805 1.5586 0.62109 0.019531 1.2383-0.0625 1.8477-0.26563 2.1562-0.70312 3.6523-2.5195 3.8984-4.7539 0.12891-1.207 0.0625-2.4883-0.22266-4.0273-0.35156-1.9648-0.91797-3.9727-1.7188-6.1641l-0.90234-2.9375c-0.14844-0.41797-0.17188-1.3008 0.17188-1.5781 0.20312-0.17188 0.4375-0.24609 0.68359-0.24609 0.68359 0.019531 1.2695 0.74609 1.5703 1.1758 0.58594 0.88672 0.625 0.94922 1.1172 2.0898 0.72656 1.6758 2.4453 6.0039 2.6289 10.031 0.14844 3.4414-1.0664 6.2383-3.5469 8.1172-0.46094 0.35156-0.91797 0.62109-1.3984 0.90625l-0.52344 0.32031c-0.88672 0.54297-1.625 1.2383-2.4453 2.125-2.168 2.3086-3.5781 5.1914-4.082 8.332-0.16016 1.0586-0.20312 2.0391-0.24609 3.043-0.03125 0.70312-0.38281 1.2617-0.94141 1.4531-0.12891 0.042969-0.25781 0.0625-0.38281 0.054688-0.46875-0.011719-0.90625-0.34375-1.1094-0.84375-0.27734-0.69531-0.30859-1.4297-0.30078-2.0625 0.03125-3 0.94141-6.0156 2.6172-8.707 0.74609-1.1953 1.4648-2.1133 2.2422-2.875-1.3477-0.14844-2.5938-0.66406-3.7188-1.5078-1.2617 3.0664-4.6133 5.1797-8.1055 5.0742-1.1953-0.03125-2.3594-0.35156-3.3555-0.91797-0.17188 0.82422-0.52344 1.6328-1.0781 2.4766-1.5391 2.3594-4.2617 3.7812-7.1016 3.6953-0.21484-0.011719-0.4375-0.019531-0.65234-0.054688-3.6523-0.40625-6.3008-3.0977-7.6367-4.7852l0.28906 1.1523c1.1016 4.4219 3.1953 8.5781 5.7695 11.406 1.2539 1.3828 2.6484 2.5117 4.2031 3.4258 0.48828 0.28516 0.8125 0.78516 0.84375 1.3516l0.16406 3.1992c0.039062 0.76953 0.60156 1.4102 1.3594 1.543 10.105 1.75 21.562 2.6094 33.719-0.4375 0.76562-0.19141 1.2852-0.91406 1.2383-1.7031l-0.25-4.0898c-0.035156-0.58984 0.25391-1.1367 0.73828-1.4727 1.8672-1.2891 3.5586-2.9141 5.0273-4.8672 1.0273-1.3555 1.9453-2.7656 2.7227-3.9961 0.69531-1.0781 1.3789-2.1367 2.168-3.1719 4.0703-5.3398 9.1211-9.0352 14.613-10.68l2.918-0.86328c0.94922-0.28906 1.668-0.78906 2.1562-1.4844 1.6133-2.3086 0.59766-5.3945-1.0352-7.2852z"/></svg>