<svg xmlns="http://www.w3.org/2000/svg" version="1.1" viewBox="11.7 4.97 76.62 90.05">  <path d="m45.242 72.801c1.0117 2.0664 0.59375 4.5-0.96484 6.1523-0.75781 0.80469-1.6445 1.3672-2.6758 1.8047-1.7852 0.75781-3.668 1.2383-5.5938 1.582-4.3281 0.76562-8.7305 0.83203-13.055 0.058594-1.375-0.24609-2.6914-0.58984-3.9375-1.1797-1.5117-0.68359-2.8125-1.6602-3.832-2.9414-2.1367-2.6875-2.3594-6.3984-0.45703-9.3008 1.9688 1.25 4.4688 1.9219 6.7969 2.4609 3.0625 0.61719 6.125 0.94531 9.2539 1.0625 3.9766 0.14453 8.8906-0.25391 12.668-1.5391 0.78906 0.41016 1.4023 1.0273 1.8008 1.8398zm-1.3711 10.418c-3.5273 1.6758-7.668 2.4102-11.512 2.7422-4.2617 0.36719-9.4492 0.10547-13.586-1.2969-0.054688 2.5625 0.77734 4.7383 2.5977 6.543 3.0938 3.0664 7.5156 4.0508 11.766 3.7461 3.6836-0.26562 7.668-1.2891 10.367-3.9336 1.4453-1.418 2.4492-3.4375 1.957-5.4844-0.23047-0.94922-0.77344-1.7695-1.5938-2.3086zm43.34 2.5c-0.082032 0.89453-0.85938 1.5703-1.7578 1.5273l-7.8242-0.37891c-0.035156-0.011719-1.9453 0-4.1055 0.011718-0.80469 0.78125-1.6562 1.5195-2.5703 2.1914-2.6055 1.8789-5.5703 3.2109-8.6797 4.0469-5.4258 1.4766-10.812 1.3867-16.316 0.52734l-0.13281-0.023437s0.066406-0.066406 0.10156-0.10156c1.2969-1.1953 2.2461-2.6836 2.8086-4.3516 0.92969-2.6523 0.33594-5.9492-1.8125-7.9297 1.6758-1.6992 2.5703-3.9805 2.4727-6.3398-0.089843-2.0586-0.92969-4.418-2.5703-5.7578 0.87109-0.69531 1.5312-1.5547 2.0781-2.5273 2.1484-3.7109 1.6328-8.7578-1.7773-11.484 3.2656-2.293 4.7656-6.25 3.9922-10.156-0.41406-2.1016-1.6094-3.957-3.2539-5.3359-1.2852-1.0625-2.7305-1.8008-4.3281-2.3281-2.6172-0.87109-11.73-1.9141-11.922-0.23438-0.089843 0.79297 1.0391 0.96094 1.6758 1.0625 3.1211 0.50391 6.1172 1.0391 9.0586 2.1914 1.2969 0.51562 2.4727 1.2188 3.4688 2.1797 1.6445 1.6094 2.2266 3.8711 1.6875 6.0938-0.61328 2.4844-2.5508 4.3281-5.1016 4.7539-1.4219 0.23438-2.8281 0.26953-4.3047 0.26953-4.0703-0.035156-8.1094-0.50391-12.09-1.3633-2.0352-0.4375-4.0156-0.99609-5.9492-1.7656-2.9844-1.207-5.4453-3.3086-5.6602-6.7422-0.11328-1.8125 0.25781-3.6445 1.1172-5.2578 1.8125-3.3672 5.2773-5.1211 8.8789-5.9727 3.2656-0.76172 6.6445-0.99609 9.9961-0.80469 3.8789 0.22266 7.707 0.76172 11.465 1.6992 1.2734 0.3125 2.4922 0.66016 3.7031 1.1172 0.49219 0.17969 1.0078 0.14453 1.3867-0.19141 0.35938-0.30078 0.58203-0.79297 0.44922-1.2852l-0.45703-1.8125c-0.61328-2.4258-0.80469-4.9336-0.76172-7.4492 0.054688-2.5508 0.4375-5.0664 1.2188-7.4688 1.0391-3.2422 2.9414-6.1406 5.5898-8.2656 1.7227-1.3984 3.7031-2.4258 5.8828-2.8633 2.6992-0.55469 5.9844-0.023438 7.9492 2.043 0.79688 0.83594 1.2617 2.4805 1.0781 3.6172-0.12891 0.80859-0.34766 1.5664-0.61719 2.3477l-1.4648 4.1367c-0.61328 1.7461-1.0859 3.4766-1.3633 5.3125-0.79297 5.1875 0.35938 9.9961 3.4453 14.238l2.5625 3.5234c1.6562 2.2695 2.8516 4.7656 3.6445 7.4375 2.1992 0.125 4.9883 0.25391 7.582 0.35938 0.80078 0.03125 1.4766 0.62109 1.5938 1.4141 1.4766 9.9648 1.2227 22.312-0.0625 36.086zm-22.73-16.711c-0.24609-0.20312-0.55859-0.32422-0.88281-0.4375-0.87109-0.28906-1.6992-0.60547-2.5156-1.0625-3.1211-1.7344-5.5469-4.4414-7-7.6953-0.49219-1.0977-0.83984-2.1797-1.1953-3.3203-0.125-0.35938-0.34766-0.72656-0.73828-0.77344-0.60547-0.066406-1.0742 0.4375-1.1289 1.0273-0.089843 0.94922 0.023438 1.8438 0.24609 2.7969 0.58203 2.4375 1.8125 4.6758 3.4688 6.543 2.0898 2.3359 5.3008 4.5508 8.4883 4.7305 0.51562 0.023438 0.99609-0.13281 1.332-0.51562 0.37891-0.40234 0.35937-0.9375-0.066407-1.2969zm-45.918-1.5859c3.6992 1.3125 7.9844 1.8008 11.91 1.9414 3.1875 0.11719 6.3633-0.12109 9.4805-0.78125 1.0625-0.22656 2.0508-0.49219 3.0156-0.98438 1.3438-0.69141 2.418-1.8438 3.0508-3.2461 0.46484-1.0312 0.57031-2.1094 0.48828-3.1953-0.16797-2.1797-1.6406-3.9883-3.7266-4.6133-1.6445 0.16016-3.2227 0.1875-4.8711 0.14453-3.2422-0.082031-6.4258-0.375-9.625-0.91016-1.9219-0.32422-3.7812-0.75781-5.6562-1.2656-1.707-0.46094-3.3047-1.082-4.8906-1.8359-0.70312-0.33203-1.957-1.1523-1.957-1.1523s-0.24609 0.12891-0.37109 0.21484c-3.3516 2.3398-4.6758 6.8672-2.8867 10.641 1.1875 2.5078 3.4531 4.125 6.0469 5.0469z"/></svg>