<svg xmlns="http://www.w3.org/2000/svg" version="1.1" viewBox="9.18 4.97 81.63 90.05">  <desc>Created by Lewen Design, downloaded from Noun Project. They can be found at this link: https://thenounproject.com/browse/collection-icon/hand-and-gesture-191281/ (CC BY 3.0)</desc><path fill="currentColor" d="m90.754 64.031c-0.53906-4.8555-4.7461-8.2109-9.6562-8.4844-4.3555-0.24219-8.1523 1.7188-11.434 4.5117-1.1133 0.94531-2.3789 1.5703-3.8555 1.3789-1.2031-0.15625-2.332-1.0938-3.1211-2.3477-3.3398-5.3164-2.125-13.203-0.64453-19.16l4.4375-17.879c1.3711-5.5156 2.8047-14.992-4.6211-16.637-3.1875-0.70703-6.2461 0.74609-7.9766 3.625-1.5781 2.6289-2.2812 5.5078-2.8984 8.6133-1.7109 8.6562-2.7266 17.289-3.9609 25.98 1.4531 0.074219 5.3945 0.3125 4.9023 2.0469-0.11328 0.39844-0.71484 0.66797-1.2461 0.54297-6.375-1.5-10.887 1.3594-11.125-0.25391-0.23828-1.5859 2.0078-1.6875 4.5312-2.2461l-5.3281-25.715c-1.1953-5.7617-3.668-14.105-10.715-12.895-3.1641 0.54297-5.625 2.9336-6.1797 6.3125-0.46484 2.8203-0.089843 5.5898 0.82031 8.3906l6.4961 20.031 0.53516 1.4609c0.24609 0.67188-0.33984 1.3516-1.043 1.1992-0.57031-0.12109-1.2031-0.24609-1.7383-0.32812-0.99219-0.15234-2.0039-0.058594-2.9688 0.20703-1.9336 0.53516-3.9336 1.9492-4.8047 4.1562-0.81641 2.0664 0.39453 4.8008-1.2852 4.4297-3.0547-0.67578-6.0195 0.53906-7.8047 3.2422-0.75781 1.1484-0.92969 2.9766-0.86719 4.7344 0.10156 3.0117 1.4961 5.8438 3.8125 7.7695 1.5273 1.2695 3.3945 2.6289 5.1094 3.3398 1.8164 0.75391 3.7578 0.66797 5.3398-0.49609 1.2344-0.90625 2.7812-3.0352 1.8555-4.8164-1.2656-2.4336-7.2383-10.883-5.3477-11.895 0.89844-0.48047 1.543 0.49609 1.9336 1.1445 0.57422 0.96094 1.1602 1.918 1.7305 2.8828 1.1367 1.9258 2.293 3.8477 3.7148 5.5781 1.7461 2.1289 4.3906 2.8477 6.8555 1.8203 2.332-0.97266 3.8672-3.4805 3.1758-6.2188-0.60547-2.3906-1.6367-4.6445-2.7969-6.8086-0.375-0.69922-0.76172-1.3906-1.1562-2.0781-0.36719-0.64062-1.25-1.6367-0.89063-2.4453 0.16797-0.37891 0.55859-0.56641 0.97266-0.53125 0.55469 0.046876 0.98047 0.42578 1.3164 0.84375 0.48047 0.60156 0.95703 1.2227 1.3984 1.8555 0.67969 0.96875 1.2969 1.9805 1.8438 3.0273 0.96484 1.8477 1.7109 3.8125 2.1719 5.8477 0.71484 3.1641-0.70313 6.2266-2.9609 7.9648-2.6016 2.0039-5.9453 2.418-9.0352 1-0.72266 4.6602-5.2188 7.418-9.875 6.3008-2.6602-0.63672-4.6484-2.4102-6.5742-4.5156 1.2383 7.4531 4.457 13.695 10.285 17.059 0.44141 0.25391 0.74609 0.69531 0.78516 1.207 0.14453 1.7812 0.32422 3.5547 0.43359 4.8672 0.054688 0.66016 0.53516 1.2148 1.1797 1.3672 11.219 2.6328 21.855 2.6445 34.102 0.023438 0.73438-0.15625 1.25-0.83203 1.2148-1.582l-0.25391-5.1523c-0.027344-0.58203 0.26953-1.1328 0.78516-1.4102 1.9766-1.0781 4.1016-2.6719 6.1641-5.1641 9.7148-11.754 20.125-8.0859 23.145-11.379 1.0469-1.1406 1.3008-2.707 1.1211-4.3164zm-42.789 0.63281c-1.543 1.1289-2.9141 2.4922-4.0234 4.0469-1.0391 1.457-1.832 3.082-2.3516 4.793-0.26172 0.86719-0.45312 1.7539-0.57031 2.6484-0.09375 0.73438-0.023437 1.5352-0.12109 2.2773-0.019532 0.15234-0.046876 0.30469-0.082032 0.44922-0.11719 0.46484-0.44531 0.91797-0.91797 1.0039-0.34766 0.0625-0.71484-0.089843-0.96484-0.33984-0.30469-0.30469-0.49219-0.74609-0.51172-1.1719-0.14453-3.4688 0.76953-6.8984 2.6094-9.8438 1.5352-2.457 3.6445-4.5625 6.0625-6.1523 1.5508-1.0195 3.5039-2.1406 5.418-2.2148 0.58984-0.023437 1.3672 0.24609 1.25 0.98047-0.21094 1.3398-2.3594 1.4883-3.3125 1.9844-0.86719 0.44922-1.6992 0.96484-2.4883 1.543z"/> </svg>