<svg xmlns="http://www.w3.org/2000/svg" version="1.1" viewBox="12.53 9.98 74.92 80.02">  <desc>Created by Lewen Design, downloaded from Noun Project. They can be found at this link: https://thenounproject.com/browse/collection-icon/hand-and-gesture-191281/ (CC BY 3.0)</desc><path fill="currentColor" d="m14.582 23.07c-0.53516-3.1289 0.32812-5.5156 2.4922-6.8945 0.80469-0.52344 1.6328-0.76562 2.6055-0.76562 0.33594 0 0.69531 0.027344 1.0859 0.089844 1.3477 0.19531 2.5781 0.85156 3.6484 1.9453 1.5156 1.5273 2.7109 3.6914 3.6523 6.6172 0.58594 1.8438 1.1016 3.7969 1.5742 5.9688l1.4336 6.5195c0.11719 0.53906 0.30859 0.95312 0.61719 1.3398l1.9258 2.3789c1.3828 1.707 2.6484 3.5703 3.875 5.3711 0 0 0.73828 1.0898 1.082 1.582l0.25391 0.36719-0.33984 0.28906c-1.0234 0.875-1.8906 1.7344-2.7188 2.707l-0.49609 0.58203-0.32422-0.69531c-0.12891-0.27344-0.26172-0.52734-0.42188-0.78516l-0.95703-1.5547c-1.2227-1.9727-2.7812-3.7109-4.1445-5.1836-0.20312-0.22656-0.28516-0.41406-0.32031-0.71875-0.25-1.9805-0.57812-4.332-1.0781-6.6953-0.30078-1.3906-0.68359-2.6992-1.1719-3.9961-0.76953-2.0469-2.2578-4.8906-4.9844-6.8047-1.4219-0.98828-3.0703-1.5117-4.7617-1.5117-0.41016 0-0.82422 0.03125-1.2305 0.09375-0.22656 0.035156-0.44922 0.085938-0.66797 0.14844l-0.52734 0.14844-0.09375-0.53906zm10.359-9.0742c1.1719 0.74609 2.0586 1.75 2.7656 2.625 1.3203 1.7383 2.4102 4.0586 3.2383 6.8945 0.62109 2.1445 1.1758 4.4297 1.6875 6.9922l0.95703 4.8555c0.082031 0.43359 0.23438 0.75781 0.49219 1.043 2.5117 2.8008 4.5938 5.6133 6.3672 8.6055 0.097656 0.16406 0.1875 0.31641 0.27344 0.47266l0.27344 0.49609 0.45312-0.33594c1.1797-0.87109 2.1875-1.4961 3.5938-2.2227l0.46875-0.24219-0.27344-0.45313c-1.3359-2.207-3.3945-5.5039-5.8047-8.5781-0.21094-0.3125-0.39453-0.58594-0.46484-0.97656l-1.2891-6.5703c-1.0977-5.6172-2.5586-11.258-5.8125-14.477-1.4688-1.4609-2.6836-2.0742-4.1992-2.1211l-0.23047-0.003906c-1.9375 0-3.5117 0.80859-4.5508 2.3359l-0.35938 0.52734 0.60156 0.21484c0.72266 0.25781 1.3477 0.625 1.8086 0.91797zm61.75 65.57c-2.9219 2.4492-13.695 10.434-29.711 10.434l-1.3438-0.011719c-0.92188-0.003906-1.7383-0.58984-2.0273-1.4609-0.19922-0.59375-0.48047-1.4023-0.84766-2.3594-0.44141-0.13281-0.87891-0.27344-1.3242-0.4375-3.9023-1.4375-8.3203-3.9883-12.125-7-4.2422-3.3711-8.5117-7.375-11.418-10.711-1.9023-2.1992-3.7031-4.5508-5.5078-7.1914-0.92188-1.3516-1.793-2.7461-2.6641-4.2734-1.8984-3.3008-3.3086-6.3906-4.3008-9.4414-0.79297-2.4414-1.3945-4.8789-1.8398-7.4531-0.51562-2.9453-0.84375-5.5469-1.0039-7.957-0.058594-0.90234-0.046875-1.6758 0.03125-2.4336 0.078125-0.6875 0.39453-1.3008 0.96094-1.8789 0.90625-0.91016 1.582-1.2383 2.7734-1.3672 0.19531-0.019532 0.39062-0.03125 0.57812-0.03125 3.0547 0 5.0742 2.6406 6.0078 4.2109 1.1953 2.0039 2.2305 5.082 2.7695 8.2344l0.81641 4.6797c0.089844 0.52344 0.26562 0.89453 0.59766 1.2852l0.32031 0.375c1.1602 1.3516 2.2578 2.6328 3.2578 4.082 1.832 2.6602 2.7539 4.0039 2.7656 4.0234l0.10938 0.21484-0.10156 0.21875c-0.42188 0.89844-0.56641 1.7188-0.39453 2.1953 0.085938 0.23438 0.25 0.40625 0.47266 0.49609 0.10547 0.042969 0.20312 0.066407 0.30078 0.066407 0.23047 0 0.46094-0.11328 0.65234-0.32422 0.40625-0.45312 0.77344-0.94141 1.1289-1.418l0.18359-0.24219c1.793-2.3984 4.0273-4.5703 6.6406-6.457 2.7812-2.0117 5.668-3.582 8.5703-4.6758 0.77734-0.29297 1.2031-0.70703 1.1406-1.1172-0.058594-0.4375-0.60938-0.58984-1.1016-0.58984-0.09375 0-0.18359 0.003906-0.25391 0.015625-0.83594 0.085937-1.4844 0.25-2.2539 0.5625l-0.41797 0.16797-0.20703-0.39844c-0.10938-0.21094-0.23047-0.41016-0.35156-0.60547l-0.23438-0.39453c-1.5-2.6523-3.418-5.4492-5.2656-7.6836l-0.078125-0.089843c-0.16016-0.19531-0.23828-0.29297-0.27344-0.42969l-0.91016-5.0469-0.99219-5.1523c-0.64062-2.9062-1.332-5.3633-2.6055-7.875l-0.30078-0.59375 0.65234-0.11719c0.22266-0.039063 0.44531-0.058594 0.66797-0.058594 2.2891 0 4.1758 2.0859 5.0938 3.332 1.1094 1.4961 2 3.2461 2.7266 5.3398 0.91016 2.582 1.6484 5.2148 2.1992 7.8125 0.09375 0.43359 0.27344 0.73828 0.50781 1.0625l1.3242 1.7578 3.0586 4.25c2.1953 3.0703 4.4961 5.1953 7.9297 7.3359 0.91406 0.57031 1.9766 0.86719 3.0781 0.86719 0.44531 0 0.89062-0.046875 1.3281-0.14453 0.38672-0.082031 0.71875-0.26172 0.96484-0.51953 0.14844-0.15625 0.17969-0.42578 0.074219-0.64844-0.19922-0.44531-1.3867-0.60938-2.4336-0.75391l-0.32031-0.042969-0.085937-0.3125c-0.12891-0.46875-0.33984-0.89453-0.54297-1.293l-1.2148-2.4062c-1.3672-2.6914-1.9219-6.1055-1.4805-9.1328 0.34766-2.4805 1.5312-4.7148 3.3398-6.2852 1.4062-1.2188 3.1211-1.8867 4.832-1.8867 0.95312 0 1.875 0.20703 2.7422 0.62109 0.90625 0.41797 1.5273 1.0039 1.75 1.6484 0.22656 0.66016 0.22656 1.3711 0.22656 2.0586v0.42969c0.0625 2.8867 0.36719 5.2148 0.96094 7.3242 0.53906 1.9102 1.2461 3.707 2.1641 5.4961 0.9375 1.8242 2.0938 3.5391 3.2969 5.2852l2.2148 3.2188c2.8789 4.1836 4.6992 9.4258 4.9922 14.379 0.17578 3.0469-0.29297 6.5156-1.3945 10.312-0.046875 0.14844 0.027344 0.53125 0.097656 0.74219l1.6016 3.6484c0.38281 0.87109 0.14453 1.9023-0.58203 2.5117zm-14.582-13.117c-0.36719-0.64844-0.84375-1.1797-1.2617-1.6133-2.0625-2.1523-4.5234-3.8711-7.3125-5.1055-2.125-0.9375-4.3906-1.6523-6.7305-2.1211-2.7227-0.54297-5.7891-0.85547-8.4062-0.85547-1.6484 0-3.0859 0.12109-4.2734 0.36328-0.60938 0.125-1.3008 0.44922-1.2422 0.95703 0.058594 0.49609 0.70703 0.67578 1.2969 0.67578h0.13281c3.6016 0 6.9297 0.26953 10.172 0.82031 2.5391 0.42969 4.7656 1.0352 6.8125 1.8477 3.3516 1.3281 6.0117 3.1602 8.9062 6.1172 0.39844 0.41016 0.77344 0.60156 1.1719 0.60156 0.36719 0 0.67578-0.30078 0.80859-0.57422 0.16797-0.34766 0.14453-0.73047-0.070313-1.1094z"/></svg>