<svg xmlns="http://www.w3.org/2000/svg" version="1.1" viewBox="5 9.37 89.98 81.25">  <desc>Created by Lewen Design, downloaded from Noun Project. They can be found at this link: https://thenounproject.com/browse/collection-icon/hand-and-gesture-191281/ (CC BY 3.0)</desc><path fill="currentColor" d="m39.355 10.211c-0.69531 0.49219-1.1953 1.207-1.4844 2.1562l-0.86328 2.918c-1.6445 5.4922-5.3398 10.543-10.68 14.613-1.0352 0.78906-2.0938 1.4727-3.1719 2.168-1.2266 0.78125-2.6367 1.6992-3.9961 2.7227-1.9531 1.4688-3.5781 3.1641-4.8672 5.0273-0.33594 0.48438-0.88281 0.77344-1.4727 0.73828l-4.0898-0.25c-0.78906-0.046876-1.5117 0.46875-1.7031 1.2383-3.0508 12.156-2.1914 23.613-0.4375 33.719 0.13281 0.75781 0.77344 1.3164 1.543 1.3594l3.1992 0.16406c0.56641 0.027344 1.0625 0.35547 1.3516 0.84375 0.91406 1.5547 2.043 2.9492 3.4258 4.2031 2.832 2.5742 6.9844 4.668 11.406 5.7695l1.1523 0.28906c-1.6875-1.3359-4.3789-3.9844-4.7852-7.6367-0.03125-0.21484-0.042968-0.4375-0.054687-0.65234-0.085937-2.8398 1.3359-5.5664 3.6953-7.1016 0.84375-0.55469 1.6562-0.90625 2.4766-1.0781-0.56641-0.99219-0.88672-2.1562-0.91797-3.3555-0.10547-3.4922 2.0078-6.8477 5.0742-8.1055-0.84375-1.1211-1.3555-2.3711-1.5078-3.7188-0.75781 0.78125-1.6758 1.4961-2.875 2.2422-2.6914 1.6758-5.7031 2.5859-8.707 2.6172-0.62891 0.011719-1.3672-0.019531-2.0625-0.30078-0.50391-0.20312-0.83203-0.64062-0.84375-1.1094-0.011718-0.12891 0.011719-0.25781 0.054688-0.38281 0.19141-0.55469 0.74609-0.90625 1.4531-0.94141 1.0039-0.042969 1.9883-0.085938 3.043-0.24609 3.1406-0.50391 6.0234-1.9102 8.332-4.082 0.88672-0.82422 1.582-1.5586 2.125-2.4453l0.32031-0.52344c0.28906-0.48047 0.55469-0.94141 0.90625-1.3984 1.8789-2.4766 4.6797-3.6953 8.1172-3.5469 4.0273 0.18359 8.3516 1.9023 10.031 2.6289 1.1445 0.49219 1.207 0.52734 2.0898 1.1172 0.42578 0.30078 1.1523 0.88672 1.1758 1.5703 0 0.24609-0.074219 0.48047-0.24609 0.68359-0.27734 0.33984-1.1641 0.32031-1.5781 0.17188l-2.9375-0.90234c-2.1914-0.80078-4.1992-1.3672-6.1641-1.7188-1.5391-0.28906-2.8203-0.35156-4.0273-0.22266-2.2344 0.24609-4.0469 1.7422-4.7539 3.8984-0.20312 0.60938-0.28906 1.2266-0.26562 1.8477 0.03125 1.3242 0.58594 2.5625 1.5586 3.4805 0.48047 0.46094 0.99219 0.74609 1.668 0.92969 2.9688 0.78906 5.5664 1.6992 7.957 2.7539 1.4414 0.64062 1.8477 0.72266 3.4727 1.8242 0.66406 0.4375 1.4219 1.0469 1.4414 1.7617 0 0.24609-0.085938 0.49219-0.25781 0.71484-0.57812 0.73828-1.5586 0.25781-2.2852-0.085937l-0.19141-0.097656c-5.4062-2.543-8.2461-3.3516-11.004-3.8008-2.457-0.41797-4.6562 0.91797-5.4922 3.3008-0.22266 0.62891-0.32031 1.2695-0.30859 1.8906 0.042969 1.2617 0.54297 2.3828 1.4648 3.2461 0.54297 0.52344 1.1758 0.96094 1.9219 1.3477l3.75 1.9023c0.054688 0.019531 4.6797 2.3242 5.5781 3.5234 0.14844 0.20312 0.22266 0.42578 0.23438 0.67188 0.011719 0.22266-0.054688 0.4375-0.17188 0.62891-0.58594 0.96094-2.0078 0.25781-2.543 0l-8.5703-4.1641c-0.46875-0.23438-0.89844-0.4375-1.3789-0.54297-1.0898-0.25781-2.2734-0.011719-3.332 0.69531-1.4844 0.99219-2.3398 2.6367-2.2852 4.3906 0.011719 0.40625 0.074219 0.8125 0.17188 1.1953 0.66406 2.457 2.9805 4.4453 4.3047 5.4141l1.1953 0.875 2.5859 1.6133c0.25781 0.16016 5 2.8516 7.7031 1.6016 2.2344-1.0273 3.9102-3.1602 4.4844-5.7148 0.11719-0.52344 0.16016-1.0586 0.14844-1.6328-0.007812-0.48438-0.19531-1.0039-0.066406-1.4766 0.085937-0.30859 0.30469-0.59375 0.60938-0.69922 0.25-0.085938 0.52344-0.046875 0.78906-0.03125 1.7461 0.11719 3.3398-0.78906 4.5195-2.0117 1.4648-1.5156 2.2734-3.4727 2.2734-5.5v-0.21484c0-0.78125-0.15625-1.5508-0.43359-2.2773-0.12891-0.34375-0.26172-0.70703-0.44531-1.0273-0.21484-0.375-0.42188-0.82422-0.27734-1.2617 0.11719-0.35938 0.46484-0.61328 0.83984-0.67578 0.25391-0.042969 0.51172-0.003906 0.76953-0.015625 0.78906-0.039063 1.6055-0.53906 2.1992-1.0352 2.125-1.7852 3.3438-4.4023 3.2695-6.9961-0.019531-0.51172-0.085937-1.0352-0.20312-1.5391-0.4375-1.8672-1.6445-3.4297-3.0469-4.6953-0.19922-0.17969-0.41406-0.36719-0.5-0.62109-0.125-0.36719 0.11328-0.62891 0.42578-0.85938s0.71484-0.29688 1.1016-0.28516c0.77734 0.019531 1.5039 0.011719 2.2852 0.03125 0.80469 0.023437 1.6094 0.011719 2.4102 0.023437 1.3906 0.015625 2.7812 0.03125 4.1719 0.039063 2.4805 0.015625 4.9648 0.019531 7.4453 0.003906 1.3828-0.007813 2.7656-0.023437 4.1484-0.046875 2.9062-0.054688 6.2383-0.16016 9.0898-0.78125 1.5156-0.33203 4.2422-1.2383 5.3398-3.6094 0.42578-0.90625 0.64062-1.9102 0.60938-2.8945-0.0625-2.0391-1.1445-3.8672-2.8828-4.9023-1.0586-0.62109-2.3086-1.0273-3.9531-1.2695-3.2891-0.49219-7.8711-0.32031-11.91-0.097657l-12.027 0.68359c-3.9531 0.22266-7.0078 0.33203-9.9219 0.375-2.4258 0.03125-4.4102-0.097656-6.25-0.40625-1.625-0.26562-2.918-0.73828-4.0469-1.4414-1.0039-0.62891-2.1992-1.6562-2.2305-2.918-0.011718-0.36328 0.074219-0.72656 0.24609-1.0781 0.30859-0.59766 0.70312-1.1523 1.2383-1.7422l2.5312-2.7344c1.1758-1.2617 2.1367-2.7227 2.957-4.4648 0.90625-1.9102 1.3555-3.9727 1.293-5.9375-0.085938-2.9258-1.2617-5.4492-3.3984-7.2852-1.8906-1.6328-4.9766-2.6484-7.2852-1.0352z"/> </svg>