<svg xmlns="http://www.w3.org/2000/svg" version="1.1" viewBox="7.18 5 85.63 90">  <path d="m20.07 46.637-1.8711-3.9609-3.3438-6.7188c-1.7578-3.5312-3.4531-7.0781-4.9805-10.711-1.043-2.4883-1.918-5.0156-2.3867-7.668-0.5-2.832-0.48047-6.1172 0.95703-8.6875 1.3555-2.4219 4.0273-3.9648 6.8047-3.8867 3.0859 0.089844 5.3047 2.043 6.8594 4.5273 0.94922 1.5195 1.6875 3.125 2.332 4.8125 0.98438 2.5859 8.5742 24.988 8.9805 25.582-0.21484 1.5586-0.32812 3.0664-0.30859 4.6211 0.003907 0.375 0.015625 0.71484 0.10156 1.0859-4.4414-0.14062-8.7539 0.56641-11.883 4.0469-0.35938-1.0586-0.78125-2.0391-1.2539-3.043zm21.07-0.39453c1.2734 0.3125 2.4062 0.87891 3.4414 1.6602 3.5195 2.832 4.2227 8.1172 2.0703 11.992 1.6016-0.078125 2.9609-0.50391 3.7266-1.9844 0.45703-0.88672 0.74219-1.8398 0.95312-2.832 0.84766-4.0156 1.1953-7.9766 1.6133-12.043l0.50781-7.1016c0.003906-0.039063 0.007813-0.078125 0.011719-0.11719 0.089844-0.71484-0.027344-1.4531-0.41016-2.0625-0.15234-0.24609-0.32031-0.48828-0.50391-0.72266-0.89453-1.1406-2.0664-1.9883-3.4297-2.5078-4.4219-1.6914-10.27-0.78906-11.938 4.2578-0.47656 1.3359-0.6875 2.7031-0.83984 4.125-0.23828 2.25-0.38672 4.4766-0.26172 6.7539 1.7305 0.007813 3.4062 0.17578 5.0625 0.58594zm49.086-31.539c-0.6875-0.53906-1.5039-0.91406-2.3555-1.1055-5.1055-1.1602-7.6641 3.7422-9.1133 7.2383-0.80469 1.9414-1.543 3.9023-2.2422 5.8828l-2.0625 5.8555-2.0234 5.5508c-0.085938 0.24219-0.32031 0.78906-0.50391 1.2148-0.15625 0.36719-0.20703 0.76562-0.14844 1.1602 0.039062 0.26562 0.082031 0.56641 0.097656 0.78516 0.25781 3.3398-0.32812 9.3242-0.82422 11.809-0.38281 1.9258-0.87891 3.7852-1.6719 5.5742-1.1289 2.5586-2.9414 4.7031-5.5508 5.8125-2.3047 0.97656-4.8398 1.0078-7.2148 0.25781-1.8633-0.58594-3.832-1.75-4.8086-3.5312-0.92188 1.0352-2.8281 1.7305-4.1836 1.7852 2.4844 1.9531 4.1953 4.5859 5.0586 7.5781 0.44531 1.543 0.70312 3.1172 0.62109 4.7188-0.039062 0.79297-0.30469 2.3633-1.3047 2.3945-0.46484 0.015625-0.82422-0.41406-0.85156-0.87891-0.09375-1.5508-0.25391-3.0547-0.67969-4.5586-1.1016-3.8828-3.457-6.9336-6.9727-8.9062-2.1406 1.6875-5.3711 2.6719-8.0352 2.4883-0.83203-0.0625-2.0859-0.53125-1.9922-1.4961 0.078125-0.78906 0.87109-0.94141 1.4766-1.0352 1.918-0.30469 4.0234-0.83203 5.7891-1.8398 2.6484-1.5117 4.332-5.3789 3.5391-8.3242-0.46484-1.7227-1.6055-2.8984-3.1133-3.5117-0.87891-0.35547-1.7617-0.47266-2.7188-0.55469-2.7422-0.23438-5.4648-0.30078-8.2109-0.16797-0.71484 0.035156-1.3555 0.14062-2.043 0.24219-1.7969 0.26172-3.4453 1.1523-4.6445 2.5156-1.1992 1.3594-2.1523 2.9141-2.9336 4.5586-0.79688 1.6758-1.4805 3.3594-1.9336 5.1602-0.84375 3.3594-0.41016 6.0586 1.1797 9.1172 1.6953 3.2617 3.9258 6.2695 6.5586 8.8398 1.6094 1.5703 3.2383 2.7695 4.9727 3.7383 0.44531 0.25 0.75 0.6875 0.80078 1.1953 0.17578 1.8359 0.52734 5.1914 0.70703 6.8867 0.066406 0.63281 0.51953 1.1602 1.1328 1.3242 12.68 3.3945 23.215 3.3633 35.625-0.097656 0.64844-0.17969 1.1094-0.77344 1.125-1.4492l0.16016-6.8867c0.011718-0.49609 0.26953-0.94531 0.67188-1.2266 1.2617-0.88281 2.418-1.9062 3.4258-3.1094 1.6172-1.9336 2.8945-4.1328 3.8125-6.4883 0.78125-2.0039 1.3633-4.0547 1.7461-6.168 0.80078-4.4141 1.1875-10.043 1.1602-14.508-0.003906-0.65234-0.015625-1.1523 0.22266-1.7773 1.3984-3.6836 2.8555-7.3398 4.4141-10.977l3.168-7.3828c2.2031-5.1328 5.7227-13.746 0.67187-17.703zm-34.359 46.086c2.5508 1.5117 5.9102 1.7227 8.2891-0.20703 2.668-2.168 3.3789-5.9922 4.1562-9.0703 0.50391-1.9961 1.4688-7.2578 1.4648-11.387 0.042968-0.41797-0.023438-0.83594-0.19531-1.2188-0.20312-0.45312-0.49219-1.0547-0.72656-1.4258-0.8125-1.2852-1.918-2.3125-3.2773-3.0039-1.9922-1.0117-4.2422-1.375-6.4336-0.94141-0.54688 0.10938-1.0625 0.26953-1.5469 0.48438-1.2031 0.52344-1.9297 1.7656-1.8438 3.0742 0.32812 5.0195-0.87891 15.43-1.4219 17.883l-0.58594 2.6367c-0.22656 1.0234 1.1953 2.625 2.125 3.1758z"/></svg>