<svg xmlns="http://www.w3.org/2000/svg" version="1.1" viewBox="4.97 9.63 90.05 80.72">  <path d="m78.23 70.324c-0.050781 2-1.4492 3.7695-3.3281 4.3516-0.85156 0.26953-1.6719 0.12109-2.3906-0.37109-0.87109-0.58984-1.6602-1.2383-2.4688-1.9297l-6.1016-5.2305-5.8516-4.9492c-0.51172-0.44141-1.2891-1.0586-1.9297-0.53906-0.64844 0.53906-0.058594 1.5 0.37891 2.0312 0.57813 0.67969 1.1797 1.3008 1.8398 1.9102l6.5898 6.1016 3.3008 2.9805c0.76172 0.67969 1.5508 1.2617 2.3711 1.8594 0.35156 2.6719-1.9609 5.25-4.6094 5.4297-1.0781 0.078125-2.0898-0.37109-2.9883-0.89844-1.3398-0.78906-2.5312-1.7305-3.7305-2.6992-2.4805-2-4.8516-4.1016-7.2305-6.2109-0.60156-0.53125-1.1484-1.0391-1.7891-1.5117-0.32031-0.25-0.78906-0.42969-1.1797-0.28906-0.60156 0.21875-0.71094 0.94141-0.37891 1.4688 0.48828 0.78125 1.1211 1.4219 1.7695 2.0898 2.4688 2.5195 5.0508 4.8984 7.75 7.1719 1.0586 0.89062 2.1602 1.6719 3.3711 2.3711-0.62109 2.0117-2.4492 3.3516-4.5 3.4688-1.9609 0.10937-3.8086-0.87109-3.8086-0.87109s0.33984-2.8398-1.9414-4.9805c-1.8398-1.7305-3.8203-1.5195-3.8203-1.5195 0.011718-1.8789-0.62891-3.6484-1.9297-5.0195-0.76172-0.80078-1.7109-1.4102-2.7617-1.7617-0.53125-0.17188-1.0898-0.28125-1.6602-0.30859-0.14844 0-1.7188 0.019531-1.7188 0.14844-0.019531-0.53906-0.12891-1.0703-0.35156-1.5781-1.2383-2.8281-4.1602-4.6992-7.2617-4.6016-1.2383 0.03125-2.1094 0.46094-2.1094 0.46094s-0.14062-0.66016-0.5-1.3281c-1.2617-2.3398-3.7617-3.8203-6.4414-3.7891-1.3398 0.019531-2.6211 0.39844-3.7891 1.0391-1.2812-1.6992-7.1992-6.8906-7.1992-6.8906l-4.8789-3.1094-1.9492-1.3086-0.003906-41.859 13.25 11.07 4.8711 4.1016 10.809 9.1211c1.4414-0.44922 2.8906-0.71094 4.3711-0.98828 2.3906-0.35938 4.6797-0.55859 7.1289-0.12891-1.0312 0.42188-1.9609 0.80859-2.8203 1.4492-0.94922 0.71875-1.6992 1.6289-2.2109 2.7109l-1.3086 2.7383c-0.69141 1.4492-1.4883 2.8008-2.3281 4.1602-0.26953 0.46094-0.5 0.87109-0.71875 1.3594-0.82812 1.8516-0.46875 4.0195 0.92969 5.5 1.1406 1.2188 2.6211 2 4.2695 2.3203 0.80859 0.16016 1.6016 0.23047 2.4414 0.14844 2.6914-0.26172 5.1797-1.4883 7.1406-3.3516 0.94141-0.89844 1.7188-1.9297 2.4297-3.0117 0.10156-0.16016 0.51172-0.35937 0.69141-0.25 2.9219 1.8281 5.6797 3.8711 8.3711 6.0391 2.6289 2.1211 5.1914 4.3203 7.6914 6.5898 2.3906 2.1484 8.3086 7.8086 8.2305 11.09zm-33.949 7.4297c-0.89062-1.9219-3.1289-3.0586-5.1016-2.2109-0.30078 0.12109-0.48047 0.39062-0.67188 0.64844-1.8008 2.5-3.7695 5.0391-6.1914 7.0195 0.67188 2.2891 2.8516 3.9414 5.2695 3.7617 1.1016-0.078125 2.0703-0.5 2.8711-1.1992 1.5898-1.3984 2.9102-3.0898 3.8086-5 0.46875-1 0.46875-2.0391 0.011719-3.0195zm-17.5-8.9414c0.19922-0.23047 0.26953-0.48047 0.23047-0.76172-0.30859-1.8984-2.3086-3.3984-4.2109-3.4414-1.3594-0.03125-2.6992 0.19922-3.8906 0.87109-2.5117 1.4219-1.3906 5.2617 0.60156 6.6211 0.050781 0.03125 0.10938 0.070313 0.17188 0.10156 0.67969 0.42969 1.3984 0.78125 2.25 0.76172 0.48047-0.011719 0.91016-0.28125 1.2695-0.57812 1.3086-1.0781 2.4609-2.3008 3.5781-3.5703zm9.2969 5.9609c0.55078-0.85156 0.62109-1.8008 0.19141-2.7383-0.76172-1.6211-2.4297-2.75-4.25-2.8008-1.1484-0.019531-2.1914 0.46875-3.0117 1.2305-0.60937 0.57031-1.1484 1.1406-1.7188 1.7617-0.98047 1.0586-1.9688 2.0703-3.0312 3.0703-0.19141 0.17969-0.28906 0.39062-0.32031 0.66016-0.21094 1.9102 0.78125 3.6211 2.3984 4.6406 0.87109 0.55078 1.8516 0.87891 2.8594 0.73828 0.66016-0.10156 1.25-0.44922 1.7695-0.87109 1.7812-1.4297 3.8711-3.7695 5.1094-5.6914zm10.602 7.4297c-1.1484 2.2383-2.7695 4.6016-4.8203 6.1211 0.76172 1.0195 1.7891 1.6797 3.0898 1.9414 1.5781 0.30859 3.25-0.28125 4.3086-1.4805 0.69922-0.89062 1.0195-1.9492 1.0703-3.0586 0.10156-2.0703-1.5898-3.7109-3.6484-3.5195zm39.609-63.75-5.1602 4.6406-7.8984 7.2109-3.6797 3.2812-2.1992 1.5312s-6.0508-2.2383-9.2305-2.8398c-2.1914-0.41016-3.4883 0.25-5.5 0.98047l-3.6602 1.3086c-1.3086 0.46875-2.5898 0.91016-3.8516 1.4883-0.76953 0.35156-1.3516 0.83984-1.7188 1.6094l-1.5703 3.3008c-0.73047 1.5312-1.5898 2.9297-2.4688 4.3711-0.30859 0.51953-0.64844 1.0312-0.73047 1.6289-0.10938 0.78906 0.30078 1.5898 0.87891 2.1289 0.92188 0.85938 2.1406 1.3008 3.3984 1.2812 5.4297-0.070312 9.3398-6.1406 9.3398-6.1406s2.8984-0.73828 4.3008-1.3086c0.21875-0.078125 0.44141-0.070312 0.58984 0.070313 0.46094 0.42188-0.28906 1.4102-0.71094 1.75 2.9688 1.9414 5.7695 4.0117 8.5703 6.1289 0.28125 0.21094 0.60156 0.51172 0.94922 0.55078 1.2617 0.14844 2.5-0.019531 3.7109-0.33984l1.4688-0.39063c0.21875-0.058593 0.46094 0.019532 0.58984 0.17188 0.14062 0.17187 0.14062 0.39844 0.058594 0.62109-0.55859 1.1719-2.3203 1.9492-3.5586 2.1602l4.6484 4.0898c1.8086 1.5898 5.3906 5.3398 6.6016 7.4492 1.6797-1.6914 2.6094-3.6914 3.1094-5.9414l12.43-7.1992 0.003906-41.512-8.7109 7.9219z"/></svg>