<svg xmlns="http://www.w3.org/2000/svg" version="1.1" viewBox="6.8 4.97 86.37 90.05">  <desc>Created by Lewen Design, downloaded from Noun Project. They can be found at this link: https://thenounproject.com/browse/collection-icon/hand-and-gesture-191281/ (CC BY 3.0)</desc><path fill="currentColor" d="m80.109 16.156 3.8242-9.1445c0.28125-0.67188 1.1484-0.85547 1.6758-0.35156l4.9062 4.6602c0.51953 0.49219 0.39453 1.3516-0.24219 1.6797l-8.7344 4.4844c-0.86328 0.44141-1.8086-0.43359-1.4336-1.3281zm11.695 5.0781-6.8398 2.207c-0.92578 0.30078-0.97266 1.5938-0.066406 1.957l6.6211 2.6484c0.66406 0.26562 1.3945-0.20312 1.4258-0.91797l0.21875-4.8555c0.03125-0.72656-0.66797-1.2617-1.3594-1.0391zm-19.82-7.9258c0.375 0.89844 1.668 0.83594 1.9531-0.09375l2.1094-6.8711c0.21484-0.69531-0.33203-1.3867-1.0547-1.3438l-4.8516 0.28906c-0.71484 0.042969-1.1758 0.77734-0.89844 1.4375l2.7383 6.582zm-29.812 8.1875c1.3477-1.2773 2.7148-2.4766 4.2188-3.5977-0.089844-2.1836-0.90625-4.3438-3.1562-5.1016-2.3633-0.69141-4.332 0.046875-5.6211 2.1367-0.73438 1.1992-1.1992 2.5-1.5508 3.8789-0.53125 2.1484-0.83594 4.2969-1.1445 6.4922-0.078125 0.59766-0.27344 1.8086-0.27344 1.8086l-0.34375 2.5938s5.332-5.8398 7.8672-8.2148zm25.953-0.25781c0.64453 0.32812 1.1641 0.72266 1.6758 1.2109 0.16797-0.17969 1.0742-0.89062 1.3477-1.1211 0.011718-0.10156 0.011718-0.20312 0-0.33984-0.25-2.7734-2.7266-4.7734-5.4883-4.3203-0.60938 0.10156-1.1875 0.26172-1.7656 0.54297-1.1211 0.51953-2.1055 1.2109-3.0312 2.0352 0.31641 0.56641 0.58984 1.1094 0.66797 1.7539 2.125-0.97266 4.5234-0.88281 6.5938 0.23828zm3.3594 3.2812c1.1758 1.6953 1.4492 3.9922 1.0078 5.9297-0.26172 1.0859-0.70313 2.082-1.3008 3.1016 1.3594 0.36328 2.5234 1.1641 3.4375 2.1836 1.125-0.83984 2.207-1.5234 3.418-2.3086 0.55469-0.66797 1.0195-1.3594 1.4805-2.0938 0.97266-1.7539 1.4922-3.2227 0.66797-5.1719-0.54297-1.2656-1.4375-2.2852-2.7148-2.8398-2.1836-0.82422-4.1523-0.023437-5.9961 1.1992zm-24.945 58.191c3.9023-1.7422 7.375-4.9102 10.227-8.043 0.75781-0.82422 1.4805-1.6172 2.3516-2.3203l2.4883-1.9922c1.8672-1.5039 3.6523-3.0195 5.3867-4.6719 2.0586-1.9688 4.5586-4.4688 5.4531-7.207 0.97266-2.9531-1.2891-5.7812-3.043-5.4766-0.36328 0.054688-0.64453 0.30469-0.91797 0.57812l-4.3672 4.1055c-1.6758 1.5742-5.6562 5.125-7.4648 6.2578-0.49609 0.30469-1.0508 0.26172-1.4609-0.14844-0.38281-0.38281-0.41797-1.0195-0.054687-1.4922 0.42969-0.56641 0.96094-1.0078 1.4922-1.4922l2.5547-2.3398 8.3828-7.6016c1.2891-1.1641 2.4648-2.4336 3.5391-3.7891 1.7656-2.2266 3.168-5.1016 1.8789-7.9062-0.44141-0.97266-1.1758-1.7773-2.125-2.2734-0.94922-0.50781-2.1953-0.71094-3.1445-0.16016-0.74609 0.42969-1.3125 1.0859-1.9102 1.7188l-7.6797 8.043-6.1523 6.2656c-0.42969 0.44141-0.84766 0.82422-1.3477 1.1641-0.51953 0.33984-1.1758 0.29297-1.5742-0.10156-0.44141-0.44141-0.51953-1.0977-0.16016-1.6406 0.46484-0.66797 1.0312-1.2461 1.6055-1.8555 4.4023-4.7188 9.0039-9.2188 13.734-13.609 0.81641-0.76953 1.6289-1.4922 2.3633-2.3203 1.2656-1.4141 2.6797-3.418 2.7266-5.3867 0.054688-2.125-1.1992-4.1406-3.1328-5.0117-1.6289-0.72266-3.418-0.40625-4.8984 0.50781-0.94922 0.59766-1.7539 1.2891-2.5352 2.0938l-3.3945 3.4609c-3.8789 3.9727-7.4883 8.1914-11.164 12.352-0.69141 0.79297-1.3477 1.5742-2.0938 2.2734-0.50781 0.49609-1.2109 0.56641-1.7539 0.14844-0.51953-0.38281-0.62109-1.1211-0.26172-1.707 0.30469-0.49609 0.64453-0.96094 1.0391-1.4141l3.4062-3.9805c3.4844-4.082 9.5703-9.9766 13.664-13.609 0.9375-2.6602-1.1094-5.3633-3.8594-5.7461-2.625-0.37109-4.8477 1.0859-6.8125 2.6797-1.5938 1.293-3.1289 2.6602-4.5938 4.0977-2.168 2.1211-4.2539 4.3008-6.3086 6.5391l-4.9648 5.3945c-1.1641 1.2773-4.332 4.6602-5.7031 5.3516-0.32812 0.17969-0.70312 0.22656-0.98438 0.011719-0.66797-0.50781-0.35156-1.2539 0.054688-1.8438 0.65625-0.96094 1.3906-1.8203 2.1484-2.7148l4.875-5.7227c0.14844-2.082-0.011719-4.1758-0.59766-6.1875-1.0508-3.6641-3.6641-7.2383-7.7734-7.5234-1.2891-0.078125-2.5352 0.26172-3.5625 1.0508-1.6289 1.2656-1.8086 3.3047-1.5039 5.2266l0.56641 3.5508c0.66797 4.2539-0.56641 8.6523-2.3398 12.477l-1.5039 3.2812c-2.75 5.9492-3.5508 12.887-2.1484 19.301 0.125 0.58984-0.023438 1.0625-0.375 1.5273-0.53516 0.69531-3.3203 3.2617-5.5195 5.4961-0.52344 0.53125-0.61719 1.3555-0.21094 1.9805 4.6641 7.0898 12.488 13.406 23.766 19.789 0.67578 0.38281 1.5391 0.22266 2.0273-0.37891 3.0195-3.6953 6.3555-7.4688 6.3555-7.4688 2.5312 0.023437 4.9844-0.55078 7.3008-1.5859zm32.457-46.867c-0.88281 0.25-1.6758 0.70312-2.4453 1.2227l-0.70312 0.47656c0.27344 0.33984 0.40625 0.70312 0.54297 1.1094 0.73438 2.2305 0.48828 4.5352-0.48828 6.6758-0.91797 1.9336-2.1836 3.6758-3.7109 5.25 0.89453 0.40625 1.5938 1.0195 2.1953 1.7656 1.1406-0.78125 3.9922-2.375 3.9922-2.375 2.0586-1.9688 4.0508-3.9727 5.2148-6.6055 0.98438-2.2188 0.60938-4.7734-1.0625-6.5156-0.94922-0.97266-2.2188-1.3594-3.5391-0.99609zm-3.668 18.074c1.1992 2.4766 0.65625 5.1367-0.64453 7.4453-0.76953 1.3672-1.6875 2.6133-2.75 3.7891-1.8555 2.0586-3.8477 3.9492-6.0195 5.6914l-4.3789 3.5078c-0.58984 0.47656-1.1094 0.90625-1.6055 1.4805-1.9688 2.3203-4.0938 4.4922-6.4727 6.4023-3.5508 2.8633-8.0547 5.0898-12.66 5.2812-0.16797 0-0.28125 0.011719-0.28125 0.011719s-0.027344 0.03125-0.0625 0.082031c-0.51953 0.6875-1.8867 2.4141-3.0977 4.0352 0.058593 0.011719 7.9961 2.8867 13.109 3.3477 0.76172 0.070312 1.4688-0.39063 1.6914-1.1211 0.91797-3.0273 3.1836-8.0781 3.7305-9.1719 9.1328-4.0781 13.004-12.438 13.004-12.438s2.375-2.5352 3.6758-3.7227l4.8867-4.5156c1.1641-1.0742 2.207-2.2305 3.1211-3.5195 1.5742-2.207 2.4453-5.0234 0.55469-7.3203-1.7656-2.0586-4.0156-0.33984-5.8047 0.73438z"/></svg>