<svg xmlns="http://www.w3.org/2000/svg" version="1.1" viewBox="5 5.12 90.03 89.78">  <desc>Created by Lewen Design, downloaded from Noun Project. They can be found at this link: https://thenounproject.com/browse/collection-icon/hand-and-gesture-191281/ (CC BY 3.0)</desc><path fill="currentColor" d="m88.926 53.883c-1.1055-0.39453-2.2812-0.59375-3.5039-0.59375-1.8086 0-3.6914 0.42969-5.6016 1.2734-1.5078 0.66797-2.7891 1.5781-3.9219 2.3828-1.3867 0.98828-2.5859 1.8398-3.6523 1.8398-0.27734 0-0.53906-0.054687-0.79688-0.17188-3.1367-1.3789-3.543-7.4219-3.0625-10.906 0.60156-4.3672 1.7383-8.5664 2.8516-12.492l3.1406-11.082c1.1055-3.8945 2.2812-10.84-2.2422-13.613-1.1719-0.71875-2.4492-1.0977-3.6953-1.0977-0.96875 0-1.8984 0.22266-2.7695 0.66406-3.2461 1.6406-4.6094 5.6484-5.5117 9.3516-1.1211 4.5898-1.8594 9.0508-2.6445 13.773l-1.3984 8.3945c-0.097657 0.58594 0.27734 1.1406 0.85547 1.2695 1.125 0.25 2.2031 0.67969 3.1641 1.3008 0.39844 0.26953 0.5 0.80859 0.23438 1.207-0.19141 0.28125-0.51953 0.41797-0.83594 0.375-1.4922-0.19922-2.8984-0.42578-4.3281-0.52734-1.4297-0.12109-2.8477-0.10547-4.3477-0.10156-0.90234 0.03125-1.1953-1.2891-0.38281-1.6484 1.0938-0.5 2.2852-0.78125 3.4922-0.85547-0.011719-0.23047-0.03125-0.6875-0.03125-0.99219l0.03125-21.625c0.003906-3.4688-0.23828-6.1367-0.78906-8.6523-0.46484-2.1289-1.4609-3.8242-2.8828-4.9062-1.1406-0.86719-2.5117-1.3242-3.9688-1.3242-0.98438 0-1.9883 0.20312-2.9805 0.60547-4.7773 1.9336-5.082 7.8711-4.8945 12.168 0.16797 3.8477 0.62891 7.6641 1.0781 11.352 0.13672 1.1406 0.27734 2.2812 0.41016 3.4336l1.125 9.8438c0.066406 0.57812 0.56641 1.0195 1.1484 0.98828 0.82422-0.046875 1.6484-0.003906 2.4648 0.14453 0.46875 0.10156 0.76953 0.5625 0.66797 1.0312-0.070312 0.33203-0.32422 0.57812-0.63281 0.66016-1.4453 0.37109-2.8477 0.69141-4.2461 1.0938-1.4023 0.39063-2.7617 0.85156-4.1562 1.3281-0.84375 0.32031-1.543-0.83594-0.89062-1.4375 0.87109-0.80859 1.8789-1.4414 2.9609-1.9102 0.48828-0.21094 0.73438-0.76562 0.60547-1.2812l-4.0195-16.176-0.26953-1.1055c-0.91406-3.7656-2.168-8.9219-4.4258-11.582-1.1016-1.1523-2.6406-1.7891-4.332-1.7891-0.91406 0-1.8438 0.19141-2.6914 0.55859-4.3047 1.8594-5.418 6.3672-3.3125 13.406 1.3477 4.5039 3.0586 8.8984 4.7109 13.145l1.0547 2.7227c0.24219 0.625 0.48828 1.2383 0.73047 1.8438 0.51562 1.2891 1.0078 2.5195 1.4336 3.8047 0.17969 0.54688 0.73437 0.875 1.2969 0.75391 0.54688-0.11719 1.0938-0.17187 1.6289-0.14844 0.48438 0.007813 0.875 0.40625 0.86719 0.89453-0.003906 0.31641-0.17969 0.59375-0.43359 0.74609-1.1328 0.66406-2.2539 1.1094-3.2031 1.668-0.96094 0.53125-1.7734 1.2109-2.7617 2.0117-0.65625 0.57422-1.7031-0.18359-1.3828-0.98047 0.33984-0.99609 0.99609-1.8555 1.8203-2.543 0.44531-0.37109 0.55469-1.0117 0.23047-1.4922l-8.4688-12.582c-0.91797-1.3672-1.9688-2.7891-3.418-3.9336-1.0312-0.81641-2.1992-1.2461-3.3789-1.2461-1.1016 0-2.1875 0.38281-3.1406 1.1016-2.1758 1.6484-3.0391 4.543-2.2031 7.3711 0.89063 3.0195 2.6602 5.5742 4.2461 7.7344 0.33203 0.45312 0.83203 1.1094 1.4297 1.8945 2.457 3.2305 7.5664 9.9492 7.8984 11.805l0.9375 5.2148c0.59766 3.3203 1.418 6.1055 2.5859 8.7578 1.582 3.5938 4.0586 6.4062 7.3633 8.3945 0.28906 0.17578 0.49219 0.46484 0.53516 0.80078l1.043 7.6055c0.0625 0.45703 0.40234 0.83203 0.85156 0.94531 11.625 2.8711 21.168 2.7695 32.484 0.050781 0.49609-0.12109 0.85938-0.56641 0.86719-1.0781l0.14453-8.5625c0.007813-0.42969 0.26172-0.8125 0.65234-0.99609 1.8086-0.86328 3.7266-2.125 5.5469-4.1016l3.543-3.8516c3.4297-3.7266 8.1797-5.9961 15.398-7.3633 2.5273-0.47656 4.1992-2.4961 4.1562-5.0273-0.058594-3.5234-2.4414-6.6406-6.0703-7.9375zm-29.098 6.2812c-0.14844 0.054688-0.29297 0.10547-0.41797 0.15234-0.79688 0.30859-1.5625 0.74219-2.2891 1.1875-1.8359 1.125-3.5352 2.5039-4.9375 4.1445-2.4219 2.8281-3.8047 6.3594-4.0078 10.07-0.035156 0.61719-0.55469 1.0703-0.9375 1.1484-1.5039 0.30469-1.6797-2.0312-1.5781-3.1719 0.66016-7.3711 6.4219-13.258 13.211-15.578 0.085937-0.027344 0.17578-0.058594 0.26562-0.085938 1.3672-0.41797 2.0352 1.6406 0.69141 2.1289z"/> </svg>