<svg xmlns="http://www.w3.org/2000/svg" version="1.1" viewBox="14 5 72 90.03">  <path d="m85.945 57.953c-0.11719 0.56641-0.32031 1.1055-0.48828 1.6641-0.71094 2.3242-1.2734 4.6289-1.5391 7.0508-0.14062 1.293-0.26953 2.5391-0.46875 3.8164-0.23047 1.4766-0.83203 2.8906-1.8008 4.0273-1.5781 1.8555-3.4609 2.9531-5.6289 4.0156-2.1953 1.0742-13.16 7.1602-16.191 8.8438-0.48438 0.26953-0.78516 0.76953-0.79688 1.3242-0.015625 0.70703-0.03125 1.7031-0.019531 2.4961 0.007812 0.6875-0.42969 1.3047-1.0859 1.5078-11.023 3.3789-23.84 2.9258-35.207-0.54688-0.62891-0.19141-1.0664-0.76562-1.0938-1.4219-0.046875-1.043-0.11719-2.707-0.15625-4.4414-0.007812-0.37891-0.15625-0.73437-0.41016-1.0156-0.73047-0.80078-1.418-1.6328-2-2.5625-1.5078-2.3945-2.4766-5.0703-3.0625-7.8398-1.1289-5.3516-1.1641-10.492-0.98047-15.926 0.039063-1.1719-0.050781-2.2266-0.21875-3.375-0.93359-6.4414-0.96484-13.859-0.46094-20.344 0.22656-2.9062 0.8125-6.3086 1.793-9.0312 0.40625-1.1328 0.94141-2.1602 1.7109-3.0586 0.85547-1 1.9805-1.4492 3.2773-1.4414 2.668 0.015626 4.0977 1.9961 4.3789 4.4883 0.14062 1.25 0.11719 2.457-0.027344 3.7227l-0.97656 8.3281c-0.082032 0.6875-0.089844 1.3789-0.03125 2.0703 0.23828 2.9219 0.42969 5.8125 0.85547 8.7109 0.10938 0.74219 0.23438 1.4258 0.48438 2.1406-0.98047 0.56641-1.9062 1.1797-2.7188 1.9453-0.23438 0.22266-0.45312 0.50781-0.44531 0.83203 0.011719 0.47266 0.53906 0.73438 0.96875 0.60547 0.28516-0.085937 0.52344-0.20312 0.78906-0.35547 3.1797-1.8555 6.582-3.2344 10.152-4.1914 3.4844-0.93359 7.0859-1.4531 10.695-1.1875 1.8125 0.13281 3.5078 0.76562 5.1992 1.3281 0.375 0.125 0.76562 0.21875 1.0977-0.019531 0.41797-0.29688 0.375-0.90234 0-1.2656-0.69922-0.67969-1.6055-1.0938-2.5625-1.3828 0.27344-0.74609 0.4375-1.5078 0.625-2.3008l0.96484-4.0234c2.3672-3.2773 7.1875-8.0195 11.207-8.8164 3.1094-0.61719 6.8945 0.50391 9.832 1.5859 1.7383 0.64062 4.0703 1.5391 5.8672 2.668 1.0625 0.66797 2.3984 2.1133 3.0273 3.1992 0.78516 1.3633 1.25 2.7656 1.6055 4.2852 0.27734 1.1914 0.64062 2.3672 1.0273 3.5273 0.19922 0.59766 0.35938 1.1758 0.48047 1.7969 0.125 0.64453 0.003907 1.25-0.37891 1.8008-0.94141 1.3516-2.4805 2.1211-4.1523 2.1602-5.1484 0.12891-7.4805-6.1719-7.3008-8.2812l0.082031-0.94922c0.015625-0.16797-0.035156-0.35156-0.16797-0.42188-0.60156-0.33203-1.1328 0.54688-1.3281 1.0742-0.042969 0.11719-0.11328 0.20703-0.25391 0.19141-1.4727-0.15234-2.8828-0.53125-4.2422-1.1055-2.375-1.0078-2.7852-3.2656-3.2422-3.3594-0.10938-0.023438-0.21875 0.015625-0.31641 0.09375-0.1875 0.17578-0.25 0.42188-0.25781 0.69922-0.019532 1.207 0.42187 2.3672 1.1523 3.3203-1.1914 1.2422-2.3438 2.4375-3.4141 3.7539-1.0117 1.2461-2.7969 4.0703-2.8867 4.4141-0.20312 0.78906-0.25781 0.51953-0.34375 1.3359-0.28516 2.7695 0.1875 5.5508 1.3633 8.0547 1.2148 2.5859 3.3242 4.5234 5.9688 5.5703 0.72656 0.28906 1.3086 0.4375 2.0898 0.13672l5.293-2.0234c0.26562 0.82813 1.2461 2.2344 2.1914 1.918 0.38281-0.125 0.48438-0.42578 0.375-0.78516-0.24219-0.79297-0.59375-1.5781-0.61328-2.4414-0.03125-1.6445 0.29297-3.2891 1.0273-4.7773 0.92188-1.8672 2.4609-3.4336 4.3281-4.3594 0.95703-0.47266 1.9961-0.71094 3.0469-0.86328 1.1875-0.17188 2.4414 0.19141 3.3711 0.91797 0.69922 0.54687 1.1211 1.6328 0.94141 2.5zm-46.223-25.816c-0.39453 4.0352-0.63281 8.0508-0.90234 12.09l-0.18359 2.7617c2.2852-0.3125 4.5234-0.26562 6.7773 0.0625 0.46875 0.070313 0.91797-0.03125 1.3789 0.082031-0.10156-0.89453 0.43359-3.4922 0.65234-4.332l2.2852-8.7539c0.54297-2.082 3.1719-7.793 4.2617-9.8164l2.2109-4.1133c1.3008-2.418 2.75-6.082 2.8633-8.8125 0.10547-2.5781-1.3438-4.8672-3.7461-5.8086-0.91406-0.35547-1.8984-0.59766-2.8984-0.44922-1.1523 0.16797-2.1523 0.80469-2.9375 1.6289-0.57812 0.60156-1.0781 1.1836-1.5195 1.8945-0.73047 1.168-1.4102 2.332-2.0625 3.5508l-1.2773 2.3867c-0.085938 1.457-0.33984 2.8828-0.78516 4.2969l-2.2969 7.3281-1.8164 6.0039zm-11.816 17.918c2.7773-1.3359 5.457-2.1641 8.4883-2.7578-0.14453-0.46094-0.18359-0.91797-0.19922-1.4219-0.042968-1.6016 0.050782-3.1484 0.16016-4.7539l0.54297-7.8125c0.11328-1.6211 1.9805-7.375 2.5586-9.2578l1.6328-5.3047c0.33984-1.1016 0.51172-2.1875 0.64062-3.3281 0.11719-1.0469 0.089843-2.0703-0.17969-3.082-0.4375-1.6328-1.7578-2.9102-3.2031-3.4414-1.7852-0.65625-3.6562-0.29688-5.0586 0.79688-0.89453 0.69531-1.5352 1.5078-2.0977 2.4688-0.98047 1.6797-1.6445 3.4883-2.1797 5.3711-0.50781 1.7812-0.90625 3.5703-1.2773 5.375-0.09375 0.46484-0.039063 0.77734 0.082031 1.2109 0.46484 1.6914 0.55859 3.4375 0.35547 5.1797l-0.68359 5.8477c-0.14844 1.2891-0.50391 2.5547-0.41016 3.8555l0.33594 4.582z"/></svg>