<svg xmlns="http://www.w3.org/2000/svg" version="1.1" viewBox="9.62 5 80.73 90.03">  <desc>Created by Lewen Design, downloaded from Noun Project. They can be found at this link: https://thenounproject.com/browse/collection-icon/hand-and-gesture-191281/ (CC BY 3.0)</desc><path fill="currentColor" d="m90 30.695c-0.58203-1.6133-2.0664-2.6836-3.6719-2.6836-0.11719 0-0.23047 0.011719-0.33594 0.011719-2.043 0.1875-3.9258 2.1953-5.1562 3.6953-2.5312 3.0781-5.7969 8.293-7.1211 12.312 0 0-1.4883 4.668-1.6953 4.9375-0.34766 0.65234-0.83594 1.0352-1.3945 1.0352l-0.14062-0.011718c-0.94141-0.09375-1.3008-1.0352-1.3828-1.6367-0.09375-0.58203-0.12891-4.543-0.070312-5.832l0.42969-11.441 0.33594-10.094c0.058594-1.5664 0.17578-6.9453-0.62891-10.453-0.25391-1.1367-0.60547-2.0664-1.1016-2.9141-0.96484-1.625-2.6367-2.6133-4.4844-2.6133-0.26562 0-0.53516 0.023438-0.8125 0.070313-1.1367 0.17578-2.2305 0.74219-3.1016 1.6016-1.9883 1.9844-2.5664 4.9375-2.8594 7.5508-0.54688 4.8906-0.23047 12.617 0.35938 16.949 0.16406 1.1602 0.46484 2.3008 0.75391 3.3906 0.17578 0.66406 0.34766 1.3242 0.5 1.9883 0.16406 0.71875 0.32422 1.4531 0.5 2.1602 0.34766 1.4766 0.70703 2.9961 0.97656 4.5312l0.011718 0.12891c0.10547 0.54688 0.19922 1.1133 0.046875 1.707-0.15234 0.55859-0.53516 0.98828-1.0234 1.1133-0.12891 0.035156-0.27734 0.046875-0.40625 0.046875-1.0469 0-1.6836-1.0469-1.918-2.0312l-1.9531-7.8398c-1.3945-5.6094-2.7422-10.176-4.25-14.336l-2.418-6.6445c-0.66406-1.8125-1.4297-3.5078-2.3359-5.1562-0.94141-1.7188-2.3008-3.7734-4.4609-4.4375-0.44141-0.12891-0.90625-0.21094-1.3711-0.21094-0.98828 0-2.0078 0.32422-2.9492 0.91797-1.3477 0.87109-2.3594 2.2656-2.8242 3.9375-0.87109 3.0547-0.19922 6.4141 0.5 8.9805 0.21875 0.87109 7.8203 21.949 7.9375 22.477l-0.33203-0.21875c-0.92969-0.59375-1.8125-1.1719-2.7656-1.707-1.7305-0.96484-3.3906-1.6719-5.0664-2.1836-0.84766-0.26562-1.6953-0.38281-2.5547-0.38281-0.62891 0-1.2656 0.070313-1.9062 0.19922-2.1016 0.44141-4.1836 1.0586-6.3789 1.8711-1.0117 0.37109-1.9297 0.8125-2.8594 1.2773-2.6133 1.2891-3.7422 3.1953-4.8789 6.2266l-1.4883 3.9727-1.5 3.3008c-0.30078 0.68359-0.3125 1.4531-0.035156 2.1484 0.30078 0.74219 0.91797 1.3359 1.6836 1.625 0.09375 0.035156 0.19531 0.070312 0.28906 0.10547-0.097656-0.007813-0.19141-0.019531-0.28906-0.023438h-0.24219c-1.2422 0-2.3945 0.35938-3.3125 1.0703-1.0352 0.8125-1.4414 1.9844-1.1016 3.2305 0.38281 1.4062 0.76562 2.4062 1.125 3.3555 0.57031 1.4766 1.1172 2.8711 1.5469 5.4492l0.035156 0.21875c0.21875 1.3125 0.42969 2.5547 0.75391 3.832 0.34766 1.3828 0.98828 2.5547 1.9531 3.6016 1.9062 2.0312 5.0781 3.9961 7.4102 5.2852 5.0273 2.7617 8.2109 3.1172 12.52 3.7695 0.85156 0.12891 1.4844 0.85547 1.4883 1.7188 0 0.77734-0.007813 1.7227-0.015625 2.5039-0.007812 0.87891 0.64062 1.6328 1.5117 1.75 10.609 1.4219 20.992 1.5508 31.078 0.011718 0.82422-0.125 1.4414-0.82422 1.4766-1.6562 0.082032-2.1133 0.21094-5.9922 0.082032-7.6719-0.027344-0.34375 0.042968-0.68359 0.21094-0.98438 1.7969-3.2422 3.3086-6.9414 4.2383-10.105 0.42969-1.4766 0.90625-3.2422 1.2188-5.1016 0 0 1.2305-7.3164 1.2305-7.3203 0.51172-2.7656 2.8828-5.9609 4.1055-8.4648 2.4414-5 4.8867-9.9844 7.2734-15.004 1.0195-2.1367 1.8359-4.5781 0.99219-6.8984zm-51.094 35.094c-1.168 2.1289-3.0195 3.8711-4.9766 4.7578-0.55859 0.12109-1.1172 0.23438-1.6797 0.32031-1.0508 0.14453-2.1172 0.23047-3.1758 0.25391h-0.003907c-1.1055-0.46875-2.1797-0.85938-3.2305-1.1641-0.10938-0.023437-0.23828-0.035156-0.39844-0.058593-0.55078-0.058594-1.4648-0.16406-1.543-1.2422-0.066407-0.77734-0.17188-1.5-0.33594-2.2773-0.73438-3.3828-2.7539-6.1055-5.5664-7.5039 0.13672 0.011719 0.26953 0.023438 0.40234 0.023438 3.3438 0 5.5312-2.9141 6.4688-5.6445 0.1875-0.54297 0.32812-1.0938 0.44141-1.6289 0.125 0.003906 0.24609 0.019531 0.37109 0.019531 0.94141 0.023438 1.8867 0 2.8281-0.066406 1.6836-0.12109 3.3672-0.37109 5.0195-0.73828 2.2773 1.1562 4.5312 2.5977 5.8828 5.5508 1.8633 4.1367 1.6836 5.4727-0.50781 9.3984z"/> </svg>