<svg xmlns="http://www.w3.org/2000/svg" version="1.1" viewBox="5 9.8 90.03 80.4">  <path d="m94.93 43.887c-0.46484-3.5273-2.9258-6.25-6.582-7.2891-1.3125-0.37109-2.6914-0.58203-4.3242-0.67188-1.9531-0.11719-4.0039-0.10547-6.6289 0.027344l-10.449 0.53516-9.5742 0.4375c-2.7422 0.11719-6.6992 0.050781-8.8555-0.55469-1.1328-0.31641-1.7578-0.93359-1.7578-0.93359s1.1367-1.2734 1.5352-1.6836l0.29297-0.3125c1.3398-1.457 2.3438-2.75 3.1406-4.0625 1.4102-2.3242 2.207-4.7344 2.3633-7.1641 0.027344-0.39844 0.039062-0.80859 0.019531-1.207-0.066406-2.4414-0.84375-4.7539-2.2266-6.668-2.2539-3.1406-5.4531-4.7734-8.7695-4.4922-2.5 0.20312-4.5781 1.6914-5.5781 3.9766-0.33984 0.78906-0.5625 1.5859-0.78906 2.3633-0.48438 1.7109-1.0117 3.1094-1.6523 4.3945-1.4961 2.957-3.8477 5.7461-6.8047 8.0586-1.1484 0.89453-2.3242 1.6719-3.5586 2.5l-0.45703 0.29297c-2.2734 1.4766-5.5586 3.8008-7.9219 7.0195l-5.3672-0.91406-1.3477-0.22656c-0.91797-0.15234-1.7891 0.41406-2.0508 1.3086-0.13672 0.46875-0.26563 0.93359-0.38281 1.3945-1.5938 5.9023-2.1953 11.617-2.1953 17.07 0 5.7656 0.67969 11.227 1.5742 16.312l0.32812 1.7461c0.15625 0.82812 0.85938 1.4414 1.7031 1.4805l1.5664 0.070312s4.5156 0.20703 4.6367 0.21484c2.3438 3.5664 5.6289 6.3086 9.7695 8.1562 2.957 1.3125 6.1641 2.2266 9.5352 2.7109 2.6328 1.8945 5.4727 2.6641 8.6016 2.3242 2.4805-0.28125 4.6758-1.3984 6.3672-3.2383 0.88672-0.95703 1.5859-2.0742 2.0781-3.2422 0.51172-1.2188 0.70312-3.0664 0.70312-3.0664s1.0664-0.28906 1.5703-0.51172c0.90234-0.39453 1.7383-0.94922 2.4727-1.6367 2.1562-1.9258 3.4492-4.8906 3.3633-7.7266-0.019532-0.79688-0.15625-1.5742-0.39062-2.3047 1.1484-0.58203 2.168-1.3789 3.043-2.3906 1.8086-2.0117 2.8398-4.8203 2.7617-7.5156-0.046875-1.4688-0.42969-2.8867-1.0977-4.1133h0.80859c4.4805 0.027343 9.1172 0.058593 13.695-0.019531 1.7188-0.027344 3.5859-0.078126 5.4453-0.23438 2.5391-0.20312 5.7461-0.67187 8.1055-2.4492 2.2148-1.6523 3.4297-4.1719 3.3555-6.9102-0.007812-0.28125-0.027344-0.5625-0.066406-0.85547zm-3.4609 3.4805c-1 2.1562-3.4805 2.9844-4.8594 3.2852-2.5938 0.5625-5.6289 0.66016-8.2734 0.71094-1.2578 0.019531-2.5156 0.035157-3.7773 0.042969-2.2578 0.015625-4.5195 0.011719-6.7773-0.003906-1.2656-0.007813-2.5312-0.019532-3.7969-0.035156-0.73047-0.007813-1.4648 0-2.1953-0.019532-0.71094-0.019531-1.4141-0.15234-2.1211-0.17188-0.35156-0.007812-0.71875 0.050781-1.0039 0.26172-0.28516 0.21094-0.45703 0.59375-0.34375 0.92578 0.078126 0.23047 0.27344 0.40234 0.45313 0.56641 1.2734 1.1484 2.375 2.5742 2.7734 4.2695 0.10547 0.45703 0.16406 0.93359 0.18359 1.3984 0.066406 2.3633-1.0391 4.7422-2.9766 6.3672-0.53906 0.45312-1.2812 0.90625-2 0.94141-0.23438 0.011719-0.46875-0.023438-0.69922 0.015625-0.33984 0.054687-0.65625 0.28906-0.76172 0.61328-0.13281 0.39844 0.058593 0.80469 0.25391 1.1484 0.14453 0.25391 0.25391 0.53906 0.35547 0.8125 0.26562 0.69531 0.41406 1.4297 0.44141 2.1758v0.21484c0 1.8477-0.73828 3.625-2.0703 5.0078-1.0742 1.1133-2.5234 1.9375-4.1133 1.832-0.24219-0.015624-0.48828-0.050781-0.71875 0.027344-0.27734 0.09375-0.47656 0.35156-0.55469 0.63672-0.11719 0.42969 0.050781 0.90625 0.0625 1.3438 0.007812 0.52344-0.027344 1.0117-0.13672 1.4883-0.52344 2.3242-2.0508 4.2656-4.082 5.1992-2.4609 1.1367-5.3555 1.0117-7.7852-0.29297 0.21484 0.039063 0.4375 0.058594 0.66016 0.058594 0.15625 0 0.40234-0.054688 0.55469-0.21484 0.36328-0.375-0.20312-0.86328-0.4375-1.0117l-2.3516-1.4688-1.0898-0.79688c-1.207-0.88281-3.3164-2.6914-3.918-4.9297-0.085937-0.35156-0.14453-0.71875-0.15625-1.0898-0.046875-1.5938 0.73047-3.0898 2.082-3.9961 0.96094-0.64063 2.043-0.86328 3.0312-0.63281 0.4375 0.097656 0.82813 0.28125 1.2539 0.49609l8.457 4.1914c0.48438 0.23438 1.7773 0.875 2.3125 0 0.10547-0.17578 0.16406-0.37109 0.15625-0.57422-0.007812-0.22266-0.078125-0.42969-0.21484-0.61328-0.81641-1.0898-5.6875-3.5859-5.7344-3.6055l-3.4102-1.7305c-0.67969-0.35156-1.2539-0.75-1.75-1.2266-0.83594-0.78906-1.293-1.8086-1.332-2.957-0.007813-0.5625 0.078125-1.1484 0.28125-1.7188 0.75781-2.168 2.7617-3.3828 4.9961-3.0039 2.5078 0.41016 6.2617 1.7969 11.18 4.1133l0.17578 0.085937c0.66016 0.3125 1.5547 0.75 2.082 0.078125 0.15625-0.20312 0.23437-0.42969 0.23437-0.65234-0.019531-0.65234-0.71094-1.207-1.3125-1.6055-1.4766-1-3.0117-1.7305-4.3242-2.3125-2.1758-0.96094-4.5391-1.7891-7.2422-2.5078-0.61328-0.16406-1.0781-0.42969-1.5156-0.84375-0.88281-0.83594-1.3906-1.9648-1.418-3.168-0.019531-0.5625 0.058594-1.1289 0.24219-1.6836 0.64062-1.9648 2.293-3.3242 4.3242-3.5469 1.0977-0.11719 2.2656-0.058594 3.6641 0.20312 1.7891 0.32031 3.6172 0.83594 5.6094 1.5664l3.8398 1.4102c0.37891 0.13672 0.84375 0.019532 1.0977-0.29297 0.15625-0.18359 0.22266-0.39844 0.22266-0.62109-0.019531-0.62109-0.67969-1.1562-1.0703-1.4297-0.80859-0.53516-1.6914-1.0195-2.7305-1.4688-1.5273-0.66016-5.4648-2.2266-9.1289-2.3906-3.1289-0.13672-5.6758 0.97266-7.3867 3.2266-0.32031 0.41797-0.5625 0.83594-0.82812 1.2734l-0.29297 0.47656c-0.49609 0.80859-1.1289 1.4766-1.9336 2.2266-2.1016 1.9727-4.7227 3.2578-7.582 3.7148-0.96094 0.14453-1.8555 0.18359-2.7695 0.22266-0.64062 0.027344-1.1484 0.35156-1.3203 0.85547-0.039063 0.11719-0.058594 0.23438-0.046875 0.35156 0.007812 0.42969 0.3125 0.82812 0.76953 1.0117 0.63281 0.25391 1.3008 0.28125 1.875 0.27344 2.7305-0.027344 5.4727-0.85547 7.9219-2.3828 1.0898-0.67969 1.9258-1.332 2.6133-2.043 0.13672 1.2266 0.60156 2.3633 1.3711 3.3828-2.7891 1.1484-4.7148 4.1992-4.6172 7.3789 0.027344 1.0898 0.32031 2.1484 0.83594 3.0508-0.75 0.15625-1.4883 0.47656-2.2539 0.98047-2.1484 1.3984-3.4414 3.8789-3.3633 6.4648 0.007813 0.19531 0.019532 0.39844 0.046876 0.59375 0.37109 3.3242 2.8203 5.7344 4.3555 6.9492l-1.0508-0.26172c-4.0234-1-7.8047-2.9062-10.383-5.25-3.1875-2.8984-4.9688-6.5625-5.5898-11.527l-0.027344-0.23438c-0.078125-0.69922-0.17578-1.6641-0.96094-1.8086-0.28125-0.046874-0.54297 0.007813-0.76953 0.17578-0.58203 0.4375-0.75 1.457-0.77734 1.7695-0.039062 0.39844-0.046874 0.82812-0.039062 1.2656 0.058594 1.7305 0.49609 3.6953 1.207 5.4453l-3.6836-0.23437c-1.7891-9.8086-2.7695-21.074 0.50391-33.062l4.6562 0.81641c-0.63281 1.2344-1.6055 3.8477-1.5547 5.6289 0.019532 0.49609 0.11719 0.89453 0.29297 1.1953 0.29297 0.49609 0.66016 0.59375 0.91406 0.59375 0.39062-0.007812 0.73047-0.25391 0.90234-0.65234 0.17578-0.39844 0.28125-0.78906 0.39844-1.207l0.058593-0.21484c0.5625-1.9922 1.2656-3.6836 2.1484-5.1602 1.2539-2.1094 2.9766-3.9961 5.1016-5.5977 1.2344-0.93359 2.5195-1.7695 3.6367-2.4805 0.98047-0.63281 1.9453-1.2539 2.8867-1.9727 4.8594-3.7031 8.2227-8.3008 9.7227-13.297l0.78906-2.6523c0.26172-0.86328 0.71875-1.5156 1.3516-1.9648 2.1016-1.4688 4.9102-0.54297 6.6289 0.94141 1.9453 1.6719 3.0117 3.9648 3.0898 6.6289 0.058594 1.7891-0.35156 3.6641-1.1758 5.4062-0.75 1.5859-1.625 2.918-2.6914 4.0625l-2.3047 2.4883c-0.48438 0.53516-0.84375 1.0391-1.1289 1.5859-0.15625 0.32031-0.23438 0.65234-0.22266 0.98047 0.027344 1.1484 1.1172 2.082 2.0312 2.6523 1.0312 0.64062 2.207 1.0703 3.6836 1.3125 1.6719 0.28125 3.4805 0.39844 5.6875 0.37109 2.6523-0.039062 5.4336-0.13672 9.0312-0.33984l10.945-0.62109c3.6758-0.20312 7.8438-0.35938 10.84 0.085937 1.4961 0.22266 2.6328 0.59375 3.5977 1.1562 1.5859 0.94141 2.5664 2.6055 2.625 4.4609 0.027344 0.89453-0.16406 1.8086-0.55469 2.6328z"/> </svg>