<svg xmlns="http://www.w3.org/2000/svg" version="1.1" viewBox="5 6.12 90.03 87.77">  <path d="m81.129 23.582 5.1602-4.6406 8.7109-7.9219v-4.0195c-2.7695 2.4219-8.9297 8.0508-9.6992 8.7109-3.3203 2.8398-6.5586 5.75-9.7812 8.7188l-5.1094 4.6914-3.3398 3.0508c-2.7617-1.1016-5.6094-1.9102-8.5117-2.3984-1.7891-0.26953-3.5312-0.12891-5.2383 0.44141-1.2188 0.41016-2.3984 0.85156-3.6094 1.3711-2.3516-1.1406-4.9219-1.6094-7.5508-1.5312-2.5117 0.070312-5 0.44141-7.4609 1.0781l-3.3398-2.9492-3.5-3.0117-4.7109-3.9805-18.148-15.051v4l13.25 11.07 4.8711 4.1016 8.3789 7.1094c0.14844 0.12891 0.28125 0.19141 0.42188 0.32031-0.62109 0.28906-2.1992 1.3984-1.7188 2.1797 0.26953 0.42188 0.76172 0.44922 1.1797 0.30859l2.5508-0.80078c1.4414-0.44922 2.8906-0.71094 4.3711-0.98828 2.3906-0.35938 4.6797-0.55859 7.1289-0.12891-1.0312 0.42188-1.9609 0.80859-2.8203 1.4492-0.94922 0.71875-1.6992 1.6289-2.2109 2.7109l-1.3086 2.7383c-0.69141 1.4492-1.4883 2.8008-2.3281 4.1602-0.26953 0.46094-0.5 0.87109-0.71875 1.3594-0.82812 1.8516-0.46875 4.0195 0.92969 5.5 1.1406 1.2188 2.6211 2 4.2695 2.3203 0.80859 0.16016 1.6016 0.23047 2.4414 0.14844 2.6914-0.26172 5.1797-1.4883 7.1406-3.3516 0.94141-0.89844 1.7188-1.9297 2.4297-3.0117 0.10156-0.16016 0.51172-0.35938 0.69141-0.25 2.9219 1.8281 5.6797 3.8711 8.3711 6.0391 2.6289 2.1211 5.1914 4.3203 7.6914 6.5898 2.3906 2.1484 8.3086 7.8086 8.2305 11.09-0.050782 2-1.4492 3.7695-3.3281 4.3516-0.85156 0.26953-1.6719 0.12109-2.3906-0.37109-0.87109-0.58984-1.6602-1.2383-2.4688-1.9297l-6.1016-5.2305-5.8516-4.9492c-0.51172-0.44141-1.2891-1.0586-1.9297-0.53906-0.64844 0.53906-0.058594 1.5 0.37891 2.0312 0.57812 0.67969 1.1797 1.3008 1.8398 1.9102l6.5898 6.1016 3.3008 2.9805c0.76172 0.67969 1.5508 1.2617 2.3711 1.8594 0.35156 2.6719-1.9609 5.25-4.6094 5.4297-1.0781 0.078125-2.0898-0.37109-2.9883-0.89844-1.3398-0.78906-2.5312-1.7305-3.7305-2.6992-2.4805-2-4.8516-4.1016-7.2305-6.2109-0.60156-0.53125-1.1484-1.0391-1.7891-1.5117-0.32031-0.25-0.78906-0.42969-1.1797-0.28906-0.60156 0.21875-0.71094 0.94141-0.37891 1.4688 0.48828 0.78125 1.1211 1.4219 1.7695 2.0898 2.4688 2.5195 5.0508 4.8984 7.75 7.1719 1.0586 0.89063 2.1602 1.6719 3.3711 2.3711-0.62109 2.0117-2.4492 3.3516-4.5 3.4688-1.9609 0.10938-3.8086-0.87109-3.8086-0.87109s0.33984-2.8398-1.9414-4.9805c-1.8398-1.7305-3.8203-1.5195-3.8203-1.5195 0.011719-1.8789-0.62891-3.6484-1.9297-5.0195-0.76172-0.80078-1.7109-1.4102-2.7617-1.7617-0.53125-0.17187-1.0898-0.28125-1.6602-0.30859-0.14844 0-1.7188 0.019531-1.7188 0.14844-0.019532-0.53906-0.12891-1.0703-0.35156-1.5781-1.2383-2.8281-4.1602-4.6992-7.2617-4.6016-1.2383 0.03125-2.1094 0.46094-2.1094 0.46094s-0.14063-0.66016-0.5-1.3281c-1.2617-2.3398-3.7617-3.8203-6.4414-3.7891-1.3398 0.019531-2.6211 0.39844-3.7891 1.0391-1.2812-1.6992-1.9102-3.6719-2.25-5.7188-0.14062-0.60938-0.14844-2.0312-0.98828-2.0312-0.96094 0-1.0195 1.9414-0.92969 2.7305l-3.0312-1.8711-4.8789-3.1094-1.9492-1.3086v3.8711l3.7695 2.3906c1.8711 1.1797 3.75 2.2812 5.6797 3.3516 0.10938 0.058593 0.17969 0.17969 0.21875 0.28125 0.28125 0.75 0.62891 1.4492 1.0586 2.1211 0.050781 0.078126 0.03125 0.19922-0.03125 0.26953-0.82031 1.1914-1.2695 2.5703-1.3008 4.0312-0.03125 1.2695 0.14844 2.5117 0.69922 3.6602 0.92188 1.9609 2.5781 3.4297 4.6016 4.1719 0.39062 0.14062 0.73828 0.26953 1.1602 0.30859-0.51953 4.5508 4 8.8906 8.5195 8.4805l0.14844 0.46875c0.46094 1.5 1.6289 2.6289 2.8906 3.5703 1.9219 1.4297 4.3281 1.9805 6.6797 1.3516 0.35938 0.66016 0.85156 1.1797 1.4219 1.6602 3.8398 3.2383 9.9609 2.1797 12.422-2.1992 3.8281 1.6797 8.3281 0.62891 10.762-2.8086 0.35938-0.46094 0.62891-0.92969 0.82812-1.5 3.9805 0.78906 8.0391-2.3086 9.0703-6.0391 0.10156-0.35938 0.17188-0.69141 0.14844-1.0898 0.37109 0.039062 0.69922 0.03125 1.0781-0.019531 1.9883-0.30859 3.7305-1.3984 4.9414-3 1.5586-1.9492 2.0312-4.5195 1.1602-6.8789 1.6914-1.4414 3.0195-3.2109 3.8984-5.2383l3.75-2.3281 6.4219-4.3789v-3.9492l-0.94922 0.71875c-2.4297 1.8281-4.9688 3.4883-7.5 5.1797l-1.9414 1.2891c0.12891-0.73828 0.21875-3.0117-0.85156-3.0117-0.37891 0-0.60938 0.42188-0.69922 0.80078l-0.48828 2.2188c-0.5 2.25-1.4297 4.25-3.1094 5.9414-1.2109-2.1094-4.7891-5.8594-6.6016-7.4492l-4.6484-4.0898c1.2383-0.21094 3-0.98828 3.5586-2.1602 0.078125-0.21875 0.078125-0.44922-0.058594-0.62109-0.12891-0.14844-0.37109-0.23047-0.58984-0.17188l-1.4688 0.39063c-1.2109 0.32031-2.4492 0.48828-3.7109 0.33984-0.35156-0.039062-0.67188-0.33984-0.94922-0.55078-2.8008-2.1211-5.6016-4.1914-8.5703-6.1289 0.42188-0.33984 1.1719-1.3281 0.71094-1.75-0.14844-0.14062-0.37109-0.14844-0.58984-0.070313-1.3984 0.57031-4.3008 1.3086-4.3008 1.3086s-3.9102 6.0703-9.3398 6.1406c-1.2617 0.019531-2.4805-0.42188-3.3984-1.2812-0.57812-0.53906-0.98828-1.3398-0.87891-2.1289 0.078125-0.60156 0.42188-1.1094 0.73047-1.6289 0.87891-1.4414 1.7383-2.8398 2.4688-4.3711l1.5703-3.3008c0.37109-0.76953 0.94922-1.2617 1.7188-1.6094 1.2617-0.57813 2.5391-1.0195 3.8516-1.4883l3.6602-1.3086c2.0117-0.73047 3.3086-1.3906 5.5-0.98047 3.1797 0.60156 6.2617 1.5508 9.2305 2.8398 1.0508 0.46094 2.0117 0.98828 3.0117 1.5312 0.57812 0.30859 1.4102 0.94141 1.9414 0.41016 0.23047-0.23047 0.30078-0.57812 0.16016-0.89844-0.46875-0.96094-1.9492-2.0391-2.9102-2.5703l3.6797-3.2812 7.8984-7.2109zm-57.93 49.289c-0.35938 0.30078-0.78906 0.57031-1.2695 0.57812-0.85156 0.019531-1.5703-0.32812-2.25-0.76172-0.058594-0.03125-0.12109-0.070312-0.17188-0.10156-1.9883-1.3594-3.1094-5.1992-0.60156-6.6211 1.1914-0.67188 2.5312-0.89844 3.8906-0.87109 1.8984 0.039062 3.8984 1.5391 4.2109 3.4414 0.039063 0.28125-0.03125 0.53125-0.23047 0.76172-1.1211 1.2695-2.2695 2.4883-3.5781 3.5703zm7.7695 8.082c-0.51953 0.42188-1.1094 0.76953-1.7695 0.87109-1.0117 0.14062-1.9883-0.19141-2.8594-0.73828-1.6211-1.0195-2.6094-2.7305-2.3984-4.6406 0.03125-0.26953 0.12891-0.48047 0.32031-0.66016 1.0586-1 2.0508-2.0117 3.0312-3.0703 0.57031-0.62109 1.1094-1.1914 1.7188-1.7617 0.82031-0.76172 1.8594-1.25 3.0117-1.2305 1.8203 0.050782 3.4883 1.1797 4.25 2.8008 0.42969 0.94141 0.35937 1.8906-0.19141 2.7383-1.2383 1.9219-3.3281 4.2617-5.1094 5.6914zm9.4922 5.3086c-0.80078 0.69922-1.7695 1.1211-2.8711 1.1992-2.4219 0.17969-4.6016-1.4688-5.2695-3.7617 2.4219-1.9805 4.3906-4.5195 6.1914-7.0195 0.19141-0.26172 0.37109-0.53125 0.67188-0.64844 1.9688-0.85156 4.2109 0.28906 5.1016 2.2109 0.46094 0.98047 0.46094 2.0195-0.011718 3.0195-0.89844 1.9102-2.2188 3.6016-3.8086 5zm8.8008 3.0078c-1.0586 1.1992-2.7305 1.7891-4.3086 1.4805-1.3008-0.26172-2.3281-0.92188-3.0898-1.9414 2.0508-1.5195 3.6719-3.8789 4.8203-6.1211 2.0586-0.19141 3.75 1.4492 3.6484 3.5195-0.050781 1.1094-0.37109 2.1719-1.0703 3.0586z"/> </svg>