<svg xmlns="http://www.w3.org/2000/svg" version="1.1" viewBox="13.55 9.98 72.92 80.03">  <path d="m86.285 44.969c-0.30469-2.2734-0.83203-4.4844-1.4727-6.6758-0.66797-2.3242-1.5-4.8008-3.0547-6.6758 0.16406-2.4844-0.28516-5.6836-0.89453-8.0859-0.84375-3.3672-2.4258-7-4.9102-9.4688-1.9883-1.9688-4.5156-3.2383-7.2539-3.7539-1.2695-0.23438-2.5273-0.36719-3.8164-0.28516-2.9414 0.19141-5.5312 1.1172-7.6719 3.207-2-1.4609-4.7383-2.0508-7.1719-1.9883-1.7656 0.050781-3.5117 0.42578-5.1445 1.0859-2.5352 1.0234-4.6055 2.9219-5.8438 5.3594-1.6016-0.58984-3.7539-0.47656-5.3867-0.11328-4.2617 0.84375-8.0664 3.6133-9.2734 7.9453-4.3633 0.49609-8.5117 3.1953-10.047 7.4375-1.0156 2.9531-0.94531 5.5898-0.32422 8.6367 0.35547 1.7656 1.7266 5.0547 1.7266 5.0547s0.019531 0.4375 0.019531 0.66016c0.082031 2.8125 0.33594 5.5898 0.82031 8.3594 0.24219 1.3477 0.56641 2.6289 0.97266 3.9375 0.54688 1.7969 1.2773 3.5195 2.1719 5.1758 1.1367 2.0898 2.6094 3.957 4.375 5.5195 0.32422 0.28516 1.0039 0.82031 1.0039 0.82031s0.039063 0.36719 0.050781 0.57812l0.79297 11.203 0.125 1.7461c0.066406 0.91016 0.67969 1.6953 1.5547 1.9609 0.55078 0.16406 1.0977 0.32422 1.6484 0.47656 7 1.9492 13.617 2.9219 19.918 2.9219 6.4023 0 12.492-1.0039 18.305-3.0234 0.38281-0.13281 0.76172-0.26562 1.1367-0.40234 1.0156-0.37109 1.625-1.4141 1.4336-2.4766-0.074219-0.41406-0.15234-0.83984-0.22656-1.2695-0.74219-4.1289-1.5625-8.8086-1.7852-10.328-0.019531-0.11328-0.039062-0.29297-0.039062-0.29297s0.10156-0.082032 0.19141-0.13281c1.3203-0.84375 2.5586-1.7969 3.7344-2.8398 1.9297-1.7266 3.7148-3.5703 5.5-5.4492 1.2773-1.3477 2.5273-2.6875 3.7148-4.0977 2.2109-2.6289 3.8672-5.3164 4.75-8.6562 0.52734-2 0.66016-4.0078 0.375-6.0586zm-68.793-11.902c0.46875-0.93359 1.1172-1.7148 1.9062-2.4258 1.3477-1.1953 2.8906-1.8789 4.6758-2.1211 0.42578-0.0625 0.98438-0.03125 1.3594 0.12109 0.39453 0.15234 0.8125 0.039063 1.0742-0.29297 0.18359-0.22266 0.28516-0.49609 0.32422-0.80078 0.18359-1.1172 0.53906-2.1523 1.1484-3.1133 1.0547-1.6836 2.6992-2.8906 4.5742-3.543 2.2422-0.76953 4.7578-1.0859 6.9102 0.089844 0.23438 0.13281 0.52734 0.17188 0.78125 0.089843 0.44531-0.16406 0.73047-0.51562 0.89453-0.96484 0.83203-2.332 2.5586-4.1797 4.8594-5.125 1.2969-0.52734 2.6797-0.76953 4.0781-0.84375 0.73047-0.03125 1.3984 0.039062 2.1094 0.15234 1.7031 0.27344 3.2383 1.0156 4.5156 2.1523 0.39453 0.35547 0.94531 0.31641 1.3281-0.011718 0.26562-0.22266 0.47656-0.46484 0.71094-0.71875 1.6328-1.7539 3.8164-2.7383 6.2305-2.8203 1.3711-0.050781 2.75 0.11328 4.0781 0.46484 3.6719 0.99609 6.0664 3.6445 7.6016 7.0234 1.2383 2.7617 1.918 5.7031 2.1094 8.7578-0.95312-0.64062-2.2617-1.1172-3.5312-1.3477-0.64062-0.12109-1.918-0.18359-1.918-0.18359s0.36719-1.3711 0.45703-2.0508c0.14062-0.99609 0.13281-2.0195-0.082031-2.9727-0.12109-0.51562-0.48828-1.3984-1.125-1.1953-0.25391 0.070312-0.42578 0.28516-0.47656 0.57812-0.23438 1.2461-0.47656 2.4844-0.76172 3.7148-0.15234 0.64062-0.49609 1.9062-0.49609 1.9062s-0.31641 0.03125-0.49609 0.039062c-3.0352 0.17188-6.0391 0.34375-9.0703 0.61719-1.4922 0.12109-2.9336 0.31641-4.4258 0.60937-0.30469-3.1133 0.03125-6.0664 0.62891-9.1133 0.03125-0.4375-0.070313-0.8125-0.40625-1.0352-0.34375-0.22266-0.79297-0.22266-1.125 0.03125-0.66797 0.50781-1.0977 2-1.2969 2.8125-0.58984 2.4336-0.74219 4.9414-0.53906 7.4375 0.019532 0.22266 0.050782 0.58984 0.050782 0.58984s-1.2695 0.66016-1.8281 1.0977c-1.0977 0.85156-1.9375 1.9883-2.4648 3.3164-0.47656 1.1875-0.66016 2.457-0.64844 3.7344 0.03125 3.043 1.3711 5.8945 3.7539 7.832-3.0742 1.1992-6.6367 0.17187-8.6133-2.3945-2.6484-3.2773-3.5195-11.559-3.5-15.617l0.011719-2.75c0-0.31641-0.11328-0.64844-0.36719-0.85156-0.4375-0.34375-1.0547-0.20312-1.3789 0.24219-0.58984 0.85156-0.75 3.0938-0.78125 4.1602-0.10156 3.6328 0.31641 7.2461 1.2188 10.777 0.33594 1.2891 0.74219 2.5586 1.3281 3.7539 0.55859 1.1367 1.543 2.5586 2.5859 3.3398-1.4492 1.8672-3.7539 2.6797-6.0391 2.5859-1.0859-0.039062-2.0703-0.30469-3.0234-0.83203-1.1367-0.61719-2.1094-1.4805-2.8711-2.5469-2.4062-3.2969-3.5703-8.4219-4.25-12.398-0.10156-0.59766-0.20312-1.5-1.0469-1.4922-0.93359 0-1.0664 1.2969-1.0859 2.0312-0.019532 0.93359 0.0625 1.8281 0.20312 2.7617 0.36719 2.3945 0.98438 4.7266 1.9375 6.9688 0.93359 2.1719 2.1719 4.4258 4.0469 5.8867-0.40625 0.61719-0.85156 1.1758-1.4727 1.582-0.97266 0.64844-2.0898 0.99609-3.2656 1.0039-0.88281-0.050781-1.6953-0.19141-2.5078-0.53906-2.9336-1.2695-5.0039-4.1719-6.1914-7.0508-1.3711-3.3477-2.1094-7.7617-0.41406-11.109zm63.242 22.203c-0.58984 0.89453-1.207 1.7539-1.9062 2.5781-2.0703 2.4258-4.25 4.7266-6.5039 6.9805-1.1758 1.1758-2.3945 2.293-3.7031 3.3281-3.3984 2.6797-7.0234 3.8672-11.262 4.4648-0.52734 0.082031-1.3477 0.18359-1.4609 0.86328-0.11328 0.66797 0.60937 1.1055 1.207 1.2383 0.60938 0.13281 1.2188 0.20312 1.8555 0.15234 2.1211-0.14062 4.1797-0.64062 6.1484-1.4727l1.8555 10.543c-11.355 4.0469-23.812 4.0078-37.938-0.10156l-0.80078-10.055-0.0625-0.90234s0.91406 0.49609 2.2617 0.94531c1.25 0.40625 2.8398 0.76172 4.3516 0.66016 0.4375-0.039063 0.84375-0.18359 1.1562-0.46484 0.32422-0.28516 0.31641-0.74219 0.03125-1.0469-0.24219-0.25391-0.55859-0.38672-0.91406-0.48828-2.4844-0.73047-4.8008-1.3789-7.0312-2.8008-2.2031-1.4102-3.9961-3.3672-5.3477-5.6094-2.1602-3.6133-3.1953-7.9961-3.6719-12.145-0.039062-0.375-0.14062-1.168-0.14062-1.168s1.4727 1.6641 3.1133 2.5977c1.8867 1.0859 4.0781 1.543 6.332 1.0664 2.1289-0.39453 4.25-1.7461 5.3477-3.6523 3.918 2 9.3359 0.75 12.035-2.668 0.0625-0.070312 0.16406-0.19141 0.16406-0.19141s0.12109 0.070313 0.20313 0.11328c1.1367 0.55859 2.3633 0.82031 3.6719 0.87109-3.6445 3.1055-6.2695 7.6719-6.4844 12.461-0.03125 0.88281 0.089843 2.4336 1.2383 2.4062 0.83203-0.019532 1.0156-1.0234 1.0664-1.6953 0.25391-3.0352 1.2969-5.875 3.0547-8.3594 2.1094-2.9844 3.9883-4.5547 7.2539-6.2109 0.22266-0.12109 0.21484-0.16406 0.46484-0.0625 2.0703 0.79297 4.293 1.1484 6.5234 1.0156 0.66797 1.6328 2.4141 2.9336 4.0469 3.4609 0.44531 0.14062 1.207 0.20312 1.3789-0.33594 0.0625-0.21484-0.019531-0.38672-0.16406-0.53906-0.31641-0.34375-0.66016-0.61719-1.0039-0.93359-0.66016-0.59766-1.2578-1.25-1.7656-2.0195 1.25-0.24219 2.4648-0.64062 3.543-1.2891 0.51562-0.31641 1.582-1.1758 1.1484-1.8281-0.12109-0.18359-0.35547-0.24219-0.58984-0.20312-0.34375 0.050781-0.66016 0.13281-0.99609 0.23437-3.1758 0.95313-6.8984 1.0469-10.098 0.10156-2.4258-0.71875-4.6562-2.2422-5.6406-4.6484-0.64844-1.582-0.76172-3.3281-0.28516-4.9609 0.47656-1.6641 1.6836-2.9336 3.2891-3.543 1.3984-0.53906 3.8555-0.8125 5.3984-0.94531 3.2383-0.28516 6.4648-0.49609 9.7109-0.67969 0.97266-0.050781 1.8867-0.039062 2.8516 0.050781 2.332 0.21484 4.5352 1.3398 5.9258 3.2578 0.78125 1.0742 1.2969 2.293 1.7344 3.543 0.87109 2.5664 2.1016 7.1211 2.1328 9.7812 0.019531 2.9922-1.1055 5.8242-2.7305 8.3086z"/></svg>