<svg xmlns="http://www.w3.org/2000/svg" version="1.1" viewBox="21.37 4.97 57.27 90.05">  <path d="m78.43 55.891c-0.25391-2.0039-0.89844-3.875-2.0586-5.5273-0.625-0.89844-1.293-1.7109-2.0703-2.4961-2.0586-2.0703-4.2812-3.9219-6.6602-5.6602-0.35938-1.1133-0.77344-2.1719-1.2383-3.2578l-1.5859-3.7812c-1.2188-2.8711-2.4766-5.7148-3.8945-8.4961-0.15234-0.29297-0.09375-0.30078 0.066406-0.56641 1.3398-2.2852 2.5781-4.6484 3.6367-7.0977 1.1914-2.7773 2.0508-5.9258 1.2461-8.918-0.3125-1.1328-0.89844-2.1719-1.7305-2.9961-2.5234-2.4648-6.4062-2.7773-9.3359-0.83984-1.5312 1.0117-2.8242 2.332-3.8086 3.8828-2.5703-2.6836-6.2188-3.6484-9.6484-2.2109-3.7969 1.7656-5.0625 5.5195-4.3164 9.4883 0.74609 3.9766 3.1289 8.0117 5.1484 11.535-0.55859 1.5039-1.0508 3.0156-1.4922 4.5742-0.44531 1.5391-1.2383 4.5938-1.2383 4.5938s-3.8555-0.26563-6.6328 1.9922c-2.0508 1.6641-3.3906 4.1875-3.4688 6.8984-2.9102 0.37891-5.9414 2.75-7.0781 5.4062-1.5195 3.543-1.0781 7.5664 1.0586 10.754 0.49219 0.73828 1.0391 1.3984 1.6523 2.0781 1.5391 5.2617 4.2812 11.414 8.0234 15.477 1.0117 1.0977 2.1055 2.0977 3.2891 2.9688 1.0781 0.79297 3.457 2.0391 3.457 2.0391s0.14062 0.38672 0.21875 0.625c0.27344 0.87891 0.93359 3.0703 1.5586 5.1133 0.18359 0.59375 0.35938 1.1758 0.52344 1.7109 0.24609 0.80078 0.93359 1.3945 1.7656 1.4922 0.58984 0.070313 1.1797 0.125 1.7734 0.16797 1.3125 0.11328 2.6367 0.16016 3.957 0.16016 8.5703 0 17.113-2.2031 24.605-6.3789 0.36328-0.20312 0.72656-0.41016 1.082-0.62109 0.85938-0.50781 1.2734-1.5352 0.96875-2.4883-0.12891-0.41016-0.25781-0.81641-0.38281-1.2266-0.69922-2.2773-1.3711-4.5625-2.0039-6.8672 2.8164-4.6484 4.25-11.113 4.707-16.449 0.15234-1.7188 0.11328-3.3828-0.10547-5.0742zm-21.184-47.762c1.6523-0.65234 3.5625-0.29297 4.8477 0.93359 1.5508 1.4844 1.4453 3.957 0.95312 5.8945-0.45312 1.7188-1.0977 3.3359-1.9102 4.9219l-1.8438 3.6016c-1.3711-2.6562-2.7109-5.1953-4.1875-7.7305-0.69141-1.1992-1.4062-2.332-2.2383-3.4492 1.1055-1.7383 2.4766-3.3438 4.375-4.1758zm-17.426 8.7695c-0.47266-2.5234 0.15234-5.1289 2.6094-6.332 1.418-0.69141 3.0508-0.67188 4.4805 0.007813 2.1719 1.0469 3.7148 3.0625 5 5.0547 1.1719 1.8242 2.2109 3.7148 3.2109 5.6484 2.3242 4.4141 4.5156 8.8828 6.4727 13.473l2.3047 5.4141c-2.3047-1.0977-4.7539-1.2656-7.1445-0.45312l-4.9336 1.8047c-0.11328-0.36719-0.27344-0.70703-0.47266-1.0859l-2.4766-4.6953-4.6211-8.6367c-1.6172-3.0156-3.8164-6.8789-4.4297-10.203zm3.3633 17.98 0.82031-2.8711 3.1641 5.9531 1.8789 3.5352c0.12109 0.23438 0.21875 0.44531 0.43359 0.66016 0 0-3.2969 0.67188-3.3359 0.67969-0.46484-1.0391-1.918-2.6445-4.1016-3.8359l1.1328-4.1211zm-16.156 28.336c-0.87891-0.80469-1.5117-1.7383-2.0117-2.8242-0.87891-1.8906-1.0195-4.043-0.41406-6.0469 0.51172-1.7188 1.6914-3.0703 3.25-3.9102 2.6562-1.4453 3.9688-0.33984 4.5625-1.1914 0.21875-0.3125 0.15234-0.66016-0.019531-0.97266-0.22656-0.44531-0.21875-0.94531-0.1875-1.4648 0.14062-2.2695 1.5703-4.25 3.5625-5.3008 1.7305-0.92578 3.7812-1.0391 5.5078-0.09375 1.1719 0.64062 1.8789 1.5781 2.6094 2.1445-1.2188 0.59375-2.0977 1.6523-2.4375 3.0156-0.71875 2.8828 0.51172 6.0547 2.5312 8.1367 1.5312 1.5586 3.4766 2.6172 5.5469 3.1445-0.33984 1.5977-1.3984 2.8242-2.957 3.3359-1.1719 0.38672-2.6836 0.25391-3.6562-0.60547-0.40625-0.35938-0.51172-1.0195-0.80469-1.4922-1.3984-2.3047-2.9688-4.4688-4.8477-6.3984-0.625-0.64062-1.9844-2.0781-2.8906-1.7852-0.25391 0.085938-0.44531 0.25391-0.51172 0.47266-0.085937 0.24609 0 0.49219 0.17188 0.69922l1.3984 1.7578c1.5977 2.0234 3.8359 4.9414 4.8555 7.2656 0.45312 1.0117 0.40625 2.0898-0.11328 3.0703-0.93359 1.7773-3.0234 2.6094-4.9883 2.0781-1.1055-0.29297-2.0234-0.79297-2.9297-1.4453-1.2188-0.87891-2.2852-1.8906-3.3633-2.9492-0.43359-0.43359-0.83203-0.85938-1.3398-1.1992-0.16016-0.11328-0.37891-0.13281-0.53906-0.046875-0.65234 0.35938 0.38672 2.457 0.69141 3.0156-0.27344-0.085938-0.47266-0.23438-0.67188-0.40625zm47.934 2.7891c-0.67188 3.5234-1.9648 7.6328-3.9492 10.641-0.17188 0.25391-0.24609 0.53906-0.16016 0.83203l0.37891 1.2656 1.1523 4.0898c0.28516 1.0195 0.58594 2.0312 0.89844 3.0312-8.5977 4.9414-18.707 7.0781-28.574 6.0469-0.59375-1.957-1.2383-4.0742-1.4922-4.8672-0.10547-0.3125-0.16016-0.51172-0.27344-0.82031 1.3242 0.36719 2.543 0.51172 3.8828 0.39844 0.625-0.066406 1.7188-0.33984 1.6719-1.0781-0.046875-0.65234-1.0781-0.8125-1.625-0.85938-3.7148-0.33984-7.2383-1.7773-10.055-4.2227-2.1719-1.8789-3.8828-4.1875-5.2734-6.6992-0.72656-1.332-1.3906-2.7031-1.9766-4.1016-0.66016-1.5703-1.4727-5-1.4727-5s3.5508 4.0547 7.3242 4.4688c2.1836 0.23438 4.375-0.42578 5.9336-1.9453 0.95313-0.94531 1.6172-2.1055 1.7852-3.4492 0.74609 0.34766 1.5312 0.45312 2.3711 0.43359 2.7578-0.046875 5.2812-1.832 6.2734-4.4023 0.1875-0.49219 0.33203-0.94531 0.33984-1.5039 1.1133 0.16016 2.2695 0.074219 3.3906-0.16016-1.2188 1.6055-2.2695 3.2305-3.0039 5.082-1.2188 3.0625-1.5977 6.8203-0.27344 9.9219 0.24609 0.57812 1.1055 2.0586 1.7461 1.9766 0.54688-0.085937 0.8125-0.67188 0.625-1.1719-1.4062-3.875-0.89844-7.957 0.93359-11.602 0.8125-1.6055 1.8438-3.043 2.9844-4.4141 1.1445 1.1992 3.4492 2.0508 5.0352 2.1836 0.64062 0.046875 2.0898-0.046875 2.0586-0.85156-0.007813-0.21875-0.1875-0.41406-0.42578-0.48047l-2.1836-0.69141c-1.3516-0.42578-2.5117-1.2578-3.4023-2.3711 0.35938-0.35938 1.3125-1.2852 0.75781-1.7383-0.12109-0.10547-0.34766-0.085937-0.53906 0.007813-2.1367 1.0781-4.4805 1.7305-6.9062 1.6641-1.8633-0.046876-3.7305-0.56641-5.3008-1.5391-2.3711-1.4531-4.2148-4.4141-3.3633-7.1719 0.17969-0.55859 0.51953-0.90625 1.0664-1.0977 0.88672-0.29297 1.7852-0.43359 2.7227-0.60547 2.1367-0.37891 4.1875-0.87891 6.2188-1.625l3.3242-1.2188c2.6367-0.97266 5.1211 0 7.3711 1.4258 1.4453 0.91797 2.7695 1.957 4.0547 3.082l1.6328 1.418c1.0977 0.96484 2.0703 2.0039 2.9766 3.1562 1.0859 1.3984 1.7305 2.9492 1.9453 4.7148 0.42578 3.3633 0.019532 6.5195-0.61328 9.8438z"/></svg>