<svg xmlns="http://www.w3.org/2000/svg" version="1.1" viewBox="9.81613 5.00845 80.3622 89.9994">
 <path d="m85.656 48.125c-1.9141-1.3789-4.2305-2.1562-6.668-2.2266-0.39844-0.019532-0.80859-0.007813-1.207 0.019531-2.4297 0.15625-4.8398 0.95312-7.1641 2.3633-1.3125 0.79688-2.6055 1.7969-4.0625 3.1406l-0.3125 0.29297c-0.41016 0.39844-1.6836 1.5352-1.6836 1.5352s-0.61719-0.62891-0.93359-1.7578c-0.60547-2.1562-0.67188-6.1133-0.55469-8.8555l0.4375-9.5742 0.53516-10.449c0.13672-2.625 0.14453-4.6758 0.027343-6.6289-0.085937-1.6328-0.30078-3.0117-0.67187-4.3242-1.0391-3.6562-3.7617-6.1133-7.2891-6.582-0.29297-0.039063-0.57422-0.058594-0.85547-0.066406-2.7422-0.078125-5.2578 1.1367-6.9102 3.3555-1.7773 2.3633-2.2461 5.5703-2.4492 8.1055-0.15625 1.8555-0.20312 3.7227-0.23438 5.4453-0.078125 4.5781-0.046875 9.2148-0.019531 13.695v0.80859c-1.2266-0.67188-2.6445-1.0508-4.1133-1.0977-2.6914-0.078125-5.5039 0.95312-7.5156 2.7617-1.0117 0.875-1.8086 1.8945-2.3906 3.043-0.73047-0.23438-1.5078-0.37109-2.3047-0.39062-2.8398-0.085937-5.8047 1.207-7.7266 3.3633-0.6875 0.73438-1.2383 1.5703-1.6367 2.4727-0.22266 0.50391-0.51172 1.5703-0.51172 1.5703s-1.8516 0.19141-3.0664 0.70312c-1.168 0.49219-2.2852 1.1914-3.2422 2.0781-1.8359 1.6914-2.957 3.8867-3.2383 6.3672-0.33984 3.1289 0.42969 5.9688 2.3242 8.6016 0.48438 3.375 1.3984 6.582 2.7109 9.5352 1.8477 4.1406 4.5898 7.4258 8.1562 9.7695 0.007812 0.12109 0.21484 4.6367 0.21484 4.6367l0.070313 1.5664c0.039062 0.84375 0.65234 1.5469 1.4805 1.7031l1.7461 0.32812c5.0859 0.89453 10.547 1.5742 16.312 1.5742 5.4531 0 11.168-0.60156 17.07-2.1953 0.46484-0.12109 0.92969-0.24609 1.3945-0.38281 0.89062-0.26172 1.4609-1.1328 1.3086-2.0508l-0.22656-1.3477-0.91406-5.3672c3.2188-2.3633 5.5391-5.6484 7.0195-7.9219l0.29297-0.45703c0.82812-1.2344 1.6055-2.4102 2.5-3.5586 2.3125-2.957 5.1016-5.3086 8.0586-6.8047 1.2812-0.64062 2.6836-1.168 4.3945-1.6523 0.77734-0.22266 1.5742-0.44531 2.3633-0.78906 2.2852-1 3.7734-3.082 3.9766-5.5781 0.28125-3.3164-1.3516-6.5117-4.4922-8.7695zm0.78516 10.488c-0.44531 0.63281-1.0977 1.0898-1.9648 1.3516l-2.6523 0.78906c-4.9961 1.4961-9.5938 4.8594-13.297 9.7227-0.71875 0.94141-1.3398 1.9062-1.9727 2.8867-0.71094 1.1172-1.5469 2.4023-2.4805 3.6367-1.6055 2.1289-3.4883 3.8477-5.5977 5.1016-1.4766 0.88281-3.168 1.5859-5.1602 2.1484l-0.21484 0.058594c-0.41797 0.11719-0.80859 0.22266-1.207 0.39844-0.39844 0.17578-0.64062 0.51562-0.65234 0.90234 0 0.25391 0.097656 0.62109 0.59375 0.91406 0.30078 0.17578 0.69922 0.27344 1.1953 0.29297 1.7773 0.046875 4.3945-0.92188 5.6289-1.5547l0.81641 4.6562c-11.984 3.2773-23.254 2.293-33.062 0.50391l-0.23437-3.6836c1.75 0.71094 3.7148 1.1484 5.4453 1.207 0.4375 0.007813 0.86328 0 1.2656-0.039062 0.3125-0.027344 1.332-0.19531 1.7695-0.77734 0.16406-0.22266 0.22266-0.48438 0.17578-0.76953-0.14453-0.78906-1.1094-0.88281-1.8086-0.96094l-0.23438-0.027344c-4.9688-0.62109-8.6328-2.4023-11.527-5.5898-2.3438-2.5742-4.25-6.3594-5.25-10.383l-0.26172-1.0508c1.2148 1.5352 3.625 3.9844 6.9492 4.3555 0.19531 0.027344 0.39844 0.039063 0.59375 0.046875 2.5859 0.078125 5.0664-1.2148 6.4648-3.3633 0.50391-0.76953 0.82812-1.5078 0.98047-2.2539 0.90234 0.51563 1.9648 0.80859 3.0508 0.83594 3.1797 0.097656 6.2305-1.8281 7.3789-4.6172 1.0195 0.76953 2.1562 1.2344 3.3828 1.3711-0.71094 0.69141-1.3594 1.5273-2.043 2.6133-1.5273 2.4492-2.3516 5.1914-2.3828 7.9219-0.007812 0.57422 0.019532 1.2461 0.27344 1.875 0.18359 0.45703 0.58203 0.75781 1.0117 0.76953 0.11719 0.007812 0.23438-0.007813 0.35156-0.046875 0.50391-0.17578 0.82812-0.67969 0.85547-1.3203 0.039062-0.91406 0.078125-1.8086 0.22266-2.7695 0.45703-2.8594 1.7383-5.4844 3.7148-7.582 0.75-0.80859 1.418-1.4375 2.2266-1.9336l0.47656-0.29297c0.4375-0.26172 0.85547-0.50391 1.2734-0.82812 2.2539-1.7109 3.3633-4.2578 3.2266-7.3867-0.16406-3.6641-1.7305-7.6016-2.3906-9.1289-0.44531-1.0391-0.93359-1.9258-1.4688-2.7305-0.27344-0.39062-0.80859-1.0508-1.4297-1.0703-0.22266 0-0.4375 0.066406-0.62109 0.22266-0.3125 0.25391-0.42578 0.71875-0.29297 1.0977l1.4102 3.8398c0.73047 1.9922 1.2461 3.8203 1.5664 5.6094 0.26172 1.3984 0.32031 2.5664 0.20312 3.6641-0.22266 2.0312-1.5859 3.6836-3.5469 4.3242-0.55469 0.18359-1.1172 0.26172-1.6836 0.24219-1.207-0.027344-2.332-0.53516-3.168-1.418-0.41797-0.4375-0.67969-0.90234-0.84766-1.5156-0.71875-2.7031-1.5469-5.0664-2.5078-7.2422-0.58203-1.3125-1.3125-2.8477-2.3125-4.3242-0.39844-0.60156-0.95312-1.293-1.6055-1.3125-0.22266 0-0.44531 0.078125-0.65234 0.23438-0.67187 0.52344-0.23437 1.418 0.078126 2.082l0.085937 0.17578c2.3125 4.918 3.7031 8.6719 4.1133 11.18 0.37891 2.2344-0.83594 4.2383-3.0039 4.9961-0.57422 0.20312-1.1562 0.29297-1.7188 0.28125-1.1484-0.039063-2.168-0.49609-2.957-1.332-0.47656-0.49609-0.875-1.0703-1.2266-1.75l-1.7305-3.4141c-0.019532-0.046875-2.5195-4.918-3.6055-5.7344-0.18359-0.13672-0.39062-0.20312-0.61328-0.21484-0.20313-0.007812-0.39844 0.046875-0.57422 0.15625-0.875 0.53516-0.23438 1.8281 0 2.3125l4.1914 8.457c0.21484 0.42578 0.39844 0.81641 0.49609 1.2539 0.23438 0.99219 0.007812 2.0703-0.63281 3.0312-0.90234 1.3516-2.4023 2.1289-3.9961 2.082-0.37109-0.007813-0.73828-0.066406-1.0898-0.15625-2.2344-0.60156-4.043-2.7109-4.9297-3.918l-0.79688-1.0898-1.4688-2.3516c-0.14453-0.23438-0.63672-0.80078-1.0117-0.4375-0.15625 0.15234-0.21484 0.39844-0.21484 0.55469 0 0.22266 0.019531 0.44531 0.058594 0.66016-1.3008-2.4297-1.4297-5.3281-0.29297-7.7852 0.93359-2.0312 2.8789-3.5586 5.1992-4.082 0.47656-0.10547 0.96094-0.14453 1.4883-0.13672 0.44141 0.007812 0.91406 0.17969 1.3438 0.0625 0.28125-0.078126 0.53906-0.27734 0.63672-0.55469 0.078124-0.22656 0.042968-0.47656 0.027343-0.71875-0.10547-1.5898 0.71875-3.0391 1.832-4.1133 1.3789-1.332 3.1602-2.0703 5.0078-2.0703h0.21484c0.74609 0.023438 1.4805 0.17578 2.1758 0.44141 0.27344 0.10547 0.55859 0.21484 0.8125 0.35547 0.34375 0.19531 0.75 0.38281 1.1484 0.25391 0.32422-0.10547 0.55859-0.42578 0.61328-0.76172 0.039062-0.23047 0-0.46484 0.015625-0.69922 0.035156-0.71875 0.48828-1.4609 0.94141-2 1.625-1.9336 4.0039-3.043 6.3672-2.9766 0.46484 0.019531 0.94141 0.078124 1.3984 0.18359 1.6992 0.39844 3.1211 1.5 4.2695 2.7734 0.16406 0.18359 0.33203 0.375 0.56641 0.45312 0.33203 0.11328 0.71484-0.0625 0.92578-0.34375 0.20703-0.28516 0.26953-0.65234 0.26172-1.0039-0.019531-0.70703-0.15234-1.4102-0.17187-2.1211-0.019532-0.73047-0.011719-1.4648-0.019532-2.1953-0.015625-1.2656-0.027344-2.5312-0.035156-3.7969-0.015625-2.2578-0.019531-4.5195-0.003906-6.7773 0.007812-1.2578 0.023437-2.5156 0.042968-3.7773 0.046876-2.6445 0.14453-5.6758 0.71094-8.2734 0.30078-1.3789 1.1289-3.8594 3.2852-4.8594 0.82812-0.39062 1.7383-0.58203 2.6328-0.55469 1.8555 0.058593 3.5195 1.0391 4.4609 2.625 0.5625 0.96094 0.93359 2.1016 1.1562 3.5977 0.44531 2.9922 0.29297 7.1641 0.085938 10.84l-0.62109 10.945c-0.20312 3.5977-0.30078 6.375-0.33984 9.0312-0.027344 2.207 0.085938 4.0156 0.37109 5.6875 0.24219 1.4766 0.67188 2.6523 1.3125 3.6836 0.57422 0.91406 1.5078 2.0039 2.6523 2.0312 0.33203 0.007813 0.66016-0.066406 0.98047-0.22266 0.54297-0.28125 1.0508-0.64062 1.5859-1.1289l2.4883-2.3047c1.1484-1.0703 2.4805-1.9453 4.0625-2.6914 1.7383-0.82812 3.6172-1.2344 5.4062-1.1758 2.6641 0.078124 4.957 1.1484 6.6289 3.0898 1.4883 1.7188 2.4102 4.5312 0.94141 6.6289z"/></svg>