<svg xmlns="http://www.w3.org/2000/svg" version="1.1" viewBox="7.05 4.97 85.87 90.05">  <desc>Created by Lewen Design, downloaded from Noun Project. They can be found at this link: https://thenounproject.com/browse/collection-icon/hand-and-gesture-191281/ (CC BY 3.0)</desc><path fill="currentColor" d="m79.215 19.77c0.23438 0 0.46875-0.054687 0.6875-0.16797l10.273-5.2734c0.43359-0.22266 0.73438-0.64062 0.80078-1.125 0.070313-0.48438-0.097656-0.96875-0.45312-1.3047l-5.7734-5.4844c-0.35938-0.33984-0.86328-0.48437-1.3477-0.38281s-0.88672 0.43359-1.0781 0.89062l-4.5 10.758c-0.24219 0.58203-0.097657 1.2578 0.36719 1.6875 0.28516 0.26172 0.65234 0.39844 1.0234 0.39844zm5.0469-9.668 2.6523 2.5195-4.7188 2.4219zm8.0586 10.656c-0.39453-0.30078-0.90625-0.38672-1.375-0.23437l-8.6055 2.7773c-0.60156 0.19531-1.0195 0.74609-1.043 1.3828-0.023437 0.63281 0.35547 1.2148 0.94531 1.4492l8.3281 3.332c0.17969 0.070312 0.37109 0.10938 0.55859 0.10938 0.28516 0 0.57031-0.082031 0.81641-0.23828 0.41016-0.26563 0.66797-0.71094 0.6875-1.1953l0.27734-6.1094c0.023438-0.49219-0.19922-0.96484-0.58984-1.2656zm-2.5977 5.1211-2.4922-0.99609 2.5742-0.82812zm-18.664-10.152c0.23438 0.5625 0.78516 0.92578 1.3906 0.92578h0.074219c0.63281-0.03125 1.1797-0.45312 1.3672-1.0625l2.6562-8.6445c0.14453-0.47266 0.050781-0.98437-0.25391-1.3711-0.30469-0.38672-0.78516-0.59766-1.2734-0.57422l-6.1016 0.36328c-0.48828 0.027344-0.92969 0.29297-1.1875 0.70312-0.25781 0.41406-0.30078 0.92578-0.11328 1.375l3.4453 8.2812zm1.9688-7.5898-0.79297 2.5859-1.0312-2.4766zm6.3242 27.652c-0.058593-0.03125-0.12109-0.050781-0.12109-0.050781s2.6133-3.4492 0.81641-7.3008c-1.4258-3.043-4.457-5.0273-7.9062-4.3281-0.10938-1.0273-0.54688-2.0039-1.1758-2.8516-1.9453-2.6016-5.3164-3.5703-8.3789-2.4922-1.5742 0.55859-2.9922 1.4766-4.1875 2.6719-2.1328-1.8359-5.7344-2.0742-8.1289-0.70703-0.25781-1.8438-1.1562-3.5117-2.6523-4.5977-2.5742-1.8945-6.4609-1.8945-8.8672 0.33984-2.2422 1.9648-3.1914 5.1641-3.6797 8.0078-2.1055-3.3203-6.0117-5.3438-9.8945-4.2891-3.8281 1.0586-5.8555 4.4062-5.2656 8.3086l0.55859 3.7695c0.39062 2.5547-0.32812 5.9141-1.375 8.2266l-1.2852 2.8438c-0.6875 1.5469-1.3555 3.0625-1.875 4.6875-1.4766 4.6367-1.8359 9.7539-0.78906 14.539l-1.1484 1.3555c-1.6562 1.9453-3.3906 3.8203-5.1562 5.6562-0.39453 0.40625-0.78906 0.8125-1.1875 1.2148-0.62109 0.63672-0.75 1.6055-0.30859 2.3789 0.26172 0.46094 0.53906 0.91797 0.83594 1.3711 4.418 6.9414 11.777 13.176 22.656 19.266 0.39062 0.22266 0.78125 0.44141 1.1797 0.66016 0.85156 0.46875 1.9102 0.26562 2.5234-0.48828 0.29297-0.35547 0.58203-0.71875 0.87109-1.0781 0.80859-1.0273 1.6172-2.0625 2.4219-3.1016l0.12891-0.16797c0.55859-0.72266 3.7227-5.0156 4.2734-5.7422 0.03125-0.042969 0.054687-0.074219 0.054687-0.074219s0.10156-0.011718 0.25-0.011718c4.0586-0.16797 8.0273-2.1328 11.16-4.6562 2.0938-1.6836 3.9688-3.6016 5.7031-5.6445 0.4375-0.50781 0.89844-0.88672 1.418-1.3047l3.8594-3.0898c1.9141-1.5352 3.6719-3.2031 5.3047-5.0156 0.9375-1.0391 1.7461-2.1328 2.4219-3.3398 1.1484-2.0352 1.625-4.3789 0.57031-6.5625 1.5742-0.94922 3.5586-2.4648 5.1172-0.64844 1.6641 2.0234 0.89844 4.5078-0.48828 6.4531-0.80859 1.1367-1.7266 2.1523-2.7539 3.1016l-4.3086 3.9805c-1.1484 1.0469-2.2422 2.1055-3.2422 3.2812-0.6875 0.80859-1.2383 1.6641-1.875 2.5117-1.3047 1.7148-2.7109 3.3008-4.3398 4.707-1.418 1.2266-2.9609 2.1836-4.6875 2.9023-0.92578 0.39062-1.8438 0.66016-2.8008 0.96875-0.54688 0.16797-1.3867 0.52734-1.2578 1.2148 0.039062 0.21875 0.23047 0.42969 0.48047 0.53906 0.84766 0.36719 1.8555 0.058594 1.8555 0.058594s-0.019531 0.070312-0.039062 0.12109c-0.69922 2.1328-1.2656 4.2773-1.8164 6.4531-0.19141 0.74219-0.37891 1.4688-0.55078 2.1953-4.0703 0.050781-8.1836-0.75-12.016-2.3398-0.46484-0.19141-1.0117 0.003906-1.2422 0.46094-0.24219 0.48047-0.050781 1.0664 0.42969 1.3125 4.2422 2.1484 8.9961 3.4062 13.84 3.5469h0.015625c0.8125 0.003906 1.5234-0.55469 1.7148-1.3477 0.015625-0.0625 0.027343-0.11719 0.039062-0.16406 0.61719-2.5742 1.2266-5.1055 1.9648-7.6406l0.83594-2.8516c3.3125-1.2578 6.1328-3.7578 8.3867-6.4219 0.97656-1.1484 1.8555-2.3438 2.7422-3.5586 1.4258-1.9453 3.6992-4.0273 5.5156-5.6641 1.875-1.6836 3.8281-3.4492 5.3555-5.4531 0.71875-0.94922 1.2852-1.9336 1.6953-3.0625 1.125-2.7617 0.37891-6.1016-2.0352-7.8984 1.8047-1.875 3.332-3.8008 3.9883-6.332 0.48047-1.9844 0.26953-4.1094-0.77734-5.8633-0.79688-1.3359-1.9453-2.4219-3.3906-2.9531zm-9.75-7.5195c1.625-1.0781 3.3594-1.7852 5.2852-1.0586 1.125 0.48828 1.9141 1.3867 2.3945 2.5039 0.72656 1.7148 0.26953 3.0117-0.58984 4.5586-0.41016 0.64844-0.81641 1.2578-1.3047 1.8438-1.0781 0.54687-2.0859 1.1758-3.0117 2.0352-0.80859-0.89844-1.8359-1.6055-3.0312-1.9258 0.52734-0.89844 0.91797-1.7734 1.1484-2.7344 0.39062-1.707 0.14844-3.7305-0.88672-5.2266zm-6.6953-6.4453c0.50781-0.25 1.0156-0.39062 1.5547-0.48047 2.4336-0.39844 4.6172 1.3672 4.8359 3.8086 0.011719 0.12109 0.011719 0.21094 0 0.30078-0.25 0.16016-0.48047 0.33984-0.71875 0.52734-0.16797 0.12891-0.32031 0.30078-0.46875 0.45703-0.44922-0.42969-0.90625-0.77734-1.4766-1.0664-1.8242-0.98828-3.9375-1.0664-5.8125-0.21094-0.070312-0.57031-0.30859-1.0469-0.58984-1.5469 0.81641-0.72656 1.6836-1.3359 2.6719-1.7969zm-25.539 7.1406c0.26953-1.9336 0.53906-3.8281 1.0078-5.7227 0.30859-1.2148 0.71875-2.3633 1.3672-3.4219 1.1367-1.8438 2.8711-2.4922 4.957-1.8867 1.9844 0.66797 2.7031 2.5742 2.7812 4.4961-1.3281 0.98828-2.5312 2.043-3.7188 3.1719-2.2344 2.0938-6.5508 6.8203-6.5508 6.8203l-0.078126-1.8633s0.16797-1.0664 0.23828-1.5938zm33.082 29.242c-0.78906 2.4141-2.9922 4.6172-4.8086 6.3516-1.5273 1.457-3.1016 2.793-4.7461 4.1172l-2.1953 1.7539c-0.76953 0.61719-1.4062 1.3164-2.0742 2.043-2.5117 2.7617-5.5742 5.5547-9.0156 7.0898-2.1641 0.96875-4.457 1.4844-6.832 1.3945-1.5547-0.050781-3.0234-0.35938-4.4961-0.76953-0.75781-0.21094-1.4375 0.14062-1.4961 0.71875-0.019531 0.26953 0.089844 0.48828 0.28125 0.67969 0.87891 0.85937 2.8516 1.5664 4.0703 1.7461 0.011719 0 0.011719 0.011719 0.011719 0.011719l-0.25781 0.35938c-0.089844 0.10938-3.3125 4.2266-6.1328 7.75-11.012-6.1016-18.262-12.285-22.418-19.137 1.9844-2.1055 3.9375-4.2383 5.8555-6.4336 0.58984-0.67969 1.1562-1.3359 1.6953-2.0352 0.30859-0.41016 0.4375-0.82812 0.32812-1.3477-1.2383-5.6562-0.52734-11.77 1.8945-17.012l1.3281-2.8906c1.5664-3.3711 2.6523-7.25 2.0625-11l-0.5-3.1328c-0.26953-1.6953-0.10938-3.4922 1.3281-4.6055 0.90625-0.69922 2.0039-0.99609 3.1406-0.92578 3.6211 0.25 5.9219 3.4023 6.8516 6.6328 0.51953 1.7734 0.65625 3.6211 0.52734 5.457l-4.2969 5.0469c-0.66797 0.78906-1.3164 1.5469-1.8945 2.3945-0.35938 0.51953-0.63672 1.1758-0.050781 1.625 0.25 0.1875 0.57812 0.14844 0.86719-0.011719 1.207-0.60938 4-3.5898 5.0273-4.7188l4.3789-4.7578c1.8633-2.0352 3.7578-4.0078 5.7344-5.9336 1.3281-1.2969 2.6914-2.5117 4.1484-3.6602 1.6641-1.3164 3.5391-2.4531 5.7344-2.1445 2.4219 0.33984 4.2266 2.7227 3.4023 5.0664-3.6094 3.2031-8.9766 8.3984-12.047 11.996l-3 3.5117c-0.34766 0.39844-0.64844 0.80859-0.91797 1.2461-0.32031 0.51953-0.23047 1.168 0.23047 1.5078 0.48047 0.36719 1.0977 0.30859 1.5469-0.12891 0.65625-0.61719 1.2383-1.3047 1.8438-2.0039 3.2422-3.6719 6.4219-7.3906 9.8438-10.891l2.9922-3.0508c0.6875-0.70703 1.3945-1.3164 2.2344-1.8438 1.3047-0.80859 2.8828-1.0859 4.3164-0.44922 1.707 0.76953 2.8125 2.543 2.7617 4.418-0.039062 1.7344-1.2852 3.5-2.4023 4.7461-0.64844 0.72656-1.3672 1.3672-2.0859 2.043-4.168 3.8711-8.2266 7.8398-12.105 11.996-0.50781 0.53906-1.0078 1.0469-1.418 1.6367-0.32031 0.48047-0.25 1.0586 0.14063 1.4453 0.34766 0.34766 0.92578 0.39062 1.3867 0.089844 0.4375-0.30078 0.80859-0.63672 1.1875-1.0273l5.4258-5.5234 6.7734-7.0898c0.52734-0.55859 1.0273-1.1367 1.6836-1.5156 0.83594-0.48828 1.9336-0.30859 2.7734 0.14062 0.83594 0.4375 1.4844 1.1484 1.875 2.0039 1.1367 2.4727-0.10156 5.0078-1.6562 6.9727-0.94531 1.1953-1.9844 2.3125-3.1211 3.3398l-7.3906 6.7031-2.2539 2.0625c-0.46875 0.42969-0.9375 0.81641-1.3164 1.3164-0.32031 0.41797-0.28906 0.97656 0.050781 1.3164 0.35938 0.35937 0.84766 0.39844 1.2852 0.12891 1.5938-0.99609 5.1055-4.1289 6.582-5.5156l3.8477-3.6211c0.23828-0.23828 0.48828-0.45703 0.80859-0.50781 1.5469-0.26953 3.5391 2.2227 2.6836 4.8281zm9.832-13.332c-1.0273 2.3242-2.7812 4.0898-4.5977 5.8242l-0.72656 0.25c-0.99609 0.48047-1.9258 1.0781-2.793 1.8438-0.52734-0.66016-1.1484-1.1953-1.9336-1.5547 1.3477-1.3867 2.4648-2.9219 3.2695-4.6289 0.85938-1.8867 1.0781-3.918 0.42969-5.8828-0.12109-0.35937-0.23828-0.67969-0.48047-0.97656l0.61719-0.41797c0.67969-0.45703 1.375-0.85938 2.1562-1.0781 1.168-0.32031 2.2852 0.019532 3.1211 0.87891 1.4766 1.5352 1.8047 3.7891 0.9375 5.7461z"/> </svg>