<svg xmlns="http://www.w3.org/2000/svg" version="1.1" viewBox="9.48 5 81.02 90.03">  <path d="m89.703 58.703c-1.8555-4.5469-6.4531-7.4883-11.711-7.4883-0.21484 0-0.42969 0.003906-0.64844 0.015625-4.9023 0.23047-7.8242 2.4688-9.7578 3.9492-0.96484 0.73828-1.7266 1.3203-2.3125 1.3203-0.24219 0-0.62109-0.085938-1.0703-0.83203-2.5234-4.1875-0.94922-11.715-0.40625-13.922l4.5703-18.613c0.68359-2.7852 1.3672-6.4609 0.58984-10.188-0.79688-3.8281-3.6992-6.793-7.3867-7.5586-0.66016-0.13672-1.3281-0.20703-1.9805-0.20703-3.1758 0-6.1016 1.6562-8.0273 4.543-1.7188 2.5781-2.4805 5.4258-3 7.8711-0.94141 4.4414-1.5625 8.7539-2.2188 13.32-0.16797 1.1758-0.33984 2.3555-0.51562 3.543l-3.3438-16.359c-0.58594-2.8633-1.4023-5.2461-2.5703-7.5039-1.7812-3.4453-5.1094-5.5898-8.7578-5.5898-4.7461 0.039063-8.7734 3.5-9.5703 8.2344-0.46094 2.7266-0.19141 5.5781 0.82422 8.7188l5.5078 17.055c-4.7305 0.19141-8.3516 3.3125-9.1055 7.8711-0.0625 0.003907-0.33594 0.027344-0.33594 0.027344-5.5156 0.63281-9.3633 5.5703-8.9531 11.48 0.097656 1.3945 0.70312 2.6719 1.2891 3.9062 0.30078 0.63672 0.61328 1.2969 0.84375 1.9492 0.48047 1.3633 0.82031 2.7734 1.1484 4.1367 0.46875 1.9492 0.95312 3.9609 1.8594 5.8906 1.957 4.168 4.5156 7.1875 7.8203 9.2344l0.34766 7.1758c0.074219 1.3125 0.66016 1.7461 1.1406 1.875 6.1836 1.6484 12.289 2.4492 18.664 2.4492 6.2734 0 12.855-0.82031 19.559-2.4414 0.90234-0.21875 1.2617-1.2852 1.0859-2.1836l-1.1406-7.5391c2.3867-1.7266 4.2422-3.4102 5.8359-5.2969 4.9336-5.832 9.9258-6.6523 13.938-7.3125 2.8125-0.46094 5.2422-0.86328 6.8867-2.8438 1.8906-2.2734 2.2148-5.4375 0.89453-8.6758zm-3.3789 6.9102c-0.90625 0.98438-2.6406 1.2656-4.8359 1.6211-4.4141 0.71094-10.461 1.6875-16.336 8.7969-4.0312 4.8789-8.3672 6.0078-10.961 6.6797-1.5625 0.40625-2.5938 0.67578-2.5664 1.5586 0.019531 0.60547 0.38281 1.3242 2.0195 1.3242 1.8281 0 4.4102-0.89062 5.457-1.3945l0.85156 5.5898c-5.9219 1.3281-11.742 2-17.309 2-5.582 0-11.16-0.67578-16.57-2.0117l-0.054688-1.0312c-0.070312-1.2695-0.14844-2.6914-0.23047-3.6758 1.1367 0.44141 3.6875 1.0898 5.5508 1.0898 1.0273 0 1.7266-0.19922 2.082-0.58984 0.20703-0.23047 0.29297-0.51953 0.25781-0.86328-0.054688-0.53125-0.76953-1.0117-1.3477-1.0664-11.328-1.0859-15.371-9.75-16.734-17.105 1.5469 1.6289 3.3203 3.1367 5.6523 3.6953 0.64453 0.15625 1.2969 0.23047 1.9414 0.23047 3.6641 0 6.625-2.4141 7.2891-5.9023 1.0625 0.45312 2.1602 0.67969 3.2695 0.67969 1.7812 0 3.5-0.59766 4.9609-1.7227 2.3164-1.7812 3.4062-4.7188 2.7812-7.4844-0.41406-1.8203-1.0859-3.6367-2.0039-5.3945-0.5-0.95703-1.0703-1.8984-1.7031-2.793-0.41016-0.58203-0.84375-1.1523-1.2891-1.707-0.42188-0.53125-0.86328-0.80469-1.3398-0.84766l-0.10547-0.003906c-0.4375 0-0.81641 0.23438-0.98047 0.60938-0.30469 0.6875 0.1875 1.4336 0.58203 2.0352 0.089844 0.13672 0.17578 0.26562 0.24219 0.37891 0.35938 0.62891 0.71484 1.2578 1.0547 1.8945 1.2617 2.3516 2.0703 4.3125 2.5391 6.1797 0.57031 2.25-0.60547 4.543-2.7891 5.4531-0.64844 0.26953-1.3203 0.41016-1.9922 0.41016-1.543 0-2.9844-0.71484-4.0508-2.0156-1.2539-1.5312-2.2734-3.2031-3.3789-5.0781-0.32812-0.55469-0.66016-1.1016-0.99219-1.6523l-0.59375-0.98438c-0.24609-0.41016-0.75391-1.2656-1.5039-1.2656-0.17578 0-0.35156 0.046875-0.52734 0.14062-0.19531 0.10547-0.33203 0.28125-0.39453 0.51953-0.39453 1.457 2.0508 5.4297 3.8359 8.3281 0.58984 0.95703 1.1016 1.7852 1.3672 2.3008 0.76562 1.4727-0.5 3.3164-1.6406 4.1562-0.77734 0.57031-1.6602 0.85938-2.6289 0.85938-0.67969 0-1.3711-0.14453-2.0625-0.42969-2.3438-0.97266-3.6484-2.7109-5.0273-4.5547-0.59766-0.80078-1.2188-1.625-1.9258-2.3789l-0.19531-0.21094-0.12891 0.25781c-0.13672 0.27344-0.23828 0.51953-0.35547 0.79688l-0.027344 0.0625c-1.25-2.8008-1.1094-5.8945 0.38672-8.1641 1.2773-1.9375 3.2656-3.0469 5.4609-3.0469 0.48438 0 0.98047 0.054687 1.4688 0.16406 0.10938 0.023438 0.21094 0.035157 0.30078 0.035157 0.21875 0 0.39453-0.066407 0.52734-0.20313 0.3125-0.3125 0.30469-0.91016 0.29688-1.6641-0.007813-0.74609-0.015625-1.5938 0.27734-2.3398 0.69141-1.7578 2.2852-3.1328 4.2617-3.6797 0.59766-0.16406 1.1914-0.25 1.7695-0.25 0.29297 0 0.58203 0.023437 0.85938 0.066406 1.2422 0.19141 2.332 0.84375 3.293 1.4219l0.097656 0.058594c0.30859 0.1875 0.6875 0.42188 1.082 0.42188 0.22656 0 0.42578-0.078125 0.59766-0.23047 0.32812-0.29688 0.48438-0.79297 0.36719-1.1797-0.33594-1.1172-2.75-2.6797-3.1836-2.9531l-5.9219-18.25c-0.89062-2.7383-1.1328-5.2188-0.74219-7.5781 0.48047-2.918 2.6367-5.1172 5.4922-5.6094 0.40625-0.070313 0.80469-0.10547 1.1875-0.10547 5.332 0 7.3359 6.7031 8.3789 11.742l4.832 23.324c-0.32422 0.070313-0.64062 0.12891-0.94531 0.19141-1.8047 0.35156-3.3672 0.65625-3.1602 2.0469 0.09375 0.63672 0.75391 0.63672 0.96875 0.63672 0.42187 0 0.96875-0.09375 1.668-0.21484 1.1055-0.19141 2.4883-0.43359 4.1328-0.43359 1.2305 0 2.3945 0.13281 3.5586 0.40625 0.09375 0.023437 0.19531 0.035156 0.29688 0.035156 0.50781 0 0.97266-0.28906 1.082-0.66797 0.09375-0.33203 0.046875-0.63672-0.14453-0.90625-0.63281-0.88281-2.6992-1.1172-4.3008-1.207 0.25391-1.7891 0.49609-3.5742 0.73828-5.3555 0.8125-5.957 1.6523-12.121 2.8516-18.18 0.51172-2.5977 1.1367-5.3359 2.625-7.8125 1.2891-2.1484 3.3555-3.3828 5.668-3.3828 0.46875 0 0.94531 0.050781 1.4141 0.15625 1.7109 0.37891 3.0078 1.2617 3.8516 2.6211 1.5586 2.5156 1.6367 6.6719 0.22656 12.352l-4.0586 16.352c-2 8.0547-1.7969 13.836 0.61719 17.676 0.80469 1.2812 1.8945 2.0938 2.9961 2.2383 0.17578 0.023438 0.34766 0.035156 0.51562 0.035156 1.0703 0 2.1055-0.4375 3.1641-1.3398 3.2383-2.7578 6.3984-4.0977 9.6641-4.0977 0.21484 0 0.43359 0.003907 0.65234 0.015626 4.5469 0.25391 8.1836 3.4414 8.6406 7.5859 0.17969 1.6133-0.14844 2.8906-0.97266 3.793zm-32.645-7.1367c0.16406 0.19141 0.22656 0.4375 0.1875 0.70703-0.15625 1-1.3008 1.3477-2.2188 1.6289-0.35156 0.10547-0.67969 0.20703-0.91406 0.32812-0.78906 0.41016-1.5469 0.87891-2.2461 1.3945-1.4258 1.043-2.6484 2.2734-3.6328 3.6562-0.9375 1.3125-1.6523 2.7695-2.1211 4.3242-0.23438 0.77734-0.40625 1.582-0.51172 2.3906-0.042968 0.32812-0.046875 0.67188-0.054687 1.0156-0.007813 0.35938-0.011719 0.71875-0.058594 1.0664-0.019531 0.14844-0.046875 0.29297-0.082031 0.43359-0.14453 0.5625-0.53516 0.98047-0.99609 1.0664-0.0625 0.011719-0.12109 0.015625-0.18359 0.015625-0.3125 0-0.63281-0.14062-0.875-0.38281-0.30859-0.30859-0.50391-0.76172-0.52344-1.2031-0.13281-3.2188 0.70312-6.3711 2.4141-9.1172 1.3867-2.2188 3.3242-4.1875 5.6016-5.6875 1.4023-0.92188 3.2461-1.9883 5.0586-2.0586h0.007812c0.52734 0 0.93359 0.15625 1.1562 0.41797z"/></svg>