<svg xmlns="http://www.w3.org/2000/svg" version="1.1" viewBox="12.03 5 75.95 90.03">  <desc>Created by Lewen Design, downloaded from Noun Project. They can be found at this link: https://thenounproject.com/browse/collection-icon/hand-and-gesture-191281/ (CC BY 3.0)</desc><path fill="currentColor" d="m87.488 29.391c-0.82812-2.4375-2.8711-4.168-5.3242-4.5273-0.30859-0.046875-0.625-0.066406-0.92578-0.066406-0.57812 0-1.1367 0.078125-1.7031 0.26172-1.2695 0.38672-4.1133 1.1172-9.8516 10.824l0.53906-14.02c0.085938-3.5547 0.046875-7.7617-0.95312-10.902-0.42188-1.3008-1.0117-2.3789-1.8008-3.293-1.4727-1.6953-3.6094-2.668-5.8828-2.668-0.36719 0-0.74219 0.027344-1.0977 0.078125-1.8086 0.26172-3.457 1.1641-4.7656 2.6211-2.0977 2.3203-2.7266 5.2773-3.082 8.1172-0.14453 1.1562-0.20312 2.3203-0.23047 3.4102-0.76953-2.207-1.5039-4.1016-2.2812-5.9141-0.98047-2.293-2.6484-5.5078-5.6445-7.0117-1.0508-0.53125-2.168-0.78906-3.332-0.78906-1.7344 0-3.457 0.61719-4.8633 1.7344-3.707 2.957-3.957 7.4141-3.5156 10.633 0.41406 2.9648 1.3789 5.7109 2.6953 8.9375l2.8008 6.7969c-1.3867-0.47266-2.7461-0.72266-4.0352-0.72266-0.38672 0-0.76953 0.027344-1.1445 0.066406-1.6172 0.18359-3.1602 0.58594-4.582 1-1.8867 0.53906-3.707 1.2891-5.4023 2.207-3.5352 1.918-4.9102 4.8242-5.875 7.6758-0.54688 1.6484-1.1562 3.1094-1.8398 4.4883-0.38672 0.75-0.61719 1.3789-0.75 2.0312-0.33594 1.5234-0.039063 3.0508 0.80859 4.2461-2.2617 1.0586-3.5547 3.1797-3.3906 5.6133 0.078125 1.0898 0.32812 2.1484 0.75 3.2461l0.92578 2.3672c0.38672 1.0195 0.625 2.4375 0.84766 3.8047 0.15234 0.92578 0.29688 1.8008 0.49219 2.5703 0.54688 2.1953 1.7227 4.1133 3.4766 5.6719 3.2266 2.8711 7.5117 5.0156 10.457 6.3945 1.4922 0.66406 4.9766 1.9531 6.7227 2.5234l1.7227 4.9492c0.13281 0.38672 0.43359 0.69141 0.8125 0.83594l0.74609 0.28125c4.0352 1.5039 8.8984 2.1367 13.789 2.1367 6.1641 0 12.383-1.0117 17.094-2.5508 0.75-0.24609 1.1406-1.0703 0.85547-1.8047l-3.8008-9.8672c2.0898-2.582 4.8633-9.3203 5.9805-13.406 0.45312-1.6836 0.80859-3.2852 1.0898-4.9102l0.92578-5.4609 2.1172-3.4961 3.8906-5.8164 2.6211-4.0625c0.88672-1.3867 1.7148-2.8984 2.6016-4.7773 0.74219-1.5781 1.25-3.043 1.5586-4.4688 0.375-1.7617 0.28906-3.4375-0.24219-4.9883zm-2.918 4.2852c-0.28906 1.3867-0.76172 2.7266-1.4453 4.1133-0.40625 0.82031-0.78125 1.5508-1.2031 2.3008-0.82812 1.4531-1.7539 2.9375-2.9844 4.8164l-2.7656 4.2188c-1.1445 1.7539-3.1602 4.8242-4.1211 6.5273-0.15234 0.26953-0.26172 0.5-0.30859 0.78906l-1.0586 6.2969c-0.26953 1.5977-0.68359 3.1211-1.0508 4.3906-1.5117 5.1406-4.8359 11.969-8.1836 14.617-0.53906 0.42188-0.82031 0.99219-0.73047 1.5234 0.097656 0.63672 0.64453 1.0781 1.3398 1.0781 0.17188 0 0.34766-0.027344 0.51953-0.097656 0.67578-0.24219 1.2422-0.625 1.8398-1.1172 0.18359 0.55078 0.36719 1.0195 0.53125 1.4336l2.3008 5.6641c-7.7812 2.1562-18.777 2.8203-26.637 0.11719l-1.2422-3.1875c0.56641 0.066406 1.2617 0.13281 1.9375 0.13281 1.1367 0 1.8672-0.18359 2.2266-0.54688 0.31641-0.26953 0.48047-0.63672 0.46094-1.0117-0.058594-0.875-0.95312-1.2617-1.7031-1.3203-6.7891-0.57812-9.8594-1.7812-15.93-5.1133-2.0039-1.1055-4.7383-2.793-6.375-4.5469-0.82812-0.89453-1.375-1.9062-1.6836-3.1016-0.28125-1.0977-0.45313-2.168-0.64453-3.3047l-0.027344-0.18359c-0.375-2.2227-0.83594-3.418-1.3281-4.6914-0.31641-0.82812-0.64453-1.6836-0.97266-2.8906-0.28906-1.0781 0.058594-2.0898 0.95312-2.7812 0.78906-0.60547 1.7734-0.92578 2.8516-0.92578h0.20312c1.1445 0.046875 2.1562 0.25 2.9844 0.625 2.6562 1.1836 4.5664 3.5547 5.2578 6.5078 0.15234 0.66406 0.25 1.2891 0.30859 1.9531 0.066406 0.93359 0.92578 1.0195 1.4336 1.0703 0.14453 0.019531 0.26953 0.027344 0.36719 0.058594 1.8867 0.51172 3.832 1.2617 5.9805 2.3203 0.30859 0.14453 0.73047 0.35547 1.125 0.35547 0.32812 0 0.58594-0.14453 0.75-0.40625 0.125-0.20312 0.16406-0.42188 0.11719-0.65625-0.085937-0.375-0.40625-0.71094-0.75-0.99219 1.918-0.72266 3.7539-2.293 4.9023-4.2188 2.0234-3.3789 2.1953-7.5312 0.46094-11.094-1.2812-2.6094-3.457-3.8516-5.625-4.8633 0.21094-0.36719 0.5-0.97266 0.36719-1.4336-0.058593-0.21094-0.20312-0.375-0.41406-0.46094-0.078125-0.039063-0.15234-0.046875-0.23047-0.046875-0.22266 0-0.39453 0.125-0.51953 0.23047l-0.078125 0.066406c-0.38672 0.33594-0.75 0.65625-1.1836 0.89453-1.0117 0.55078-2.1484 0.85547-3.3711 0.90625-0.019531-0.019531-0.058594-0.11719-0.078125-0.19141-0.085937-0.22266-0.20312-0.56641-0.56641-0.84766-0.14453-0.10547-0.30859-0.16406-0.47266-0.16406-0.10547 0-0.21094 0.019531-0.29688 0.078125-0.17188 0.10547-0.33594 0.34766-0.375 0.55859-0.13281 0.78906-0.30859 1.6953-0.63672 2.582-0.875 2.3516-2.9062 4.8516-6 4.8516-0.34766 0-0.70312-0.039063-1.0586-0.097656-0.95312-0.18359-1.6953-0.38672-2.3984-0.65625-0.65625-0.25-1.1836-0.76172-1.4453-1.4062-0.24219-0.59766-0.23047-1.2617 0.027344-1.8477l1.2891-2.8398 1.2812-3.418c0.98047-2.6094 1.9453-4.2461 4.1992-5.3633 0.80078-0.39453 1.5898-0.78125 2.457-1.0977 1.8984-0.70312 3.6875-1.2344 5.4883-1.6094 0.55859-0.11719 1.1094-0.17188 1.6484-0.17188 0.74219 0 1.4648 0.10547 2.1953 0.32812 1.4453 0.44141 2.8711 1.0586 4.3633 1.8867 0.82031 0.46094 1.5781 0.95312 2.3789 1.4648l0.42188 0.28125c0.33594 0.22266 0.76953 0.5 1.2148 0.5 0.33594 0 0.63672-0.15234 0.86719-0.46094 0.23047-0.30859 0.30859-0.68359 0.20313-1.1641-0.5-1.2031-2.3125-2.5898-3.4688-3.2734-1.0117-2.7812-2.168-5.5664-3.3047-8.3203l-0.35547-0.83594c-0.49219-1.1836-0.96484-2.3125-1.3672-3.4961l-0.066406-0.19141c-0.25-0.73047-0.5-1.4336-0.69141-2.1875-0.59766-2.2148-1.1836-5.1055-0.43359-7.7344 0.40625-1.4336 1.2695-2.6367 2.4375-3.3906 0.80859-0.51172 1.6836-0.78906 2.5312-0.78906 0.40625 0 0.80078 0.066406 1.1836 0.18359 1.8594 0.56641 3.0352 2.3398 3.8438 3.8125 0.78125 1.4258 1.4336 2.8789 2.0039 4.4375l2.0781 5.7188c1.3008 3.582 2.4648 7.5117 3.668 12.344l1.6758 6.75c0.20313 0.84766 0.75 1.7539 1.6484 1.7539 0.11719 0 0.24219-0.019531 0.35547-0.046875 0.41406-0.10547 0.75-0.47266 0.875-0.95312 0.13281-0.51172 0.046875-1-0.039063-1.4727l-0.007812-0.10547c-0.23047-1.3281-0.53906-2.6367-0.83594-3.8984-0.15234-0.61719-0.29688-1.2422-0.43359-1.8672-0.13281-0.56641-0.27734-1.1367-0.43359-1.7031-0.25-0.94531-0.51172-1.9258-0.64453-2.918-0.51172-3.7383-0.78125-10.383-0.30859-14.59 0.25-2.2539 0.74219-4.7969 2.457-6.5 0.75-0.74219 1.6953-1.2344 2.668-1.3867 0.24219-0.039062 0.47266-0.058593 0.70312-0.058593 1.5898 0 3.0352 0.84766 3.8633 2.2539 0.42188 0.73047 0.73047 1.5312 0.94531 2.5039 0.69531 3.0234 0.59766 7.6562 0.55078 9.0039l-0.29688 8.6875-0.36719 9.8516c-0.046875 1.1094-0.019531 4.5273 0.058594 5.0273 0.078125 0.51172 0.38672 1.3281 1.1953 1.4062l0.11719 0.007812c0.48047 0 0.90625-0.32812 1.2031-0.88672 0.18359-0.23047 1.4648-4.2578 1.4648-4.2578 1.1367-3.457 3.9492-7.9453 6.125-10.602 1.0586-1.2812 2.6758-3.0156 4.4375-3.1797 0.097656 0 0.19141-0.007813 0.28906-0.007813 1.3867 0 2.6562 0.92578 3.1602 2.3125 0.375 1.0195 0.43359 2.1289 0.18359 3.3789zm-57.742 23.055c2.3594-1.1172 4.1992-3.707 4.9102-5.9141 0.039063 0.007813 0.085938 0.007813 0.13281 0.007813 0.97266 0 2.1758-0.34766 2.8398-0.61719 0.039062 0 0.085937 0.019531 0.15234 0.058594 0.046875 0.027344 0.097657 0.058594 0.15234 0.078125 1.7422 0.72266 3.6484 1.7734 4.582 4.0547 1.4727 3.6016 0.26953 7.7617-2.793 9.6875-0.90625 0.56641-1.9062 0.86719-2.707 1.0586-0.5-0.17188-2.582-0.90625-3.332-1.1172-0.5-3.4492-2.207-5.6797-3.5547-6.9414-0.13281-0.13672-0.26172-0.25-0.39453-0.35547z"/> </svg>