<svg xmlns="http://www.w3.org/2000/svg" version="1.1" viewBox="19.02 4.97 61.98 90.05">  <path d="m80.461 60.168c-0.87891-2.5273-2.9414-4.4922-5.4609-5.3438-0.085938-0.03125-0.34375-0.011719-0.33203-0.15234 0.37891-4.5312-4.0703-8.6016-8.4805-8.4648-0.21094-3.8672-3.4414-6.7969-6.9844-7.7656 2.0117-1.6523 3.9336-3.3047 5.3828-5.4141 1.1641-1.6406 1.9492-3.6992 1.8398-5.7344-0.16797-3.1094-2.3086-5.8047-5.3086-6.6562-4.7227-1.3398-10.371 2.5703-13.953 5.3867-0.6875-1.2422-1.918-2.6055-2.9609-3.5-1.3359-1.1445-2.9219-1.9492-4.6016-2.3242-3.0977-0.69531-7.4102 0.87891-9.3281 3.4102-2.1641 2.8594-1.5742 6.2148-0.4375 9.1094l0.87891 2.0039c0.61719 1.4023 1.3203 2.7656 1.918 4.1875-3.4062 3.6562-6.5273 7.5-9.332 11.598-0.85938 1.2578-1.6289 2.5547-2.3164 3.9062-0.73047 1.4336-1.3242 2.9062-1.6484 4.4766-0.85547 4.125 0.20703 7.6641 2.1914 11.27 1.375 2.3945 3.125 4.582 5.0977 6.5469 0 0.011719-0.003906 0.023438 0 0.035157l0.5625 12.391c0.027344 0.60156 0.41016 1.1328 0.97656 1.3477 10.59 3.9961 19.199 5.3125 28.355 4.0781 3.0508-0.41016 6.168-1.1055 9.4375-2.0781 0.64062-0.19141 1.0781-0.77734 1.0781-1.4453l0.011719-5.7852c5.25-2.1367 8.9297-6.8906 10.652-12.363 1.3828-2.4141 2.7617-5.125 3.1602-7.8984 0.23438-1.625 0.15625-3.2578-0.38672-4.8125zm-48.27-29.477c-0.28906-0.86719-0.46094-1.7344-0.46094-2.6367 0-1.8047 0.89062-3.3789 2.4141-4.3398 1.4805-0.93359 3.3008-1.1211 5-0.64844 2.5469 0.70312 4.4336 2.6602 5.8281 4.8945-3.4844 2.793-6.8125 5.8359-10.02 9.1289-0.27734-0.78906-0.63281-1.5312-1.0156-2.3125-0.65625-1.3438-1.2695-2.6602-1.7422-4.082zm44.969 36.977c-0.41797 0.99219-1.5508 3.3164-2.1055 4.2344 0 0-1.3398 3.6562-2.8242 5.8047-2.8438 4.1172-7.6758 6.4297-12.676 6.4375-0.68359 0-1.4453 0.44531-1.3594 1.1523 0.22656 1.8945 4.6367 1.0703 5.7617 0.85938 0.019531-0.003906 0.035157-0.007812 0.054688-0.011719l-0.007813 3.7422c-11.734 3.3008-21.113 2.7695-33.852-1.8984l-0.38281-8.4922c0.54688 0.42969 1.0977 0.85156 1.6641 1.25 0 0 2.9141 2.0078 5.957 2.5859 0.37109 0.070313 0.72656 0.11328 1.082 0.007813 0.43359-0.12891 0.79297-0.53906 0.72266-0.99609-0.070312-0.44922-0.4375-0.71875-0.83594-0.92188-1.2383-0.62891-2.4766-1.2305-3.6641-1.9727-3.7109-2.3242-6.9297-5.3516-9.4688-8.918-1.1289-1.5898-2.0391-3.2969-2.6602-5.1367-0.85547-2.5312-0.85156-5.2031 0.078125-7.707 0.55859-1.5 1.2891-2.9258 2.1562-4.2812 2.1719-3.4062 5.0391-6.9688 7.6914-10.031 2.6445-3.0469 5.4531-5.9062 8.4336-8.6289 2.3906-2.1875 4.8906-4.2461 7.4766-6.1953 1.8633-1.4023 3.7852-2.6914 5.8281-3.8008 0.99609-0.53906 2-0.95703 3.082-1.2617 2.2383-0.63281 4.4258-0.10156 5.625 1.9883 1.3203 2.3008 0.375 4.6797-1.1602 6.5898-0.98828 1.2305-2.1016 2.3125-3.3125 3.3281l-2.0859 1.75-2.0391 1.6016-2.125 1.6211c-2.7031 2.0586-10.426 10.609-11.781 13.402-0.14062 0.28906-0.17578 0.63672-0.007813 0.92578 0.17578 0.30469 0.51953 0.46875 0.82812 0.5 0.35547 0.035157 0.70312-0.11719 0.95703-0.38281 0.69141-0.72266 1.2695-1.5234 1.8906-2.3203 2.5273-3.2344 5.2109-6.3086 8.1719-9.1562 0.64062-0.61719 2.3125-2.2305 3.1289-2.3438 1.7344-0.24609 3.4609 0.18359 4.9414 1.0977 1.8164 1.1133 3.332 3.0977 2.9766 5.332-1.0547 0.67969-2.293 1.9375-3.1406 2.8906-2.4453 2.7461-4.6484 5.6758-6.668 8.7422-0.22656 0.33984-0.38281 0.67187-0.5625 1.0234-0.21484 0.42188-0.14844 0.92188 0.17969 1.2578 0.30859 0.30859 0.80078 0.46484 1.2188 0.23437 0.32812-0.17969 0.58594-0.44531 0.80859-0.76172 1.3359-1.9102 2.6523-3.8125 4.082-5.6602 1.0234-1.3281 2.0234-2.6328 3.1484-3.875 0.66016-0.73047 1.2539-1.4961 2.0469-2.0859 0.35156-0.26172 0.95312-0.22266 1.3906-0.21875 2.1875 0.035156 4.2188 1.2266 5.3711 3.0664 0.50781 0.8125 0.70703 1.6953 0.6875 2.6328-0.011718 0.5-0.16406 0.91797-0.46094 1.3359l-5.25 7.3516c-0.54297 0.76172-1.0781 1.4922-1.5234 2.293-0.33594 0.61328-0.16406 1.3594 0.50391 1.5938 0.46875 0.16406 0.97266-0.042969 1.3086-0.39453 0.625-0.64844 1.1211-1.3555 1.6445-2.0938 1.4141-1.9922 2.7578-3.9961 4.0391-6.0742 0.27344-0.44531 0.53906-0.86328 0.72656-1.3438 1.6797 0.16406 3.1016 1.0312 4.0859 2.3633 0.83984 1.1406 1.2578 2.4258 1.2031 3.8672-0.054687 1.4141-0.44141 2.7891-0.99219 4.1016zm-36.875-56.273c-0.26172-1.2227-0.14844-2.4805 0.40234-3.5742 0.97656-1.9414 3.0312-3.0742 5.1836-2.7734 1.2148 0.17188 2.2852 0.78125 3.0312 1.7891 0.37891-0.48828 0.84375-0.82813 1.3789-1.1445 1.4062-0.83984 3.1758-0.92969 4.6367-0.13672 2.1328 1.1523 2.8672 3.543 2.2578 5.8047-0.28125 1.043-0.77734 1.9844-1.4414 2.8398-0.71094 0.91797-1.4961 1.7461-2.3984 2.5117-1.2969 1.1055-2.6602 2.0664-4.1875 2.7578-0.60938 0.27734-1.1562 0.25-1.7383-0.058594-1.0391-0.55078-1.9883-1.2383-2.8945-2.0039-1.8281-1.5352-3.7148-3.625-4.2266-6.0156z"/> </svg>