<svg xmlns="http://www.w3.org/2000/svg" version="1.1" viewBox="5.77 5 88.48 90.03">  <path d="m60.348 57.066c-0.11328 0.79688-1.1758 1.0625-1.7812 1.3008-0.72656 0.28125-1.4258 0.67969-2.0898 1.0859-1.6758 1.0273-3.2266 2.2852-4.5078 3.7812-2.207 2.582-3.4727 5.8047-3.6602 9.1914-0.03125 0.56641-0.50391 0.97656-0.85547 1.0508-1.375 0.27734-1.5352-1.8516-1.4414-2.8945 0.60156-6.7266 5.8633-12.102 12.059-14.219 0.52734-0.17969 1.1914-0.35938 1.7383-0.15234 0.35547 0.13672 0.58203 0.47656 0.53906 0.85937zm33.887 2.5742c0.09375 3.6406-2.5859 6.7734-6.1367 7.582-2.0195 0.46094-3.9844 0.83984-5.957 1.5703-6.6016 2.4492-7.9961 6.7227-13.184 10.902-0.24219 0.19531-1 0.82422-1 0.82422l1.7109 9.8633c0.17578 1.0156-0.44531 1.9961-1.4414 2.2539-2.9258 0.76172-9.3555 2.1523-18.016 2.3516-6.2969 0.14453-12.637-0.85938-18.977-2.582l-0.007813-0.003906c-0.74219-0.25-1.2656-0.91406-1.3359-1.6953l-0.85156-9.2422c-5.8555-3.6484-8.4453-10.109-9.582-16.621-0.55469-1.7148-0.38281-3.5625-1.0586-5.2227-0.91797-2.25-2.5391-4.0469-3.9414-6.0117-3.043-4.2617-7.4102-9.0898-8.4844-14.207-1.0039-4.7695 1.7773-9.4375 6.5508-10.512 2.5742-0.58203 5.1758 0.32422 7.0664 2.0938 0.49219 0.46094 0.84766 0.91016 1.3555 1.3281-1.6758-4.4336-3.5703-9.4648-1.9219-14.191 1.332-3.8164 5.0352-6.75 9.1719-6.5625 3.6211 0.16406 7.0039 2.7656 8.0938 6.2227 0.15234-2.1992 0.27734-4.3828 1.0742-6.4648 1.3945-3.6484 4.6172-5.9922 8.4727-6.2852 4.5508-0.34766 8.5898 2.6602 9.8672 7.0391 0.66797 2.2812 0.74219 4.6016 0.875 7.1719 1.1953-4.2695 3.4414-9.1719 8.6211-10.113 4.2109-0.76562 8.5234 1.5352 10.211 5.4688 1.8281 4.2578 0.64062 9.0352-0.57422 13.363l-4.0664 14.496c-0.89844 3.1992-1.8047 8.3398-0.23438 11.449l3.3281-2.2383c5.4727-3.6797 12.984-3.8359 17.656 1.2539 1.7109 1.8633 2.6523 4.1836 2.7188 6.7266zm-3.1914 0.10156c-0.050781-3.2188-2.2266-6.0625-5.543-7.2461-1.0078-0.35938-2.082-0.54297-3.1992-0.54297-1.6484 0-3.3711 0.39062-5.1133 1.1641-1.375 0.60937-2.5469 1.4414-3.5781 2.1758-1.2656 0.90234-2.3633 1.6797-3.332 1.6797-0.25391 0-0.49219-0.050781-0.73047-0.15625-2.8633-1.2578-3.2344-6.7734-2.793-9.9531 0.55078-3.9883 1.5859-7.8164 2.6016-11.402l2.8672-10.113c1.0078-3.5547 2.082-9.8945-2.0469-12.426-1.0703-0.65625-2.2344-1.0039-3.375-1.0039-0.88281 0-1.7344 0.20312-2.5273 0.60547-2.9648 1.4961-4.207 5.1562-5.0312 8.5352-1.0234 4.1914-1.6992 8.2617-2.4141 12.57l-1.4414 8.6562c1.3633 0.16797 2.6914 0.61328 3.832 1.3516 0.36328 0.24609 0.45703 0.73828 0.21094 1.1016-0.17578 0.25781-0.47266 0.37891-0.76172 0.34375-1.3633-0.18359-2.6445-0.38672-3.9531-0.48047-1.3047-0.10937-2.5977-0.097656-3.9648-0.09375-0.82422 0.03125-1.0898-1.1758-0.34766-1.5039 0.99609-0.45703 2.0859-0.71094 3.1875-0.78125-0.011719-0.21094-0.027344-0.62891-0.027344-0.90625l0.03125-19.734c0.003906-3.1641-0.21875-5.6016-0.71875-7.8984-0.42578-1.9453-1.3359-3.4922-2.6328-4.4766-1.043-0.79297-2.293-1.2109-3.6211-1.2109-0.89844 0-1.8125 0.1875-2.7227 0.55469-4.3594 1.7656-4.6367 7.1836-4.4688 11.105 0.15234 3.5117 0.57422 6.9922 0.98437 10.359 0.125 1.0391 0.25391 2.082 0.375 3.1367l1.1406 9.9805c1.0547-0.15625 2.1289-0.15234 3.1836 0.035157 0.42969 0.09375 0.69922 0.51172 0.60938 0.94141-0.066406 0.30469-0.29688 0.52734-0.57812 0.60156-1.3203 0.33984-2.6016 0.62891-3.875 0.99609-1.2812 0.35547-2.5195 0.77734-3.793 1.2148-0.76953 0.29297-1.4062-0.76172-0.8125-1.3086 1-0.92578 2.1953-1.6016 3.4688-2.0391l-3.8828-15.637-0.24609-1.0078c-0.83594-3.4375-1.9766-8.1406-4.0391-10.574-1.0039-1.0547-2.4102-1.6328-3.9531-1.6328-0.83594 0-1.6836 0.17578-2.457 0.50781-3.9258 1.6953-4.9453 5.8125-3.0234 12.238 1.2305 4.1094 2.7891 8.1211 4.2969 11.996l0.96094 2.4844c0.21875 0.57031 0.44531 1.1289 0.66797 1.6836 0.59375 1.4844 1.1562 2.8867 1.5977 4.4102 0.78516-0.26953 1.6016-0.41406 2.3789-0.38281 0.44141 0.007813 0.79688 0.37109 0.78906 0.81641-0.003906 0.28906-0.16406 0.54297-0.39453 0.67969-1.0352 0.60547-2.0547 1.0117-2.9219 1.5234-0.87891 0.48437-1.6211 1.1055-2.5195 1.8359-0.59766 0.52344-1.5547-0.16797-1.2617-0.89453 0.41016-1.1953 1.3164-2.1758 2.418-2.8672l-8.2773-12.297c-0.83984-1.2461-1.7969-2.543-3.1211-3.5898-0.94141-0.74219-2.0078-1.1367-3.082-1.1367-1.0039 0-1.9961 0.34766-2.8672 1.0078-1.9844 1.5039-2.7734 4.1445-2.0117 6.7266 0.8125 2.7539 2.4258 5.0898 3.875 7.0586 0.30469 0.41406 0.75781 1.0117 1.3047 1.7305 2.2422 2.9453 6.9062 9.0781 7.2109 10.773l0.85547 4.7578c0.54687 3.0312 1.2969 5.5703 2.3633 7.9922 1.6992 3.8594 4.5156 6.7344 8.3789 8.5508 2.1562 1.0156 4.1172 1.0391 6.1758 1.3867 0.50391 0.085937 0.87891 0.60547 0.52344 1.0781-0.11719 0.15234-0.29297 0.25-0.46875 0.32812-1.0469 0.44141-2.3125 0.31641-3.4023 0.14453-1.0469-0.16406-2.082-0.42578-3.082-0.78516l-0.74219-0.26562 0.87109 7.582c11.188 2.8633 22.359 2.9375 33.258 0.21484l-1.5703-8.8984-0.58594 0.30078c-0.88281 0.44922-3.0664 1.0977-4.707 1.0977-1.0938 0-1.6289-0.26953-1.6992-0.79688-0.10156-0.73828 0.28516-1.1953 1.1914-1.4727 2.3711-0.72266 6.9727-1.2734 11.031-5.6797l3.2344-3.5117c3.1289-3.4023 7.4648-5.4727 14.055-6.7188 2.3047-0.43359 3.832-2.2773 3.793-4.5898z"/> </svg>