<svg xmlns="http://www.w3.org/2000/svg" version="1.1" viewBox="11.75 8.98 76.5 82.03">  <path d="m68.551 62.887c0.16406 0.28906 0.21875 0.62109 0.0625 0.94922-0.10156 0.21484-0.35938 0.48437-0.67578 0.48437-0.39844 0-0.73438-0.23437-1.0195-0.52344-2.3984-2.4531-4.8242-4.25-8.0508-5.5312-1.9805-0.78516-4.043-1.3125-6.1562-1.6719-3.082-0.52344-6.1836-0.74609-9.3047-0.73828-0.40625 0-1.0625-0.11328-1.1172-0.55859-0.054687-0.47266 0.67969-0.72266 1.0781-0.80078 3.2656-0.66406 8.125-0.21484 11.414 0.44531 2.0898 0.41797 4.1172 1.0508 6.0625 1.9102 2.4727 1.0938 4.7148 2.6445 6.5781 4.5898 0.4375 0.45703 0.82422 0.91016 1.1289 1.4453zm19.082 18.469c-0.52344 0.50781-1.0547 0.98438-1.5938 1.4375-8.0781 6.8359-18.105 8.1992-29.852 8.207-0.40625 0-0.81641 0-1.2305-0.011719-0.65234 0-1.3086-0.007812-1.9727-0.019531-0.79297-0.015625-1.4961-0.51953-1.7656-1.2656l-0.64453-1.7656-1.7305-4.7695s-6.2422-2.9023-9.0234-4.8203c-2.1875-1.5-4.2734-3.1797-6.3594-5.0195-2.9414-2.5938-5.6953-5.3555-8.168-8.3867-2.8516-3.4961-5.4062-7.2031-7.543-11.168-0.57812-1.0625-1.082-2.1172-1.5781-3.2109-1.0742-2.3438-1.9375-4.7812-2.5742-7.2852-0.93359-3.707-1.5508-7.4609-1.7891-11.27-0.14844-2.625-0.039063-4.9297 2.1562-6.6875-1.8086-4.9805 1.3633-10.91 6.1133-11.359l0.69531-0.070313c0.44531-1.6211 1.8867-3.082 3.3672-3.8438 2.5625-1.3398 5.6953-1.4102 8.3086-0.14062 1.2812 0.625 2.3359 1.6211 3.1914 2.7617 0.37891-0.20703 0.76562-0.32812 1.2031-0.38672 1.9492-0.29688 3.9141 0.21875 5.5352 1.3398 2.8828 1.9883 4.5234 5.0273 5.625 8.2773 0.82422 2.3945 1.4609 4.8086 2.0078 7.293l3.0703 4.1836 1.5781 2.1445c0.32812 0.4375 0.60547 0.86328 1.0039 1.2539-0.14062-0.4375-0.28906-0.79688-0.38672-1.2305-1.0039-4.4219-0.34766-9.0625 2.7812-12.5 1.2031-1.3203 2.6641-2.3555 4.3906-2.9023 3.3789-1.082 7.9102-0.30859 9.7188 3.0391 0.37891 0.69531 0.48828 1.4414 0.55469 2.2148 0.089844 1.0039 0.10938 1.9688 0.14844 2.9805 0.089844 1.9961 0.42578 3.9336 1.1211 5.8242 1.7773 4.8594 4.3125 7.332 6.957 11.559 1.3125 2.0977 2.3359 4.3438 3.0625 6.7188 0.39844 1.4414 0.74609 2.8633 0.94531 4.3438 0.51562 3.8672 0.12109 7.7812-1.1016 11.496 1.043 2.2656 1.9688 4.582 2.832 6.9375 0.25 0.66406 0.49609 1.332 0.73438 1.9883 0.16797 0.46094 0.47266 1.3633 0.71875 2.0977 0.23828 0.71094 0.035156 1.4883-0.50781 2.0117zm-63.82-66.75c0.80469 0.17969 1.5195 0.55469 2.2148 0.99219 0.98438 0.625 1.75 1.4492 2.4844 2.3633 1.3516 1.7773 2.2773 4.043 2.9023 6.1914 0.60547 2.0859 1.0938 4.1641 1.5195 6.3008l0.86328 4.3828c0.070313 0.36719 0.19922 0.67578 0.45703 0.96484 2.1562 2.4062 4.0859 4.9688 5.7344 7.75 0.1875 0.31641 0.34766 0.58594 0.50781 0.94531 1.4922-1.1445 2.5547-1.7852 4.1836-2.5977-1.7188-2.8633-3.4883-5.6133-5.5352-8.2266-0.17969-0.26953-0.32812-0.49609-0.38672-0.82422l-1.1641-5.9336c-0.82422-4.2227-2.1172-9.9766-5.2578-13.086-1.1133-1.1016-2.2578-1.8789-3.8203-1.9258-2.0664-0.070313-3.7461 0.85938-4.7109 2.707zm-7.0352 9.7148c0.36719-0.14844 0.72656-0.25 1.1133-0.30859 1.8984-0.28906 3.7969 0.17969 5.3672 1.2734 2.1055 1.4805 3.5781 3.7266 4.4727 6.1133 0.44531 1.1914 0.78516 2.3555 1.0547 3.5977 0.42578 2.0078 0.71484 4.0039 0.97266 6.043 0.03125 0.27734 0.10938 0.45703 0.29688 0.66406 1.3633 1.4688 2.6836 2.9727 3.7383 4.6719l0.86328 1.4023c0.28906 0.46875 0.48828 0.92578 0.69531 1.4414 1.0352-1.3008 2.0547-2.3203 3.3086-3.3555-1.5508-2.2266-3.0312-4.5508-4.7305-6.6484l-1.7383-2.1445c-0.28906-0.35937-0.44531-0.72656-0.54688-1.1836l-1.293-5.8828c-0.39844-1.8281-0.85547-3.6055-1.4219-5.3867-0.69531-2.168-1.6875-4.3633-3.3086-5.9922-0.91406-0.93359-2.0273-1.5781-3.3203-1.7695-1.2617-0.1875-2.3125-0.0625-3.3672 0.62109-2.4141 1.5391-2.7422 4.2344-2.1562 6.8477zm68.25 55.422c-1.1914-3.3594-3.4297-9.3594-4.1836-10.711-0.097656-0.16797-0.10938-0.34766-0.050781-0.54688 0.86328-2.9805 1.4414-6.2109 1.2617-9.3203-0.26953-4.5312-1.9492-9.2734-4.5117-12.996l-1.9961-2.9023c-1.0625-1.5391-2.1055-3.082-2.9727-4.7617-0.81641-1.5898-1.4609-3.2188-1.9492-4.9492-0.60547-2.1562-0.81641-4.3516-0.86328-6.5977-0.011719-0.76562 0.039062-1.5312-0.20703-2.2539-0.23828-0.70703-0.94531-1.2109-1.6094-1.5195-2.3242-1.1016-4.9688-0.50781-6.8867 1.1523-1.6797 1.4609-2.7227 3.5078-3.0312 5.7031-0.39844 2.7344 0.10938 5.8438 1.3398 8.2695l1.0938 2.168c0.23828 0.46875 0.45703 0.92578 0.55469 1.4609 0.52734 0.10938 2.2852 0.23047 2.4961 0.69531 0.078125 0.16797 0.070312 0.39844-0.058594 0.53516-0.21875 0.23047-0.50781 0.37891-0.83594 0.44531-1.3398 0.29688-2.7539 0.089844-3.9336-0.64453-2.9727-1.8477-5.0859-3.7383-7.1367-6.5977l-2.7539-3.8242-1.2031-1.6016c-0.21875-0.29687-0.36719-0.56641-0.44531-0.93359-0.50781-2.3945-1.1719-4.7383-1.9883-7.0547-0.59766-1.7305-1.3828-3.3672-2.4648-4.8281-1.3516-1.8281-3.5-3.6914-5.8945-2.7969 1.3398 2.4648 2.0273 4.8984 2.6328 7.6406l0.89453 4.6406 0.81641 4.5195c0.039063 0.19922 0.19922 0.35938 0.32812 0.51563 1.7109 2.0664 3.418 4.582 4.7383 6.918 0.25781 0.44531 0.53516 0.84375 0.72656 1.332 0.86328-0.38672 1.5117-0.59375 2.4453-0.69141 0.39844-0.050781 1.1133 0.019531 1.1719 0.46875 0.070313 0.46875-0.59766 0.80469-0.99219 0.95312-2.7734 1.043-5.3477 2.4961-7.7422 4.2227-2.2852 1.6484-4.3125 3.5781-6.0039 5.832-0.38672 0.51562-0.75391 1.0234-1.1836 1.5-0.21875 0.23828-0.50781 0.33594-0.78516 0.21875-1.0938-0.4375 0.066406-2.5938 0.066406-2.5938s-0.089844-0.14062-0.14062-0.23047l-2.4844-3.6055c-0.98438-1.4297-2.1055-2.7109-3.2305-4.0234-0.29688-0.34766-0.44531-0.67578-0.52734-1.1328l-0.73438-4.2227c-0.40625-2.3945-1.2539-5.3477-2.5039-7.4414-1.2734-2.1445-3.3086-4.0859-5.9922-3.7969-1.1211 0.12109-1.7344 0.44922-2.5312 1.2422-0.47656 0.48828-0.80469 1.0352-0.88281 1.7305-0.078124 0.73438-0.078124 1.4492-0.03125 2.207 0.16016 2.4141 0.48828 4.8008 0.90625 7.1836 0.39844 2.2969 0.94531 4.5195 1.6602 6.7266 0.97266 2.9805 2.3242 5.8125 3.8867 8.5273 0.75391 1.3203 1.5508 2.6016 2.4062 3.8555 1.5391 2.2539 3.1797 4.4219 4.9688 6.4883 2.8711 3.3008 6.875 6.9453 10.305 9.668 3.1914 2.5234 7.1445 4.918 10.949 6.3203 1.3906 0.51562 2.8008 0.875 4.2617 1.0625 0.33594 0.039062 0.64453 0.12109 0.875 0.37891 0.20703 0.23828 0.14844 0.69531-0.058593 0.91406-0.74609 0.75391-2.9102 0.60547-2.9102 0.60547s0.36719 0.94531 0.53516 1.4414l1.2109 3.2891c14.547 0.16016 23.859-1.4219 31.172-8.2461z"/> </svg>