<svg xmlns="http://www.w3.org/2000/svg" version="1.1" viewBox="13.6 5 72.82 90.03">  <desc>Created by Lewen Design, downloaded from Noun Project. They can be found at this link: https://thenounproject.com/browse/collection-icon/hand-and-gesture-191281/ (CC BY 3.0)</desc><path fill="currentColor" d="m85.922 80.934-0.77344-0.91016-2.7812-3.2422-3.0352-3.6172-0.039062-2.7305-0.17578-3.2344c-0.24609-4.3086-0.79688-8.5781-1.5195-12.844l-0.84766-4.9766c-0.15625-0.94531-0.32422-1.8438-0.66016-2.7305-0.48438-1.3203-1.9805-3.332-2.1484-3.9531-0.9375-3.3711-1.6875-6.7617-2.5039-10.164-0.27734-1.125-0.5625-2.1992-0.95703-3.2812l-1.5977-4.3594c-1.3711-3.7773-0.98437-5.0273-1.8633-8.1914-0.52344-1.8516-1.7148-3.7852-3.5391-4.5938-0.089844-0.91797-0.24609-1.7656-0.50391-2.6406-1.0938-3.7266-4.9102-5.1758-8.4688-4.1211-1.9219 0.5625-3.5703 1.8242-4.5039 3.6367-0.9375-1.8125-2.582-3.0742-4.5039-3.6367-3.5586-1.0547-7.375 0.39453-8.4688 4.1211-0.25781 0.87891-0.41406 1.7266-0.50391 2.6406-1.8242 0.80859-3.0156 2.7422-3.5391 4.5938-0.87891 3.1641-0.49219 4.418-1.8633 8.1914l-1.5977 4.3594c-0.39453 1.0859-0.67969 2.1602-0.95703 3.2812-0.81641 3.4023-1.5664 6.793-2.5039 10.164-0.16797 0.62109-1.668 2.6328-2.1484 3.9531-0.33594 0.88672-0.50391 1.7852-0.66016 2.7305l-0.84766 4.9766c-0.71875 4.2695-1.2734 8.5391-1.5195 12.844l-0.17578 3.2344-0.039063 2.7305-3.0352 3.6172-2.7812 3.2422-0.77344 0.91016c-0.67188 0.78906-0.62109 1.9609 0.11328 2.6914 0.1875 0.1875 0.37891 0.37109 0.57031 0.55078 6.3867 6.0938 14.895 9.9453 23.68 10.727 0.42188 0.039062 0.84375 0.074218 1.2617 0.097656 0.88281 0.050781 1.6953-0.46484 2-1.293l0.58594-1.6016 2.6133-7.1562c1.3711-0.89844 2.582-1.9727 3.5312-3.3125 0.47266-0.67969 1.2734-1.3516 1.5664-2.1406 0.29688 0.78906 1.0938 1.4609 1.5664 2.1406 0.94531 1.3398 2.1602 2.4141 3.5312 3.3125l2.6133 7.1562 0.58594 1.6016c0.30078 0.82812 1.1172 1.3438 2 1.293 0.41797-0.023438 0.83984-0.054688 1.2617-0.097656 8.7852-0.77734 17.293-4.6328 23.68-10.727 0.19141-0.17969 0.38281-0.36328 0.57031-0.55078 0.73438-0.72656 0.78516-1.9023 0.11328-2.6914zm-37.754-5.8477c-0.43359 2.9492-1.668 5.6289-4.2305 7.2852-1.0039 0.65234-2.1094 1.0547-3.2617 1.3516-0.39453 0.097656-0.75781 0.17578-1.125 0.33594-0.30469 0.12891-0.54297 0.51172-0.35547 0.81641 0.48438 0.78906 1.9805 0.64062 2.8008 0.43359l-2.4844 6.7227c-8.457-0.5625-16.699-4.2109-22.812-10.105l3.6953-4.3086 2.543-3.0078c0.34375-0.40234 0.54297-0.85938 0.46484-1.3984-0.058594-0.49219-0.039063-0.96484-0.039063-1.4688 0.050781-3.5781 0.58203-10.164 1.1445-13.672l0.66016-4.0898 0.52344-3.1367c0.17578-1.0156 0.30469-2.0117 0.58203-3.0078 0.39453-1.4375 1.8047-2.7422 2.375-4.832 0.87891-3.2148 1.6445-6.4258 2.3867-9.6719 0.34375-1.5273 0.80859-2.9766 1.3516-4.4453l1.3203-3.5898c0.35547-0.97656 0.67969-1.9336 0.85938-2.957l0.65234-3.7656c0.24609-1.3594 0.65234-2.75 1.668-3.7461-0.10938 0.19531-0.57031 4.543-0.32422 4.1406 0.375-0.64062 0.67969-1.2812 0.94531-1.9805l1.1445-3.1055c0.44531-1.1836 0.44531-2.7695 0.97656-4.1094 0.80859-2.0391 2.8867-2.6016 4.8984-2.0508 2.8867 0.78906 4.3867 3.5 4.2695 6.3984-1.3789-1.832-3.5898-2.8594-5.8164-2.7031-1.7734 0.12891-3.2344 1.1328-4.043 2.6914-0.375 0.71875-0.64062 1.4688-0.81641 2.2773l-1.1836 5.3711c-0.23828 1.1055-0.51172 2.1484-0.90625 3.2031l-2.0781 5.6797c-0.41406 1.1328-0.73828 2.2578-1.0039 3.4297l-2.6914 11.652c-0.16797 0.73047-0.75781 2.0117-0.25781 2.6328 0.10938 0.13672 0.24609 0.23828 0.39453 0.24609 0.45312 0.050782 0.83984-0.62109 0.99609-1.0039 0.35547-0.83984 0.62109-1.6758 0.86719-2.5625 0.94531-3.3125 1.7734-6.625 2.5742-9.9688 0.36328-1.5195 0.81641-2.9688 1.3594-4.4258l2.082-5.5586c0.44531-1.1836 0.75781-2.3477 1.0234-3.5781l0.98438-4.6445c0.31641-1.4375 0.96484-2.9688 2.582-3.2148 2.0391-0.30469 3.9844 1.1133 4.9688 2.8203 0.52344 0.90625 0.83984 1.8633 0.85938 2.918 0.058594 2.9492-0.19531 5.8477-0.39453 8.7852l-0.10938 1.6367c-0.83984-0.88672-1.875-1.4297-3.0469-1.6445-2.4336-0.46484-4.6445 0.60938-5.5898 2.9297-0.36328 0.87891-0.54297 1.7539-0.69141 2.7031l-0.67188 4.043c-0.16797 1.0664-0.54297 2.0391-0.86719 3.0664-0.65234 2.0117-1.1523 4.0117-1.5469 6.0938-0.24609 1.3203-0.48438 2.5938-0.83984 3.875-0.1875 0.67969-0.41406 1.3125-0.54297 2-0.10938 0.66016 0.13672 1.4375 0.76953 1.4297 0.63281 0 1.0352-1.125 1.2109-1.668 0.54297-1.6562 0.94531-3.3242 1.332-5.0195 0.31641-1.3906 0.60156-2.7422 1.0234-4.1016l1.3789-4.4062c0.60938-1.9219 0.76953-4.7031 1.3203-6.6758 0.15625-0.54297 0.38281-1.0547 0.76953-1.4609 1.2227-1.293 3.3633-0.67188 4.5664 0.46484 1.1641 1.0938 1.7734 2.543 1.875 4.1289 0.375 5.5781-0.60938 16.039-1.7344 21.59-0.050782 0.20703-0.15625 0.99609 0.38281 0.42578 0.14844 0.50391 0.23828 0.96484 0.32422 1.4688 0.64062 3.3711 0.89844 6.7734 0.89844 10.215 0 1.9609-0.050781 3.8828-0.33594 5.8281zm1.832-16.367c-0.039062-0.75-0.86719-2.2773-0.86719-2.2773l0.86719-2.7031 0.86719 2.7031s-0.82813 1.5273-0.86719 2.2773zm10.488 33.312-2.4844-6.7227c0.81641 0.20703 2.3164 0.35547 2.8008-0.43359 0.1875-0.30469-0.050782-0.69141-0.35547-0.81641-0.36328-0.15625-0.73047-0.23828-1.125-0.33594-1.1523-0.29688-2.2578-0.69922-3.2617-1.3516-2.5625-1.6562-3.7969-4.3359-4.2305-7.2852-0.28516-1.9414-0.33594-3.8633-0.33594-5.8281 0-3.4414 0.25781-6.8438 0.89844-10.215 0.089844-0.50391 0.17578-0.96484 0.32422-1.4688 0.54297 0.57031 0.43359-0.21875 0.38281-0.42578-1.125-5.5508-2.1094-16.012-1.7344-21.59 0.097656-1.5859 0.71094-3.0352 1.875-4.1289 1.2031-1.1328 3.3438-1.7539 4.5664-0.46484 0.38281 0.40234 0.60938 0.91797 0.76953 1.4609 0.55078 1.9727 0.71094 4.75 1.3203 6.6758l1.3789 4.4062c0.42578 1.3594 0.71094 2.7109 1.0234 4.1016 0.38281 1.6953 0.78906 3.3633 1.332 5.0195 0.17578 0.54297 0.58203 1.668 1.2109 1.668 0.63281 0.011719 0.87891-0.76953 0.76953-1.4297-0.12891-0.69141-0.35547-1.3203-0.54297-2-0.35547-1.2812-0.58984-2.5547-0.83984-3.875-0.39453-2.082-0.89844-4.082-1.5469-6.0938-0.32422-1.0234-0.69922-2-0.86719-3.0664l-0.67188-4.043c-0.14844-0.94531-0.32422-1.8242-0.69141-2.7031-0.94531-2.3164-3.1562-3.3906-5.5898-2.9297-1.1719 0.21875-2.207 0.75781-3.0469 1.6445l-0.10938-1.6367c-0.19531-2.9375-0.45312-5.8359-0.39453-8.7852 0.019531-1.0547 0.33594-2.0117 0.85938-2.918 0.98438-1.707 2.9297-3.125 4.9688-2.8203 1.6172 0.24609 2.2656 1.7734 2.582 3.2148l0.98438 4.6445c0.26562 1.2305 0.58203 2.3945 1.0234 3.5781l2.082 5.5586c0.54297 1.4609 0.99609 2.9102 1.3594 4.4258 0.79688 3.3438 1.625 6.6562 2.5742 9.9688 0.24609 0.88672 0.51172 1.7266 0.86719 2.5625 0.15625 0.38281 0.54297 1.0547 0.99609 1.0039 0.14844-0.007812 0.28516-0.10938 0.39453-0.24609 0.50391-0.62109-0.089844-1.9023-0.25781-2.6328l-2.6914-11.652c-0.26563-1.1719-0.58984-2.2969-1.0039-3.4297l-2.0781-5.6797c-0.39453-1.0547-0.67188-2.1016-0.90625-3.2031l-1.1836-5.3711c-0.17578-0.80859-0.44531-1.5586-0.81641-2.2773-0.80859-1.5586-2.2656-2.5625-4.043-2.6914-2.2266-0.15625-4.4375 0.86719-5.8164 2.7031-0.11719-2.8984 1.3789-5.6094 4.2695-6.3984 2.0117-0.55078 4.0898 0.011719 4.8984 2.0508 0.53125 1.3398 0.53125 2.9297 0.97656 4.1094l1.1445 3.1055c0.26562 0.69922 0.57031 1.3398 0.94531 1.9805 0.24609 0.40234-0.21875-3.9453-0.32422-4.1406 1.0156 0.99609 1.418 2.3867 1.668 3.7461l0.65234 3.7656c0.17578 1.0234 0.50391 1.9805 0.85938 2.957l1.3203 3.5898c0.54297 1.4688 1.0039 2.918 1.3516 4.4453 0.73828 3.2422 1.5078 6.457 2.3867 9.6719 0.57031 2.0898 1.9805 3.3906 2.375 4.832 0.27734 0.99609 0.40234 1.9922 0.58203 3.0078l0.52344 3.1367 0.66016 4.0898c0.5625 3.5078 1.0938 10.094 1.1445 13.672 0 0.50391 0.019531 0.97656-0.039063 1.4688-0.078124 0.54297 0.11719 0.99609 0.46484 1.3984l2.543 3.0078 3.6953 4.3086c-6.1133 5.8945-14.355 9.543-22.812 10.105z"/></svg>