<svg xmlns="http://www.w3.org/2000/svg" version="1.1" viewBox="4.97 14.7 90.05 70.58">  <path d="m60.227 54.293c-0.14453 0.25781-0.72656 0.51562-1.1328 0.33984-7.6523-3.293-15.695-3.7617-23.109 0.46484-0.39844 0.22656-1.0312 0.14453-1.2617-0.13672-0.21875-0.26953-0.24609-0.95703 0.12109-1.3555 1.7227-1.8477 4.1133-2.9609 6.6875-3.5898 5.6367-1.3789 11.676-0.58984 16.895 1.8945 0.84375 0.40234 2.3555 1.3789 1.7969 2.3867zm34.328-11.859c-0.82422 2.3867-2.5547 4.3867-5.3047 6.0977l-0.33203 0.21484 0.10547 0.375c0.0625 0.22266 0.10547 0.46094 0.14062 0.68359 0.042969 0.30078 0.0625 0.58984 0.074219 0.88672 0.054688 2.6953-1.5625 5.3359-4.8242 7.8828-2.875 2.2461-6.1172 4.1289-9.8828 5.7656-7.3164 3.1758-21.059 8.5469-30.781 8.7266h-0.32031l-4.8438 9.5938-0.75391 1.4922c-0.4375 0.86328-1.4141 1.2969-2.3516 1.0586-0.50391-0.12891-1.0078-0.26172-1.5156-0.40234-9.4648-2.5469-19.367-6.793-27.348-15.934-0.40234-0.45703-0.79688-0.92578-1.1836-1.4023-0.54297-0.67578-0.58203-1.6328-0.11719-2.3633 0.35547-0.55469 0.71094-1.1094 1.0742-1.6641 1.9023-2.9297 3.8711-5.8711 5.9375-8.6836 0.41797-0.57812 1.4531-2 1.4531-2-0.097656-0.375-0.18359-0.73828-0.26562-1.1133-0.71484-3.1875-0.59766-6.2656 0.46875-9.3906 1.0156-3.0039 2.8242-5.7656 5.1133-7.9258l5.6914-5.3477c2.7266-2.5781 3.668-5.2188 4.5039-7.5508 0.59766-1.6992 1.1211-3.1758 2.2344-4.3516 1.8281-1.9453 4.2578-2.3516 5.9766-2.3516 0.60938 0 1.2305 0.054687 1.8516 0.14844 4.75 0.75781 8.1172 4.6328 8.1797 9.4219 0.03125 2.0977-0.49219 4.0625-1.6992 6.3945l-0.52344 0.99609 1.1016-0.22656c3.2422-0.66406 6.0977-1.7109 8.7266-3.1992l10.652-6.0312c2.3516-1.3359 4.4375-2.2344 6.5859-2.8359 1.0703-0.30078 2.2344-0.46094 3.3594-0.46094 3.0391 0 5.4766 1.1211 6.6836 3.0781l0.12891 0.22656c0.22656 0.35156 0.50391 1.293 0.50391 1.293s1.1445-0.375 2.4062-0.375c3.2305 0.011719 6.3438 1.7422 7.4688 4.75 1.2461 3.3359-0.55859 6.4805-0.55859 6.4805l0.23438 0.20312c2.2148 1.9023 2.9609 4.9102 1.9453 7.8398zm-18.555-12.535-13.316 8.0312-1.6797 0.85547c1.3359 1.1133 3.1758 3.8281 3.1758 3.8281s1.5938-0.67188 2.4297-1.1133l7.7227-3.9883c3.25-1.6133 7.2852-4.2773 11.246-4.7734 2.3516-0.29297 4.7383 0.36719 4.7383 0.36719s1.8555-4.7891-2.3867-6.9062c-3.6953-1.8477-8.7734 1.8047-11.93 3.6992zm10.008 21.285c-0.042968-2.6094-2.5977-4.4922-5.0703-4.2148-1.8945 0.22656-3.668 1.0586-5.4102 1.7852-1.5938 0.66406-3.1875 1.3359-4.793 1.9883-0.79297 0.30859-1.582 0.62109-2.375 0.91797-0.75 0.28906-1.5195 0.64062-2.2891 0.83594-0.56641 0.14062-1.0703-0.054688-1.3281-0.59766-0.23438-0.50391-0.20313-1.0391 0.35156-1.5938-1.0469-2.9414-2.5664-5.6992-4.5234-8.1406-1.0039-1.2617-2.1289-2.4375-3.3359-3.5078-0.58984-0.52344-1.2188-0.99609-1.8281-1.4883-0.41797-0.34375-0.82422-1.1328-0.23438-1.5312 0.55469-0.38672 1.4883-0.011719 2.0195 0.22656 0.71484 0.30859 1.7969 1.1133 1.7969 1.1133l1.3906-0.78125s19.797-11.562 19.957-11.656c-0.4375-1.2852-1.6055-2.2031-3.1992-2.5469-0.46094-0.097657-0.94141-0.14063-1.4531-0.14063-3.625 0-7.8594 2.5039-11.273 4.5234-0.78125 0.46094-1.5195 0.89844-2.2148 1.2852-0.65234 0.36328-1.293 0.72656-1.9375 1.0898-2.8438 1.6133-5.5391 3.1328-8.5664 4.2148-2.7266 0.97266-5.6797 1.3047-8.5234 1.6133l-0.58984 0.0625c-0.085937 0.011719-0.18359 0.011719-0.28906 0.011719-0.63281 0-1.4336-0.019532-1.9453-0.44922-0.57812-0.49219-0.085938-0.75781 0.30859-1.1562 0.32031-0.33203 0.63281-0.68359 0.91797-1.0586 0.55469-0.71484 1.0273-1.4961 1.4336-2.3008 1.3359-2.6094 2.1172-5.9883 0.52344-8.6641-1.2305-2.0742-3.6133-3.4219-6.0625-3.4219-0.76953 0-1.5195 0.14063-2.2227 0.39453-1.6797 0.60938-2.1914 2.0859-2.8555 3.9688-0.86719 2.4922-2.0625 5.8945-6.4375 10.012l-4.5547 4.2891c-2.5898 2.4258-4.2578 5.5625-5.1016 9.5938-1.082 5.0703 0.51172 8.1719 1.4531 10.02 0.12891 0.24609 0.25781 0.49219 0.375 0.75 0.11719 0.25781 0.24609 0.51172 0.25781 0.80078 0.011719 0.11719 0 0.25781-0.097656 0.34375-0.074219 0.074218-0.18359 0.097656-0.28906 0.074218-0.84375-0.097656-1.6914-1.2188-2.1055-1.8945l-0.44922-0.71484-7.0156 10.824c6.3516 7.6133 14.898 12.566 27.047 15.816l4.8867-9.4961s-4.9844-1.0273-7.7539-3.957c-0.30078-0.30859-0.12891-0.57812-0.042968-0.72656 0.054687-0.097657 0.21484-0.10547 0.30078-0.10547 0.14062 0 0.30078 0.03125 0.44922 0.097656 3.6992 1.5508 6.918 2.2656 10.129 2.2656 0.21484 0 0.42969 0 0.65234-0.011719 3.1211-0.097656 6.1602-0.56641 9.5391-1.4648 7.4336-1.9766 14.203-4.418 20.695-7.4336 0.73828-0.34375 1.4648-0.70703 2.1836-1.082 1.8398-0.97266 3.6484-2.043 5.3242-3.293 1.7539-1.3164 4.2148-3.0391 4.1719-5.4961zm5.8945-11.402c-0.011719-1.5508-0.79297-2.8984-2.1914-3.582-1.5625-0.75781-3.4453-0.78125-5.0898-0.33203-2.332 0.62109-4.4375 1.8516-6.5664 2.9531-4.1719 2.1719-8.2773 4.2891-12.578 6.0977 0.84375 1.4648 1.3281 2.8672 1.4219 4.4805 3.5391-1.6133 6.9414-3.1758 10.609-4.5234 1.9688-0.71484 3.9023-1.0898 5.7227-0.79297 2.2656 0.36328 3.8945 2.1484 3.8945 2.1484 1.5703-0.99609 3.0273-2.1602 3.9883-3.7539 0.49219-0.8125 0.80078-1.7422 0.79297-2.6953z"/></svg>