<svg xmlns="http://www.w3.org/2000/svg" version="1.1" viewBox="14.43 4.77 71.13 90.47">  <desc>Created by Lewen Design, downloaded from Noun Project. They can be found at this link: https://thenounproject.com/browse/collection-icon/hand-and-gesture-191281/ (CC BY 3.0)</desc><path fill="currentColor" d="m40.445 95.199c-5.4961 0-11.176-1.0391-17.359-3.1719-0.76172-0.375-1.207-1.0625-1.2344-1.8281l-0.28906-7.8672c-0.49219-0.5-3.9297-4.168-5.1133-10.039-0.82031-4.0742-1.2031-7.875-1.168-11.617l0.003906-0.82812c0.003906-0.87109 0.007813-1.6914 0.058594-2.5664 0.082031-1.3125 0.042969-2.3828-0.11719-3.3594-0.32812-1.9883-0.48437-3.9062-0.58984-5.5195-0.27734-4.125-0.25-8.4414 0.078125-13.191 0.21094-3.0742 0.75781-5.9766 1.625-8.6328 0.51953-1.5898 1.2812-3.4297 2.9766-5.0078 1.1953-1.1172 2.7422-1.707 4.4844-1.707 0.14453 0 0.28906 0.003907 0.4375 0.011719 1.3438 0.078125 2.4219 0.41406 3.2812 1.0312 0.4375-2.1172 1.0469-4.125 1.8594-6.125 0.69531-1.6992 1.6367-3.1719 2.8047-4.3789 1.4688-1.5195 3.5391-2.3906 5.6797-2.3906 1.2344 0 2.457 0.29688 3.5352 0.85547 1.2656 0.66016 2.2578 1.5742 2.9648 2.7227 0.9375-1.8008 2.0547-3.6406 3.7734-5.0898 1.2773-1.0352 2.7188-1.6211 4.168-1.6992 0.14062-0.007812 0.27734-0.011719 0.41797-0.011719 1.4922 0 3.0039 0.42188 4.3828 1.2227 2.1172 1.2305 3.5703 3.3125 3.9922 5.7188 0.25 1.4219 0.1875 2.8828-0.19141 4.4766-0.33594 1.4141-0.82812 2.8633-1.5078 4.4375-0.67578 1.5742-1.4961 3.0859-2.2812 4.4805-1.4727 2.6172-2.75 5.2969-3.8984 8.1719 1.3828-1.2461 2.9297-2.2578 4.5391-3.0039 1.3203-0.60938 2.7109-0.94141 4.1328-0.98828 0.1875-0.007813 0.375-0.007813 0.55859-0.007813 1.6172 0 3.2266 0.23438 4.9141 0.71484 2.6953 0.76562 5.2461 1.7422 7.582 2.8984 1.1484 0.57031 2.1367 1.2188 3.0156 1.9844 0.38281 0.33594 0.75 0.72266 1.0977 1.1562 1.8867 2.3516 2.3906 4.3516 2.9297 6.4688 0.23047 0.90625 0.46875 1.8438 0.82422 2.8281 0.64844 2.3359 1.043 3.7617-0.39844 5.9102 2.5547 1.2617 3.6914 3.7617 2.9062 6.4336l-0.96875 3.2852c-0.41406 1.3984-0.60156 3.0664-0.78125 4.6797-0.17969 1.5859-0.35156 3.082-0.71875 4.3125-0.37891 1.2812-0.94922 2.3633-1.7422 3.3125-1.0391 1.2461-2.2812 2.3281-3.6875 3.2188-2.6484 1.6719-6.2812 3.1133-8.2109 3.8242l-3.2383 1.1953c-2.0625 0.76172-2.9609 1.4219-4 2.1875-0.60547 0.44531-1.2344 0.90625-2.1562 1.4492-0.046875 0.027344-0.10547 0.070312-0.14844 0.10938l0.64062 4.6914c0.12109 0.88281-0.39453 1.7422-1.2305 2.0469-2.4844 0.89844-9.1836 3.0078-17.727 3.1875-0.30078 0.007813-0.60156 0.007813-0.90234 0.007813zm-15.129-5.8711c5.3398 1.7188 10.73 2.5859 16.023 2.5859 5.2656 0 10.543-0.86328 15.68-2.5625-0.17188-1.0664-0.39453-2.4531-0.48828-3.0625-1.3359 0.52734-2.8047 0.83594-3.9844 0.83594-0.24219 0-0.47656-0.011719-0.70312-0.039062-0.83203-0.10156-1.7188-0.47656-1.7227-1.2422 0-0.82422 1.0664-1.0898 1.3906-1.1523 3.1172-0.58984 5.7969-1.4531 8.7422-3.7422l0.21875-0.17188c0.36328-0.28516 0.70703-0.55469 1.1133-0.79688 1.5859-0.92969 3.2891-1.5781 4.7422-2.0898 2.6328-0.92578 4.9453-1.8828 7.0625-2.918 2.0312-0.99219 3.6602-1.9805 5.0156-3.5742 0.82031-0.96484 1.3438-2.0898 1.5469-3.3398 0.17969-1.0898 0.29297-2.1406 0.41406-3.25l0.039062-0.37891c0.21094-1.9531 0.65625-3.9844 1.3945-6.4023l0.14062-0.4375c0.17188-0.53516 0.33984-1.043 0.375-1.5938 0.03125-0.50391-0.28906-1.0703-0.86328-1.5156-0.66797-0.51953-1.5352-0.81641-2.375-0.81641-0.16797 0-0.33594 0.011719-0.50391 0.035157-1.1055 0.15625-1.9609 0.39844-2.6875 0.75781-1.6328 0.80859-2.9883 2.1719-3.8164 3.8438-0.625 1.2578-0.9375 2.7148-0.90625 4.2188 0.007813 0.55859 0.19141 1.0938 0.36719 1.6172 0.0625 0.17969 0.12109 0.35938 0.17578 0.53516 0.13672 0.45312-0.042969 0.82031-0.46875 0.95703-0.10156 0.035156-0.20703 0.050782-0.31641 0.050782-0.83594 0-1.5547-1.0234-1.8438-1.7109l-4.5859 1.7539c-0.28125 0.10938-0.55078 0.16016-0.82031 0.16016-0.40234 0-0.77344-0.11328-1.207-0.28516-2.4414-0.96484-4.3906-2.7852-5.4922-5.1289-1.0781-2.2969-1.5117-4.8477-1.25-7.375l0.03125-0.30078c0.0625-0.63672 0.125-1.2383 0.28516-1.8672 0.09375-0.375 1.7695-2.9883 2.6406-4.0625 0.93359-1.1523 1.9258-2.1875 2.9727-3.2773-0.64844-0.90234-0.99609-1.957-0.97656-2.9844 0.007813-0.33984 0.10156-0.59375 0.29297-0.77344 0.125-0.097656 0.25-0.14062 0.36719-0.14062 0.31641 0.054688 0.45312 0.29297 0.67187 0.69141 0.37109 0.66406 0.99609 1.7734 2.3867 2.3633 1.2266 0.51953 2.4922 0.85156 3.7695 0.98437 0.066407-0.16406 0.46875-1.2109 1.1641-1.2109 0.11719 0 0.23047 0.03125 0.33984 0.09375 0.17578 0.097656 0.27344 0.32031 0.25391 0.57031l-0.070313 0.85937c-0.097656 1.125 0.63281 3.6211 2.25 5.3828 1.1445 1.2461 2.4922 1.875 4.0039 1.875h0.13281c1.4805-0.039063 2.7891-0.71875 3.5898-1.8672 0.3125-0.44922 0.41406-0.92969 0.30859-1.4727-0.10547-0.55078-0.25391-1.1016-0.46875-1.7266-0.32812-0.96484-0.62109-1.9883-0.94922-3.3242-0.30469-1.25-0.67188-2.2617-1.1562-3.1758-0.39844-0.75391-0.85547-1.543-1.5234-2.1797-1.4727-1.4062-4.168-2.5156-6.6133-3.418-1.8438-0.67969-4.5781-1.5781-7.0859-1.5781-0.59766 0-1.1641 0.050781-1.6797 0.15625-3.6836 0.73047-7.9922 5.1133-9.9922 7.8789l-0.92188 3.9023c-0.125 0.53906-0.24609 1.0508-0.42188 1.5625 0.94531 0.30859 1.6484 0.70312 2.1953 1.2344 0.22656 0.21875 0.34766 0.52734 0.32422 0.82422-0.019531 0.25781-0.14453 0.47656-0.35156 0.625-0.16016 0.11328-0.34375 0.17188-0.55078 0.17188-0.21484 0-0.42578-0.058594-0.62109-0.125l-0.51562-0.17188c-1.3281-0.44922-2.7031-0.91016-4.1289-1.0156-0.57031-0.042968-1.1406-0.0625-1.7109-0.0625-2.4727 0-5.0508 0.36719-7.8789 1.125-3.2734 0.87891-6.3438 2.1406-9.1172 3.7617-0.27344 0.16016-0.5 0.26562-0.75391 0.33984-0.085938 0.027343-0.17578 0.039062-0.26562 0.039062-0.41406 0-0.85156-0.28906-0.86719-0.76953-0.007812-0.30469 0.14062-0.59766 0.46484-0.90234 0.62109-0.58594 1.3516-1.1172 2.3516-1.7031-0.1875-0.58203-0.29688-1.1484-0.39453-1.8125-0.32031-2.1836-0.49609-4.4023-0.66797-6.5469l-0.085938-1.1094c-0.058594-0.71875-0.078125-1.3516 0.011719-2.1289l0.87891-7.5195c0.14062-1.1875 0.14844-2.2422 0.023437-3.3125-0.27344-2.4141-1.6758-3.8594-3.7539-3.875-1.1719 0-2.1055 0.41406-2.8047 1.2344-0.62109 0.72266-1.1133 1.6055-1.5078 2.6992-0.78906 2.1953-1.375 5.1484-1.6055 8.1016-0.50391 6.5-0.35938 13.008 0.41406 18.32 0.16797 1.168 0.23047 2.1172 0.19531 3.082-0.17969 5.25-0.097656 9.6953 0.87891 14.328 0.55859 2.6523 1.4805 5.0117 2.7383 7.0117 0.79297 1.2617 1.7812 2.3125 2.8047 3.3633 0.24609 0.25391 0.5 0.49219 0.75 0.73047 0.375 0.35156 0.75781 0.71875 1.1133 1.1211 0.18359 0.21094 0.26562 0.44141 0.23047 0.66406-0.039063 0.24219-0.23047 0.44922-0.5 0.54297-0.16016 0.054688-0.33203 0.085938-0.51172 0.085938-0.44922 0-0.89062-0.17969-1.2969-0.39062 0.11719 0.77344 0.17969 1.5156 0.24219 2.2891l0.25391 3.0312zm33.746-37.336c-0.089844 0.78906-0.17969 1.5391-0.17578 2.332 0.003906 1.7305 0.35156 3.3398 1.0391 4.7891 0.80078 1.6875 2.2344 2.9336 3.9375 3.4258 0.1875-0.054687 3.5-1.2852 4.1523-1.6016 0.25-2.9219 1.6602-5.6484 3.8984-7.5508-2.3164-1.2031-3.6328-3.625-4.2188-5-0.1875-0.47656-0.37109-0.99609-0.47656-1.582-1.1758-0.14063-2.3164-0.4375-3.3906-0.88281-0.21875 0.28125-0.44531 0.51172-0.6875 0.75391-0.91406 0.91406-1.7305 1.8516-2.5547 2.9219l-1.4609 1.8984-0.054688 0.49609zm-21.227-40.711c-1.0156 0-1.9805 0.33594-2.7969 0.97266-0.73047 0.57031-1.3008 1.2383-1.8438 2.1719-0.77734 1.3281-1.3945 2.8516-1.9492 4.8008-0.5 1.7695-0.87891 3.5156-1.1484 4.8359-0.074218 0.36328-0.039062 0.60156 0.070313 1 0.41016 1.4961 0.51953 3.0938 0.32422 4.75l-0.61719 5.2812c-0.042969 0.36719-0.10156 0.73047-0.16406 1.0938-0.13281 0.80469-0.26172 1.5625-0.20313 2.3438l0.30078 4.1367 0.42188 5.5508c2.2617-1.0625 4.5156-1.7891 7.2344-2.3398-0.09375-0.39062-0.12109-0.76953-0.12891-1.125-0.039063-1.4766 0.046874-2.8828 0.14844-4.3125l0.49219-7.0508c0.089844-1.2812 1.3594-5.3359 2.0391-7.5078l1.7539-5.6797c0.26562-0.85156 0.43359-1.7422 0.57031-2.9688 0.11328-1.0117 0.0625-1.8984-0.15625-2.707-0.35156-1.3164-1.4375-2.4805-2.7656-2.9688-0.51172-0.1875-1.043-0.28125-1.5742-0.28125zm8.7266 34.359c0.097656 0 0.20703 0.003906 0.32031 0.015625 0-0.98828 0.41797-3 0.60938-3.7266l2.0625-7.8984c0.49219-1.8945 2.8672-7.0469 3.8633-8.9062l1.9961-3.7109c1.1172-2.082 2.4609-5.3906 2.5586-7.8672 0.09375-2.2578-1.1875-4.2383-3.2578-5.0469-0.74219-0.28906-1.3945-0.42969-1.9922-0.42969-0.17188 0-0.34766 0.011719-0.52344 0.039063-0.90234 0.13281-1.7812 0.61719-2.5391 1.4102-0.45312 0.47266-0.92969 1.0039-1.3477 1.6758-0.69141 1.1055-1.2969 2.1484-1.8555 3.1953l-1.1523 2.1523c-0.058594 1.2812-0.29297 2.5625-0.69531 3.8438l-2.0742 6.6172-1.6406 5.418c-0.28906 2.9844-0.48828 6.0547-0.68359 9.0234l-0.27344 4.0938c0.85547-0.10547 1.7266-0.16016 2.5938-0.16016 1.082 0 2.2031 0.085938 3.3359 0.25 0.125 0.019532 0.25 0.023438 0.375 0.023438l0.3125-0.003906z"/> </svg>