<svg xmlns="http://www.w3.org/2000/svg" version="1.1" viewBox="7.87 5 84.25 90.03">  <desc>Created by Lewen Design, downloaded from Noun Project. They can be found at this link: https://thenounproject.com/browse/collection-icon/hand-and-gesture-191281/ (CC BY 3.0)</desc><path fill="currentColor" d="m91.426 18.418c-0.94922-2.6406-3.1836-4.6953-5.8945-5.4336-3.2109-0.875-6.2031 0.0625-8.5469 2.4609-0.90625 0.92578-1.625 1.9648-2.25 3.1055-0.94531 1.7227-1.6914 3.5195-2.3789 5.3711-1.3164 3.5547-2.5234 7.1094-3.6914 10.746-1.082-1.3516-2.4648-2.3086-4.0742-2.9492-1.8906-0.74609-3.9609-1-5.9805-0.74609-1.2891 0.1875-2.4883 0.5625-3.6133 1.2695-0.73828-1.2383-1.7734-2.1445-2.9531-2.9414-2.9453-1.7148-6.5469-2.1953-9.8438-1.3281-2.9492 0.81641-5.3125 2.832-6.5352 5.7383l-4.2422-13.199-0.78516-2.2812c-0.56641-1.6445-1.1758-3.2422-1.8984-4.8281-0.69141-1.5156-1.5078-2.9336-2.5195-4.2539-1.7773-2.3086-3.9922-3.6836-6.9023-4.0703-1.3672-0.18359-2.7188-0.011719-4.0391 0.37891-2.6992 0.79688-4.9805 2.7227-6.1484 5.2812-1.7578 3.8594-1.4375 8.1133-0.30469 12.098 1.207 4.2422 4.0898 10.199 6.1016 14.25l3.8203 7.6836c1.0703 2.1523 2.0195 4.3398 2.8828 6.582-1.6641 2.8438-3.0352 5.9258-3.5 9.1797-0.50781 3.2656 0.37891 6.3672 1.9453 9.2266 2.4766 4.5156 6.4297 9.0703 10.812 11.844l0.066406 8.6758c0.003906 0.74219 0.49609 1.3945 1.207 1.6094l0.25 0.074219c6.8125 2.0312 13.492 3.0469 20.137 3.0469 6.8789 0 13.715-1.0898 20.609-3.2656 0.82031-0.25781 1.3164-1.0938 1.1523-1.9375l-1.7578-8.9883s0.13281-0.11719 0.23047-0.20312c4.0039-3.4453 6.4414-8.0977 7.6914-13.195 1.2227-4.9844 1.6133-11.121 1.5117-16.215-0.007813-0.29297 0.046875-0.57812 0.16016-0.84766l2.2422-5.4609 4.5273-10.648c0.80469-1.8945 1.5664-3.7852 2.1758-5.7461 1.0156-3.2656 1.5117-6.8008 0.33594-10.074zm-70.371 24.027-3.0469-6.1172c-1.6016-3.2148-3.1445-6.4453-4.5352-9.7578-0.94922-2.2656-1.7461-4.5664-2.1758-6.9844-0.45703-2.582-0.4375-5.5703 0.87109-7.9102 1.2344-2.2031 3.668-3.6133 6.1953-3.5391 2.8086 0.082031 4.832 1.8594 6.2461 4.125 0.86328 1.3828 1.5352 2.8477 2.1211 4.3828 0.89844 2.3555 1.6797 4.75 2.4492 7.1602 1.5469 4.8477 3.1562 9.6523 4.9062 14.418 0.23047 0.625 0.45312 1.1797 0.82422 1.7188-0.19531 1.418-0.30078 2.793-0.28125 4.207 0.003906 0.33984 0.015625 0.64844 0.09375 0.98828-4.043-0.12891-7.9727 0.51562-10.824 3.6875-0.32422-0.96484-0.71094-1.8594-1.1445-2.7695l-1.707-3.6094zm64.988-9.3555-2.8828 6.7227c-1.4219 3.3086-2.7461 6.6406-4.0195 9.9961-0.21484 0.57031-0.20703 1.0234-0.20312 1.6172 0.023438 4.0664-0.32812 9.1914-1.0547 13.211-0.35156 1.9258-0.87891 3.7891-1.5898 5.6172-0.83594 2.1445-2 4.1484-3.4727 5.9102-1.7617 2.1094-3.9805 3.6914-6.5117 4.7383-0.95312 0.39453-1.8906 0.70312-2.8672 1.0312-0.40625 0.13672-0.78125 0.42578-0.88281 0.84766-0.11328 0.47656 0.21484 0.87891 0.63672 1.0781 1.6719 0.72266 4.8242-0.53906 6.457-1.3672l1.125 6.793c-12.043 3.5234-23.93 3.5625-36.238 0.12109l-0.5-6.2305c-0.007812-0.074219-0.023437-0.23047-0.023437-0.23047s0.089844 0.035157 0.14453 0.058594c0.67188 0.31641 1.3633 0.50391 2.0898 0.69531 1.2031 0.31641 3.5938 0.82422 4.6211-0.019531 0.24609-0.19922 0.39844-0.49609 0.36328-0.79297-0.089844-0.75391-1.1992-0.98047-1.8867-1.1719-4.2969-1.207-7.5781-2.7344-10.812-5.8867-2.3984-2.3398-4.4297-5.0781-5.9766-8.0508-1.4492-2.7852-1.8438-5.2422-1.0742-8.3047 0.41016-1.6406 1.0352-3.1719 1.7617-4.6992 0.70703-1.4883 1.5664-2.8945 2.6484-4.125 1.1055-1.2578 2.5195-2.0664 4.1758-2.3047 0.66016-0.097656 1.2617-0.19922 1.9453-0.23047 2.5-0.12109 4.9844-0.0625 7.4805 0.15234 0.87109 0.074219 1.6758 0.17969 2.4766 0.50391 1.043 0.42188 1.8906 1.1406 2.4258 2.1484 1.0977 2.0742 0.94141 4.6641-0.44141 6.5703-1.7188 2.3633-4.8945 3.2969-7.6445 3.7344-0.55078 0.085938-1.2734 0.22656-1.3438 0.94531-0.085938 0.87891 1.0547 1.3086 1.8125 1.3633 2.4258 0.16797 5.3672-0.72656 7.3164-2.2656 3.2031 1.7969 5.3438 4.5781 6.3516 8.1133 0.38672 1.3594 0.53125 2.7148 0.61719 4.1133 0.027344 0.43359 0.31641 0.83594 0.74609 0.83594 0.93359 0 1.1797-1.4531 1.2148-2.1797 0.074218-1.4609-0.16016-2.8906-0.56641-4.3008-0.78516-2.7227-2.3438-5.1211-4.6055-6.9023 1.2305-0.050781 2.9688-0.67969 3.8086-1.625 0.89063 1.6211 2.6797 2.6836 4.3789 3.2148 2.1641 0.67969 4.4727 0.65625 6.5703-0.23438 2.375-1.0078 4.0273-2.9648 5.0547-5.293 0.71875-1.6328 1.1719-3.3242 1.5234-5.0781 0.51562-2.5859 1.0117-6.2969 0.46875-8.8555-0.11328-0.53125-0.47266-1.418-1.1094-1.2891-0.54688 0.11328-0.62109 0.89062-0.69141 1.4102l-0.66797 4.8633c-0.31641 2.3086-1.2305 5.8789-2.2422 7.9883-0.49609 1.0352-1.1445 1.9727-2.043 2.7031-2.1641 1.7578-5.2266 1.5664-7.5508 0.1875-0.84375-0.5-2.1406-1.9609-1.9336-2.8906l0.53125-2.4023c0.60938-2.7422 2.0508-13.695 0.76953-15.777-0.16016-0.26172-0.42969-0.41406-0.71484-0.38281-0.67187 0.074219-0.875 0.97266-0.93359 1.5586l-0.38281 3.7305c-0.37891 3.707-0.69531 7.3125-1.4688 10.969-0.19141 0.90234-0.44922 1.7734-0.86719 2.5781-0.69531 1.3477-1.9375 1.7344-3.3945 1.8047 1.9648-3.5312 1.3203-8.3438-1.8828-10.922-0.94531-0.71484-1.9766-1.2266-3.1328-1.5117-1.5078-0.37109-3.0312-0.52734-4.6094-0.53125-0.11719-2.0742 0.019531-4.1016 0.23828-6.1484 0.13672-1.2969 0.33203-2.5391 0.76562-3.7578 1.5195-4.5977 6.8438-5.4219 10.871-3.8789 1.2422 0.47656 2.3086 1.2461 3.125 2.2852 0.5 0.63672 0.84375 1.3164 1.207 2.0234 0.125 0.25 0.33984 0.44531 0.57422 0.48047 0.25 0.039063 0.52344-0.046874 0.72266-0.23047 1-0.91406 2.1484-1.543 3.5-1.8086 1.9961-0.39453 4.0469-0.0625 5.8594 0.85938 1.2383 0.62891 2.2422 1.5625 2.9844 2.7344 0.48828 0.77344 0.80859 1.5781 1.1172 2.4258 0.09375 0.25391 0.29688 0.51172 0.5625 0.52344 0.80078 0.042969 1.3281-1.6758 1.5781-2.3594l1.8438-5.0586 1.875-5.332c0.75391-2.1445 1.5156-4.2461 2.4531-6.3125 1.1875-2.625 3.0703-5.625 6.2578-5.7891 2.4805-0.12891 4.6797 1.293 5.6016 3.5977 1.6055 4.0078-0.8125 9.8867-2.4414 13.684z"/> </svg>