<svg xmlns="http://www.w3.org/2000/svg" version="1.1" viewBox="9.5 6.97 80.97 86.05">  <desc>Created by Lewen Design, downloaded from Noun Project. They can be found at this link: https://thenounproject.com/browse/collection-icon/hand-and-gesture-191281/ (CC BY 3.0)</desc><path fill="currentColor" d="m90.449 41.414c-0.070313-1.168-0.33594-2.2852-0.80469-3.3594-0.66406-1.6797-2.3086-3.2891-2.3086-3.2891l0.1875-0.27734c2.9688-4.8984 1.1445-10.734-3.4727-13.875 0.67578-3.8281-0.89062-7.4688-3.8086-9.9492-3.8867-3.3125-9.1484-4.1562-14.086-3.4141-2.0078 0.30078-5.7656 1.6758-5.7656 1.6758s-0.38672-0.09375-0.55859-0.13672c-4.7031-1.1367-9.5781-1.4492-14.395-0.8125-5.332 0.70703-10.117 2.6875-14.184 6.1914-0.28125 0.24219-0.29688 0.19922-0.66016 0.17969l-13.445-0.76562c-1.7891-0.10156-3 1.2383-3.7852 2.6758-0.63672 1.168-1.1133 2.3789-1.5078 3.6523-0.30078 0.97266-0.58203 1.9023-0.80859 2.9023-0.70703 3.1406-1.1758 6.3203-1.4023 9.5391-0.34766 4.9414 0.042969 10.773 1.3555 15.551 0.51562 1.8828 1.4336 4.3633 2.8203 5.7305 0.69531 0.72656 1.5273 1.0195 2.5273 1.0312 3.2617 0.042969 6.4883 0.15234 9.7852 0.34766 0.62891 1.7031 1.4453 3.3047 2.5195 4.7695l2.0938 2.8633c1.4062 1.8555 2.4844 3.7227 2.9805 6.0195 0.84766 3.9414-0.22266 7.2539-1.5625 10.918-0.52344 1.4258-1.0273 2.8203-1.3281 4.3086-0.33984 1.6719-0.16016 3.3672 0.71094 4.8398 0.87891 1.4805 2.2227 2.5781 3.7852 3.2969 1.4492 0.66797 2.9883 0.94922 4.5938 0.97656 6.4219 0.10938 11.895-4.5156 14.465-10.156 2.1211-4.6562 2.4297-10.039 1.5703-15.078 0.63281 0.17578 1.207 0.32031 1.8359 0.44922 2.8125 0.58203 5.6406 0.97266 8.5156 1.1641 3.8945 0.25781 7.8906-0.011718 11.645-1.0547 1.8047-0.5 3.4961-1.25 5.0078-2.3359 3.1562-2.2422 5.1094-5.8555 5.1797-9.7344 0.035157-2.0234-0.54688-3.9883-1.7109-5.6367 2.7617-2.2617 4.2305-5.6484 4.0117-9.1992zm-31.383-27.645c2.3867-2.3398 5.9141-3.2461 9.1719-3.4805 3.7617-0.27344 7.6719 0.60156 10.41 3.3125 1.6133 1.5977 2.3516 3.5195 2.3008 5.7891-3.6602-1.2422-8.25-1.4727-12.023-1.1484-3.4023 0.29297-7.0664 0.94141-10.184 2.4258-0.72656-0.47656-1.207-1.2031-1.4102-2.043-0.4375-1.8125 0.45312-3.5977 1.7305-4.8516zm-0.68359 10.668c0.67188-0.71094 1.457-1.2109 2.3672-1.5977 1.582-0.67188 3.2461-1.0977 4.9492-1.3984 3.8281-0.67969 7.7266-0.73438 11.551-0.054687 1.2148 0.21875 2.3789 0.51953 3.4844 1.043 1.3359 0.60156 2.4883 1.4688 3.3906 2.6016 1.8906 2.375 2.0859 5.6602 0.40234 8.2305-1.7422-1.1055-3.9531-1.6992-6.0156-2.1758-2.707-0.54297-5.4219-0.83594-8.1875-0.94141-3.5195-0.12891-7.8672 0.22266-11.207 1.3633-0.69531-0.36328-1.2422-0.91016-1.5938-1.6289-0.89844-1.8281-0.52344-3.9844 0.85156-5.4414zm25.449 35.797c-1.5977 2.9766-4.6719 4.5234-7.8594 5.2773-2.8867 0.67969-5.8711 0.88672-8.8398 0.71484-3.4336-0.19922-6.8203-0.66797-10.148-1.5-1.1289-0.28125-2.2031-0.58203-3.2773-0.98828-0.42578-0.16406-0.88281-0.13281-1.2266 0.16406-0.31641 0.27344-0.50781 0.70312-0.39453 1.1445l0.41016 1.6055c0.54688 2.1445 0.71484 4.3594 0.67188 6.5898-0.042969 2.2461-0.38281 4.4766-1.0742 6.6055-0.92578 2.8672-2.6094 5.4297-4.9492 7.3164-1.5273 1.2305-3.2773 2.1406-5.2031 2.5312-2.418 0.48828-5.3711 0.007813-7.0977-1.8711-0.74219-0.80859-1.0742-1.8047-0.92969-2.8906 0.10547-0.80469 0.30859-1.5547 0.58203-2.3281l1.293-3.6602c0.54297-1.5391 0.96484-3.0781 1.2109-4.6992 0.69922-4.5898-0.32422-8.8438-3.0469-12.59l-2.2695-3.1211c-1.7148-2.3594-2.9062-4.9688-3.582-7.8086-0.25781-1.0938-0.46094-2.168-0.63672-3.2773-0.10156-0.63672-0.26953-1.582-0.94141-1.6797-0.76563-0.10938-1.0859 0.76562-1.168 1.4414-0.17969 1.5391-0.03125 3.0742 0.33594 4.625-3.1875-0.24219-6.2812-0.31641-9.4688-0.39063-0.13672-0.003906-0.27344-0.23828-0.33984-0.33594-1.5391-2.3008-2.3164-5.8242-2.668-8.5586-0.32422-2.5273-0.48828-5.0508-0.42969-7.6094 0.078125-3.3281 0.45703-6.625 1.1133-9.8828 0.5-2.4688 1.4258-5.8594 2.7695-7.9727 0.074219-0.11719 0.18359-0.25 0.33984-0.23438 0.62109 0.0625 1.1992 0.070313 1.8398 0.10156l10.027 0.49219c0.070312 0.003907 0.19922 0.011719 0.19922 0.011719s-0.027344 0.042969-0.0625 0.097657c-0.57812 0.90234-1.8555 3.0938-1.6953 4.1328 0.042969 0.28516 0.30859 0.48438 0.53125 0.53516 0.74609 0.17969 1.2031-0.67578 1.6758-1.3398 1.4648-2.0508 3.1992-3.9023 5.2539-5.3867 2.3086-1.668 4.9258-2.8477 7.6758-3.5898 4.8008-1.3008 9.5742-1.2188 14.441-0.45703-0.03125-0.003907 0.11719 0.019531 0.11719 0.019531s-0.054688 0.058594-0.089844 0.089844c-1.1445 1.0508-1.9922 2.3711-2.4844 3.8516-0.81641 2.3438-0.28906 5.2617 1.6094 7.0078-1.4844 1.5117-2.2773 3.5234-2.1875 5.6133 0.074219 1.8203 0.82031 3.9141 2.2773 5.0977-0.77344 0.61719-1.3594 1.3828-1.8398 2.2422-1.9062 3.2812-1.4453 7.7461 1.5703 10.156-2.8906 2.0273-4.2148 5.5391-3.5312 8.9883 0.37109 1.8633 1.4258 3.5 2.8789 4.7148 1.1328 0.94531 2.4141 1.5938 3.8242 2.0625 2.3164 0.76953 10.379 1.6953 10.551 0.20703 0.082031-0.69922-0.92188-0.85547-1.4883-0.94531-2.7539-0.4375-5.4102-0.91016-8.0117-1.9375-1.1484-0.45313-2.1875-1.0781-3.0625-1.9297-1.4609-1.4219-1.9766-3.4258-1.4961-5.3867 0.53906-2.2031 2.25-3.832 4.5078-4.2109 1.2578-0.21094 2.5078-0.24219 3.8086-0.23047 3.6055 0.023437 7.1758 0.44531 10.699 1.2031 1.8047 0.39062 3.5586 0.875 5.2617 1.5625 2.6484 1.0664 4.8242 2.9297 5.0078 5.9648 0.097656 1.6094-0.22266 3.2266-0.98828 4.6523zm0.097657-11.715c-0.10938 0.074219-0.32813 0.1875-0.32813 0.1875s-1.1094-0.72266-1.7305-1.0195c-1.4023-0.66797-2.8164-1.2148-4.3281-1.625-1.6602-0.44922-3.3047-0.83594-5.0039-1.1211-2.832-0.47656-5.6484-0.73438-8.5156-0.80859-1.4609-0.039062-2.8555-0.011718-4.3125 0.12891-1.8477-0.55469-3.1523-2.1523-3.2969-4.082-0.074218-0.96094 0.019532-1.9141 0.43359-2.8281 0.55859-1.2422 1.5078-2.2578 2.6992-2.8711 0.85156-0.4375 1.7266-0.67188 2.668-0.87109 2.7578-0.58594 5.5664-0.79297 8.3867-0.69141 3.4727 0.125 7.2656 0.55859 10.535 1.7188 2.293 0.8125 4.2969 2.2461 5.3477 4.4648 1.582 3.3359 0.41016 7.3438-2.5547 9.4141zm-31.508-4.4297c-0.046875 0.52344-0.46484 0.96484-0.99609 0.90625-0.34766-0.039063-0.55078-0.35938-0.65234-0.6875-0.31641-1.0039-0.625-1.9688-1.0586-2.9375-1.2852-2.8711-3.4414-5.2695-6.1914-6.8047-0.72266-0.40234-1.4609-0.67969-2.2344-0.94141-0.28516-0.097656-0.5625-0.20312-0.78125-0.38672-0.36719-0.3125-0.39453-0.78516-0.058593-1.1484 0.30078-0.32812 0.72266-0.47266 1.1797-0.44922 2.8242 0.15625 5.6602 2.1133 7.5078 4.1836 1.4727 1.6523 2.5625 3.6328 3.0703 5.7852 0.19922 0.83984 0.29688 1.6367 0.21875 2.4766z"/> </svg>