<svg xmlns="http://www.w3.org/2000/svg" version="1.1" viewBox="9.98 7.5 80.02 85">  <path d="m88.539 52.074c-0.51172-1.8594-1.418-4.3125-2.7891-5.6641-0.6875-0.71875-1.5117-1.0078-2.4961-1.0195-3.2227-0.042969-6.4102-0.15234-9.6719-0.34375-0.62109-1.6797-1.4297-3.2656-2.4883-4.7148l-2.0703-2.8281c-1.3906-1.832-2.457-3.6758-2.9453-5.9492-0.83984-3.8945 0.22266-7.168 1.543-10.789 0.51562-1.4102 1.0156-2.7891 1.3125-4.2578 0.33594-1.6523 0.16016-3.3281-0.70312-4.7812-0.86719-1.4609-2.1992-2.5469-3.7383-3.2578-1.4336-0.66016-2.9531-0.9375-4.5391-0.96484-6.3477-0.10938-11.758 4.4648-14.297 10.039-2.0977 4.6016-2.3984 9.9219-1.5508 14.902-0.625-0.17578-1.1914-0.31641-1.8164-0.44531-2.7812-0.57422-5.5742-0.96484-8.418-1.1523-3.8516-0.25781-7.7969 0.011719-11.508 1.043-1.7852 0.49609-3.4531 1.2344-4.9531 2.3086-3.1211 2.2148-5.0508 5.7852-5.1172 9.6211-0.035157 2 0.53906 3.9414 1.6914 5.5703-2.7305 2.2344-4.1797 5.582-3.9648 9.0938 0.070313 1.1562 0.33203 2.2578 0.79297 3.3203 0.65625 1.6602 2.2812 3.25 2.2812 3.25s-0.1875 0.27344-0.1875 0.27344c-2.9336 4.8438-1.1328 10.609 3.4297 13.715-0.66797 3.7852 0.88281 7.3828 3.7617 9.832 3.8438 3.2734 9.043 4.1094 13.922 3.375 1.9844-0.29688 5.6992-1.6562 5.6992-1.6562s0.37891 0.09375 0.55469 0.13672c4.6484 1.1211 9.4688 1.4336 14.23 0.80469 5.2734-0.69531 10-2.6562 14.016-6.1211 0.27734-0.23828 0.29297-0.19922 0.65234-0.17578l13.289 0.75781c1.7695 0.10156 2.9688-1.2266 3.7422-2.6445 0.63281-1.1523 1.1016-2.3516 1.4883-3.6094 0.29688-0.96094 0.57422-1.8789 0.79688-2.8711 0.69922-3.1055 1.1602-6.2461 1.3867-9.4258 0.34375-4.8828-0.042969-10.648-1.3398-15.371zm-72.074-0.60938c0.10547-0.074219 0.32422-0.1875 0.32422-0.1875s1.0977 0.71484 1.7109 1.0078c1.3867 0.66016 2.7852 1.2031 4.2773 1.6055 1.6406 0.44141 3.2656 0.82422 4.9492 1.1055 2.8008 0.47266 5.582 0.72656 8.418 0.79688 1.4414 0.035156 2.8242 0.011719 4.2617-0.12891 1.8281 0.54688 3.1133 2.1289 3.2617 4.0352 0.074219 0.94922-0.019531 1.8906-0.42969 2.793-0.55469 1.2266-1.4922 2.2344-2.668 2.8359-0.83984 0.43359-1.707 0.66406-2.6367 0.86328-2.7266 0.57812-5.5039 0.78516-8.2891 0.68359-3.4297-0.125-7.1797-0.55078-10.414-1.6992-2.2656-0.80469-4.25-2.2188-5.2891-4.4102-1.5625-3.2969-0.40625-7.2578 2.5273-9.3047zm24.574 34.344c-2.3594 2.3125-5.8477 3.207-9.0664 3.4414-3.7188 0.26953-7.582-0.59375-10.289-3.2734-1.5938-1.5781-2.3242-3.4805-2.2734-5.7227 3.6211 1.2266 8.1523 1.457 11.883 1.1367 3.3594-0.28906 6.9844-0.92969 10.066-2.3945 0.71875 0.47266 1.1914 1.1914 1.3945 2.0195 0.43359 1.7891-0.44531 3.5547-1.7109 4.7969zm0.67578-10.547c-0.66406 0.70312-1.4375 1.1953-2.3398 1.5781-1.5625 0.66406-3.207 1.0859-4.8945 1.3828-3.7852 0.67188-7.6367 0.72656-11.418 0.050782-1.2031-0.21484-2.3516-0.51563-3.4453-1.0312-1.3203-0.59766-2.4609-1.4492-3.3516-2.5703-1.8711-2.3477-2.0625-5.5938-0.39844-8.1328 1.7227 1.0938 3.9062 1.6797 5.9453 2.1523 2.6758 0.53906 5.3594 0.82812 8.0938 0.92969 3.4766 0.12891 7.7734-0.22266 11.078-1.3477 0.6875 0.35937 1.2266 0.89844 1.5742 1.6094 0.88672 1.8086 0.51953 3.9375-0.84375 5.3789zm45.066-10.375c-0.074219 3.293-0.44922 6.5508-1.1016 9.7695-0.49219 2.4414-1.4102 5.793-2.7383 7.8789-0.074218 0.11328-0.18359 0.24609-0.33594 0.23047-0.61719-0.058594-1.1875-0.070313-1.8203-0.10156l-9.9102-0.48828c-0.070312-0.003906-0.19922-0.011719-0.19922-0.011719s0.027344-0.042968 0.0625-0.097656c0.57031-0.89062 1.8359-3.0547 1.6758-4.082-0.042968-0.28125-0.30469-0.47656-0.52734-0.53125-0.73828-0.17969-1.1875 0.66797-1.6602 1.3242-1.4453 2.0273-3.1641 3.8555-5.1953 5.3242-2.2812 1.6484-4.8672 2.8125-7.5859 3.5469-4.7461 1.2852-9.4609 1.2031-14.273 0.44922 0.03125 0.003906-0.11328-0.019531-0.11328-0.019531s0.054687-0.058594 0.089844-0.085937c1.1328-1.0391 1.9688-2.3438 2.457-3.8047 0.80469-2.3164 0.28516-5.1992-1.5938-6.9258 1.4688-1.4961 2.25-3.4844 2.1641-5.5469-0.074219-1.7969-0.8125-3.8672-2.25-5.0352 0.76562-0.61328 1.3438-1.3633 1.8203-2.2148 1.8867-3.2461 1.4297-7.6562-1.5508-10.039 2.8555-2.0039 4.1641-5.4727 3.4883-8.8828-0.36328-1.8438-1.4102-3.4609-2.8477-4.6602-1.1211-0.9375-2.3867-1.5781-3.7812-2.0391-2.2891-0.76172-10.258-1.6758-10.43-0.20312-0.078125 0.69141 0.91016 0.84375 1.4688 0.93359 2.7227 0.43359 5.3477 0.90234 7.918 1.9141 1.1328 0.44531 2.1641 1.0664 3.0273 1.9062 1.4414 1.4062 1.9531 3.3867 1.4766 5.3242-0.53125 2.1758-2.2227 3.7852-4.4531 4.1602-1.2422 0.20703-2.4766 0.23828-3.7656 0.23047-3.5625-0.023437-7.0898-0.4375-10.574-1.1875-1.7852-0.38281-3.5195-0.86719-5.2031-1.543-2.6172-1.0547-4.7656-2.8945-4.9531-5.8945-0.097656-1.5898 0.22266-3.1914 0.97656-4.6016 1.582-2.9414 4.6172-4.4727 7.7656-5.2148 2.8555-0.67188 5.8047-0.875 8.7383-0.70703 3.3945 0.19531 6.7422 0.66016 10.027 1.4844 1.1133 0.27734 2.1758 0.57422 3.2383 0.97656 0.42188 0.16016 0.875 0.13281 1.2109-0.16406 0.3125-0.27344 0.50391-0.69531 0.39062-1.1289l-0.40234-1.5859c-0.53906-2.1211-0.70703-4.3086-0.66406-6.5156 0.042969-2.2227 0.37891-4.4219 1.0586-6.5273 0.91406-2.832 2.5781-5.3633 4.8906-7.2305 1.5078-1.2188 3.2383-2.1172 5.1445-2.5039 2.3867-0.48438 5.3086-0.007813 7.0156 1.8516 0.73438 0.79687 1.0625 1.7812 0.91797 2.8594-0.10547 0.79688-0.30859 1.5391-0.57422 2.3008l-1.2773 3.6172c-0.53906 1.5234-0.95313 3.0391-1.1992 4.6445-0.69141 4.5352 0.32031 8.7422 3.0117 12.441l2.2422 3.0859c1.6953 2.332 2.875 4.9102 3.5391 7.7188 0.25781 1.082 0.45703 2.1406 0.63281 3.2383 0.10156 0.62891 0.26562 1.5664 0.92969 1.6602 0.75391 0.10547 1.0742-0.75391 1.1523-1.4258 0.17578-1.5234 0.03125-3.0391-0.33203-4.5703 3.1523 0.24219 6.2109 0.3125 9.3555 0.38281 0.13672 0.003907 0.26953 0.23438 0.33594 0.33203 1.5195 2.2734 2.2891 5.7578 2.6367 8.4609 0.32031 2.5 0.48438 4.9922 0.42578 7.5195zm-27.398 1.6836c0.36328 0.30859 0.39063 0.77344 0.058594 1.1367-0.29688 0.32422-0.71484 0.46875-1.1641 0.44141-2.7891-0.15234-5.5977-2.0859-7.4219-4.1367-1.457-1.6328-2.5312-3.5938-3.0312-5.7188-0.19531-0.82812-0.29297-1.6211-0.21875-2.4492 0.046875-0.51562 0.46094-0.95703 0.98438-0.89453 0.34375 0.039062 0.54297 0.35547 0.64453 0.67969 0.3125 0.99219 0.61719 1.9453 1.0469 2.9023 1.2695 2.8398 3.3984 5.207 6.1211 6.7266 0.71484 0.39844 1.4414 0.67188 2.207 0.93359 0.28125 0.09375 0.55469 0.19922 0.77344 0.38281z"/> </svg>