<svg xmlns="http://www.w3.org/2000/svg" version="1.1" viewBox="4.97 5.62 90.05 88.77">  <desc>Created by Lewen Design, downloaded from Noun Project. They can be found at this link: https://thenounproject.com/browse/collection-icon/hand-and-gesture-191281/ (CC BY 3.0)</desc><path fill="currentColor" d="m94.117 71.43c-0.99609-1.9336-2.6875-3.3789-4.6953-4.1719-1.3203-0.46875-2.6562-0.74219-4.0703-0.77734l-11.023-0.28906c3.0117-2.9805 3.3555-7.9648 1.293-11.531-0.63281-1.0781-1.4297-2.0039-2.457-2.7344 0.84375-1.6289 0.89063-3.9375 0.48438-5.6875-0.57813-3.1367-2.9648-6.1875-6.1055-7.1719 0.36328-1.6641 0.25781-3.3398-0.19922-4.9492-0.60938-2.1367-1.9336-4.0352-3.7344-5.3398-4.1094-2.9727-8.6094-2.0703-13.023-0.76953-2.1992 0.66406-4.3203 1.4375-6.4531 2.2852-1.082 0.42969-2.1211 0.84375-3.1836 1.3633l1.5703-4.3945c0.57031-1.5898 0.85156-3.2227 0.97266-4.9102 0.23828-3.2852-0.63672-7.0547-2.2539-9.918-1.7227-3.0469-4.457-5.7188-7.9453-6.5469-2.5352-0.60156-5.2148-0.070313-7.2812 1.4883-1.5156 1.1406-2.3984 2.7891-2.4375 4.7109-0.023438 1.1758 0.16406 2.3125 0.33594 3.4883 0.23438 1.6016 0.45312 3.1602 0.60156 4.7695 0.089843 0.96484 0.074219 1.9453-0.082031 2.9023-0.60156 3.6641-2.5703 7.4219-4.5781 10.523-1.8711 2.8906-3.5039 5.5469-4.707 8.7969-1.4023 3.6914-2.125 7.2656-2.5781 11.156l-6.25 3.6055c-0.52734 0.30469-0.88281 0.83594-0.96875 1.4414-0.38672 2.7539-1.1328 10.906 2.1719 18.352 2.6719 6.0195 7.8867 11.133 15.219 15.633l0.125 0.074219c0.44531 0.27344 1.4883 0.875 2.2773 1.3281 0.58984 0.33984 1.3281 0.26562 1.8438-0.17969l1.3281-1.1484h0.015625c0.66797-0.59766 1.3828-1.125 2.0938-1.707l2.457-2.0117c2.8242 0.5 5.6797 0.62891 8.5391 0.41016 3.3477-0.27344 6.6328-0.93359 9.8203-1.9961 3.707-1.2344 7.2734-2.875 10.633-4.875 6.3164 0.55469 12.52 1.0625 18.855 1.0859 2.3164 0.007813 4.5938-0.10156 6.8594-0.5 3.0508-0.53906 5.7578-2.2852 6.8789-5.2422 0.80859-2.1289 0.69531-4.5352-0.35156-6.5625zm-2.7383 5.0664c-0.40625 1.3398-1.3867 2.3633-2.668 2.8789-0.60938 0.24609-1.1914 0.39062-1.8477 0.49609-2.1094 0.33984-4.1992 0.4375-6.3477 0.41406-2.8203-0.035156-5.6211-0.10156-8.4375-0.3125l-10.68-0.80859c-0.078126-0.007812-0.15234 0.011719-0.22266 0.046876-0.40234 0.22656-1.8633 1.0469-1.9922 1.1133-5.707 3.0781-11.434 5.2266-17.965 5.7422-3.9453 0.3125-7.8555-0.13281-11.613-1.3203-0.60156-0.19141-1.8008-0.57422-2.1211 0.12109-0.52344 1.1289 1.7383 1.9492 2.5664 2.2148l-4.7266 3.668c-13.223-7.7891-18.832-17.766-17.121-30.418l2.9805-1.832c0.73438-0.45312 1.4336-0.88281 2.1406-1.3711 0.035156-0.023437 0.066406-0.050781 0.09375-0.046875 0.019531 0.003907 0.050781 2.5859 1.1523 2.5625 1.0781-0.023437 1.0703-1.7188 1.1484-2.5352l0.21875-2.3359c0.22656-2.3867 0.58984-4.7617 1.1914-7.082 0.85938-3.3281 2.0664-6.5586 3.8945-9.4648l2.207-3.5078c1.1133-1.7695 2.1094-3.582 2.9375-5.5078 0.98828-2.3047 1.6836-4.7227 1.7852-7.2383 0.0625-1.5469-0.11719-3.043-0.32812-4.5703l-0.61719-4.4375c-0.066406-0.48438-0.16406-0.99219-0.019531-1.4648 0.17578-0.57031 0.60938-1.0195 1.0742-1.3867 0.61719-0.48828 1.3359-0.82812 2.1133-0.96484 3.7617-0.66797 6.875 2.4609 8.375 5.5234 1.7539 3.5859 2.0781 7.7539 0.75781 11.543l-1.7969 5.1406c-0.33203 0.94922-0.61719 1.9219-0.73047 2.9219-0.019531 0.17969-0.023438 0.35547 0.007812 0.55078-1.2773 0.63672-3.7852 1.8906-4.5781 3.0156-0.1875 0.26953-0.19141 0.60938-0.027344 0.85547 0.36719 0.54688 1.1641 0.14062 1.6602-0.089844l6.7305-3.1172 5.4258-2.2812c2.4961-1.0508 7.293-2.5469 9.9688-2.9258 1.3867-0.19531 2.7578-0.11328 4.0664 0.37891 2.5078 0.94922 4.4453 4.1055 4.3164 6.7852-0.027343 0.58984-0.13672 1.1719-0.36719 1.7188-0.11328 0.27344-0.46875 0.56641-0.74609 0.66797-2.9531 1.1016-5.8477 2.2695-8.7266 3.5547-0.57031 0.25391-1.1016 0.53125-1.5859 0.89062-0.27734 0.20312-0.40234 0.53125-0.35156 0.84375 0.11328 0.67969 1.0039 0.78906 1.6992 0.59766 0.75-0.21094 1.4375-0.49219 2.1758-0.76953 2.6758-1.0039 5.2891-2.0625 8.0078-2.9609 0.69141-0.23047 1.4883 0.007812 2.125 0.27344 2.6094 1.0898 4.0703 3.9727 3.918 6.707-0.0625 1.0977-0.46484 2.1172-1.168 2.9453l-3.0273 1.3047-6.5469 2.8242c-0.52734 0.22656-1.0156 0.46484-1.4453 0.8125-0.28906 0.23047-0.42188 0.59766-0.32812 0.94531 0.082031 0.30078 0.39062 0.54297 0.75 0.59375 0.48828 0.070312 0.96484-0.050782 1.4492-0.23047 2.8125-1.0391 5.5742-2.1602 8.3438-3.3164 0.59375-0.24609 1.125-0.48047 1.6953-0.78516 3.0039 1.3633 4.0156 5.1523 2.8516 8.0703-0.47656 1.1953-1.3086 2.0938-2.4023 2.7227-1.2656 0.73047-2.5625 1.3047-3.9141 1.8438l-2.0352 0.81641c-0.53516 0.21484-1.3281 0.57031-1.2344 1.2383 0.03125 0.23047 0.19531 0.43359 0.41797 0.55859 0.74219 0.41797 2.2422 0.015625 3.0742-0.21484 6.082 0.42969 12.133 0.6875 18.23 0.84375 1.1016 0.027344 2.1602 0.17578 3.1797 0.59766 2.3711 0.97656 3.7578 3.4062 2.9844 5.9609z"/> </svg>