<svg xmlns="http://www.w3.org/2000/svg" version="1.1" viewBox="5.37 5 89.22 90">  <path d="m90 54.723c-0.86328-0.71094-1.6367-1.2227-2.4297-1.6367-1.9844-1.0195-4.207-1.543-6.6172-1.543-0.16406 0-0.32812 0.011719-0.49219 0.011719-3.2109 0.09375-6.4922 1.0898-9.5 2.8711l-1.5352 0.91406c-0.14453 0.082031-0.28906 0.125-0.43359 0.125-0.69922 0-1.0195-0.97656-1.1641-1.8125-0.18359-1.0898-0.16406-2.2656 0.0625-3.6953 0.63672-4.0547 3.4062-11.359 5.0117-15.016l3.7773-8.6328c1.5938-3.6641 3.1094-7.1211 3.375-11.031 0.10156-1.5352-0.082032-2.9648-0.53516-4.25-0.85547-2.418-2.5742-4.2617-4.8555-5.1953-1.3086-0.54688-2.7383-0.83203-4.1367-0.83203-1.5859 0-3.1484 0.37109-4.5078 1.0586-1.625 0.83203-3.0469 2.0586-4.1992 3.6445-0.79297 1.0898-1.4805 2.2539-2.0977 3.5703-0.82422 1.7188-1.543 3.5508-2.2344 5.5977-1.6055 4.7969-3.1094 9.8984-4.457 15.074l-0.16406 0.6875-0.44141-0.41016c-1.5742-1.3164-3.8281-2.0469-6.3594-2.0469-1.1523 0-2.3164 0.15625-3.375 0.46484-1.625 0.46484-3.0156 1.3164-4.1172 2.5312l-0.18359 0.19531-0.21484-0.14453c-1.1406-0.76172-2.6758-1.1641-4.4258-1.1641-1.9336 0-3.9531 0.48438-5.5273 1.3281-0.50391 0.28906-1.0508 0.61719-1.5859 1.0898l-0.35938 0.32031-0.14453-0.45312c-0.92578-2.9414-1.75-5.9883-2.5117-9.3008l-0.90625-3.9531c-0.54688-2.4062-1.0078-4.4766-2.4609-6.4531-0.90625-1.2344-2.1094-2.1094-3.5-2.5508-0.79297-0.25781-1.625-0.37891-2.4609-0.37891-3.0781 0-5.8867 1.6875-7.3281 4.4141-0.95703 1.8203-1.4805 3.8398-1.5625 5.9883-0.070313 1.8203 0.10156 3.7148 0.52344 5.9375 0.47266 2.418 1.0078 4.5898 1.6562 6.6289l2.0586 6.5039 2.1797 6.6562c0.61719 1.8516 1.0703 3.4766 1.4297 5.0938l0.011719 0.050781-0.011719 0.050781c-0.48438 4.125-0.40234 7.4922 0.26562 11.258 0.26562 1.5352 0.67969 3.0781 1.2539 4.7422 1.4609 4.1992 4.0547 7.9648 7.3047 10.598l0.10156 0.082032 0.011719 0.14453c0.10156 1.75 0.28906 3.4258 0.53516 5.3906l0.14453 1.1211 0.26172 2.0742c0.10547 0.82812 0.67188 1.5352 1.4648 1.793 0.66797 0.21875 1.3398 0.42188 2.0078 0.60938 5.0234 1.4414 10.125 2.1523 15.23 2.1523 6.5664 0 13.109-1.1836 19.5-3.5391 0.25-0.089843 0.67969-0.25781 1.1367-0.4375 1.0195-0.40234 1.582-1.5 1.3164-2.5625-0.10547-0.43359-0.21094-0.86328-0.29297-1.1875-0.28906-1.2227-0.56641-2.4688-0.8125-3.7031l-0.042969-0.21484 0.18359-0.11328c2.2031-1.3281 4.3125-3.1797 5.6992-4.457 1.2969-1.1953 2.4609-2.1602 3.6523-3.0352 1.957-1.4414 4.1055-2.4297 6.3906-2.9414 2.7266-0.61719 4.7344-0.66016 7.2852-0.71094l0.77344-0.011719c1.1328-0.03125 2.0898-0.14453 3.0039-0.37891 1.668-0.43359 3.0352-1.4805 3.8398-2.9648 0.78125-1.4102 1.1641-3.0352 1.1094-4.6836-0.10156-3.6016-1.7812-6.9961-4.6016-9.332zm1.4492 10.238c-0.0625 0.94531-0.35156 1.8008-0.85547 2.5312-0.8125 1.1719-2.2227 1.3672-3.6211 1.4102l-2.0391 0.050781c-4.1367 0.10156-8.5625 0.54688-12.789 3.0664-1.1719 0.69922-2.0469 1.3164-2.8516 2.0078l-3.8789 3.3555c-2.6641 2.3164-4.9922 3.9102-8.3242 4.7227-1.3594 0.32812-2.7773 0.53516-4.457 0.64844-0.37891 0.03125-1.0391 0.18359-1.2031 0.9375-0.13281 0.55469 0.10156 1.0703 0.62891 1.3672 0.57812 0.32812 1.4492 0.50391 2.543 0.50391 1.7891 0 3.7266-0.45312 4.8477-0.89453l0.33984-0.13281 0.86328 3.8984c-11.258 4.2383-23.09 4.6016-34.461 1.0586-0.019531-0.10156-0.03125-0.19531-0.042968-0.29688-0.011719-0.019531-0.011719-0.042968-0.011719-0.0625-0.24609-1.8438-0.50391-3.6953-0.66797-5.5469 0 0 2.7461 1.0078 3.6719 1.082 0.070313 0.011719 0.14453 0.011719 0.21484 0.011719 0.56641 0 1.0391-0.18359 1.3906-0.55469 0.41016-0.42188 0.52344-0.96875 0.29688-1.4414-0.25781-0.56641-0.79297-0.8125-1.1836-0.91406l-0.18359-0.050781c-0.75-0.20703-1.4609-0.39062-2.1914-0.73047-1.8203-0.83203-3.293-1.7891-4.4961-2.9219-1.6367-1.5352-3.0469-3.4883-4.1797-5.793-2.2734-4.6602-3.1172-10.434-2.4492-16.711 0.070313-0.57812 0-1.0273-0.125-1.5625-0.59766-2.6133-1.3906-5.3516-2.4922-8.6328l-1.4492-4.3438c-1.2461-3.6719-2.8398-8.8281-3.4258-12.504-0.39063-2.4492-0.64844-5.3203 0.45312-8.0664 0.43359-1.0586 1.0508-1.9141 1.8516-2.543 0.86328-0.6875 1.9648-1.0586 3.0977-1.0586 0.53516 0 1.0586 0.082032 1.5547 0.24609 2.2852 0.76172 3.168 3.8594 3.3867 4.7852l1.5234 6.4414c0.9375 3.9922 1.957 7.543 3.1094 10.855 0.26562 0.77344 0.55469 1.5859 0.96875 2.3789l0.070312 0.125-0.050781 0.125c-1.3594 3.8281-1.6445 9.0664-0.75 13.664 0.64844 3.3242 2.1914 6.2578 4.25 8.0352 1.4922 1.3086 3.5586 2.0586 5.6602 2.0586 2.0586 0 3.9414-0.71094 5.332-1.9844 0.37109-0.32031 1-1.2227 1-1.2227l0.27734 0.25781c0.76172 0.71875 1.7188 1.2148 2.8711 1.4727l0.55469 0.125-0.41016 0.40234c-1.5625 1.4922-4.2383 4.5586-4.5781 8.2852-0.050781 0.56641 0.03125 1.0078 0.26563 1.3984 0.17578 0.28906 0.44141 0.44141 0.76172 0.44141 0.050782 0 0.10156 0 0.15625-0.011719 0.30859-0.050781 0.60547-0.32812 0.71094-0.66797 0.35156-1.1719 0.71875-2.3867 1.3359-3.5391 1.2852-2.3672 3.0547-4.4648 5.2891-6.2344 2.2734-1.8008 4.9492-3.1484 7.9219-3.9844l0.15625-0.050782c0.42188-0.11328 0.78125-0.21484 1.1523-0.39062 0.41016-0.19531 0.71875-0.66797 0.52344-1.1406-0.19531-0.37109-0.59766-0.54688-1.2461-0.54688-0.49219 0-1.0273 0.10156-1.4727 0.20703l-0.56641 0.13281 0.20703-0.53516c0.9375-2.5117 1.1133-6.3594 0.49219-11.145-0.125-1-0.42187-3.3359-1.1211-4.1562-0.17578-0.19531-0.39062-0.30859-0.61719-0.30859-0.050781 0-0.10156 0.011718-0.15625 0.019531-0.32812 0.070313-0.71094 0.30859-0.66797 1.5352l0.10156 3.375c0.10156 2.9844 0.22656 6.6992-0.58594 9.457-0.33984 1.1328-0.76172 1.9141-1.3594 2.5508-1.1836 1.2656-2.7773 1.957-4.4883 1.957-0.47266 0-0.95703-0.050781-1.4297-0.15625-2.5312-0.56641-3.3555-2.4922-3.8594-4.4883-0.79297-3.0664-1.1719-6.957-1.0898-10.93l0.011719-0.32812c0.019531-0.875 0.03125-1.6992-0.011719-2.5508-0.019531-0.35938-0.18359-0.69922-0.42188-0.86328-0.11328-0.070313-0.24609-0.11328-0.39062-0.11328-0.29688 0-0.59766 0.19531-0.73047 0.49219-0.24609 0.51562-0.39062 1.0703-0.51562 1.8438-0.8125 5.4023-0.39062 11.062 1.1523 15.125l0.042969 0.11328-0.050782 0.11328c-0.71094 1.8008-2.4688 2.9219-4.5898 2.9219-1.1328 0-2.2344-0.33984-3.1094-0.95703-3.4883-2.4297-4.3828-8.4297-4.6094-11.781-0.19531-2.8086-0.019531-5.3086 0.50391-7.6445 0.23828-1.0273 0.56641-1.7695 1.0586-2.3984 1.1953-1.5234 3.375-2.4297 5.8438-2.4297 0.30859 0 0.61719 0.019531 0.91406 0.042969 1.6367 0.16406 2.5195 0.89453 3.1602 1.4414 0.42187 0.35156 0.73047 0.59766 1.082 0.59766 0.082031 0 0.17578-0.011718 0.26562-0.042968 0.33984-0.10156 0.64844-0.37109 0.86328-0.75 0.79297-1.3984 2.0391-2.3867 3.5898-2.8594 0.77344-0.22656 1.5859-0.33984 2.418-0.33984 0.80078 0 1.6055 0.10156 2.3867 0.32031 1.4805 0.40234 2.6758 1.2344 3.5586 2.5l0.11328 0.15625c0.26562 0.37891 0.51562 0.75 0.83203 1.0703 0.24609 0.25781 0.55469 0.40234 0.88672 0.40234 0.24609 0 0.48438-0.082032 0.69922-0.24609 0.26562-0.19531 0.46484-0.48438 0.58594-0.85547 0.23828-0.67969 0.44141-1.3906 0.6875-2.3672 1.3594-5.4336 2.7266-10.742 4.6016-15.949l1.0703-2.9648c0.55469-1.543 1.2539-3.0156 2.1523-4.5273 1.8438-3.1094 4.1875-4.6914 6.9648-4.6914 0.46484 0 0.94531 0.050781 1.4297 0.13281 2.4492 0.45312 4.3008 2.2031 4.8359 4.5703 0.24609 1.0703 0.26562 2.2422 0.0625 3.5-0.54688 3.2812-1.9141 6.3477-3.2305 9.3008l-0.070312 0.16406c-2.4297 5.4531-5.7539 12.926-7.6367 19.336-0.71875 2.4492-1.4609 5.3086-1.2148 8.2031 0.10156 1.1328 0.33984 2.0898 0.74219 2.9336 0.71875 1.5234 1.9844 2.4375 3.3867 2.4375 0.37109 0 0.75-0.0625 1.1328-0.19531 0.60547-0.20703 1.2031-0.49219 1.9336-0.95703 1.6875-1.0703 3.1602-1.7695 4.6289-2.2031 1.4727-0.44141 2.9336-0.66016 4.332-0.66016 0.61719 0 1.2344 0.042969 1.8438 0.13281 2.4375 0.35156 4.5469 1.4102 6.1133 3.0781 1.8516 1.9766 2.8281 4.5469 2.6875 7.0391z"/> </svg>